<svg xmlns="http://www.w3.org/2000/svg" xmlns:xlink="http://www.w3.org/1999/xlink" width="485" zoomAndPan="magnify" viewBox="0 0 363.75 326.250004" height="435" preserveAspectRatio="xMidYMid meet" version="1.0"><defs><clipPath id="f16ff5e279"><path d="M 0.292969 0 L 363.207031 0 L 363.207031 325.5 L 0.292969 325.5 Z M 0.292969 0 " clip-rule="nonzero"/></clipPath></defs><g clip-path="url(#f16ff5e279)"><path fill="#000000" d="M 304.578125 201.007812 L 290.429688 225.503906 L 270.304688 260.371094 C 254.867188 287.105469 251.105469 288.265625 220.707031 288.265625 L 141.472656 288.265625 C 110.613281 288.265625 107.730469 285.589844 92.519531 259.25 L 73.042969 225.507812 L 58.894531 201.007812 C 60.074219 201.082031 61.261719 201.117188 62.449219 201.117188 L 116.519531 201.117188 C 142.535156 201.117188 163.808594 183.855469 163.808594 162.757812 C 163.808594 141.660156 142.535156 124.386719 116.519531 124.386719 L 62.449219 124.386719 C 61.261719 124.386719 60.074219 124.425781 58.894531 124.503906 L 73.042969 100 L 93.171875 65.132812 C 108.601562 38.398438 112.363281 37.25 142.769531 37.25 L 221.988281 37.25 C 252.867188 37.25 255.746094 39.925781 270.941406 66.257812 L 290.425781 100 L 304.574219 124.503906 C 303.402344 124.425781 302.214844 124.386719 301.019531 124.386719 L 246.964844 124.386719 C 220.949219 124.386719 199.660156 141.660156 199.660156 162.757812 C 199.660156 183.855469 220.949219 201.117188 246.964844 201.117188 L 301.019531 201.117188 C 302.214844 201.117188 303.402344 201.078125 304.578125 201.007812 M 347.953125 200.367188 L 322.683594 244.132812 L 296.585938 289.339844 C 276.566406 324.007812 271.691406 325.503906 232.257812 325.503906 L 129.53125 325.503906 C 89.5 325.503906 85.769531 322.035156 66.046875 287.890625 L 40.789062 244.132812 L 14.691406 198.925781 C -5.328125 164.25 -4.195312 159.28125 15.527344 125.136719 L 40.789062 81.378906 L 66.890625 36.171875 C 86.90625 1.496094 91.777344 0 131.210938 0 L 233.9375 0 C 273.972656 0 277.707031 3.476562 297.421875 37.621094 L 322.683594 81.378906 L 348.789062 126.585938 C 368.800781 161.253906 367.664062 166.222656 347.953125 200.367188 Z M 347.953125 200.367188 " fill-opacity="1" fill-rule="evenodd"/></g></svg>