<svg id="Layer_1" enable-background="new 0 0 512 512" viewBox="0 0 512 512" xmlns="http://www.w3.org/2000/svg"><g><path d="m72.511 429.316 208.438-73.923 183.015 41.157c23.462-37.584 37.035-81.978 37.035-129.548 0-135.309-109.689-244.998-244.998-244.998s-244.999 109.689-244.999 244.998c0 62.267 23.242 119.096 61.506 162.32z" fill="#02c0fc"/><path d="m345.428 209.214-38.116 125.101 38.116 160.846c21.389-8.39 41.305-19.706 59.268-33.447l20.182-96.732v-113.877z" fill="#ffda4c"/><path d="m72.511 22.004v407.312c16.83 19.015 36.569 35.396 58.52 48.445l214.397-403.817v-51.94z" fill="#ade9f7"/><path d="m188.882 73.944c-18 0-32.593 14.592-32.593 32.593v290.281l130.619 113.235c20.392-2.569 40.007-7.631 58.52-14.893v-421.216z" fill="#e8f8fc"/><path d="m450.816 264.782-25.939-13.677c-10.384 6.137-20.182 16.245-20.182 32.543v178.066c23.456-17.944 43.576-40.027 59.268-65.163v-109.974c0-9.141-5.061-17.531-13.147-21.795z" fill="#fef156"/><path d="m174.894 37.21c-62.171 0-80.933 0-103.715 0-10.233 0-18.605-8.372-18.605-18.605 0-10.232 8.372-18.605 18.605-18.605h103.714l14.673 18.605z" fill="#fc51a3"/><path d="m317.009 37.21c-47.218 0-72.48 0-142.115 0-10.233 0-18.605-8.372-18.605-18.605s8.372-18.605 18.604-18.605h142.113l14.878 18.605z" fill="#fd77a6"/><path d="m365.365 18.605c0-10.232-8.372-18.605-18.605-18.605h-29.754c-10.231.002-18.602 8.373-18.602 18.605 0 10.233 8.372 18.605 18.605 18.605h29.751c10.233 0 18.605-8.372 18.605-18.605z" fill="#fea2c8"/><path d="m136.99 70.944c-11.164 0-20.299 9.135-20.299 20.299v9.444c0 11.164 9.134 20.299 20.299 20.299 11.164 0 20.299-9.134 20.299-20.299v-9.444c0-11.164-9.134-20.299-20.299-20.299z" fill="#1d8df2"/><path d="m208.969 70.944c-11.164 0-20.299 9.135-20.299 20.299v9.444c0 11.164 9.134 20.299 20.299 20.299 11.164 0 20.299-9.134 20.299-20.299v-9.444c0-11.164-9.134-20.299-20.299-20.299z" fill="#27a6ff"/><path d="m280.949 70.944c-11.164 0-20.299 9.135-20.299 20.299v9.444c0 11.164 9.134 20.299 20.299 20.299 11.164 0 20.299-9.134 20.299-20.299v-9.444c-.001-11.164-9.135-20.299-20.299-20.299z" fill="#27a6ff"/><path d="m136.99 149.08c-11.164 0-20.299 9.134-20.299 20.299v9.444c0 11.164 9.134 20.299 20.299 20.299 11.164 0 20.299-9.135 20.299-20.299v-9.444c0-11.164-9.134-20.299-20.299-20.299z" fill="#1d8df2"/><path d="m208.969 149.08c-11.164 0-20.299 9.134-20.299 20.299v9.444c0 11.164 9.134 20.299 20.299 20.299 11.164 0 20.299-9.135 20.299-20.299v-9.444c0-11.164-9.134-20.299-20.299-20.299z" fill="#27a6ff"/><path d="m280.949 149.08c-11.164 0-20.299 9.134-20.299 20.299v9.444c0 11.164 9.134 20.299 20.299 20.299 11.164 0 20.299-9.135 20.299-20.299v-9.444c-.001-11.164-9.135-20.299-20.299-20.299z" fill="#27a6ff"/><path d="m136.99 227.216c-11.164 0-20.299 9.134-20.299 20.299v9.444c0 11.164 9.134 20.299 20.299 20.299 11.164 0 20.299-9.134 20.299-20.299v-9.444c0-11.164-9.134-20.299-20.299-20.299z" fill="#1d8df2"/><path d="m208.969 227.216c-11.164 0-20.299 9.134-20.299 20.299v9.444c0 11.164 9.134 20.299 20.299 20.299 11.164 0 20.299-9.134 20.299-20.299v-9.444c0-11.164-9.134-20.299-20.299-20.299z" fill="#27a6ff"/><path d="m280.948 227.216c-11.164 0-20.299 9.134-20.299 20.299v9.444c0 11.164 9.134 20.299 20.299 20.299 11.164 0 20.299-9.134 20.299-20.299v-9.444c0-11.164-9.134-20.299-20.299-20.299z" fill="#27a6ff"/><path d="m136.99 305.352c-11.164 0-20.299 9.134-20.299 20.299v9.444c0 11.164 9.134 20.299 20.299 20.299 11.164 0 20.299-9.134 20.299-20.299v-9.444c0-11.164-9.134-20.299-20.299-20.299z" fill="#1d8df2"/><path d="m208.969 305.352c-11.164 0-20.299 9.134-20.299 20.299v9.444c0 11.164 9.134 20.299 20.299 20.299 11.164 0 20.299-9.134 20.299-20.299v-9.444c0-11.164-9.134-20.299-20.299-20.299z" fill="#27a6ff"/><path d="m280.948 305.352c-11.164 0-20.299 9.134-20.299 20.299v9.444c0 11.164 9.134 20.299 20.299 20.299 11.164 0 20.299-9.134 20.299-20.299v-9.444c0-11.164-9.134-20.299-20.299-20.299z" fill="#27a6ff"/><path d="m404.696 305.352c-11.164 0-20.299 9.134-20.299 20.299v9.444c0 11.164 9.134 20.299 20.299 20.299 11.164 0 20.299-9.134 20.299-20.299v-9.444c-.001-11.164-9.135-20.299-20.299-20.299z" fill="#fea53d"/><path d="m404.696 383.488c-11.164 0-20.299 9.134-20.299 20.299v9.444c0 11.164 9.134 20.299 20.299 20.299 11.164 0 20.299-9.134 20.299-20.299v-9.444c-.001-11.165-9.135-20.299-20.299-20.299z" fill="#fea53d"/><path d="m208.969 396.819h-59.333l18.605 98.966c13.073 5.02 26.688 8.945 40.728 11.68l20.299-58.817z" fill="#27a6ff"/><path d="m208.969 396.819v110.646c13.227 2.577 26.831 4.098 40.728 4.449l18.605-115.095z" fill="#02c0fc"/><path d="m268.303 396.819c-10.233 0-18.605 8.372-18.605 18.605v96.49c2.095.053 4.195.086 6.303.086 10.471 0 20.783-.671 30.908-1.947 0-32.201 0-64.92 0-94.63-.001-10.232-8.374-18.604-18.606-18.604z" fill="#3f57a0"/><path d="m149.636 396.819c-10.233 0-18.605 8.372-18.605 18.605v62.337c11.797 7.013 24.243 13.044 37.21 18.023 0-27.517 0-55.033 0-80.361 0-10.232-8.372-18.604-18.605-18.604z" fill="#3f57a0"/><path d="m288.706 386.444c-26.953 0-111.614 0-159.475 0-10.232 0-18.604 8.373-18.604 18.605 0 10.233 8.372 18.605 18.605 18.605h159.474c10.233 0 18.605-8.372 18.605-18.605 0-10.232-8.372-18.605-18.605-18.605z" fill="#5071b7"/></g><g/><g/><g/><g/><g/><g/><g/><g/><g/><g/><g/><g/><g/><g/><g/></svg>