<svg xmlns="http://www.w3.org/2000/svg" version="1.1" xmlns:xlink="http://www.w3.org/1999/xlink" width="512" height="512" x="0" y="0" viewBox="0 0 512 512" style="enable-background:new 0 0 512 512" xml:space="preserve" class=""><g><linearGradient id="a" x1="42.647" x2="469.353" y1="527.354" y2="100.648" gradientTransform="matrix(1 0 0 -1 0 514)" gradientUnits="userSpaceOnUse"><stop offset="0" stop-color="#64b5f6"></stop><stop offset="1" stop-color="#1976d2"></stop></linearGradient><path fill="url(#a)" d="M462 0H50C22.39 0 0 22.39 0 50v299.999c0 27.61 22.39 50 50 50h90.68v86.95c0 22.6 27.6 33.6 43.14 17.2l98.69-104.15H462c27.61 0 50-22.39 50-50V50c0-27.61-22.39-50-50-50zM143.99 241.869c-23.13 0-41.87-18.74-41.87-41.87s18.74-41.87 41.87-41.87 41.87 18.74 41.87 41.87-18.75 41.87-41.87 41.87zm112.01 0c-23.13 0-41.87-18.74-41.87-41.87s18.74-41.87 41.87-41.87 41.87 18.74 41.87 41.87-18.74 41.87-41.87 41.87zm112.01 0c-23.12 0-41.87-18.74-41.87-41.87s18.75-41.87 41.87-41.87 41.87 18.74 41.87 41.87-18.74 41.87-41.87 41.87z" opacity="1" data-original="url(#a)" class=""></path></g></svg>