<svg id="Capa_1" enable-background="new 0 0 510 510" height="512" viewBox="0 0 510 510" width="512" xmlns="http://www.w3.org/2000/svg" xmlns:xlink="http://www.w3.org/1999/xlink"><linearGradient id="lg1"><stop offset="0" stop-color="#60b7ff"/><stop offset=".5857" stop-color="#0182fc"/><stop offset="1" stop-color="#2740b0"/></linearGradient><linearGradient id="SVGID_1_" gradientUnits="userSpaceOnUse" x1="-8.26" x2="617.214" xlink:href="#lg1" y1="260.128" y2="260.128"/><linearGradient id="SVGID_2_" gradientUnits="userSpaceOnUse" x1="-122" x2="547.319" xlink:href="#lg1" y1="248.516" y2="248.516"/><linearGradient id="SVGID_3_" gradientUnits="userSpaceOnUse" x1="-36.015" x2="516.641" xlink:href="#lg1" y1="255" y2="255"/><linearGradient id="lg2"><stop offset="0" stop-color="#a2e62e"/><stop offset=".5857" stop-color="#81b823"/><stop offset="1" stop-color="#037e73"/></linearGradient><linearGradient id="SVGID_4_" gradientUnits="userSpaceOnUse" x1="7" x2="531.077" xlink:href="#lg2" y1="226" y2="226"/><linearGradient id="SVGID_5_" gradientUnits="userSpaceOnUse" x1="7" x2="531.077" xlink:href="#lg2" y1="392.208" y2="392.208"/><linearGradient id="SVGID_6_" gradientUnits="userSpaceOnUse" x1="7" x2="531.077" xlink:href="#lg2" y1="277.507" y2="277.507"/><linearGradient id="SVGID_7_" gradientUnits="userSpaceOnUse" x1="176" x2="404.682" xlink:href="#lg2" y1="277.507" y2="277.507"/><linearGradient id="SVGID_8_" gradientUnits="userSpaceOnUse" x1="-7.87" x2="464.655" xlink:href="#lg2" y1="226" y2="226"/><linearGradient id="SVGID_9_" gradientUnits="userSpaceOnUse" x1="-39.368" x2="307.322" xlink:href="#lg2" y1="392.208" y2="392.208"/><g><path d="m510 255c0 140.833-114.167 255-255 255-43.523 0-84.499-10.904-120.346-30.128-29.51-15.826-44.783-37.291-65.9-62.954-19.931-24.221-46.241-52.183-56.201-82.672-8.147-24.944-12.553-51.581-12.553-79.246 0-47.079 12.758-91.178 35.006-129.029 44.304-75.376 126.24-107.251 219.994-107.251 28.051 0 55.044-14.19 80.288-5.823 101.495 33.641 174.712 129.322 174.712 242.103z" fill="url(#SVGID_1_)"/><path d="m311.751 35.908c-25.666-8.683-53.164-13.392-81.762-13.392-59.498 0-109.168 25.446-152.549 59.602-13.443 13.795-30.4 24.042-40.462 40.589s-18.293 34.33-24.413 53.07c1.087 1.319 2.31 2.552 3.699 3.649 6.401 5.054 14.904 6.577 22.661 4.059l69.373-22.524c8.401-2.728 17.621-.513 23.866 5.733l16.665 16.665c6.748 6.748 8.743 16.907 5.049 25.706-5.323 12.679 1.333 27.198 14.413 31.441l20.05 6.503c3.023.98 5.67 2.872 7.577 5.414 5.037 6.717 3.774 16.229-2.842 21.398l-8.106 6.333c-7.562 5.908-11.982 14.97-11.982 24.567v7.16c0 12.292 6.051 23.795 16.18 30.759l13.909 9.562c1.263.868 2.678 1.491 4.172 1.836l8.206 1.894c17.309 3.994 30.569 17.924 33.708 35.408 1.202 6.695.849 13.576-1.032 20.113l-13.658 47.479c-2.245 7.804 3.613 15.585 11.734 15.585 3.075 0 6.036-1.16 8.293-3.248l52.325-48.42c7.374-6.823 13.363-15.004 17.641-24.094l11.683-24.826c3.864-8.211 6.269-17.032 7.108-26.069l4.543-48.968c1.98-21.341-7.327-42.167-24.548-54.928-10.562-7.826-23.359-12.051-36.504-12.051h-9.362c-13.934 0-25.682-10.384-27.394-24.212-1.236-9.983 3.057-19.848 11.205-25.748l10.347-7.492c3.578-2.591 7.726-4.285 12.095-4.941l25.383-3.808c17.628-2.644 33.018-13.349 41.629-28.957 11.145-20.2 11.711-44.572 1.518-65.268-8.243-16.734-22.748-29.601-40.418-35.579z" fill="url(#SVGID_2_)"/><path d="m255 0c-6.735 0-13.407.266-20.01.778 131.479 10.206 234.99 120.124 234.99 254.222s-103.511 244.016-234.99 254.222c6.603.512 13.275.778 20.01.778 73.476 0 139.694-31.076 186.227-80.802 0 0 66.773-106.842 66.773-174.198 0-49.15-35.997-133.988-35.997-133.988-44.939-72.628-125.321-121.012-217.003-121.012z" fill="url(#SVGID_3_)"/><g><path d="m377.179 48.97c-8.242-16.734-22.747-29.6-40.417-35.578-25.666-8.684-53.164-13.392-81.762-13.392-93.478 0-175.206 50.299-219.6 125.308-6.226 10.52-3.718 24.026 5.876 31.602 6.401 5.054 14.904 6.577 22.661 4.059l69.373-22.524c8.401-2.728 17.621-.513 23.866 5.733l16.665 16.665c6.748 6.748 8.743 16.907 5.049 25.706-5.323 12.679 1.333 27.198 14.413 31.441l20.05 6.503c3.023.981 5.67 2.872 7.577 5.414 5.037 6.717 3.774 16.229-2.842 21.398l-8.106 6.333c-7.562 5.909-11.982 14.971-11.982 24.568v7.16c0 12.291 6.051 23.795 16.18 30.759l13.909 9.562c1.263.868 2.678 1.491 4.172 1.836l8.206 1.894c17.309 3.994 30.569 17.924 33.708 35.408 1.202 6.695.849 13.576-1.032 20.113l-13.658 47.479c-2.245 7.805 3.613 15.585 11.734 15.585 3.075 0 6.036-1.16 8.293-3.248l52.325-48.42c7.374-6.824 13.363-15.004 17.641-24.095l11.683-24.826c3.864-8.211 6.269-17.032 7.108-26.068l4.543-48.968c1.98-21.341-7.327-42.167-24.548-54.928-10.562-7.826-23.359-12.051-36.504-12.051h-9.362c-13.934 0-25.682-10.384-27.394-24.212-1.236-9.983 3.057-19.848 11.205-25.748l10.347-7.492c3.578-2.591 7.726-4.285 12.095-4.941l25.383-3.808c17.628-2.644 33.018-13.349 41.629-28.957 11.143-20.202 11.71-44.574 1.516-65.27z" fill="url(#SVGID_4_)"/><path d="m103.422 379.35c-17.341-8.609-30.991-23.19-38.44-41.06l-8.093-19.415c-3.308-7.936-10.689-13.43-19.24-14.322-16.97-1.77-30.1 14.574-24.73 30.769 20.694 62.401 64.841 114.103 121.995 144.672l3.697-37.025c2.641-26.46-11.371-51.794-35.189-63.619z" fill="url(#SVGID_5_)"/><path d="m471.989 121.021-1.597 2.994c-13.454 25.227-9.758 56.166 9.26 77.513 11.174 12.542 17.348 28.753 17.348 45.55 0 19.659-8.449 38.369-23.197 51.368l-19.946 17.582c-12.963 11.426-20.389 27.872-20.389 45.151v5.218c0 10.233-2.609 20.297-7.58 29.241l-8.885 15.984c-2.239 4.028-2.511 8.859-.737 13.113 4.218 10.119 17.458 12.457 24.95 4.452 42.659-45.582 68.784-106.83 68.784-174.187 0-49.151-13.919-95.044-38.011-133.979z" fill="url(#SVGID_6_)"/></g><path d="m471.989 121.021-1.597 2.994c-13.454 25.227-9.758 56.166 9.26 77.513 11.174 12.542 17.348 28.753 17.348 45.55 0 19.659-8.449 38.369-23.197 51.368l-9.024 7.954c-7.665 37.447-23.534 71.9-45.655 101.403l-2.122 3.819c-2.239 4.028-2.511 8.859-.737 13.113 4.218 10.119 17.458 12.457 24.95 4.452 42.66-45.582 68.785-106.83 68.785-174.187 0-49.151-13.919-95.044-38.011-133.979z" fill="url(#SVGID_7_)"/><path d="m286.208 159.436 10.347-7.492c3.578-2.591 7.726-4.285 12.095-4.941l25.383-3.808c17.628-2.644 33.018-13.349 41.629-28.957 11.145-20.2 11.711-44.572 1.518-65.268-8.242-16.734-22.747-29.6-40.417-35.578-25.667-8.684-53.165-13.392-81.763-13.392-6.738 0-13.412.27-20.018.783 21.439 1.664 42.136 5.97 61.76 12.609 17.67 5.978 32.175 18.844 40.417 35.578 10.194 20.696 9.627 45.068-1.518 65.268-8.611 15.608-24.001 26.313-41.629 28.957l-25.383 3.808c-4.369.655-8.517 2.35-12.095 4.941l-10.347 7.492c-8.147 5.9-12.44 15.765-11.205 25.748 1.712 13.828 13.46 24.212 27.394 24.212h9.362c13.145 0 25.943 4.225 36.504 12.051 17.22 12.76 26.528 33.586 24.548 54.928l-4.543 48.968c-.838 9.036-3.244 17.857-7.108 26.068l-11.683 24.826c-4.278 9.09-10.267 17.271-17.641 24.095l-29.915 27.682-2.417 8.4c-2.245 7.805 3.613 15.585 11.734 15.585 3.075 0 6.036-1.16 8.293-3.248l52.325-48.42c7.374-6.824 13.363-15.004 17.641-24.095l11.683-24.826c3.864-8.211 6.269-17.032 7.108-26.068l4.543-48.968c1.98-21.341-7.327-42.167-24.548-54.928-10.562-7.826-23.359-12.051-36.504-12.051h-9.362c-13.934 0-25.682-10.384-27.394-24.212-1.235-9.983 3.058-19.847 11.206-25.747z" fill="url(#SVGID_8_)"/><path d="m103.422 379.35c-17.341-8.609-30.991-23.19-38.44-41.06l-8.093-19.415c-3.308-7.936-10.689-13.43-19.24-14.322-5.574-.582-10.728.801-14.954 3.481 4.036 2.538 7.284 6.283 9.183 10.841l8.093 19.415c7.449 17.87 21.099 32.45 38.44 41.06 23.818 11.825 37.83 37.158 35.188 63.619l-2.266 22.699c7.58 5.179 15.443 9.974 23.581 14.326l3.697-37.025c2.641-26.46-11.371-51.794-35.189-63.619z" fill="url(#SVGID_9_)"/></g></svg>