<svg id="Layer_1" height="512" viewBox="0 0 512 512" width="512" xmlns="http://www.w3.org/2000/svg" data-name="Layer 1"><path d="m224.224 481.892h-165.472v-52.815h165.472v52.814zm71.946-252.751h186.4a17.854 17.854 0 0 1 17.8 17.8v238.759a17.854 17.854 0 0 1 -17.8 17.8h-186.4a17.853 17.853 0 0 1 -17.8-17.8v-238.757a17.854 17.854 0 0 1 17.8-17.8zm18.612 31.414a5.01 5.01 0 0 0 -5 5v30.318a5.009 5.009 0 0 0 5 5h149.174a5.008 5.008 0 0 0 5-5v-30.318a5.009 5.009 0 0 0 -5-5zm123.567 100h25.607a5.009 5.009 0 0 0 5-5v-25.602a5.009 5.009 0 0 0 -5-5h-25.607a5.01 5.01 0 0 0 -5 5v25.606a5.01 5.01 0 0 0 5 5zm-61.783 0h25.606a5.01 5.01 0 0 0 5-5v-25.602a5.01 5.01 0 0 0 -5-5h-25.606a5.01 5.01 0 0 0 -5 5v25.606a5.01 5.01 0 0 0 5 5zm-61.784 0h25.607a5.01 5.01 0 0 0 5-5v-25.602a5.01 5.01 0 0 0 -5-5h-25.607a5.01 5.01 0 0 0 -5 5v25.606a5.01 5.01 0 0 0 5 5zm61.784 56.549h25.606a5.01 5.01 0 0 0 5-5v-25.604a5.01 5.01 0 0 0 -5-5h-25.606a5.01 5.01 0 0 0 -5 5v25.606a5.01 5.01 0 0 0 5 5zm-61.784 0h25.607a5.01 5.01 0 0 0 5-5v-25.604a5.01 5.01 0 0 0 -5-5h-25.607a5.01 5.01 0 0 0 -5 5v25.606a5.01 5.01 0 0 0 5 5zm123.567 56.549h25.607a5.009 5.009 0 0 0 5-5v-82.153a5.009 5.009 0 0 0 -5-5h-25.607a5.01 5.01 0 0 0 -5 5v82.155a5.01 5.01 0 0 0 5 5zm-61.783 0h25.606a5.01 5.01 0 0 0 5-5v-25.602a5.01 5.01 0 0 0 -5-5h-25.606a5.01 5.01 0 0 0 -5 5v25.606a5.01 5.01 0 0 0 5 5zm-61.784 0h25.607a5.01 5.01 0 0 0 5-5v-25.602a5.01 5.01 0 0 0 -5-5h-25.607a5.01 5.01 0 0 0 -5 5v25.606a5.01 5.01 0 0 0 5 5zm-52.413-45.746v-30.2h-159.737a8 8 0 0 1 0-16h159.737v-29.007h-159.737a8 8 0 0 1 0-16h159.737v-37.022h-16.7a8.016 8.016 0 0 1 -8-8v-125.078a8.016 8.016 0 0 1 8-8h23.861a8.016 8.016 0 0 1 8 8v52.183a33.543 33.543 0 0 1 18.64-5.646h11.108v-83.022a8.016 8.016 0 0 1 8-8h23.863a8.016 8.016 0 0 1 8 8v83.026h45.814v-183.56a21.122 21.122 0 0 0 -21.081-21.081h-193.94v90.269a35.079 35.079 0 0 1 -35.034 35.031h-90.267v279.278h183.785l25.951 14.833zm-106.609-413.233a21.134 21.134 0 0 1 6.174-4.347v88.442a19.071 19.071 0 0 1 -19.034 19.031h-88.44a21.152 21.152 0 0 1 4.347-6.175zm137.773 72.789-170.533 98.458a7.965 7.965 0 0 1 -7.937-13.813l170.5-98.436-13.891-2.75a7.992 7.992 0 1 1 3.062-15.687l34.73 6.876a8 8 0 0 1 5.912 10.757l-11.29 33.164a7.985 7.985 0 0 1 -15.125-5.125l4.577-13.444zm-187.086 144.123h23.862a8.016 8.016 0 0 1 8 8v52.092a8.016 8.016 0 0 1 -8 8h-23.862a8.016 8.016 0 0 1 -8-8v-52.092a8.016 8.016 0 0 1 8-8zm69.61-36.49h23.862a8.016 8.016 0 0 1 8 8v88.582a8.016 8.016 0 0 1 -8 8h-23.862a8.016 8.016 0 0 1 -8-8v-88.578a8.016 8.016 0 0 1 8-8zm64.105 238.551 26.055 14.893a8.01 8.01 0 0 1 0 13.891l-26.056 14.893v-43.677zm-197.348 48.244h-19.184a12.023 12.023 0 0 1 -12-12v-28.814a12.023 12.023 0 0 1 12-12h19.185z" fill-rule="evenodd"/></svg>