<svg id="Layer_1" height="512" viewBox="0 0 512 512" width="512" xmlns="http://www.w3.org/2000/svg" data-name="Layer 1"><path d="m16.913 55.194h102.652a13.451 13.451 0 0 1 13.413 13.412v388.128a13.452 13.452 0 0 1 -13.413 13.413h-102.652a13.453 13.453 0 0 1 -13.413-13.413v-388.128a13.452 13.452 0 0 1 13.413-13.412zm275.095 13.683 99.154-26.568a13.451 13.451 0 0 1 16.427 9.484l100.455 374.907a13.451 13.451 0 0 1 -9.484 16.427l-99.154 26.569a13.451 13.451 0 0 1 -16.427-9.484l-100.455-374.912a13.451 13.451 0 0 1 9.484-16.427zm45.78 27.561a12.023 12.023 0 0 0 -8.485 14.7l54.386 202.971a12.023 12.023 0 0 0 14.7 8.486l27.508-7.371a12.024 12.024 0 0 0 8.486-14.7l-54.39-202.971a12.022 12.022 0 0 0 -14.7-8.485l-27.508 7.37zm83.577 256.9a34.119 34.119 0 1 0 41.787 24.126 34.119 34.119 0 0 0 -41.787-24.126zm-162.516-298.144h-102.649a13.452 13.452 0 0 0 -13.413 13.412v388.128a13.453 13.453 0 0 0 13.413 13.413h102.649a13.453 13.453 0 0 0 13.413-13.413v-388.128a13.452 13.452 0 0 0 -13.413-13.412zm-37.087 38.471a12.023 12.023 0 0 1 12 12v210.135a12.023 12.023 0 0 1 -12 12h-28.478a12.023 12.023 0 0 1 -12-12v-210.135a12.023 12.023 0 0 1 12-12zm-14.239 269.773a34.119 34.119 0 1 1 -34.123 34.119 34.12 34.12 0 0 1 34.119-34.119zm-153.523-269.773a12.023 12.023 0 0 0 -12 12v210.135a12.023 12.023 0 0 0 12 12h28.478a12.022 12.022 0 0 0 12-12v-210.135a12.022 12.022 0 0 0 -12-12zm14.239 269.773a34.119 34.119 0 1 0 34.119 34.119 34.12 34.12 0 0 0 -34.119-34.119z" fill-rule="evenodd"/></svg>