<svg xmlns="http://www.w3.org/2000/svg" version="1.1" xmlns:xlink="http://www.w3.org/1999/xlink" width="512" height="512" x="0" y="0" viewBox="0 0 473.66 415.1" style="enable-background:new 0 0 512 512" xml:space="preserve" class=""><g><path d="M.6 5.2C.3 8.1 0 17.6 0 26.2v15.7l5.3 3.9c5 3.7 9.8 6.9 54.7 36.4 24.8 16.2 43.8 29.8 41.8 29.8-.3 0-2.8-1.1-5.6-2.5-2.9-1.4-5.4-2.5-5.7-2.5-3.4 0-62.9-32.8-79.1-43.6C7 60.4 3.1 58 2.7 58c-1.4 0-.6 6.5 2.4 18.7 1.7 6.9 3.5 13.5 4 14.7.6 1.1 3.3 3.4 6.2 5 8.8 4.8 48.7 24.9 57.7 29 4.7 2.2 13.9 6.5 20.5 9.6 6.6 3.2 12.7 6 13.5 6.3.9.3.5.6-1 .6-3.5.1-29.4-7-41-11.2-15.4-5.7-32-13-42-18.5-8.5-4.8-11-5.9-11-4.8 0 .7 7.9 23.1 9.4 26.7 1.9 4.6 2.1 4.7 14.6 10.4 16.8 7.7 28.9 11.3 74 22.4l8.5 2.1-18-.4c-17.6-.5-22.5-1.1-41-5.6-8-1.9-20.1-5.7-26.2-8.1-1.8-.7-3.5-1.1-3.8-.8s.5 2.6 1.8 5 3.3 6.9 4.6 9.9c4.8 11.2 5.9 12.3 15.7 15.3C66 188.6 77 190 100 190.7c11.8.3 22.1.9 22.8 1.3.7.3-4.2 1.7-11 3.1-10.5 2-15.2 2.4-31.8 2.4-13 0-20.9-.5-23.9-1.3-2.3-.7-4.5-1.1-4.8-.9-.2.3 2.2 4.7 5.3 9.8 9.4 15.7 8.2 14.6 17.7 15.4 11.7 1 40.8-3.5 53-8.1 6-2.3 7.6-1.7 3.4 1.2-10.7 7.2-35 16-47.3 17.1-4.1.3-7.7.9-7.9 1.3-.3.4 3.2 4.6 7.8 9.4 6.4 6.7 8.8 8.6 10.9 8.6 7.1 0 31.9-9.8 45.8-18.1 3.9-2.3 7.3-4 7.5-3.7 1 1-11.3 12.1-19.3 17.5-4.5 3-12.9 7.5-18.5 9.9-5.9 2.5-10.2 4.9-10.2 5.7 0 1.8 12.3 12.6 15.2 13.3 5.3 1.4 27.2-13.6 42.4-28.9 5.9-6 6-4.3.1 5.5-5.6 9.4-17.1 21-27.4 27.5l-9 5.7 2.3 1.9c1.3 1.1 5.3 3.4 8.9 5.2 5.9 3 6.8 3.2 9.5 2 10.7-4.5 27.2-21.7 36.6-38.1 1.8-3.2 3.4-5.3 3.7-4.6.7 2.2-5.8 19.9-9.6 26.2-5 8.2-12.3 16.3-18.3 20.4-3.6 2.4-4.6 3.6-3.7 4.2 2.9 2.1 17.9 6.6 20.2 6 3.5-.9 15.8-14.4 20.6-22.6 6.1-10.4 9.2-19.5 13.7-40l.5-2.5 1 2.5c1.5 3.8.2 25.3-2 33.5-6.1 22.4-19.4 41.6-42.1 60.3-13.5 11.2-19.6 15.7-31.6 23.1l-9.7 6 7.4 5.3c10.2 7.6 12.1 8.8 13.3 8.8 1.5 0 20.2-16.4 32.8-28.8 5.9-5.8 10.7-10 10.7-9.4 0 2.9-25.9 40.4-30.5 44.2-.8.7-1.5 1.8-1.5 2.4 0 1.2 20.3 10.6 22.7 10.6 1.1 0 7.7-11 16.8-28.5 5.7-11.1 7.5-13.9 8.1-13.2.5.5-6.7 25.2-10.5 35.9-1.7 4.7-3.1 9.1-3.1 9.6 0 1.3 22.9 7.7 23.9 6.6.4-.5 2-6.8 3.6-13.9 5.4-25.4 5.6-25.5 5-2.7l-.6 20.3 12.8-.3 12.8-.3-.2-21c-.3-19-.1-20.6 1.1-17 1.6 4.6 6.6 30 6.6 33.5 0 2 .4 2.2 3.6 1.7 6.7-1.1 21.4-6.1 21.4-7.3 0-.6-.9-4-2.1-7.5-4.6-14.3-10.9-37.2-10.4-37.7.6-.7-.8-3.2 11.4 21 5.8 11.5 11 20.8 11.5 20.8 1.6 0 21.9-8 23.3-9.2.9-.7-.3-2.9-5-8.6-7.5-9.2-16.1-22.1-21.2-31.7l-3.8-7 10.9 10.5c5.9 5.8 11.1 10.8 11.4 11.1.6.6 16.8 13.8 18.7 15.2.7.5 2.8 0 5.5-1.4 4-2 6.3-3.6 13.9-9.9l3-2.5-11.1-6.8c-14-8.6-23.9-16.5-36.1-28.7-16.7-16.7-27.9-34.2-32.2-50.5-2.2-8.3-3.7-25.8-2.9-33l.7-6 1.4 5c8 30.2 13 40.4 26.2 53.7l6.7 6.7 4.9-1.3c8-2.2 15.3-4.8 15.8-5.7.3-.4-1.5-2.1-3.9-3.8-8.9-6.1-18.8-21.1-23.7-35.7-4.3-12.7-3.4-14.2 2.5-4.1 6.2 10.8 14.9 21.2 25.1 30 7 6.1 8.3 6.8 11 6.3 3.8-.8 18.5-7.7 18.5-8.7 0-.4-2.6-2.3-5.7-4.3-12.1-7.3-28.3-26.1-33.7-39.1-.9-2.1-1.5-3.7-1.2-3.4 23.3 22.6 27 25.9 35.6 31.1 5.1 3.2 10.3 5.8 11.5 5.8s3.5-1 5.1-2.3c6.6-4.9 13.4-11.1 13.4-12.2 0-.6-3.6-2.6-7.9-4.3-12.5-5.2-31.2-18.4-37-26.3-3-4.1-1.4-3.6 7.1 2.2 12.7 8.7 40.1 19.9 44.8 18.4 2.5-.8 17.5-16 17.5-17.8 0-.8-2.5-1.5-7-2-12.8-1.4-35.3-9.7-46.1-17.1-4.3-2.9-3.5-3.3 2.8-1.2 21.7 7.1 48.4 10.5 59 7.5 3.3-.8 4.8-2.5 11.3-11.7 7.4-10.7 8.9-14 5.9-12.8-11 4.2-55.4 2.8-68.4-2.2-4.1-1.6-1-2 21-2.6 22.4-.6 40.6-3.1 51.8-6.9 5.9-2 6.9-2.8 9.3-6.9 3.2-5.4 9.9-20.6 9.9-22.4 0-.8-3.2 0-9.1 2.2-19.5 7.4-39.4 11.3-61.4 12-18 .6-18.6-.2-2.5-3.5 27.9-5.9 72.7-20.9 79-26.6 1.7-1.5 6.7-15.5 10.6-29.8.7-2.4-.9-2.1-6.4 1.2-6.9 4.3-30.6 15-46.2 20.9-13.3 5-29.7 9.6-37.5 10.5-2.2.2-3.2.2-2.3 0s2.2-1.1 2.8-1.9c.7-.8 1.6-1.4 2-1.4 2.4 0 78.3-37.5 85.5-42.2 6-4 7.6-7.8 9.9-24.5.9-6 1.8-11.8 2.2-12.7.5-1.3.2-1.5-1.2-1-1.1.4-2.8 1.5-3.9 2.4-3 2.5-29.3 18.8-43 26.5-11.9 6.8-41.7 21.5-46.5 23-2.1.7-2.2.6-1-.7 3.1-3.1 17.9-13.4 51.9-36.2 45.7-30.7 43.7-29.2 44.5-34.1s-.4-34.9-1.5-36.6c-.6-1-2.2-.3-6.4 2.6-14.8 10.5-22.7 15.6-43 27.9-20.2 12.1-53.7 32-62 36.6C330.1 86.1 313 96.4 313 97.8c0 .7 1.1 3.2 2.5 5.6 5.4 9.2 8.5 21.1 8.5 32.6 0 16.5-7 32.1-18.6 41.3-6.4 5.1-16.2 10.7-18.7 10.7-2.4 0-12.1-12.6-16.2-20.8-4.9-10-6.9-19.1-5.6-25.4 2.2-9.9 6.6-14.9 15.2-17.2 6.7-1.7 14.3-.6 16.2 2.5 1.6 2.6 2.4 2.4 3.2-1.1.9-4.2-1.2-13.8-4-18.1-2.7-4.2-9.5-7.9-14.6-7.9-1.9 0-5.8-.9-8.6-2-11.1-4.2-26.5-7.5-35.4-7.5-7.8 0-9.1.3-16 3.7-9 4.5-17.6 11.6-23.5 19.5-2.4 3.2-4.4 6.1-4.4 6.5 0 .7 4-.7 13.4-4.7 2.1-.9 3.6-1.2 3.5-.8-.2.4-2.9 6-6 12.3-6.4 13-13.9 38.2-13.9 46.4 0 1.6-.5 5.8-1.2 9.3-1.3 7.2-1 7.1-9.7 2-11.4-6.7-20.8-19-24.7-32.2-1.2-4.1-1.7-9.2-1.7-16 .1-11.5 2.8-20.9 8.8-30.7 1.9-3.1 3.5-6 3.5-6.5 0-.6-7.3-5-16.2-9.8-27.3-14.8-45-24.7-50.5-28.2-2.9-1.8-5.4-3.3-5.6-3.3-.6 0-5.6-3.1-36.1-21.7-24-14.7-38.9-24.6-48-31.7C5.3 2.1 2.3 0 2 0 1.6 0 1 2.4.6 5.2zM256 107.8c7.8.5 9.2 1.5 5.2 3.6-4.3 2.2-9.4 2-12.6-.5-3-2.4-3.6-5.6-.8-4.4.9.5 4.6 1 8.2 1.3z" fill="current" opacity="1" data-original="current" class=""></path></g></svg>