<svg xmlns="http://www.w3.org/2000/svg" version="1.1" xmlns:xlink="http://www.w3.org/1999/xlink" width="512" height="512" x="0" y="0" viewBox="0 0 55 55" style="enable-background:new 0 0 512 512" xml:space="preserve" class=""><g><path fill="#fe8b2e" d="M42.353 37.539c.458.656 2.654 4.163 1.53 10.23 0 0-1.572-4.256-2.987-5.016-1.406-.75-4.413-1.405-4.85-5.828 0 0-3.882 5.245-.146 12.041-.302-.083-5.12-1.623-6.9-7.597 0 0-1.686 2.414-.208 5.662-.271-.136-4.486-2.394-5.256-6.87 0 0-2.227 2.52-1.426 5.319 0 0-2.352-1.707-2.488-5.225 0 0-1.717 2.04-1.31 4.871 0 0-1.708-2.519-1.135-5.11 0 0-1.124 2.113-1.124 4.236 0 0-.916-2.57-.417-4.715 0 0-1.915 3.247-2.07 6.11 0 0-1.49-8.379 2.04-18.838.01-.01.03-.01.04-.021 8.202-3.206 15.82-4.84 21.846.437 0 0 .188.146.5.416 0 .01.01.021.031.031 2.338 2.139 4.582 4.66 6.453 7.88 1.717 2.466 3.903 5.38 7.025 7.211-.375-.083-6.4-1.602-9.148-5.224z" opacity="1" data-original="#fe8b2e"></path><path fill="#fb6822" d="M15.501 39.78c-.44.8-1.81 3.47-1.94 5.87 0 0-.35-1.97-.3-5.19.06 2.28.3 3.62.3 3.62.16-2.86 2.08-6.11 2.08-6.11-.14.59-.17 1.22-.14 1.81zM17.091 40.2c-.27.55-1.04 2.3-1.04 4.05 0 0-.74-2.08-.52-4.06.13 1.38.52 2.49.52 2.49 0-2.12 1.13-4.23 1.13-4.23-.13.6-.15 1.19-.09 1.75zM18.311 45.13s-1.55-2.28-1.19-4.73c.23 1.65 1.06 2.96 1.18 3.14-.07.49-.07 1.03.01 1.59zM22.111 45.48s-2.35-1.71-2.49-5.22c0 0-1.08 1.29-1.32 3.23-.37-2.79 1.32-4.8 1.32-4.8.12 2.98 1.83 4.66 2.34 5.1-.05.54-.02 1.11.15 1.69zM28.231 45.14c.08.58.25 1.22.56 1.89-.27-.13-4.49-2.39-5.26-6.87 0 0-1.23 1.4-1.52 3.28-.46-2.6 1.52-4.85 1.52-4.85.62 3.6 3.47 5.77 4.7 6.55zM35.031 47.06c.22.62.51 1.26.87 1.91-.3-.09-5.12-1.63-6.9-7.6 0 0-.6.85-.76 2.22-.31-2.26.76-3.79.76-3.79 1.36 4.56 4.49 6.54 6.03 7.26zM44.181 43.7c.06 1.19-.02 2.55-.3 4.07 0 0-1.57-4.26-2.99-5.02-1.4-.75-4.41-1.4-4.85-5.82 0 0-1.52 2.05-1.74 5.25-.28-4.09 1.74-6.82 1.74-6.82.44 4.42 3.45 5.08 4.85 5.82 1.42.76 2.99 5.02 2.99 5.02.17-.89.26-1.73.3-2.5zM48.031 40c-1.17-.507-3.413-.436-5.555-2.536a.615.615 0 0 0-.116-.082c.02.081.03.147.057.24 2.873 4.5 8.764 5.067 9.084 5.137-1.31-.77-2.46-1.73-3.47-2.76zM17.091 40.2l.09-.18c-.03.13-.05.26-.06.38l-.03-.2z" opacity="1" data-original="#fb6822"></path><path fill="#fb6822" d="M18.301 43.49c0 .02.01.05.01.07 0 0 0-.01-.01-.02-.01-.02 0-.04 0-.05z" opacity="1" data-original="#fb6822"></path><path fill="#f2f8fd" d="M36.141 33.98s-1.09-3-2.08-3.53c-.76-.4-2.17-.77-2.93-2.32-.335-.696-.396-1.286-.48-1.79-.03.1-2.703 3.698-.08 8.48 0 0-1.98-.56-3.52-2.65-.01 0-.01-.01-.02-.02-.51-.7-.97-1.57-1.29-2.65-.01 0-.01-.01-.01-.02a.795.795 0 0 1-.07.11c-.057.142-.151.23-.22.46-.26.67-.53 1.91.14 3.41 0 0-2.62-1.32-3.47-4.05-.08-.25-.16-.52-.2-.79 0 0-.02.02-.05.07-.816.997-1.32 2.4-.96 3.68 0 0-1.31-.96-1.65-2.92a4.746 4.746 0 0 1-.08-.71c-.01-.02-.01-.04-.01-.05 0 0-.01.01-.01.03a4.591 4.591 0 0 0-.9 3.4s-.89-1.3-.89-2.82c0-.22.03-.45.07-.68 0-.02.01-.04.01-.06 0 0-.01.01-.01.02-.01.02-.03.05-.05.08-.03.07-.08.18-.14.31V29c-.23.55-.56 1.52-.56 2.5-.012-.1-.64-1.737-.31-3.32 0 0-.01.01-.02.03 0 0 0 .01-.01.01-.27.29-2.14 2.39-2.24 4.25 0 0 .06-3.18 1.62-7.33.028-.113.367-.774.44-2.37.06-3.21-1.92-5.86-1.92-5.86l1.74-7.52-.01-.1s3.56-3.56 8.49-3.03c4.872.52 6.81 4.63 10.98 3.94 0 0-.94 1.39-2.88 1.32 0 0 1.41 1.8 4.05 2.36.1.02.2.04.32.07 0 0-1.06.92-3.65.47 0 0 .02.12.06.34.1.46.31 1.34.75 2.41.01.03.02.05.03.08 1.159 2.76 2.992 5.02 5.71 6.33 0 0-2.86.71-5.57-1.91 1.553 3.414 4.104 6.961 7.23 8.79 0 0-3.31-.8-5.49-2.71-.01-.01-.03-.02-.04-.04-.245-.2-.686-.696-.81-.85.886 1.302 1.58 3.917.99 7.12z" opacity="1" data-original="#f2f8fd"></path><path fill="#a5c0dd" d="M19.281 28.36c.03.03-.04.2-.11.38-.01-.02-.01-.04-.01-.05 0 0-.01.01-.01.03a4.591 4.591 0 0 0-.9 3.4s-.89-1.3-.89-2.82c0-.22.03-.45.07-.68.08.73.24 1.44.47 2.14.179-.716.769-2.044 1.38-2.4z" opacity="1" data-original="#a5c0dd"></path><path fill="#a5c0dd" d="M21.931 28.46c-.01.05-.01.11-.02.16 0 0-.02.02-.05.07-.816.997-1.32 2.4-.96 3.68 0 0-1.31-.96-1.65-2.92-.04-.22-.07-.45-.08-.69.28.82.59 1.63 1.26 2.36-.028-.801.672-1.495 1.5-2.66z" opacity="1" data-original="#a5c0dd"></path><path fill="#a5c0dd" d="M25.931 28.53c-.12.3-.18.63-.2.95a.795.795 0 0 1-.07.11c-.057.142-.151.23-.22.46-.26.67-.53 1.91.14 3.41 0 0-2.62-1.32-3.47-4.05-.08-.25-.16-.52-.2-.79l.018-.184c.51 1.71 1.715 3.3 2.872 3.813.1-1.3.49-2.58 1.13-3.72z" opacity="1" data-original="#a5c0dd"></path><path fill="#a5c0dd" d="M30.781 25.78c-.09-.43-.19-.45-.41-.09-1.421 2.325-1.79 5.038-1.18 7.48a10.372 10.372 0 0 1-3.4-3.594l-.01.041a8.603 8.603 0 0 0 1.25 2.532c.01.01.01.02.02.02 1.54 2.09 3.52 2.65 3.52 2.65-1.58-2.88-1.23-5.37-.7-6.89.36-1.01.78-1.59.78-1.59.046.275.071.548.14.81.02-.11.04-.22.05-.33.04-.35.02-.7-.06-1.04zM41.491 30.46s-3.31-.8-5.49-2.71c-.01-.01-.03-.02-.04-.04-.16-.13-.31-.28-.44-.43 1.04.77 2.19 1.38 3.41 1.81-.95-.94-1.73-2.05-2.29-3.26l.01-.01c1.235 1.728 2.914 3.513 4.84 4.64z" opacity="1" data-original="#a5c0dd"></path><path fill="#a5c0dd" d="M36.141 33.98s-1.09-3-2.08-3.53c-.76-.4-2.17-.77-2.93-2.32-.21-.44-.37-.96-.45-1.6-.01-.49-.072-.6-.052-1.09.41.88.372 1.63 1.012 2.38.36.42.89.65 1.38.93 1.37.78 2.43 2.12 2.88 3.64-.08-1.92-.35-3.83-.8-5.69l.19.32c-.05-.05-.1-.11-.14-.16.886 1.302 1.58 3.917.99 7.12zM34.261 21.67l.11.25c-.34-.32-.69-.63-1.05-.92 1.26.77 2.68 1.28 4.14 1.5-1.784-1.145-2.641-3.258-3.34-5.25 1.159 2.76 2.992 5.02 5.71 6.33 0 0-2.86.71-5.57-1.91zM25.76 10.679c-.477.29-.968.556-1.47.795-3.655 1.74-4.66-.1-5.054.19-.161.118-.013.263.087.382 1.684 1.995 4.838 1.138 6.437-1.367z" opacity="1" data-original="#a5c0dd"></path><path fill="#d0dcee" d="M19.976 14.163c-1.665.549-3.68 1.611-3.903 3.352-.093.78.198 1.55.354 2.331a6.68 6.68 0 0 1-.312 3.611c.396-3.507-1.873-6.546-1.873-6.546l.666-2.904c.913-.255 3.121-.531 3.861-.374.333.083.666.28.822.593z" opacity="1" data-original="#d0dcee"></path><path d="M36.14 33.98s-1.094-2.998-2.082-3.529c-.76-.406-2.165-.77-2.925-2.32 1.092 1.257 2.48.805 3.903 3.163.406.656.708 1.364 1.01 2.071a16.747 16.747 0 0 0-.157-4.891c.406 1.228.698 3.07.25 5.505z" fill="#000000" opacity="1" data-original="#000000"></path><path fill="#d0dcee" d="M36.608 13.882c-1.905-.096-3.674-1.064-5.36-2.03.635-.353 1.27-.707 1.904-1.071-2.56-1.52-5.35-2.81-8.315-2.977-2.966-.166-6.422 1.135-8.087 3.612-.644-1.431-.767-1.47-.812-1.874l.042-.156-.01-.093s3.559-3.56 8.492-3.029c4.909.53 6.82 4.627 10.98 3.934 0 0-.937 1.395-2.883 1.322 0 0 0 .01.01.01.146.188 1.551 1.822 4.039 2.352z" opacity="1" data-original="#d0dcee"></path><path fill="#ffca28" d="M20.018 14.163h-.042c-4.236.333-5.838 1.593-5.224 3.633 0 0-.302-.188-.802-.438-.936-.457-2.56-1.165-4.11-1.27-2.363-.166-4.247.625-4.216 3.269-1.796-1.797-2.753-4.553-1.665-6.786.468-.968 1.332-1.821 2.664-2.404 3.476-1.52 7.057-1.51 9.44-.968.031.01.052.01.083.02.046.1.743 3.8 3.31 4.778.02.01.042.01.062.02.105.042.274.109.5.146z" opacity="1" data-original="#ffca28"></path><path fill="#d0dcee" d="M25.632 10.729c-.427.409-.998.44-1.508.287-1.014-.303-1.957-1.29-3.01-.987-.789.227-1.35 1.18-1.719 1.274-.139.035-.304.175-.266.359.021.102.098.162.17.208 1.026.674 2.197.94 3.33.757 1.133-.183 2.123-.915 3.003-1.898z" opacity="1" data-original="#d0dcee"></path><ellipse cx="21.493" cy="11.382" rx=".748" ry=".816" fill="#000000" opacity="1" data-original="#000000"></ellipse><ellipse cx="21.344" cy="11.382" fill="#ffffff" rx=".281" ry=".306" opacity="1" data-original="#ffffff"></ellipse><path fill="#ff9f1c" d="M14.752 17.796s-2.55-1.54-4.913-1.707c-1.165-.084-2.206.073-2.966.551 0 .01-.01.01-.01.01-.78.51-1.26 1.375-1.239 2.707a1.87 1.87 0 0 1-.198-.219c-.052-.041-.083-.083-.124-.125-.444-3.028 1.763-5.054 4.735-5.797 2.082-.52 4.278-.416 6.38-.01 2.158.44 3.295.891 3.56.957-4.237.333-5.84 1.593-5.225 3.633z" opacity="1" data-original="#ff9f1c"></path><path d="m5.486 17.268-.245-.055c.504-2.235 2.542-3.562 4.766-4.118 2.69-.673 5.521-.317 8.213.412l-.065.242c-2.625-.711-5.427-1.077-8.087-.412-2.117.53-4.1 1.786-4.582 3.931z" fill="#000000" opacity="1" data-original="#000000"></path><path fill="#ffd880" d="M16.708 10.961c-1.644-.986-7.703-2.295-12.75 1.613.469-.968 1.332-1.821 2.665-2.404 3.517-1.54 7.14-1.509 9.523-.947 0 0 .156.791.562 1.738z" opacity="1" data-original="#ffd880"></path><path d="M20.018 14.163h-.042c-4.236.333-5.838 1.593-5.224 3.633 0 0-.302-.188-.802-.438.916-2.48 2.88-3.57 4.902-3.31A6.72 6.72 0 0 1 16.063 9.2c.031.01.052.01.083.02.046.1.743 3.8 3.31 4.778.02.01.042.01.062.02.105.042.274.109.5.146zM6.863 16.65c-.78.51-1.26 1.375-1.239 2.707a1.87 1.87 0 0 1-.198-.219l-.062-.229c.031-.947.666-1.8 1.499-2.258zM10.606 11.07c.348.037.435.345.035.499-.22.084-.73.226-.854.027-.257-.411.617-.548.819-.526zM34.266 21.667s.052.146.166.385a9.521 9.521 0 0 1-.603-.687c.978.542 1.988 1.02 3.028 1.416.51.198 1.052.375 1.593.291a11.494 11.494 0 0 1-2.862-3.07l-.052-.146c.968 1.405 2.362 2.79 4.298 3.726 0 0-2.862.708-5.568-1.915zM36.004 27.745c1.072.854 2.394 1.468 3.705 1.842a11.265 11.265 0 0 1-1.322-1.654c.885.947 1.926 1.831 3.102 2.529 0 0-3.31-.802-5.485-2.717zM30.571 34.822s-1.977-.562-3.517-2.653c.79.76 1.665 1.415 2.601 1.967-.874-1.947-.728-4.299.219-6.203-.53 1.52-.885 4.007.697 6.89zM25.586 33.46s-2.623-1.323-3.476-4.05c.551 1.374 1.676 2.56 2.966 3.29-.114-.948-.01-1.822.364-2.655-.26.677-.53 1.915.146 3.414zM20.903 32.366s-1.312-.957-1.655-2.914c.302.76.78 1.457 1.29 2.092a5.291 5.291 0 0 1 1.197-2.695c-.395.53-1.27 1.956-.832 3.517zM18.249 32.116s-.885-1.3-.885-2.82c.13.761.26 1.51.666 2.165.052-.677.27-1.332.614-1.905a4.622 4.622 0 0 0-.395 2.56z" fill="#000000" opacity="1" data-original="#000000"></path><path fill="#a5c0dd" d="M17.24 28.973v.021c-.23.552-.563 1.53-.563 2.508 0 0-.458-1.28-.395-2.591.01.624.135 1.28.333 1.873.083-.635.302-1.259.624-1.81zM16.407 28.068c-.021.052-.032.094-.053.146 0 0 0 .01-.01.01-.27.281-2.144 2.383-2.248 4.246 0 0 .062-3.184 1.624-7.327.224-.9-.717 3.045-1.156 5.537.396-.999 1.03-1.904 1.843-2.612z" opacity="1" data-original="#a5c0dd"></path><path d="M32.507 11.53c.02 0 .031-.01.052-.01 0 0 0 .01.01.01zM32.56 11.52c.894-.25 1.79-.604 2.466-1.25-.76.24-1.613.126-2.27-.29.813.28 1.687.385 2.686.218 0 0-.937 1.395-2.883 1.322zM31.068 9.38c-1.622-1.052-3.3-2.14-5.186-2.713-2.08-.634-4.152-.483-5.69.408l-.126-.216c1.598-.927 3.744-1.083 5.888-.432 1.921.585 3.613 1.682 5.25 2.743z" fill="#000000" opacity="1" data-original="#000000"></path><path fill="#d0dcee" d="M20.073 19.573c.18.612.424 1.15.694 1.607 0 .008-.009.017-.017.033a.17.17 0 0 1-.032.049c-.047.116-.124.189-.18.375-.212.547-.432 1.558.114 2.782 0 0-1.982-1.003-2.741-3.067 0-.115 0-.22-.008-.327a6.51 6.51 0 0 0 2.04 1.779c-.547-1.224-.327-2.236-.115-2.782.06-.203.129-.248.18-.376a.647.647 0 0 0 .057-.09c0 .009 0 .017.008.017zM24.724 25.529s-1.616-.457-2.872-2.162c-.008 0-.008-.008-.017-.016a6.86 6.86 0 0 1-1.036-2.122c.098.18.212.351.327.506.008.008.008.016.016.016 1.256 1.706 2.872 2.162 2.872 2.162-1.29-2.35-1.004-4.38-.571-5.62.293-.825.636-1.298.636-1.298.112.677.169 1.13.588 1.811-1.048 1.704-1.303 4.244.057 6.723zM28.558 23.228c-.293-.555-.644-1.085-.987-1.264-.62-.327-1.77-.629-2.39-1.893a4.04 4.04 0 0 1-.319-1.004c.637.767 1.493 1.012 2 1.281.807.432 1.696 2.88 1.696 2.88zM27.024 13.185c1.045 1.011 2.114 1.411 2.954 1.558a8.596 8.596 0 0 0 2.3 1.615s-2.178.539-4.315-1.354a17.59 17.59 0 0 1-.939-1.82z" opacity="1" data-original="#d0dcee"></path><path fill="#d0dcee" d="M28.46 19.035c.723 1.062 1.29 3.196.808 5.809 0 0-.302-.833-.71-1.616.482-2.61-.092-4.757-.807-5.809.081.102.44.515.66.694.009.016.025.024.033.032.726.637 1.6 1.118 2.39 1.469.652.78 1.538 1.556 2.783 2.35a.804.804 0 0 1-.212-.058c-.686-.187-2.783-.856-4.251-2.145-.008-.008-.025-.017-.033-.033-.198-.16-.556-.563-.66-.693zM32.907 20.348c-.06 0-1.125-.3-2.072-.734-1.672-1.83-2.526-3.66-3.1-4.814.073.074.154.147.228.204 1.073 1.887 2.792 4 4.667 5.165.09.065.187.122.277.18z" opacity="1" data-original="#d0dcee"></path></g></svg>