<svg xmlns="http://www.w3.org/2000/svg" version="1.1" xmlns:xlink="http://www.w3.org/1999/xlink" width="24" height="24" x="0" y="0" viewBox="0 0 64 64" style="enable-background:new 0 0 512 512" xml:space="preserve"><g><path d="M11.25 57.75a4 4 0 0 0 4-4V49a.75.75 0 0 1 .75-.75h31.75V46.5h-3a4.505 4.505 0 0 1-4.5-4.5V17a4.505 4.505 0 0 1 4.5-4.5h3V1A.75.75 0 0 0 47 .25H8a.75.75 0 0 0-.75.75v52.75a4 4 0 0 0 4 4zM37 45H26a.75.75 0 0 1 0-1.5h11a.75.75 0 0 1 0 1.5zM19.47 13.72l4-4a.749.749 0 0 1 1.06 0L26 11.189l3.47-3.469a.749.749 0 0 1 1.06 0L32 9.189 36.189 5H35a.75.75 0 0 1 0-1.5h3a.75.75 0 0 1 .75.75v3a.75.75 0 0 1-1.5 0V6.061l-4.72 4.719a.749.749 0 0 1-1.06 0L30 9.311l-3.47 3.469a.749.749 0 0 1-1.06 0L24 11.311l-3.47 3.469a.75.75 0 0 1-1.06-1.06zm-2.22 5.53a.75.75 0 0 1 .75-.75h19a.75.75 0 0 1 .75.75v4A.75.75 0 0 1 37 24H18a.75.75 0 0 1-.75-.75zM12 27.5h14a.75.75 0 0 1 0 1.5H12a.75.75 0 0 1 0-1.5zm0 4h25a.75.75 0 0 1 0 1.5H12a.75.75 0 0 1 0-1.5zm0 4h25a.75.75 0 0 1 0 1.5H12a.75.75 0 0 1 0-1.5zm0 4h25a.75.75 0 0 1 0 1.5H12a.75.75 0 0 1 0-1.5z"></path><path d="M53 49.75H16.75v4a5.487 5.487 0 0 1-1.729 4H49.75a4 4 0 0 0 4-4V50.5a.75.75 0 0 0-.75-.75zM18.75 20h17.5v2.5h-17.5zM53.5 34.75H56v2.5h-2.5zM49.5 34.75H52v2.5h-2.5zM49.5 30.75H52v2.5h-2.5zM49.5 26.75H52v2.5h-2.5zM53.5 38.75H56v2.5h-2.5zM45.5 34.75H48v2.5h-2.5zM45.5 26.75H48v2.5h-2.5zM45.5 38.75H48v2.5h-2.5zM45.5 30.75H48v2.5h-2.5zM49.5 38.75H52v2.5h-2.5zM45.5 17.75H60v4.5H45.5zM57.5 26.75H60v2.5h-2.5z"></path><path d="M60.75 14h-16a3 3 0 0 0-3 3v25a3 3 0 0 0 3 3h16a3 3 0 0 0 3-3V17a3 3 0 0 0-3-3zm.75 28a.75.75 0 0 1-.75.75h-16A.75.75 0 0 1 44 42V26a.75.75 0 0 1 .75-.75h16a.75.75 0 0 1 .75.75zm0-19a.75.75 0 0 1-.75.75h-16A.75.75 0 0 1 44 23v-6a.75.75 0 0 1 .75-.75h16a.75.75 0 0 1 .75.75z"></path><path d="M53.5 30.75H56v2.5h-2.5zM57.5 30.75H60v2.5h-2.5zM53.5 26.75H56v2.5h-2.5zM57.5 38v3.25H60v-6.5h-2.5zM11.245 59.25a5.507 5.507 0 0 1-5.495-5.5V6.25H1A.75.75 0 0 0 .25 7v56a.75.75 0 0 0 .75.75h39a.75.75 0 0 0 .75-.75v-3.75z"></path></g></svg>