<svg xmlns="http://www.w3.org/2000/svg" version="1.1" xmlns:xlink="http://www.w3.org/1999/xlink" width="24" height="24" x="0" y="0" viewBox="0 0 512 512" style="enable-background:new 0 0 512 512" xml:space="preserve" class=""><g><path fill-rule="evenodd" d="M211.028 290.205a85.35 85.35 0 0 0-10.361-24.995l7.209-16.232-19.138-19.138-16.238 7.212a85.343 85.343 0 0 0-24.988-10.359l-6.378-16.57H114.07l-6.378 16.57a85.343 85.343 0 0 0-24.988 10.359l-16.238-7.212-19.137 19.138 7.211 16.236a85.33 85.33 0 0 0-10.36 24.99l-16.569 6.377v27.064l16.566 6.377a85.361 85.361 0 0 0 10.361 24.995l-7.21 16.232 19.138 19.137 16.237-7.211a85.338 85.338 0 0 0 24.989 10.359l6.378 16.57h27.064l6.376-16.566a85.299 85.299 0 0 0 24.995-10.362l16.232 7.21 19.137-19.137-7.211-16.238a85.343 85.343 0 0 0 10.359-24.988l16.57-6.378V296.58zm-83.426 67.108c-26.07 0-47.2-21.13-47.2-47.2s21.13-47.2 47.2-47.2 47.2 21.13 47.2 47.2c0 26.071-21.129 47.2-47.2 47.2zm326.946-139.138H283.737c-16.412 0-29.84 13.428-29.84 29.84V466.16c0 16.412 13.428 29.84 29.84 29.84h170.812c16.413 0 29.841-13.428 29.841-29.84V248.015c-.001-16.412-13.429-29.84-29.842-29.84zM332.485 446.309c0 3.778-3.082 6.86-6.86 6.86h-25.639c-3.778 0-6.859-3.082-6.859-6.86v-8.918c0-3.778 3.081-6.86 6.859-6.86h25.639c3.778 0 6.86 3.082 6.86 6.86zm0-48.105c0 3.778-3.082 6.86-6.86 6.86h-25.639c-3.778 0-6.859-3.082-6.859-6.86v-8.918c0-3.778 3.081-6.86 6.859-6.86h25.639c3.778 0 6.86 3.082 6.86 6.86zm0-48.105c0 3.778-3.082 6.86-6.86 6.86h-25.639c-3.778 0-6.859-3.082-6.859-6.86v-8.918c0-3.778 3.081-6.86 6.859-6.86h25.639c3.778 0 6.86 3.082 6.86 6.86zm56.337 96.21c0 3.778-3.082 6.86-6.86 6.86h-25.639c-3.778 0-6.859-3.082-6.859-6.86v-8.918c0-3.778 3.081-6.86 6.859-6.86h25.639c3.778 0 6.86 3.082 6.86 6.86zm0-48.105c0 3.778-3.082 6.86-6.86 6.86h-25.639c-3.778 0-6.859-3.082-6.859-6.86v-8.918c0-3.778 3.081-6.86 6.859-6.86h25.639c3.778 0 6.86 3.082 6.86 6.86zm0-48.105c0 3.778-3.082 6.86-6.86 6.86h-25.639c-3.778 0-6.859-3.082-6.859-6.86v-8.918c0-3.778 3.081-6.86 6.859-6.86h25.639c3.778 0 6.86 3.082 6.86 6.86zm56.337 96.21c0 3.778-3.082 6.86-6.86 6.86H412.66c-3.778 0-6.859-3.082-6.859-6.86v-8.918c0-3.778 3.081-6.86 6.859-6.86h25.639c3.778 0 6.86 3.082 6.86 6.86zm0-48.105c0 3.778-3.082 6.86-6.86 6.86H412.66c-3.778 0-6.859-3.082-6.859-6.86v-8.918c0-3.778 3.081-6.86 6.859-6.86h25.639c3.778 0 6.86 3.082 6.86 6.86zm0-48.105c0 3.778-3.082 6.86-6.86 6.86H412.66c-3.778 0-6.859-3.082-6.859-6.86v-8.918c0-3.778 3.081-6.86 6.859-6.86h25.639c3.778 0 6.86 3.082 6.86 6.86zm6.302-55.308c0 3.778-3.082 6.86-6.86 6.86H293.684c-3.778 0-6.86-3.081-6.86-6.86v-26.925c0-3.778 3.082-6.86 6.86-6.86h150.918c3.778 0 6.86 3.082 6.86 6.86v26.925zM400.188 16.737v47.716a4.258 4.258 0 0 0 4.25 4.25h47.716a8.528 8.528 0 0 0-1.753-2.489L402.678 18.49a8.513 8.513 0 0 0-2.49-1.753zM237.897 437.604H136.102c-4.682 0-8.5-3.819-8.5-8.5v-2.999h24.518l7.458-19.375a101.35 101.35 0 0 0 13.727-5.691l18.98 8.43 34.673-34.674-8.432-18.985a101.491 101.491 0 0 0 5.688-13.719l13.683-5.267zm7.457-337.559c-3.322-7.912-9.516-12.631-16.412-14.645v-1.301a8 8 0 0 0-16 0v1.405c-9.935 2.983-17.126 11.202-16.603 21.978.643 13.247 11.719 18.99 23.375 20.903 3.863.634 11.168 1.986 11.754 6.817l.066.579c.084 3.572-5.474 4.917-8.179 5.245-.782.095-1.397.147-1.843.158-4.666.111-10.137-1.805-11.383-6.805a7.982 7.982 0 0 0-15.5 3.812c2.294 9.202 9.348 15.492 18.315 17.882v1.264a8 8 0 0 0 16 0v-1.098c10.234-2.418 18.799-9.499 18.529-20.833a22.116 22.116 0 0 0-.129-2.079c-1.639-13.503-13.09-18.726-25.066-20.692-3.167-.52-9.8-1.769-9.999-5.903-.176-3.63 3.184-5.604 6.322-6.236 4.897-.986 9.982.917 12.005 5.737a7.997 7.997 0 1 0 14.748-6.188zm159.084-15.342c-11.171 0-20.25-9.078-20.25-20.25V16H136.102c-4.682 0-8.5 3.819-8.5 8.5v169.622h24.518l7.459 19.38a101.544 101.544 0 0 1 13.719 5.688l18.986-8.432 34.674 34.674-8.43 18.979a101.649 101.649 0 0 1 5.691 13.726l13.678 5.264v-35.387c0-25.212 20.628-45.84 45.84-45.84h169.154V84.703zm-183.497 93.883c-31.96 0-57.868-25.909-57.868-57.869s25.909-57.868 57.868-57.868c31.96 0 57.868 25.908 57.868 57.868.001 31.961-25.908 57.869-57.868 57.869zm158.32-11.401H308.83a8 8 0 0 1 0-16h70.431a8 8 0 0 1 0 16zm0-38.467H308.83a8 8 0 0 1 0-16h70.431a8 8 0 0 1 0 16zm0-38.468H308.83a8 8 0 0 1 0-16h70.431a8 8 0 0 1 0 16z" clip-rule="evenodd"></path></g></svg>