<svg xmlns="http://www.w3.org/2000/svg" version="1.1" xmlns:xlink="http://www.w3.org/1999/xlink" width="24" height="24" x="0" y="0" viewBox="0 0 512 512" style="enable-background:new 0 0 512 512" xml:space="preserve"><g><path fill-rule="evenodd" d="M418.285 325.824v10.492c-16.315 2.791-28.724 16.2-28.724 32.283s12.409 29.492 28.724 32.283v40.183c-9.306-2.454-16.132-10.219-16.132-19.409a6.3 6.3 0 0 0-12.592 0c0 16.083 12.409 29.5 28.724 32.283v10.5a6.3 6.3 0 0 0 12.592 0v-10.5c16.325-2.781 28.738-16.2 28.738-32.283s-12.413-29.492-28.738-32.272V349.2c9.315 2.456 16.146 10.219 16.146 19.4a6.3 6.3 0 0 0 12.592 0c0-16.084-12.413-29.492-28.738-32.283v-10.493a6.3 6.3 0 0 0-12.592 0zM402.153 368.6c0-9.181 6.826-16.944 16.132-19.4v38.81c-9.306-2.465-16.132-10.219-16.132-19.41zm44.87 53.057c0 9.19-6.831 16.955-16.146 19.409v-38.809c9.315 2.454 16.146 10.219 16.146 19.4zM143.506 130.635a6.293 6.293 0 0 1 6.3-6.3H360.57a6.3 6.3 0 1 1 0 12.591H149.8a6.3 6.3 0 0 1-6.3-6.3zm17.522 121.2H22.527a6.294 6.294 0 0 0-6.3 6.3v53.823a6.3 6.3 0 0 0 6.3 6.3h138.5a6.294 6.294 0 0 0 6.3-6.3v-53.827a6.293 6.293 0 0 0-6.3-6.3zm-6.3 53.823H28.823v-41.232h125.909v41.232zM52.018 440.174H22.527a6.3 6.3 0 0 0-6.3 6.3v29.492a6.3 6.3 0 0 0 6.3 6.3h29.491a6.294 6.294 0 0 0 6.3-6.3v-29.497a6.293 6.293 0 0 0-6.3-6.3zm-6.3 29.491h-16.9v-16.9h16.9zm6.3-138.5H22.527a6.3 6.3 0 0 0-6.3 6.3v29.492a6.294 6.294 0 0 0 6.3 6.3h29.491a6.287 6.287 0 0 0 6.3-6.3v-29.498a6.293 6.293 0 0 0-6.3-6.3zm-6.3 29.492h-16.9v-16.9h16.9zm6.3 25.014H22.527a6.3 6.3 0 0 0-6.3 6.293v29.494a6.292 6.292 0 0 0 6.3 6.293h29.491a6.285 6.285 0 0 0 6.3-6.293v-29.495a6.291 6.291 0 0 0-6.3-6.293zm-6.3 29.491h-16.9v-16.9h16.9zm60.8 25.013H77.03a6.3 6.3 0 0 0-6.292 6.3v29.492a6.3 6.3 0 0 0 6.292 6.3h29.5a6.3 6.3 0 0 0 6.3-6.3v-29.498a6.3 6.3 0 0 0-6.3-6.3zm-6.3 29.491h-16.9v-16.9h16.9zm6.3-138.5H77.03a6.3 6.3 0 0 0-6.292 6.3v29.492a6.293 6.293 0 0 0 6.292 6.3h29.5a6.3 6.3 0 0 0 6.3-6.3v-29.499a6.3 6.3 0 0 0-6.3-6.3zm-6.3 29.492h-16.9v-16.9h16.9zm6.3 25.014H77.03a6.3 6.3 0 0 0-6.292 6.293v29.494a6.291 6.291 0 0 0 6.292 6.293h29.5a6.3 6.3 0 0 0 6.3-6.293v-29.496a6.3 6.3 0 0 0-6.3-6.293zm-6.3 29.491h-16.9v-16.9h16.9zm60.8-84h-29.481a6.293 6.293 0 0 0-6.3 6.3v29.492a6.287 6.287 0 0 0 6.3 6.3h29.491a6.293 6.293 0 0 0 6.3-6.3v-29.496a6.3 6.3 0 0 0-6.3-6.3zm-6.3 29.492h-16.9v-16.9h16.9zm6.3 79.518h-29.481a6.293 6.293 0 0 0-6.3 6.3v29.492a6.294 6.294 0 0 0 6.3 6.3h29.491a6.3 6.3 0 0 0 6.3-6.3v-29.496a6.3 6.3 0 0 0-6.3-6.3zm-6.3 29.491h-16.9v-16.9h16.9zm6.3-83.995h-29.481a6.291 6.291 0 0 0-6.3 6.293v29.494a6.285 6.285 0 0 0 6.3 6.293h29.491a6.291 6.291 0 0 0 6.3-6.293v-29.493a6.3 6.3 0 0 0-6.3-6.293zm-6.3 29.491h-16.9v-16.9h16.9zm142.5-178.328 34.482 34.456-40.969 6.5 6.5-40.959zm47.647 29.826 144.38-144.353-43.019-43.029L301.86 223.645l43.019 43.014zm60.1-163.943h-69.3a6.755 6.755 0 0 1-6.747-6.746V21.844l78.876 78.04-2.832 2.832zM92.087 20.1v202.757h87.572a16.657 16.657 0 0 1 16.641 16.629v3.83h87.157l3.286-20.658a6.281 6.281 0 0 1 1.763-3.462l22.784-22.777H149.8a6.3 6.3 0 1 1 0-12.592h172.057a6.082 6.082 0 0 1 1.762.252l68.773-68.773h-56.7a19.362 19.362 0 0 1-19.344-19.336V77.441H149.8a6.3 6.3 0 1 1 0-12.591h166.548V13.355H98.824a6.752 6.752 0 0 0-6.737 6.745zm91.626 474.493a4.061 4.061 0 0 1-4.054 4.051H3.891a4.054 4.054 0 0 1-4.049-4.051V239.486a4.051 4.051 0 0 1 4.049-4.039h175.768a4.058 4.058 0 0 1 4.054 4.039v255.108zm31.629-66.14A19.179 19.179 0 0 1 234.5 409.3h91.25a99.258 99.258 0 0 0 13.919 38.315H234.5a19.185 19.185 0 0 1-19.161-19.158zm0-50.905A19.18 19.18 0 0 1 234.5 358.39h97.239a99.441 99.441 0 0 0-7 36.742c0 .526.01 1.05.01 1.574H234.5a19.179 19.179 0 0 1-19.161-19.157zm166.215 120.96H234.5a19.153 19.153 0 1 1 0-38.305h114.418a100.06 100.06 0 0 0 47.791 30.814 19.236 19.236 0 0 1-15.152 7.491zm130.284-103.376a87.256 87.256 0 1 1-87.26-87.259 87.357 87.357 0 0 1 87.26 87.259zm-93.556-99.652A100 100 0 0 0 337.8 345.8H234.5a31.74 31.74 0 0 0-18.955 57.2 31.664 31.664 0 0 0-12 32.44H196.3V315.384h164.27a6.295 6.295 0 1 0 0-12.589H196.3v-46.888h85.162l-4.519 28.475a6.294 6.294 0 0 0 6.212 7.28 6.459 6.459 0 0 0 .985-.073l61.724-9.809a6.153 6.153 0 0 0 3.46-1.764l68.961-68.963zm85.508-187.738-5.653 5.658-43.014-43.02 5.653-5.656a28.687 28.687 0 0 1 40.489 0l2.525 2.539a28.668 28.668 0 0 1 0 40.479z"></path></g></svg>