<svg xmlns="http://www.w3.org/2000/svg" version="1.1" xmlns:xlink="http://www.w3.org/1999/xlink" width="512" height="512" x="0" y="0" viewBox="0 0 512 512" style="enable-background:new 0 0 512 512" xml:space="preserve"><g><path fill-rule="evenodd" d="M59.185 351.04a27.3 27.3 0 0 1 27.3-27.28h130.867a127.773 127.773 0 0 0-10.242 50.358c0 1.406 0 2.8.048 4.189H86.48a27.3 27.3 0 0 1-27.295-27.267zm0 66.838A27.3 27.3 0 0 1 86.48 390.6h121.645a128.192 128.192 0 0 0 20.338 54.556H86.48a27.3 27.3 0 0 1-27.295-27.275zM279.575 512H86.48a27.278 27.278 0 1 1 0-54.556h151.21a129.329 129.329 0 0 0 65.219 41.338A27.525 27.525 0 0 1 279.575 512zm56.525-21.165a116.71 116.71 0 1 0-116.719-116.717A116.854 116.854 0 0 0 336.1 490.835zm31.595-151.553a6.136 6.136 0 1 0 12.271 0c0-20.643-16.426-37.764-37.731-40.571v-15.6a6.135 6.135 0 1 0-12.27 0v15.6c-21.305 2.807-37.73 19.928-37.73 40.571s16.425 37.778 37.73 40.571v57.252c-14.493-2.609-25.46-14.232-25.46-28.136a6.135 6.135 0 1 0-12.27 0c0 20.643 16.425 37.764 37.73 40.571v15.594a6.135 6.135 0 1 0 12.27 0V449.54c21.305-2.807 37.731-19.928 37.731-40.571s-16.426-37.778-37.731-40.585v-57.238c14.493 2.6 25.46 14.232 25.46 28.136zm-63.19 0c0-13.9 10.967-25.537 25.46-28.136v56.286c-14.493-2.609-25.46-14.232-25.46-28.15zm63.19 69.687c0 13.9-10.967 25.527-25.46 28.136v-56.286c14.493 2.6 25.46 14.232 25.46 28.15zm-211.84-119.92a6.149 6.149 0 0 1-6.135-6.145V166.728h-35.269a6.152 6.152 0 0 1-4.782-10.025L177.206 73.9a6.131 6.131 0 0 1 9.517 0l67.538 82.8a6.152 6.152 0 0 1-4.783 10.025h-35.266V282.9a6.15 6.15 0 0 1-6.136 6.145zM340.833 2.266A6.088 6.088 0 0 0 336.1 0a6.253 6.253 0 0 0-4.782 2.266l-67.54 82.808a6.164 6.164 0 0 0 4.783 10.039h35.266v116.162a6.14 6.14 0 0 0 6.135 6.145h52.223a6.15 6.15 0 0 0 6.184-6.145V95.113h35.267a6.089 6.089 0 0 0 5.507-3.517 6.157 6.157 0 0 0-.773-6.522z"></path></g></svg>