<svg xmlns="http://www.w3.org/2000/svg" version="1.1" xmlns:xlink="http://www.w3.org/1999/xlink" width="24" height="24" x="0" y="0" viewBox="0 0 453.543 453.543" style="enable-background:new 0 0 512 512" xml:space="preserve"><g><path d="M363.02 1.871V58.15l53.391-13.051z"></path><path d="M320.983 90.073h71.564v12.88h-69.454v30.911h69.454v12.88h-69.454v30.911h69.454v12.88h-69.454v30.911h69.454v12.88h-69.454v30.911h69.454v12.88h-69.454v30.911h69.454v12.88h-69.454v30.911h69.454v12.88h-69.454v62.426c0 5.439-1.475 10.531-4.014 14.937h99.587V49.304l-57.409 14.034a2.305 2.305 0 0 1-1.974-.426 2.306 2.306 0 0 1-.885-1.818V0H83.397v71.018H293.05c12.685 0 23.535 7.914 27.933 19.055z"></path><path d="M61.297 453.543h231.754c8.432 0 15.897-4.144 20.524-10.483 3.065-4.199 4.897-9.352 4.897-14.937V101.059c0-3.939-.926-7.657-2.533-10.988-4.109-8.523-12.81-14.433-22.888-14.433H61.297c-14.017 0-25.42 11.404-25.42 25.42v327.063c-.001 14.019 11.403 25.422 25.42 25.422zm68.81-198.09h31.615c5.21 0 9.473 4.262 9.473 9.473v8.272c0 5.21-4.263 9.473-9.473 9.473h-31.615c-5.21 0-9.473-4.263-9.473-9.473v-8.272c0-5.21 4.264-9.473 9.473-9.473zm-9.473-29.787v-8.272c0-5.21 4.263-9.473 9.473-9.473h31.615c5.21 0 9.473 4.263 9.473 9.473v8.272c0 5.21-4.263 9.473-9.473 9.473h-31.615c-5.209 0-9.473-4.263-9.473-9.473zm9.473 77.319h31.615c5.21 0 9.473 4.263 9.473 9.473v8.272c0 5.21-4.263 9.473-9.473 9.473h-31.615c-5.21 0-9.473-4.262-9.473-9.473v-8.272c0-5.211 4.264-9.473 9.473-9.473zm0 47.531h31.615c5.21 0 9.473 4.263 9.473 9.473v8.272c0 5.21-4.263 9.473-9.473 9.473h-31.615c-5.21 0-9.473-4.263-9.473-9.473v-8.272c0-5.21 4.264-9.473 9.473-9.473zm0 47.532h31.615c5.21 0 9.473 4.263 9.473 9.473v8.272c0 5.21-4.263 9.473-9.473 9.473h-31.615c-5.21 0-9.473-4.263-9.473-9.473v-8.272c0-5.21 4.264-9.473 9.473-9.473zm62.518-142.595h31.615c5.21 0 9.472 4.262 9.472 9.473v8.272c0 5.21-4.262 9.473-9.472 9.473h-31.615c-5.21 0-9.473-4.263-9.473-9.473v-8.272c0-5.21 4.263-9.473 9.473-9.473zm-9.473-29.787v-8.272c0-5.21 4.263-9.473 9.473-9.473h31.615c5.21 0 9.472 4.263 9.472 9.473v8.272c0 5.21-4.262 9.473-9.472 9.473h-31.615c-5.21 0-9.473-4.263-9.473-9.473zm9.473 77.319h31.615c5.21 0 9.472 4.263 9.472 9.473v8.272c0 5.21-4.262 9.473-9.472 9.473h-31.615c-5.21 0-9.473-4.262-9.473-9.473v-8.272c0-5.211 4.263-9.473 9.473-9.473zm0 47.531h31.615c5.21 0 9.472 4.263 9.472 9.473v8.272c0 5.21-4.262 9.473-9.472 9.473h-31.615c-5.21 0-9.473-4.263-9.473-9.473v-8.272c0-5.21 4.263-9.473 9.473-9.473zm0 47.532h31.615c5.21 0 9.472 4.263 9.472 9.473v8.272c0 5.21-4.262 9.473-9.472 9.473h-31.615c-5.21 0-9.473-4.263-9.473-9.473v-8.272c0-5.21 4.263-9.473 9.473-9.473zm62.517-95.063h31.615c5.21 0 9.473 4.263 9.473 9.473v8.272c0 5.21-4.263 9.473-9.473 9.473h-31.615c-5.21 0-9.472-4.262-9.472-9.473v-8.272c-.001-5.211 4.262-9.473 9.472-9.473zm-9.473-29.787v-8.272c0-5.21 4.263-9.473 9.472-9.473h31.615c5.21 0 9.473 4.262 9.473 9.473v8.272c0 5.21-4.263 9.473-9.473 9.473h-31.615c-5.209-.001-9.472-4.264-9.472-9.473zm9.473 77.318h31.615c5.21 0 9.473 4.263 9.473 9.473v55.804c0 5.21-4.263 9.473-9.473 9.473h-31.615c-5.21 0-9.472-4.263-9.472-9.473v-55.804c-.001-5.21 4.262-9.473 9.472-9.473zm41.088-133.122v8.272c0 5.21-4.263 9.473-9.473 9.473h-31.615c-5.21 0-9.472-4.263-9.472-9.473v-8.272c0-5.21 4.263-9.473 9.472-9.473h31.615c5.21 0 9.473 4.263 9.473 9.473zM63.189 118.877c0-8.759 7.166-15.925 15.925-15.925h196.12c8.759 0 15.925 7.166 15.925 15.925v42.852c0 8.759-7.166 15.925-15.925 15.925H79.113c-8.759 0-15.925-7.166-15.925-15.925v-42.852zm-5.071 98.517c0-5.21 4.263-9.473 9.472-9.473h31.616c5.21 0 9.473 4.263 9.473 9.473v8.272c0 5.21-4.263 9.473-9.473 9.473H67.59c-5.21 0-9.472-4.263-9.472-9.473zm0 47.532c0-5.21 4.263-9.473 9.472-9.473h31.616c5.21 0 9.473 4.262 9.473 9.473v8.272c0 5.21-4.263 9.473-9.473 9.473H67.59c-5.21 0-9.472-4.263-9.472-9.473zm0 47.531c0-5.21 4.263-9.473 9.472-9.473h31.616c5.21 0 9.473 4.263 9.473 9.473v8.272c0 5.21-4.263 9.473-9.473 9.473H67.59c-5.21 0-9.472-4.262-9.472-9.473zm0 47.532c0-5.21 4.263-9.473 9.472-9.473h31.616c5.21 0 9.473 4.263 9.473 9.473v8.272c0 5.21-4.263 9.473-9.473 9.473H67.59c-5.21 0-9.472-4.263-9.472-9.473zm0 47.531c0-5.21 4.263-9.473 9.472-9.473h31.616c5.21 0 9.473 4.263 9.473 9.473v8.272c0 5.21-4.263 9.473-9.473 9.473H67.59c-5.21 0-9.472-4.263-9.472-9.473z"></path></g></svg>