<svg xmlns="http://www.w3.org/2000/svg" version="1.1" xmlns:xlink="http://www.w3.org/1999/xlink" width="24" height="24" x="0" y="0" viewBox="0 0 64 64" style="enable-background:new 0 0 512 512" xml:space="preserve" class=""><g><path d="M21 52c0-4.963-4.037-9-9-9s-9 4.037-9 9 4.037 9 9 9 9-4.037 9-9zm-10-1h2c1.654 0 3 1.346 3 3v3h-3v2h-2v-2c-1.654 0-3-1.346-3-3h2a1 1 0 0 0 1 1h3v-1a1 1 0 0 0-1-1h-2c-1.654 0-3-1.346-3-3v-3h3v-2h2v2c1.654 0 3 1.346 3 3h-2a1 1 0 0 0-1-1h-3v1a1 1 0 0 0 1 1z"></path><path d="M40.623 19H18a1 1 0 0 1-1-1V8a1 1 0 0 1 1-1h22.623a12.074 12.074 0 0 1 3.757-4H16c-1.654 0-3 1.346-3 3v35.051c1.05.095 2.055.343 3 .713V40a2 2 0 0 1 2-2h4a2 2 0 0 1 2 2v4a2 2 0 0 1-2 2h-.792A10.93 10.93 0 0 1 23 52c0 3.72-1.861 7.008-4.695 9H48c1.654 0 3-1.346 3-3V25c-4.43 0-8.298-2.419-10.377-6zM24 32a2 2 0 0 1-2 2h-4a2 2 0 0 1-2-2v-4a2 2 0 0 1 2-2h4a2 2 0 0 1 2 2zm12 24a2 2 0 0 1-2 2h-4a2 2 0 0 1-2-2v-4a2 2 0 0 1 2-2h4a2 2 0 0 1 2 2zm0-12a2 2 0 0 1-2 2h-4a2 2 0 0 1-2-2v-4a2 2 0 0 1 2-2h4a2 2 0 0 1 2 2zm0-12a2 2 0 0 1-2 2h-4a2 2 0 0 1-2-2v-4a2 2 0 0 1 2-2h4a2 2 0 0 1 2 2zm12 24a2 2 0 0 1-2 2h-4a2 2 0 0 1-2-2V40a2 2 0 0 1 2-2h4a2 2 0 0 1 2 2zm0-28v4a2 2 0 0 1-2 2h-4a2 2 0 0 1-2-2v-4a2 2 0 0 1 2-2h4a2 2 0 0 1 2 2z"></path><path d="M51 3c-5.514 0-10 4.486-10 10s4.486 10 10 10 10-4.486 10-10S56.514 3 51 3zm-6 7a2 2 0 1 1 3.999-.001A2 2 0 0 1 45 10zm2.832 9.555-1.664-1.109 8-12 1.664 1.109zM55 18a2 2 0 1 1-.001-3.999A2 2 0 0 1 55 18z"></path></g></svg>