<?xml version="1.0" encoding="utf-8"?>
<!-- Generator: Adobe Illustrator 22.1.0, SVG Export Plug-In . SVG Version: 6.00 Build 0)  -->
<svg xmlns="http://www.w3.org/2000/svg" xmlns:xlink="http://www.w3.org/1999/xlink" version="1.1" id="Layer_1" x="0px" y="0px" viewBox="0 0 512 512" style="enable-background:new 0 0 512 512;" xml:space="preserve" width="512" height="512">
<style type="text/css">
	.st0{fill:#FF624B;}
	.st1{fill:#FFC34C;}
	.st2{fill:#F9BB32;}
	.st3{fill:#DB9C2E;}
	.st4{fill:#FF4B34;}
	.st5{fill:#FF9079;}
	.st6{fill:#FCE575;}
	.st7{fill:#FFD551;}
	.st8{fill:#FFF4C1;}
	.st9{fill:#FFB74B;}
	.st10{fill:#EACF32;}
	.st11{fill:#99AF17;}
	.st12{fill:#CCC033;}
	.st13{fill:#FCDA4F;}
	.st14{fill:#FFA730;}
	.st15{fill:#FFEACF;}
	.st16{fill:#FFD59A;}
	.st17{fill:#FFDF74;}
	.st18{fill:#E58D23;}
	.st19{fill:#BF6C0D;}
	.st20{fill:#A56021;}
	.st21{fill:#8C4C17;}
	.st22{fill:#FFEA63;}
	.st23{fill:#FCF9DE;}
</style>
<g>
	<g>
		<path class="st7" d="M440.677,207.697h-23.298c-1.937-37.871-33.255-67.981-71.608-67.981c-4.011,0-7.939,0.345-11.77,0.978    c-8.987-46.132-49.608-80.955-98.369-80.955c-45.362,0-83.679,30.138-96.037,71.481c-8.9-2.589-18.308-3.982-28.044-3.982    c-55.354,0-100.227,44.874-100.227,100.228s44.874,100.228,100.227,100.228h329.124c33.136,0,59.998-26.862,59.998-59.998v0    C500.675,234.559,473.813,207.697,440.677,207.697z"/>
	</g>
	<g>
		<circle class="st18" cx="256" cy="223.137" r="65.662"/>
	</g>
	<g>
		<path class="st18" d="M256,286.916c-58.652,0-106.199,47.547-106.199,106.199h212.398    C362.199,334.463,314.652,286.916,256,286.916z"/>
	</g>
	<g>
		<path class="st19" d="M274.542,288.58c-2.081-0.367-4.175-0.695-6.295-0.939c2.139-0.404,4.235-0.922,6.295-1.527    c-27.23-8.003-47.119-33.156-47.119-62.977c0-29.822,19.888-54.985,47.119-62.989c-5.882-1.729-12.1-2.673-18.542-2.673    c-36.264,0-65.662,29.398-65.662,65.662c0,32.077,23.006,58.764,53.415,64.504c-52.88,6.076-93.952,50.967-93.952,105.474h37.084    C186.886,340.794,224.737,297.355,274.542,288.58z"/>
	</g>
	<g>
		<path class="st1" d="M71.325,227.465c0-55.354,44.874-100.228,100.228-100.228c9.735,0,19.144,1.394,28.044,3.982    c9.511-31.819,34.407-56.984,66.05-66.897c-9.477-2.972-19.556-4.584-30.014-4.584c-45.362,0-83.679,30.138-96.036,71.481    c-8.9-2.589-18.309-3.982-28.044-3.982c-55.354,0-100.228,44.874-100.228,100.228c0,55.354,44.874,100.228,100.228,100.228h60    C116.199,327.693,71.325,282.819,71.325,227.465z"/>
	</g>
	<g>
		<path class="st17" d="M465,313.653c-1.535,0-3.071-0.586-4.242-1.757c-2.344-2.344-2.344-6.143-0.001-8.485    c10.249-10.249,15.242-20.892,14.841-31.631c-0.637-17.031-14.373-29.046-14.512-29.166c-2.512-2.161-2.795-5.95-0.633-8.461    s5.949-2.796,8.461-0.633c0.729,0.626,17.846,15.607,18.675,37.812c0.531,14.211-5.642,27.858-18.346,40.563    C468.071,313.067,466.535,313.653,465,313.653z"/>
	</g>
	<g>
		<circle class="st1" cx="259.394" cy="104.673" r="16.879"/>
	</g>
	<g>
		<circle class="st19" cx="217.185" cy="367.9" r="16.879"/>
	</g>
	<g>
		<circle class="st11" cx="397.539" cy="376.408" r="75.852"/>
	</g>
	<g>
		<circle class="st13" cx="397.539" cy="376.408" r="61.977"/>
	</g>
	<g>
		<path class="st10" d="M366.643,376.408c0-28.628,19.514-52.773,45.937-59.86c-5.119-1.373-10.494-2.117-16.04-2.117    c-34.175,0-61.977,27.802-61.977,61.977c0,34.175,27.802,61.977,61.977,61.977c5.547,0,10.921-0.744,16.04-2.117    C386.157,429.181,366.643,405.036,366.643,376.408z"/>
	</g>
	<g>
		<g>
			<path class="st12" d="M387.233,416.73v-29.759h-28.989c-1.181,0-2.139-0.958-2.139-2.139v-14.793     c0-1.181,0.958-2.139,2.139-2.139h28.989V338.14c0-1.181,0.958-2.139,2.139-2.139h16.334c1.181,0,2.139,0.958,2.139,2.139V367.9     h28.99c1.181,0,2.139,0.958,2.139,2.139v14.793c0,1.181-0.958,2.139-2.139,2.139h-28.99v29.759c0,1.181-0.958,2.139-2.139,2.139     h-16.334C388.19,418.869,387.233,417.911,387.233,416.73z"/>
		</g>
	</g>
	<g>
		<path class="st11" d="M358.244,386.971h10.301c-0.592-3.433-0.902-6.962-0.902-10.563c0-2.887,0.208-5.725,0.592-8.508h-9.991    c-1.181,0-2.139,0.958-2.139,2.139v14.793C356.105,386.013,357.063,386.971,358.244,386.971z"/>
	</g>
</g>
</svg>
