<svg height="512pt" viewBox="-19 0 512 512.00049" width="512pt" xmlns="http://www.w3.org/2000/svg">
    <path
        d="m350.515625 362.652344c-22.390625 26.46875-36.882813 33.757812-82.441406 43.304687-5.035157 1-10.257813-.277343-14.257813-3.492187-4.003906-3.214844-6.375-8.039063-6.484375-13.171875l-5.988281-233.089844h57.191406c4.882813 5.5625 11.945313 8.730469 19.351563 8.679687 14.375 0 26.03125-11.65625 26.03125-26.035156s-11.65625-26.035156-26.03125-26.035156c-7.40625-.050781-14.46875 3.117188-19.351563 8.679688h-58.144531l-.605469-24.386719c20.351563-11.804688 30.257813-35.792969 24.164063-58.519531-6.09375-22.726563-26.671875-38.5429692-50.199219-38.585938v34.710938c9.585938 0 17.355469 7.769531 17.355469 17.355468 0 9.585938-7.769531 17.355469-17.355469 17.355469l-9.226562 94.738281 9.226562 339.160156c7.550781 0 15.011719-39.917968 22.300781-40.4375 76.367188-4.945312 118.714844-21.519531 159.761719-65.605468l-9.683594-33.375zm0 0"
        fill="#95a5a5" />
    <path
        d="m83.578125 138.847656c0-14.378906 11.65625-26.035156 26.035156-26.035156 7.40625-.050781 14.464844 3.117188 19.351563 8.679688h31.675781c-.070313.132812-.101563.285156-.085937.433593-.429688 5.175781.25 10.382813 1.996093 15.273438 1.84375 4.953125 4.417969 9.605469 7.636719 13.796875 1.382812 1.835937 2.890625 3.574218 4.511719 5.207031h-45.734375c-4.886719 5.5625-11.945313 8.730469-19.351563 8.679687-14.378906 0-26.035156-11.65625-26.035156-26.035156zm0 0"
        fill="#bdc3c7" />
    <path
        d="m213.75 183.277344v320.042968c-7.550781 0-15.011719-39.917968-22.304688-40.4375-76.363281-4.945312-118.710937-21.519531-159.757812-65.605468l7.460938-37.75 37.835937 3.125c22.390625 26.46875 36.882813 33.757812 82.441406 43.304687 5.035157 1 10.253907-.277343 14.257813-3.492187s6.375-8.039063 6.480468-13.171875l5.207032-202.542969.523437-20.652344c.859375.710938 1.757813 1.378906 2.6875 1.996094l.78125.519531c.4375.207031.84375.472657 1.214844.78125 7.445313 5.078125 15.183594 9.714844 23.171875 13.882813zm0 0"
        fill="#bdc3c7" />
    <path
        d="m49.300781 373.324219c-.769531.554687-1.441406 1.226562-1.996093 1.996093l-27.246094 38.183594c-2.152344 2.988282-5.949219 4.292969-9.480469 3.257813-3.53125-1.035157-6.027344-4.183594-6.226563-7.855469l-4.3398432-92.160156c-.1289068-2.488282.8593752-4.90625 2.6914062-6.59375l35.316406 30.371094zm0 0"
        fill="#d1d4d1" />
    <path
        d="m425.316406 310.671875-34.484375 70.542969c-.78125-.695313-13.675781-8.679688-14.753906-9.015625l-44.949219-16.835938c-3.425781-1.265625-5.695312-4.539062-5.675781-8.1875.019531-3.652343 2.324219-6.898437 5.761719-8.128906l84.609375-30.804687c3.359375-1.277344 7.160156-.304688 9.492187 2.429687zm0 0"
        fill="#95a5a5" />
    <path
        d="m427.488281 316.746094-4.339843 92.160156c-.199219 3.671875-2.695313 6.820312-6.226563 7.855469-3.53125 1.035156-7.328125-.269531-9.480469-3.257813l-27.25-38.183594c-.414062-.53125-.878906-1.023437-1.386718-1.472656l46.511718-63.175781c1.488282 1.664063 2.269532 3.84375 2.171875 6.074219zm0 0"
        fill="#7f8c8d" />
    <path
        d="m196.394531 52.066406c.027344 9.574219 7.78125 17.328125 17.355469 17.355469v128.539063c-7.984375-4.242188-15.792969-23.429688-23.171875-28.566407-.371094-.308593-.777344-.574219-1.214844-.78125l-.78125-.519531c-.929687-.617188-1.828125-1.285156-2.6875-1.996094l.257813-9.894531h-11.453125c-1.621094-1.632813-3.128907-3.371094-4.511719-5.207031-3.21875-4.191406-5.792969-8.84375-7.636719-13.796875-1.746093-4.890625-2.425781-10.097657-1.996093-15.273438-.015626-.148437.015624-.300781.085937-.433593h26.46875l.605469-24.386719c-5.597656-3.214844-10.542969-7.457031-14.578125-12.496094l-.085938-.171875c-3.953125-4.867188-6.953125-10.429688-8.851562-16.402344-1.679688-5.15625-2.527344-10.546875-2.515625-15.96875 0-28.753906 23.308594-52.066406 52.066406-52.066406v34.710938c-9.574219.03125-17.328125 7.785156-17.355469 17.355468zm0 0"
        fill="#bdc3c7" />
    <path
        d="m301.832031 320.042969c-10.4375 21.140625-30.574219 35.828125-53.890625 39.3125-.457031.097656-.921875.15625-1.390625.171875l-.433593-17.527344c17.457031-2.75 32.464843-13.867188 40.179687-29.765625 8.183594-19.707031 6.9375-42.070313-3.382813-60.746094-9.15625-15.636719-23.21875-27.808593-40.007812-34.625-.519531-.261719-1.125-.609375-1.734375-.867187l-3.992187-1.824219c-7.722657-3.644531-15.621094-7.375-23.429688-11.28125-9.746094-4.855469-19.222656-10.246094-28.378906-16.140625-1.472656-.953125-2.949219-1.910156-4.335938-2.863281-.523437-.347657-1.042968-.695313-1.652344-1.042969-8.738281-5.863281-16.5-13.066406-22.996093-21.347656-1.300781-1.734375-2.515625-3.46875-3.644531-5.292969-2.699219-4.113281-4.886719-8.542969-6.507813-13.191406-2.417969-6.902344-3.449219-14.214844-3.035156-21.519531v-.609376c1.605469-13.625 5.722656-26.835937 12.148437-38.960937 1.386719-3.039063 2.863282-6.164063 4.164063-9.289063.875-2.105468 2.566406-3.765624 4.6875-4.597656 1.898437 5.972656 4.898437 11.535156 8.851562 16.402344l.085938.171875c-.609375 1.5625-1.300781 3.039063-1.996094 4.511719-5.351563 10.101562-8.902344 21.054687-10.5 32.371094-.070313.132812-.101563.285156-.085937.433593-.429688 5.175781.25 10.382813 1.996093 15.273438 1.84375 4.953125 4.417969 9.605469 7.636719 13.796875 1.382812 1.835937 2.890625 3.574218 4.511719 5.207031 3.363281 3.691406 7.117187 7.011719 11.195312 9.894531.859375.710938 1.757813 1.378906 2.6875 1.996094l.78125.519531c.4375.207031.84375.472657 1.214844.78125 7.445313 5.078125 15.183594 9.714844 23.171875 13.882813 9.457031 5.035156 19.089844 9.632812 28.636719 14.144531.695312.347656 1.476562.695313 2.167969 1.042969l3.90625 1.824218c20.902343 8.453126 38.417968 23.585938 49.8125 43.042969 13.058593 23.621094 14.375 51.980469 3.558593 76.710938zm0 0"
        fill="#e4c05c" />
    <path
        d="m181.378906 340.871094-1.996094-.175782c-12.230468-2.359374-24.878906-1.15625-36.445312 3.472657-6.238281 3.007812-11.128906 8.238281-13.710938 14.664062-7.117187 18.832031 9.457032 35.234375 17.441407 43.132813.523437.519531 1.128906 1.125 1.648437 1.5625 7.855469 7.800781 16.625 14.617187 26.121094 20.304687 11.941406 7.210938 25.40625 11.519531 39.3125 12.582031 11.535156.839844 23.089844-1.375 33.496094-6.421874 13.773437-6.855469 24.882812-18.085938 31.589844-31.933594.78125-1.734375 1.558593-3.558594 2.339843-5.378906 4.082031-9.199219 6.335938-13.277344 11.457031-13.886719 9.417969.246093 18.03125 5.375 22.734376 13.539062 5.984374 11.605469 9.859374 24.179688 11.457031 37.140625l1.128906 6.160156c2.515625 12.496094 4.769531 23.777344 7.546875 35.058594 1.910156 7.726563 7.726562 31.070313 30.027344 39.226563 3.777344 1.398437 7.773437 2.105469 11.800781 2.082031 9.15625-.3125 18.082031-2.941406 25.949219-7.636719 22.8125-14.191406 42.574218-32.773437 58.140625-54.671875 3.820312-4.859375 7.550781-9.804687 11.109375-14.839844 1.964844-2.535156 2.371094-5.945312 1.054687-8.875-1.3125-2.925781-4.136719-4.886718-7.335937-5.097656-3.203125-.214844-6.261719 1.355469-7.953125 4.082032-3.296875 4.773437-6.855469 9.371093-10.5 13.96875-14.183594 20.054687-32.167969 37.128906-52.933594 50.246093-6.78125 4.765625-15.289063 6.378907-23.34375 4.425781-9.460937-3.46875-15.359375-11.800781-19.179687-27.074218-2.691407-10.933594-4.945313-21.957032-7.289063-34.191406l-1.214844-6.074219c-1.84375-15.039063-6.460937-29.605469-13.625-42.957031-8.238281-13.835938-23.296875-22.160157-39.398437-21.78125-15.707032 1.648437-21.347656 14.753906-25.511719 24.210937-.695313 1.648437-1.390625 3.210937-2.082031 4.773437-5.011719 10.347657-13.316406 18.738282-23.605469 23.863282-8.011719 3.953125-16.964844 5.605468-25.859375 4.773437-10.792969-1.089843-21.199219-4.589843-30.460938-10.238281-3.332031-1.941406-6.523437-4.113281-9.546874-6.507812-5.261719-3.898438-10.222657-8.195313-14.835938-12.84375-8.59375-8.417969-16.140625-17.269532-13.453125-24.558594 1.070313-2.367188 2.945313-4.273438 5.292969-5.382813 8.667968-2.894531 17.945312-3.464843 26.902344-1.648437l2.691406.347656h.605468zm0 0"
        fill="#b19046" />
    <path
        d="m96.335938 355.363281-44.953126 16.835938c-.746093.269531-1.445312.648437-2.082031 1.125l-46.597656-63.171875c2.339844-2.347656 5.839844-3.097656 8.9375-1.910156l84.609375 30.804687c3.4375 1.230469 5.742188 4.476563 5.761719 8.128906.019531 3.648438-2.25 6.921875-5.675781 8.1875zm0 0"
        fill="#95a5a5" />
</svg>