<svg id="Capa_1" enable-background="new 0 0 512 512" height="512" viewBox="0 0 512 512" width="512"
    xmlns="http://www.w3.org/2000/svg">

    <path
        d="m436 512h-420c-8.284 0-15-6.716-15-15v-50c0-60.1 23.404-116.602 65.901-159.099s98.999-65.901 159.099-65.901 116.602 23.404 159.099 65.901 65.901 98.999 65.901 159.099v50c0 8.284-6.716 15-15 15z"
        fill="#49acff" />
    <path
        d="m385.099 287.901c-42.497-42.497-98.999-65.901-159.099-65.901v290h210c8.284 0 15-6.716 15-15v-50c0-60.1-23.404-116.602-65.901-159.099z"
        fill="#1790e7" />
    <path d="m226 252c-69.477 0-126-56.523-126-126s56.523-126 126-126 126 56.523 126 126-56.523 126-126 126z"
        fill="#ffd5b6" />
</svg>