<svg id="Layer_1" enable-background="new 0 0 256 256" height="512" viewBox="0 0 256 256" width="512"
    xmlns="http://www.w3.org/2000/svg">
    <g>
       
        <g>
            <g>
                <path
                    d="m234.805 169.389h-168.156c-2.856 0-5.172 2.315-5.172 5.172v55.87c0 2.856 2.315 5.172 5.172 5.172h168.156c2.856 0 5.172-2.315 5.172-5.172v-55.87c0-2.857-2.316-5.172-5.172-5.172z"
                    fill="#d7e057" />
            </g>
        </g>
        <g>
            <g>
                <path
                    d="m234.805 167.889h-168.157c-3.679 0-6.672 2.993-6.672 6.672v55.87c0 3.679 2.993 6.672 6.672 6.672h29.738c.829 0 1.5-.671 1.5-1.5s-.671-1.5-1.5-1.5h-29.738c-2.025 0-3.672-1.647-3.672-3.672v-55.87c0-2.025 1.647-3.672 3.672-3.672h168.156c2.024 0 3.672 1.647 3.672 3.672v55.87c0 2.025-1.647 3.672-3.672 3.672h-124.357c-.829 0-1.5.671-1.5 1.5s.671 1.5 1.5 1.5h124.357c3.679 0 6.672-2.993 6.672-6.672v-55.87c.001-3.679-2.993-6.672-6.671-6.672z"
                    fill="#3a312a" />
            </g>
        </g>
        <g>
            <g>
                <path
                    d="m95.3 152.835h-20.247c-2.856 0-5.172 2.316-5.172 5.172v11.382h30.59v-11.382c0-2.856-2.315-5.172-5.171-5.172z"
                    fill="#d7e057" />
            </g>
        </g>
        <g>
            <g>
                <path
                    d="m95.3 151.335h-20.247c-3.679 0-6.672 2.993-6.672 6.672v11.381c0 .829.671 1.5 1.5 1.5h30.59c.829 0 1.5-.671 1.5-1.5v-11.381c.001-3.679-2.993-6.672-6.671-6.672zm3.672 16.554h-27.59v-9.881c0-2.025 1.647-3.672 3.672-3.672h20.246c2.025 0 3.672 1.647 3.672 3.672z"
                    fill="#3a312a" />
            </g>
        </g>
        <g>
            <g>
                <path
                    d="m139 152.835h-20.246c-2.856 0-5.172 2.316-5.172 5.172v11.382h30.59v-11.382c0-2.856-2.316-5.172-5.172-5.172z"
                    fill="#d7e057" />
            </g>
        </g>
        <g>
            <g>
                <path
                    d="m139 151.335h-20.247c-3.679 0-6.672 2.993-6.672 6.672v11.381c0 .829.671 1.5 1.5 1.5h30.59c.828 0 1.5-.671 1.5-1.5v-11.381c.001-3.679-2.992-6.672-6.671-6.672zm3.672 16.554h-27.59v-9.881c0-2.025 1.647-3.672 3.672-3.672h20.246c2.024 0 3.672 1.647 3.672 3.672z"
                    fill="#3a312a" />
            </g>
        </g>
        <g>
            <g>
                <path
                    d="m182.7 152.835h-20.246c-2.856 0-5.172 2.316-5.172 5.172v11.382h30.59v-11.382c0-2.856-2.316-5.172-5.172-5.172z"
                    fill="#d7e057" />
            </g>
        </g>
        <g>
            <g>
                <path
                    d="m182.7 151.335h-20.246c-3.68 0-6.673 2.993-6.673 6.672v11.381c0 .829.672 1.5 1.5 1.5h30.591c.828 0 1.5-.671 1.5-1.5v-11.381c0-3.679-2.993-6.672-6.672-6.672zm3.672 16.554h-27.591v-9.881c0-2.025 1.647-3.672 3.673-3.672h20.246c2.024 0 3.672 1.647 3.672 3.672z"
                    fill="#3a312a" />
            </g>
        </g>
        <g>
            <g>
                <path
                    d="m226.45 152.835h-20.246c-2.856 0-5.172 2.316-5.172 5.172v11.382h30.59v-11.382c0-2.856-2.316-5.172-5.172-5.172z"
                    fill="#d7e057" />
            </g>
        </g>
        <g>
            <g>
                <path
                    d="m226.45 151.335h-20.246c-3.68 0-6.673 2.993-6.673 6.672v11.381c0 .829.672 1.5 1.5 1.5h30.591c.828 0 1.5-.671 1.5-1.5v-11.381c0-3.679-2.993-6.672-6.672-6.672zm3.672 16.554h-27.591v-9.881c0-2.025 1.647-3.672 3.673-3.672h20.246c2.024 0 3.672 1.647 3.672 3.672z"
                    fill="#3a312a" />
            </g>
        </g>
        <g>
            <g>
                <path
                    d="m189.351 103.139h-168.156c-2.856 0-5.172 2.315-5.172 5.172v55.87c0 2.856 2.315 5.172 5.172 5.172h168.156c2.856 0 5.172-2.315 5.172-5.172v-55.87c0-2.857-2.315-5.172-5.172-5.172z"
                    fill="#8ac2d9" />
            </g>
        </g>
        <g>
            <g>
                <path
                    d="m189.352 101.639h-168.157c-3.679 0-6.672 2.993-6.672 6.672v18.672c0 .829.671 1.5 1.5 1.5s1.5-.671 1.5-1.5v-18.672c0-2.025 1.647-3.672 3.672-3.672h168.156c2.024 0 3.672 1.647 3.672 3.672v55.87c0 2.025-1.647 3.672-3.672 3.672h-168.156c-2.025 0-3.672-1.647-3.672-3.672v-22.663c0-.829-.671-1.5-1.5-1.5s-1.5.671-1.5 1.5v22.663c0 3.679 2.993 6.672 6.672 6.672h168.156c3.679 0 6.672-2.993 6.672-6.672v-55.87c0-3.679-2.993-6.672-6.671-6.672z"
                    fill="#3a312a" />
            </g>
        </g>
        <g>
            <g>
                <path
                    d="m49.846 86.585h-20.246c-2.856 0-5.172 2.316-5.172 5.172v11.382h30.59v-11.382c0-2.856-2.315-5.172-5.172-5.172z"
                    fill="#8ac2d9" />
            </g>
        </g>
        <g>
            <g>
                <path
                    d="m49.846 85.085h-20.246c-3.679 0-6.672 2.993-6.672 6.672v11.381c0 .829.671 1.5 1.5 1.5h30.59c.829 0 1.5-.671 1.5-1.5v-11.381c0-3.679-2.993-6.672-6.672-6.672zm3.672 16.554h-27.59v-9.881c0-2.025 1.647-3.672 3.672-3.672h20.246c2.025 0 3.672 1.647 3.672 3.672z"
                    fill="#3a312a" />
            </g>
        </g>
        <g>
            <g>
                <path
                    d="m93.546 86.585h-20.246c-2.856 0-5.172 2.316-5.172 5.172v11.382h30.59v-11.382c0-2.856-2.315-5.172-5.172-5.172z"
                    fill="#8ac2d9" />
            </g>
        </g>
        <g>
            <g>
                <path
                    d="m93.546 85.085h-20.246c-3.679 0-6.672 2.993-6.672 6.672v11.381c0 .829.671 1.5 1.5 1.5h30.59c.829 0 1.5-.671 1.5-1.5v-11.381c0-3.679-2.993-6.672-6.672-6.672zm3.672 16.554h-27.59v-9.881c0-2.025 1.647-3.672 3.672-3.672h20.246c2.025 0 3.672 1.647 3.672 3.672z"
                    fill="#3a312a" />
            </g>
        </g>
        <g>
            <g>
                <path
                    d="m137.246 86.585h-20.246c-2.856 0-5.172 2.316-5.172 5.172v11.382h30.59v-11.382c0-2.856-2.315-5.172-5.172-5.172z"
                    fill="#8ac2d9" />
            </g>
        </g>
        <g>
            <g>
                <path
                    d="m137.246 85.085h-20.246c-3.679 0-6.672 2.993-6.672 6.672v11.381c0 .829.671 1.5 1.5 1.5h30.59c.828 0 1.5-.671 1.5-1.5v-11.381c0-3.679-2.993-6.672-6.672-6.672zm3.672 16.554h-27.59v-9.881c0-2.025 1.648-3.672 3.672-3.672h20.246c2.024 0 3.672 1.647 3.672 3.672z"
                    fill="#3a312a" />
            </g>
        </g>
        <g>
            <g>
                <path
                    d="m180.996 86.585h-20.246c-2.856 0-5.172 2.316-5.172 5.172v11.382h30.59v-11.382c0-2.856-2.315-5.172-5.172-5.172z"
                    fill="#8ac2d9" />
            </g>
        </g>
        <g>
            <g>
                <path
                    d="m180.996 85.085h-20.246c-3.679 0-6.672 2.993-6.672 6.672v11.381c0 .829.672 1.5 1.5 1.5h30.59c.828 0 1.5-.671 1.5-1.5v-11.381c0-3.679-2.993-6.672-6.672-6.672zm3.672 16.554h-27.59v-9.881c0-2.025 1.648-3.672 3.672-3.672h20.246c2.024 0 3.672 1.647 3.672 3.672z"
                    fill="#3a312a" />
            </g>
        </g>
        <g>
            <g>
                <path
                    d="m234.805 36.951h-124.004c-3.181 0-5.759 2.578-5.759 5.759v54.696c0 3.181 2.578 5.759 5.759 5.759h124.004c2.856 0 5.172-2.315 5.172-5.172v-55.87c0-2.856-2.316-5.172-5.172-5.172z"
                    fill="#f16c7a" />
            </g>
        </g>
        <g>
            <g>
                <path
                    d="m234.805 35.451h-124.004c-4.003 0-7.259 3.256-7.259 7.259v54.696c0 4.003 3.256 7.259 7.259 7.259h124.004c3.679 0 6.672-2.993 6.672-6.672v-55.87c0-3.679-2.994-6.672-6.672-6.672zm3.672 62.542c0 2.025-1.647 3.672-3.672 3.672h-124.004c-2.348 0-4.259-1.911-4.259-4.259v-54.696c0-2.348 1.911-4.259 4.259-4.259h124.004c2.024 0 3.672 1.647 3.672 3.672z"
                    fill="#3a312a" />
            </g>
        </g>
        <g>
            <g>
                <path
                    d="m139 20.398h-20.246c-2.856 0-5.172 2.316-5.172 5.172v11.382h30.59v-11.382c0-2.857-2.316-5.172-5.172-5.172z"
                    fill="#f16c7a" />
            </g>
        </g>
        <g>
            <g>
                <path
                    d="m139 18.897h-20.247c-3.679 0-6.672 2.993-6.672 6.672v11.381c0 .829.671 1.5 1.5 1.5h30.59c.828 0 1.5-.671 1.5-1.5v-11.38c.001-3.679-2.992-6.673-6.671-6.673zm3.672 16.554h-27.59v-9.881c0-2.025 1.647-3.672 3.672-3.672h20.246c2.024 0 3.672 1.647 3.672 3.672z"
                    fill="#3a312a" />
            </g>
        </g>
        <g>
            <g>
                <path
                    d="m182.7 20.398h-20.246c-2.856 0-5.172 2.316-5.172 5.172v11.382h30.59v-11.382c0-2.857-2.316-5.172-5.172-5.172z"
                    fill="#f16c7a" />
            </g>
        </g>
        <g>
            <g>
                <path
                    d="m182.7 18.897h-20.246c-3.68 0-6.673 2.993-6.673 6.672v11.381c0 .829.672 1.5 1.5 1.5h30.591c.828 0 1.5-.671 1.5-1.5v-11.38c0-3.679-2.993-6.673-6.672-6.673zm3.672 16.554h-27.591v-9.881c0-2.025 1.647-3.672 3.673-3.672h20.246c2.024 0 3.672 1.647 3.672 3.672z"
                    fill="#3a312a" />
            </g>
        </g>
        <g>
            <g>
                <path
                    d="m226.4 20.398h-20.246c-2.856 0-5.172 2.316-5.172 5.172v11.382h30.59v-11.382c0-2.857-2.316-5.172-5.172-5.172z"
                    fill="#f16c7a" />
            </g>
        </g>
        <g>
            <g>
                <path
                    d="m226.4 18.897h-20.247c-3.679 0-6.672 2.993-6.672 6.672v11.381c0 .829.672 1.5 1.5 1.5h30.591c.828 0 1.5-.671 1.5-1.5v-11.38c0-3.679-2.993-6.673-6.672-6.673zm3.672 16.554h-27.591v-9.881c0-2.025 1.648-3.672 3.672-3.672h20.247c2.024 0 3.672 1.647 3.672 3.672z"
                    fill="#3a312a" />
            </g>
        </g>
        <g>
            <g>
                <path
                    d="m234.8 170.89h-16c2.03 0 3.68 1.65 3.68 3.67v55.87c0 2.03-1.65 3.67-3.68 3.67h16c2.03 0 3.68-1.64 3.68-3.67v-55.87c0-2.02-1.65-3.67-3.68-3.67z"
                    fill="#b9c239" />
            </g>
        </g>
        <g>
            <g>
                <path d="m226.45 154.33h-16c2.02 0 3.67 1.65 3.67 3.68v9.88h16v-9.88c0-2.03-1.65-3.68-3.67-3.68z"
                    fill="#b9c239" />
            </g>
        </g>
        <g>
            <g>
                <path
                    d="m234.8 38.45h-16c2.03 0 3.68 1.65 3.68 3.67v55.87c0 2.03-1.65 3.68-3.68 3.68h16c2.03 0 3.68-1.65 3.68-3.68v-55.87c0-2.02-1.65-3.67-3.68-3.67z"
                    fill="#d34e5c" />
            </g>
        </g>
        <g>
            <g>
                <path d="m226.4 21.9h-16c2.02 0 3.67 1.64 3.67 3.67v9.88h16v-9.88c0-2.03-1.65-3.67-3.67-3.67z"
                    fill="#d34e5c" />
            </g>
        </g>
    </g>
</svg>