<svg id="Capa_1" enable-background="new 0 0 512 512" height="512" viewBox="0 0 512 512" width="512" xmlns="http://www.w3.org/2000/svg"><path d="m182.468 341.254h158.361v117.46h-158.361z" fill="#aaa"/><g fill="#cbcbcb"><path d="m174.38 474.002c-8.442 0-15.286-6.844-15.286-15.285v-101.603h30.571v101.602c.001 8.442-6.843 15.286-15.285 15.286z"/><path d="m228.794 474.002c-8.442 0-15.286-6.844-15.286-15.285v-101.603h30.571v101.602c.001 8.442-6.843 15.286-15.285 15.286z"/><path d="m283.208 474.002c-8.442 0-15.286-6.844-15.286-15.285v-101.603h30.571v101.602c.001 8.442-6.843 15.286-15.285 15.286z"/><path d="m337.622 474.002c-8.442 0-15.286-6.844-15.286-15.285v-101.603h30.571v101.602c.001 8.442-6.843 15.286-15.285 15.286z"/><path d="m308.071 296.528c0-43.302 35.229-78.53 78.53-78.53s78.53 35.228 78.53 78.53-35.229 78.53-78.53 78.53-78.53-35.229-78.53-78.53zm30.933 0c0 26.245 21.352 47.596 47.596 47.596s47.596-21.352 47.596-47.596c0-26.245-21.352-47.596-47.596-47.596s-47.596 21.351-47.596 47.596z"/></g><path d="m392.082 343.799c1.8.207 3.627.325 5.481.325 26.245 0 47.596-21.352 47.596-47.596 0-26.245-21.352-47.596-47.596-47.596-1.855 0-3.681.118-5.481.325 23.671 2.728 42.115 22.881 42.115 47.271s-18.444 44.543-42.115 47.271z" fill="#aaa"/><path d="m283.308 127.117h159.863v119.289h-159.863z" fill="#cbcbcb" transform="matrix(-.707 -.707 .707 -.707 488.029 575.671)"/><path d="m297.014 86.954h32.115v119.289h-32.115z" fill="#aaa" transform="matrix(-.707 -.707 .707 -.707 430.786 471.634)"/><path d="m506.067 178.852-12.929 17.544-9.282 12.568-14.587 19.79-148.017-148.027 19.779-14.577 12.579-9.282 17.544-12.929c12.105-8.932 28.928-7.665 39.559 2.967l92.376 92.377c10.643 10.641 11.9 27.454 2.978 39.569z" fill="#da4a54"/><path d="m359.311 118.789-38.059-38.059 49.896-36.8c12.116-8.919 28.923-7.661 39.564 2.98l38.058 38.058c-10.631-10.641-27.448-11.899-39.564-2.97z" fill="#c32430"/><path d="m125.402 375.058c-43.301 0-78.53-35.228-78.53-78.53s35.229-78.53 78.53-78.53 78.53 35.228 78.53 78.53-35.229 78.53-78.53 78.53zm0-126.127c-26.245 0-47.596 21.352-47.596 47.596 0 26.245 21.352 47.596 47.596 47.596s47.596-21.352 47.596-47.596-21.352-47.596-47.596-47.596z" fill="#cbcbcb"/><path d="m59.893 296.528c0-41.104 31.75-74.946 72.02-78.263-2.143-.175-4.316-.268-6.511-.268-43.299 0-78.531 35.232-78.531 78.531s35.232 78.531 78.531 78.531c2.194 0 4.368-.093 6.511-.268-40.269-3.317-72.02-37.159-72.02-78.263z" fill="#aaa"/><path d="m68.831 127.117h159.863v119.289h-159.863z" fill="#cbcbcb" transform="matrix(.707 -.707 .707 .707 -88.489 159.892)"/><path d="m87.539 172.282h32.115v119.289h-32.115z" fill="#aaa" transform="matrix(.707 -.707 .707 .707 -133.654 141.184)"/><path d="m278.184 158.777h-44.366l-113.04 113.04 38.317 118.973h96.906 96.907l38.316-118.973" fill="#e2dfe2"/><path d="m131.358 215.784c-5.853 5.853-15.342 5.853-21.195 0l-27.233-27.233 21.195-21.195 27.233 27.233c5.852 5.852 5.852 15.342 0 21.195z" fill="#818181"/><path d="m177.785 169.356c-5.853 5.853-15.342 5.853-21.195 0l-27.233-27.233 21.195-21.195 27.233 27.233c5.853 5.853 5.853 15.342 0 21.195z" fill="#818181"/><path d="m190.749 80.727-148.017 148.027-14.587-19.79-9.282-12.568-12.929-17.544c-8.921-12.115-7.665-28.928 2.977-39.569l92.376-92.377c10.642-10.631 27.454-11.899 39.559-2.967l17.544 12.929 12.579 9.272z" fill="#da4a54"/><path d="m80.79 190.691-38.058 38.058-36.8-49.896c-8.919-12.116-7.661-28.923 2.98-39.564l38.058-38.058c-10.642 10.631-11.9 27.448-2.97 39.564z" fill="#c32430"/><path d="m380.645 215.784c5.853 5.853 15.342 5.853 21.195 0l27.233-27.233-21.195-21.195-27.233 27.233c-5.853 5.852-5.853 15.342 0 21.195z" fill="#818181"/><path d="m334.218 169.356c5.853 5.853 15.342 5.853 21.195 0l27.233-27.233-21.195-21.195-27.233 27.233c-5.853 5.853-5.853 15.342 0 21.195z" fill="#818181"/><path d="m170.969 66.139-142.824 142.825-9.282-12.568 139.528-139.528z" fill="#c32430"/><path d="m493.138 196.396-9.282 12.568-142.824-142.814 12.578-9.282z" fill="#c32430"/><circle cx="256.001" cy="257.946" fill="#818181" r="36.003"/><circle cx="352.908" cy="342.295" fill="#818181" r="48.495"/><circle cx="173.553" cy="368.93" fill="#818181" r="58.157"/><circle cx="173.553" cy="368.93" fill="#e2dfe2" r="15.594"/><circle cx="352.908" cy="342.295" fill="#e2dfe2" r="15.594"/><path d="m127.931 340.589c-2.007 0-4.011-.777-5.525-2.324-2.983-3.051-2.929-7.943.122-10.926l103.919-101.615c3.051-2.984 7.943-2.928 10.926.122 2.983 3.051 2.929 7.943-.122 10.926l-103.918 101.614c-1.503 1.47-3.453 2.203-5.402 2.203z" fill="#544f57"/><path d="m372.778 305.79c-1.564 0-3.143-.473-4.509-1.457l-92.197-66.409c-3.463-2.494-4.247-7.323-1.754-10.785 2.494-3.462 7.322-4.247 10.785-1.754l92.197 66.409c3.463 2.494 4.247 7.323 1.754 10.785-1.51 2.096-3.875 3.211-6.276 3.211z" fill="#544f57"/><path d="m213.509 418.916c-2.003 0-4.004-.774-5.517-2.316-2.988-3.047-2.94-7.938.106-10.926l103.53-101.532c3.047-2.988 7.939-2.94 10.926.106 2.988 3.047 2.94 7.938-.106 10.926l-103.53 101.532c-1.504 1.475-3.457 2.21-5.409 2.21z" fill="#544f57"/><path d="m256.001 301.675c-24.113 0-43.729-19.617-43.729-43.73 0-24.112 19.617-43.729 43.729-43.729s43.73 19.617 43.73 43.729c0 24.113-19.617 43.73-43.73 43.73zm0-72.006c-15.592 0-28.277 12.685-28.277 28.277s12.685 28.277 28.277 28.277 28.277-12.685 28.277-28.277-12.685-28.277-28.277-28.277z" fill="#736e6e"/><path d="m352.908 398.516c-31.001 0-56.221-25.221-56.221-56.221s25.221-56.221 56.221-56.221 56.221 25.221 56.221 56.221-25.221 56.221-56.221 56.221zm0-96.99c-22.48 0-40.769 18.289-40.769 40.769s18.289 40.769 40.769 40.769 40.769-18.289 40.769-40.769-18.289-40.769-40.769-40.769z" fill="#736e6e"/><path d="m173.553 434.814c-36.328 0-65.883-29.555-65.883-65.883s29.555-65.883 65.883-65.883 65.883 29.555 65.883 65.883c0 36.327-29.555 65.883-65.883 65.883zm0-116.314c-27.807 0-50.431 22.623-50.431 50.43 0 27.808 22.623 50.431 50.431 50.431s50.431-22.623 50.431-50.431c-.001-27.807-22.624-50.43-50.431-50.43z" fill="#736e6e"/></svg>