<svg height="460pt" viewBox="0 -27 460 459" width="460pt" xmlns="http://www.w3.org/2000/svg"><path d="m460 92.199219v272.300781c.007812 22.09375-17.90625 40.007812-40 40h-380c-22.09375.007812-40.0078125-17.90625-40-40v-272.300781zm-396 257.601562h138.898438c0-41.601562-31.097657-72.199219-69.398438-72.199219-38.398438 0-69.5 30.5-69.5 72.199219zm111.101562-152.902343c0-23.027344-18.671874-41.699219-41.703124-41.699219-23.027344 0-41.699219 18.671875-41.699219 41.699219 0 23.03125 18.671875 41.703124 41.699219 41.703124 23.023437-.023437 41.679687-18.679687 41.703124-41.703124zm0 0" fill="#e48e66"/><path d="m460 40.5v51.699219h-460v-51.699219c-.0078125-22.09375 17.90625-40.007812 40-40h380c22.09375-.007812 40.007812 17.90625 40 40zm0 0" fill="#f8ec7d"/><path d="m222.800781.5h-182.800781c-22.09375-.007812-40.0078125 17.90625-40 40v51.699219h222.800781zm0 0" fill="#e2d574"/><path d="m222.800781 92.199219h-222.800781v272.300781c-.0078125 22.09375 17.90625 40.007812 40 40h182.800781zm0 0" fill="#d18162"/><path d="m202.898438 349.800781h-138.898438c0-41.601562 31.101562-72.199219 69.398438-72.199219 38.402343 0 69.5 30.5 69.5 72.199219zm0 0" fill="#f8ec7d"/><path d="m133.398438 155.199219c23.03125 0 41.703124 18.671875 41.703124 41.699219 0 23.03125-18.671874 41.703124-41.703124 41.703124-23.027344 0-41.699219-18.671874-41.699219-41.703124.023437-23.019532 18.679687-41.675782 41.699219-41.699219zm0 0" fill="#f8ec7d"/><g fill="#63316d"><path d="m395.398438 291.601562h-126.5c-5.519532 0-10-4.480468-10-10 0-5.523437 4.480468-10 10-10h126.5c5.523437 0 10 4.476563 10 10 0 5.519532-4.476563 10-10 10zm0 0"/><path d="m395.398438 349.800781h-126.5c-5.519532 0-10-4.476562-10-10 0-5.523437 4.480468-10 10-10h126.5c5.523437 0 10 4.476563 10 10 0 5.523438-4.476563 10-10 10zm0 0"/><path d="m395.398438 175.199219h-126.5c-5.519532 0-10-4.476563-10-10 0-5.523438 4.480468-10 10-10h126.5c5.523437 0 10 4.476562 10 10 0 5.523437-4.476563 10-10 10zm0 0"/><path d="m395.398438 233.398438h-126.5c-5.519532 0-10-4.476563-10-10 0-5.519532 4.480468-10 10-10h126.5c5.523437 0 10 4.480468 10 10 0 5.523437-4.476563 10-10 10zm0 0"/></g></svg>