<svg height="512pt" viewBox="0 -6 512.0005 512" width="512pt" xmlns="http://www.w3.org/2000/svg">

    <path
        d="m330.402344 132.335938v164.519531c0 10.3125-8.332032 18.65625-18.625 18.65625-4.070313 0-7.839844-1.308594-10.902344-3.535157-4.675781-3.378906-7.726562-8.890624-7.726562-15.121093v42.363281c0 5.148438-2.082032 9.816406-5.449219 13.183594-.699219.703125-1.464844 1.351562-2.277344 1.9375-3.070313 2.226562-6.828125 3.535156-10.898437 3.535156-4.027344 0-7.75-1.277344-10.789063-3.449219-4.140625-2.957031-7.015625-7.5625-7.671875-12.871093v16.125c0 5.152343-2.09375 9.828124-5.460938 13.195312-.710937.722656-1.496093 1.382812-2.316406 1.96875-3.050781 2.207031-6.800781 3.503906-10.851562 3.503906-4.066406 0-7.839844-1.308594-10.910156-3.542968-4.675782-3.378907-7.726563-8.890626-7.726563-15.125v-18.460938c0 6.222656-3.046875 11.742188-7.726563 15.121094-3.058593 2.226562-6.820312 3.535156-10.898437 3.535156-10.285156 0-18.628906-8.355469-18.628906-18.65625v-106.917969l-.359375.0625c-5.417969 0-10.539063-1.269531-15.09375-3.523437-11.238282-5.574219-18.976563-17.183594-18.976563-30.597656v-49.855469c0-9.578125 3.800781-18.757813 10.558594-25.539063l15.578125-15.605468c7.285156-7.296876 11.375-17.183594 11.375-27.507813v-11.117187h127.148438v14.207031c0 9.445312 3.441406 18.574219 9.664062 25.671875 5.78125 6.59375 8.964844 15.0625 8.964844 23.839844zm0 0"
        fill="#fedfc5" />
    <path
        d="m330.402344 132.335938v164.519531c0 10.3125-8.332032 18.65625-18.625 18.65625-.277344 0-.578125 0-.875-.019531-3.722656-.175782-7.171875-1.441407-10.003906-3.503907-.011719 0-.011719-.011719-.023438-.011719-4.675781-3.378906-7.726562-8.890624-7.726562-15.121093v42.363281c0 5.148438-2.082032 9.816406-5.449219 13.183594-.699219.703125-1.464844 1.351562-2.277344 1.9375-3.070313 2.226562-6.828125 3.535156-10.898437 3.535156-4.027344 0-7.75-1.277344-10.789063-3.449219-4.140625-2.957031-7.015625-7.5625-7.671875-12.871093v16.125c0 5.152343-2.09375 9.828124-5.460938 13.195312-.710937.722656-1.496093 1.382812-2.316406 1.96875-3.050781 2.207031-6.800781 3.503906-10.851562 3.503906-4.066406 0-7.839844-1.308594-10.910156-3.542968-4.675782-3.378907-7.726563-8.890626-7.726563-15.125v-18.460938c0 6.222656-3.046875 11.742188-7.726563 15.121094-3.058593 2.226562-6.820312 3.535156-10.898437 3.535156-10.285156 0-18.628906-8.355469-18.628906-18.65625v-106.917969l-.359375.0625c-5.417969 0-10.539063-1.269531-15.09375-3.523437-11.238282-5.574219-18.976563-17.183594-18.976563-30.597656v-49.855469c0-9.578125 3.800781-18.757813 10.558594-25.539063l15.578125-15.605468c4.503906-4.511719 7.789062-10.015626 9.632812-16.011719 1.15625-3.707031 1.742188-7.613281 1.742188-11.496094v-11.117187h127.148438v14.207031c0 3.183593.34375 6.542969 1.226562 9.609375 1.484375 5.90625 4.371094 11.417968 8.4375 16.0625 5.730469 6.542968 8.964844 15.125 8.964844 23.839844zm0 0"
        fill="#fedfc5" />
    <path
        d="m330.402344 132.335938v164.519531c0 10.3125-8.332032 18.65625-18.625 18.65625-.277344 0-.578125 0-.875-.019531-3.722656-.175782-7.171875-1.441407-10.003906-3.503907l.316406-158.53125c0-.957031-.214844-2.472656-.617188-4.398437-7.109375-34.628906-36.335937-57.828125-71.683594-57.828125h-46.03125c1.15625-3.710938 1.742188-7.613281 1.742188-11.496094v-11.117187h127.148438v14.207031c0 3.183593.34375 6.542969 1.226562 9.609375 1.484375 5.90625 4.371094 11.417968 8.4375 16.0625 5.730469 6.542968 8.964844 15.125 8.964844 23.839844zm0 0"
        fill="#fecbaa" />
    <path
        d="m320.039062 68.621094h-144.328124c-4.753907 0-8.609376-3.855469-8.609376-8.609375v-51.402344c0-4.753906 3.855469-8.609375 8.609376-8.609375h144.328124c4.753907 0 8.609376 3.855469 8.609376 8.609375v51.402344c0 4.753906-3.855469 8.609375-8.609376 8.609375zm0 0"
        fill="#83d9ff" />
    <path
        d="m207.890625 34.3125c0-4.269531-3.453125-7.726562-7.714844-7.726562s-7.714843 3.457031-7.714843 7.726562c0 4.265625 3.453124 7.726562 7.714843 7.726562s7.714844-3.460937 7.714844-7.726562zm0 0"
        fill="#5186ff" />
    <g fill="#fecbaa">
        <path
            d="m300.878906 210.757812v101.21875c-4.679687-3.378906-7.730468-8.890624-7.730468-15.125v42.363282c0 5.152344-2.078126 9.820312-5.449219 13.1875-.699219.703125-1.460938 1.351562-2.277344 1.9375v-143.582032c0-4.265624 3.464844-7.726562 7.726563-7.726562 4.265624 0 7.730468 3.460938 7.730468 7.726562zm0 0" />
        <path
            d="m263.738281 210.757812v143.664063c-4.144531-2.957031-7.015625-7.5625-7.675781-12.867187v16.125c0 5.148437-2.089844 9.828124-5.460938 13.195312-.710937.722656-1.492187 1.378906-2.316406 1.96875v-162.085938c0-4.265624 3.460938-7.726562 7.726563-7.726562s7.726562 3.460938 7.726562 7.726562zm0 0" />
        <path
            d="m226.523438 210.757812v162.042969c-4.675782-3.378906-7.726563-8.890625-7.726563-15.121093v-18.464844c0 6.222656-3.046875 11.746094-7.726563 15.125v-143.582032c0-4.265624 3.464844-7.726562 7.726563-7.726562 4.277344 0 7.726563 3.460938 7.726563 7.726562zm0 0" />
        <path
            d="m181.546875 195.488281v36.8125l-.363281.058594c-5.417969 0-10.539063-1.265625-15.089844-3.519531v-33.351563c0-4.265625 3.460938-7.726562 7.726562-7.726562 4.273438 0 7.726563 3.460937 7.726563 7.726562zm0 0" />
    </g>
</svg>