<svg id="Capa_1" enable-background="new 0 0 496.406 496.406" height="512" viewBox="0 0 496.406 496.406" width="512"
    xmlns="http://www.w3.org/2000/svg">
    <g>
        <path d="m68.203 181.406-15 15-15-15c0-10.128 0-139.871 0-150h30z" fill="#674639" />
        <path d="m458.203 256.406 15 15 15-15c0-10.128 0-139.871 0-150-10.492 0-19.508 0-30 0z" fill="#674639" />
        <path d="m128.203 241.406c-10.889 0-79.04 0-90 0 0-7.259 0-52.693 0-60h90l15 30z" fill="#8f5f4d" />
        <path d="m368.203 316.406h120c0-7.259 0-52.693 0-60-14.518 0-105.386 0-120 0l-15 30z" fill="#674639" />
        <path
            d="m123.416 392.833 19.787-16.427-15-21.213c-15.342-15.341-34.644-34.643-49.393-49.393-7.419 7.419-13.794 13.794-21.213 21.213 7.326 7.326 58.911 58.911 65.819 65.82z"
            fill="#8f5f4d" />
        <path
            d="m368.203 127.619c9.918-9.918 60.811-60.811 70.606-70.606-7.419-7.419-13.794-13.794-21.213-21.213-8.067 8.067-36.983 36.983-49.394 49.393l-15 21.213z"
            fill="#674639" />
        <path
            d="m248.198 20c-12.252-7.001-22.748-12.999-34.999-20-13.352 6.676-26.655 13.329-39.996 20-14.299-6.355-30.701-13.645-45-20v361.406c0 57.988-47.008 105-105 105l112.5 15 112.5-15 15-223.205-15-223.205-.002.002z"
            fill="#b17d52" />
        <path
            d="m368.203 361.406c0-10.192 0-351.214 0-361.406-14.299 6.355-30.701 13.645-45 20-13.352-6.675-26.661-13.328-40.007-20-12.226 6.987-22.767 13.01-34.993 19.997v446.409l112.5 15 112.5-15c-57.988 0-105-47.008-105-105z"
            fill="#8f5f4d" />
        <path
            d="m218.203 391.406c0-10.492 0-19.508 0-30-10.492 0-19.508 0-30 0v30c0 41.354-33.644 75-75 75l36.702 15 36.702-15c20.139-19.714 31.596-46.54 31.596-75z"
            fill="#8f5f4d" />
        <path
            d="m308.203 391.406c0-10.492 0-19.508 0-30-10.492 0-19.508 0-30 0v30c0 28.409 11.42 55.25 31.596 75l36.702 15 36.702-15c-41.354 0-75-33.643-75-75z"
            fill="#674639" />
        <g>
            <path d="m188.203 151.406h30v30h-30z" fill="#ffe278" />
        </g>
        <g>
            <path d="m278.203 151.406h30v30h-30z" fill="#ffe278" />
        </g>
        <g>
            <path d="m248.203 256.406h-30v-30h30l15 15z" fill="#ffe278" />
        </g>
        <path d="m8.203 466.406v30h240l15-15-15-15c-6.771 0-233.232 0-240 0z" fill="#cbf85f" />
        <path d="m488.203 466.406c-6.771 0-233.232 0-240 0v30h240c0-10.492 0-19.508 0-30z" fill="#9ed867" />
        <g>
            <path d="m248.203 226.406h30v30h-30z" fill="#ffb454" />
        </g>
    </g>
</svg>