<svg id="Capa_1" enable-background="new 0 0 512 512" height="512" viewBox="0 0 512 512" width="512"
    xmlns="http://www.w3.org/2000/svg">
    <g>
        <g>
            <path d="m354.258 196h-198.516l45-90 54.258-30 54.258 30z" fill="#596c76" />
        </g>
        <path d="m354.258 196-45-90-54.258-30v120z" fill="#465a61" />
        <g>
            <path d="m497 331h-77v-90h77z" fill="#465a61" />
        </g>
        <g>
            <path d="m360 466h-210v-90h210z" fill="#596c76" />
        </g>
        <path d="m135 106c0-32.948 26.803-60 60-60h120c33.076 0 60 26.909 60 60z" fill="#edf3f9" />
        <g>
            <path d="m482 211h30v150h-30z" fill="#3b4a51" />
        </g>
        <path d="m255 376h105v90h-105z" fill="#465a61" />
        <path d="m255 46v60h120c0-33.091-26.924-60-60-60z" fill="#c2dbf2" />
        <path d="m450 241v90c0 41.4-33.6 75-75 75h-300l-30-110.852 30-129.148h300c41.4 0 75 33.6 75 75z"
            fill="#ffdf40" />
        <path d="m375 166h-120v240h120c41.4 0 75-33.6 75-75v-90c0-41.4-33.6-75-75-75z" fill="#ffbe40" />
        <g>
            <path d="m255 406c-66.182 0-120-53.833-120-120s53.818-120 120-120 120 53.833 120 120-53.818 120-120 120z"
                fill="#ffbe40" />
        </g>
        <path d="m375 286c0-66.167-53.818-120-120-120v240c66.182 0 120-53.833 120-120z" fill="#ff9f40" />
        <g>
            <g>
                <path
                    d="m252.48 354.335-24.96-16.641 23.173-34.775-30-29.985 36.827-55.254 24.96 16.64-23.173 34.776 30 30.014z"
                    fill="#ffdf40" />
            </g>
        </g>
        <path d="m257.52 217.68-2.52 3.781v129.096l34.307-51.447-30-30.014 23.173-34.776z" fill="#ffbe40" />
        <g id="Engine_2_">
            <g>
                <path d="m0 241v90c0 41.4 33.6 75 75 75v-240c-41.4 0-75 33.6-75 75z" fill="#596c76" />
            </g>
        </g>
    </g>
</svg>