<svg id="Layer_1" enable-background="new 0 0 512 512" height="512" viewBox="0 0 512 512" width="512" xmlns="http://www.w3.org/2000/svg">
	<g>
		<path d="m481.095 512h-450.19c-17.068 0-30.905-13.837-30.905-30.905v-388.943c0-17.069 13.837-30.905 30.905-30.905h450.189c17.069 0 30.905 13.837 30.905 30.905v388.942c.001 17.069-13.836 30.906-30.904 30.906z" fill="#fff7e8" />
		<path d="m450.905 512-305.984-305.984-144.769 144.769v133.367c1.535 15.631 14.713 27.844 30.746 27.848z" fill="#ffd88f" />
		<path d="m105.088 166.183-95.958-95.958c-4.959 4.925-8.256 11.519-8.978 18.87v182.023z" fill="#59a1a5" />
		<path d="m509.908 492.272c1.346-3.467 2.092-7.234 2.092-11.177v-325.375l-166.612 172.032z" fill="#b5e8e0" />
		<path d="m481.102 61.247h-402.219l225.377 225.377 204.392-208.457c-5.104-10.036-15.52-16.917-27.55-16.92z" fill="#ff7893" />
		<g>
			<g>
				<path d="m364.388 60.642c0 48.5-39.357 123.142-60.798 123.142-22.616 0-60.798-78.741-60.798-123.142 0-33.492 27.22-60.642 60.798-60.642s60.798 27.15 60.798 60.642z" fill="#ffd88f" />
				<path d="m303.59 0c-7.233 0-14.169 1.266-20.604 3.578 23.436 8.42 40.195 30.787 40.195 57.064 0 35.132-20.651 83.973-40.184 108.232 7.293 9.201 14.507 14.91 20.593 14.91 21.441 0 60.798-74.643 60.798-123.142 0-33.492-27.22-60.642-60.798-60.642z" fill="#ffc963" />
				<ellipse cx="303.59" cy="62.435" fill="#fff7e8" rx="28.351" ry="28.424" />
			</g>
			<g>
				<path d="m208.441 356.194c0 48.5-39.357 123.142-60.798 123.142-22.616 0-60.798-78.741-60.798-123.142 0-33.492 27.22-60.642 60.798-60.642s60.798 27.151 60.798 60.642z" fill="#ff7893" />
				<path d="m147.643 295.553c-7.233 0-14.169 1.266-20.604 3.578 23.436 8.42 40.195 30.787 40.195 57.063 0 35.132-20.651 83.973-40.184 108.232 7.293 9.201 14.507 14.91 20.593 14.91 21.441 0 60.798-74.642 60.798-123.142 0-33.491-27.22-60.641-60.798-60.641z" fill="#ff5e7f" />
				<ellipse cx="147.643" cy="357.988" fill="#fff7e8" rx="28.351" ry="28.424" />
			</g>
		</g>
	</g>
</svg>