<svg id="svg" version="1.1" xmlns="http://www.w3.org/2000/svg" xmlns:xlink="http://www.w3.org/1999/xlink" width="400"
    height="371.49554617909047" viewBox="0, 0, 400,371.49554617909047">
    <g id="svgg">
        <path id="path0"
            d="M283.623 0.208 C 266.264 1.268,252.692 15.404,252.065 33.077 L 251.946 36.432 249.883 36.849 C 220.298 42.840,200.102 71.714,204.874 101.196 C 205.199 103.204,205.341 103.101,203.452 102.230 C 190.267 96.148,175.146 98.830,164.855 109.075 C 163.678 110.246,162.701 111.205,162.683 111.205 C 162.665 111.205,161.820 110.649,160.805 109.971 C 157.526 107.778,153.685 106.145,149.585 105.200 C 148.571 104.966,147.717 104.682,147.689 104.568 C 146.779 100.945,146.501 98.993,146.758 98.040 C 148.240 92.552,148.942 83.178,148.329 77.048 C 144.536 39.063,108.255 13.686,71.276 23.153 L 69.510 23.605 68.182 22.373 C 45.621 1.439,8.427 12.586,1.109 42.475 C -0.063 47.261,-0.000 43.870,-0.000 102.213 L 0.000 155.462 200.000 155.462 L 400.000 155.462 400.000 105.812 C 400.000 53.115,400.021 54.514,399.150 49.883 C 391.778 10.718,347.329 -9.181,313.384 11.487 L 312.188 12.215 310.008 10.079 C 302.666 2.883,293.847 -0.416,283.623 0.208 M268.823 239.662 C 268.748 239.784,268.772 239.967,268.875 240.070 C 269.000 240.195,269.108 240.184,269.198 240.038 C 269.273 239.916,269.250 239.733,269.147 239.630 C 269.022 239.505,268.914 239.516,268.823 239.662 M270.323 244.163 C 270.249 244.284,270.272 244.468,270.375 244.571 C 270.500 244.696,270.608 244.685,270.699 244.538 C 270.773 244.417,270.750 244.234,270.647 244.130 C 270.522 244.005,270.414 244.016,270.323 244.163 M271.824 248.664 C 271.749 248.785,271.772 248.968,271.875 249.072 C 272.000 249.197,272.108 249.186,272.199 249.039 C 272.274 248.918,272.250 248.734,272.147 248.631 C 272.022 248.506,271.914 248.517,271.824 248.664 M273.324 253.165 C 273.249 253.286,273.272 253.469,273.375 253.572 C 273.500 253.697,273.608 253.686,273.699 253.540 C 273.774 253.419,273.751 253.235,273.648 253.132 C 273.523 253.007,273.415 253.018,273.324 253.165 M274.824 257.665 C 274.749 257.786,274.772 257.970,274.876 258.073 C 275.001 258.198,275.109 258.187,275.199 258.040 C 275.274 257.919,275.251 257.736,275.148 257.633 C 275.023 257.508,274.915 257.518,274.824 257.665 M276.324 262.166 C 276.250 262.287,276.273 262.471,276.376 262.574 C 276.501 262.699,276.609 262.688,276.699 262.541 C 276.774 262.420,276.751 262.236,276.648 262.133 C 276.523 262.008,276.415 262.019,276.324 262.166 M277.825 265.166 C 277.750 265.288,277.773 265.471,277.876 265.574 C 278.001 265.699,278.109 265.688,278.200 265.541 C 278.275 265.420,278.251 265.237,278.148 265.134 C 278.023 265.009,277.915 265.020,277.825 265.166 M279.325 269.667 C 279.250 269.788,279.273 269.972,279.376 270.075 C 279.501 270.200,279.609 270.189,279.700 270.042 C 279.775 269.921,279.752 269.738,279.649 269.634 C 279.524 269.509,279.416 269.520,279.325 269.667 "
            stroke="none" fill="#e1eefc" fill-rule="evenodd"></path>
        <path id="path1"
            d="M147.551 178.106 C 149.543 178.136,152.750 178.136,154.677 178.106 C 156.604 178.075,154.974 178.050,151.055 178.050 C 147.135 178.050,145.559 178.075,147.551 178.106 M244.316 178.106 C 246.308 178.136,249.515 178.136,251.442 178.106 C 253.369 178.075,251.739 178.050,247.820 178.050 C 243.901 178.050,242.324 178.075,244.316 178.106 M0.000 271.790 C 0.000 356.097,0.028 364.770,0.298 365.695 C 1.019 368.162,3.134 370.269,5.631 371.011 C 6.527 371.277,10.045 371.308,39.412 371.308 L 72.192 371.308 72.242 347.726 C 72.299 320.894,72.143 323.315,73.932 321.674 C 75.242 320.471,75.024 320.490,87.978 320.489 C 97.203 320.488,99.745 320.437,99.814 320.253 C 99.863 320.124,108.775 294.870,119.619 264.133 L 139.334 208.247 139.334 195.203 C 139.334 180.627,139.299 181.048,140.641 179.637 L 141.339 178.903 70.670 178.903 L 0.000 178.903 0.000 271.790 M161.455 179.512 C 162.832 180.852,162.767 180.088,162.771 194.890 L 162.775 208.158 199.339 208.158 L 235.902 208.158 235.954 195.077 L 236.006 181.997 236.437 181.060 C 236.675 180.544,237.134 179.848,237.458 179.512 L 238.048 178.903 199.439 178.903 L 160.829 178.903 161.455 179.512 M258.233 179.594 C 259.603 181.155,259.532 180.311,259.536 194.955 L 259.541 208.100 269.386 235.999 C 274.801 251.344,279.231 263.939,279.231 263.990 C 279.231 264.040,279.379 264.024,279.559 263.953 C 279.740 263.883,280.816 263.754,281.950 263.668 C 284.560 263.468,285.574 263.092,288.701 261.166 C 293.662 258.112,296.014 257.417,301.453 257.397 C 307.465 257.376,309.485 257.998,315.588 261.753 C 320.175 264.575,323.818 264.415,328.926 261.168 C 337.447 255.750,346.327 255.839,355.283 261.430 C 357.914 263.072,359.040 263.472,361.553 263.658 C 368.514 264.173,370.663 272.160,364.640 275.125 L 363.442 275.715 360.671 275.620 C 356.227 275.469,353.207 274.472,348.914 271.740 C 343.843 268.513,340.127 268.437,335.338 271.465 C 326.871 276.817,317.769 277.240,310.164 272.633 C 305.474 269.793,304.893 269.545,302.472 269.354 C 299.670 269.132,297.935 269.673,294.476 271.844 C 290.928 274.071,288.506 275.015,285.026 275.525 L 283.414 275.762 284.871 279.887 C 285.672 282.157,289.241 292.272,292.802 302.365 C 296.363 312.459,299.310 320.750,299.350 320.791 C 299.390 320.831,299.672 320.778,299.976 320.672 C 300.337 320.546,304.642 320.497,312.430 320.530 C 325.645 320.587,324.928 320.518,326.303 321.856 C 327.709 323.223,327.605 321.181,327.610 347.634 L 327.614 371.312 360.947 371.263 L 394.280 371.214 395.406 370.654 C 396.879 369.921,398.657 368.148,399.357 366.714 L 399.906 365.588 399.954 272.246 L 400.001 178.903 328.814 178.903 L 257.626 178.903 258.233 179.594 M40.225 199.254 C 43.253 199.877,45.289 200.752,48.725 202.905 C 53.835 206.108,57.314 206.126,62.394 202.976 C 71.634 197.245,79.926 197.277,89.257 203.080 C 91.780 204.649,92.997 205.068,95.546 205.248 C 99.606 205.534,101.828 207.716,101.828 211.416 C 101.828 218.591,92.419 219.393,82.361 213.075 C 79.417 211.226,78.878 211.064,75.668 211.064 C 72.558 211.064,72.040 211.231,68.761 213.290 C 59.950 218.822,51.250 218.812,42.409 213.258 C 39.140 211.205,38.693 211.064,35.443 211.071 C 32.226 211.077,31.934 211.170,28.659 213.223 C 18.562 219.552,8.989 218.431,9.421 210.970 C 9.625 207.456,11.615 205.681,15.846 205.240 C 18.600 204.953,19.605 204.587,22.341 202.869 C 26.360 200.346,28.814 199.432,33.005 198.898 C 34.305 198.732,38.756 198.951,40.225 199.254 M343.934 213.981 C 347.488 214.422,350.369 215.486,353.722 217.596 C 356.983 219.648,357.783 219.959,360.340 220.167 C 364.867 220.536,367.085 222.569,367.085 226.348 C 367.085 233.697,357.878 234.505,347.521 228.064 C 342.769 225.109,339.085 225.164,334.149 228.263 C 324.264 234.468,314.862 233.535,314.862 226.348 C 314.862 222.670,317.260 220.528,321.790 220.160 C 324.248 219.960,324.841 219.728,328.292 217.611 C 333.535 214.394,338.320 213.283,343.934 213.981 M70.715 248.909 C 73.433 249.616,75.109 250.360,78.186 252.225 C 81.593 254.290,82.045 254.459,84.720 254.665 C 89.027 254.997,91.374 257.196,91.365 260.891 C 91.350 267.929,82.155 268.919,72.413 262.932 C 68.714 260.659,68.495 260.586,65.354 260.578 C 62.150 260.571,61.629 260.726,58.667 262.575 C 48.765 268.756,39.885 268.211,39.082 261.372 C 38.647 257.676,41.676 254.671,45.843 254.663 C 47.922 254.658,49.123 254.192,52.508 252.073 C 58.168 248.529,64.812 247.375,70.715 248.909 "
            stroke="none" fill="#8bcbfb" fill-rule="evenodd"></path>
        <path id="path2"
            d="M0.000 167.182 L 0.000 178.903 70.670 178.903 C 133.337 178.903,141.404 178.871,141.907 178.620 C 143.617 177.767,158.243 177.655,160.033 178.481 L 160.948 178.903 199.437 178.903 L 237.927 178.903 238.842 178.481 C 239.745 178.064,239.854 178.059,247.820 178.059 C 255.786 178.059,255.895 178.064,256.798 178.481 L 257.713 178.903 328.856 178.903 L 400.000 178.903 400.000 167.182 L 400.000 155.462 200.000 155.462 L 0.000 155.462 0.000 167.182 M33.005 198.898 C 28.814 199.432,26.360 200.346,22.341 202.869 C 19.605 204.587,18.600 204.953,15.846 205.240 C 11.615 205.681,9.625 207.456,9.421 210.970 C 8.989 218.431,18.562 219.552,28.659 213.223 C 31.934 211.170,32.226 211.077,35.443 211.071 C 38.693 211.064,39.140 211.205,42.409 213.258 C 51.250 218.812,59.950 218.822,68.761 213.290 C 72.040 211.231,72.558 211.064,75.668 211.064 C 78.878 211.064,79.417 211.226,82.361 213.075 C 92.419 219.393,101.828 218.591,101.828 211.416 C 101.828 207.716,99.606 205.534,95.546 205.248 C 92.997 205.068,91.780 204.649,89.257 203.080 C 79.926 197.277,71.634 197.245,62.394 202.976 C 57.314 206.126,53.835 206.108,48.725 202.905 C 43.481 199.618,38.105 198.248,33.005 198.898 M297.466 257.560 C 294.248 258.169,292.234 258.999,288.701 261.169 C 285.556 263.103,284.562 263.468,281.910 263.669 C 280.753 263.756,279.693 263.897,279.555 263.981 C 279.313 264.128,279.950 266.090,282.913 274.328 L 283.409 275.706 284.649 275.574 C 287.896 275.229,290.899 274.089,294.476 271.844 C 297.935 269.673,299.670 269.132,302.472 269.354 C 304.893 269.545,305.474 269.793,310.164 272.633 C 317.769 277.240,326.871 276.817,335.338 271.465 C 340.127 268.437,343.843 268.513,348.914 271.740 C 358.512 277.848,368.079 276.813,368.010 269.674 C 367.975 266.106,365.675 263.963,361.553 263.658 C 359.040 263.472,357.914 263.072,355.283 261.430 C 346.327 255.839,337.447 255.750,328.926 261.168 C 323.818 264.415,320.175 264.575,315.588 261.753 C 311.505 259.242,309.651 258.393,306.803 257.733 C 305.065 257.331,299.245 257.223,297.466 257.560 "
            stroke="none" fill="#64bcfc" fill-rule="evenodd"></path>
        <path id="path3"
            d="M337.859 213.996 C 334.555 214.420,331.787 215.466,328.292 217.611 C 324.841 219.728,324.248 219.960,321.790 220.160 C 317.260 220.528,314.862 222.670,314.862 226.348 C 314.862 233.535,324.264 234.468,334.149 228.263 C 339.085 225.164,342.769 225.109,347.521 228.064 C 357.878 234.505,367.085 233.697,367.085 226.348 C 367.085 222.569,364.867 220.536,360.340 220.167 C 357.783 219.959,356.983 219.648,353.722 217.596 C 348.697 214.435,343.547 213.266,337.859 213.996 M61.791 248.486 C 58.460 249.006,55.705 250.071,52.508 252.073 C 49.123 254.192,47.922 254.658,45.843 254.663 C 41.676 254.671,38.647 257.676,39.082 261.372 C 39.885 268.211,48.765 268.756,58.667 262.575 C 61.629 260.726,62.150 260.571,65.354 260.578 C 68.495 260.586,68.714 260.659,72.413 262.932 C 82.155 268.919,91.350 267.929,91.365 260.891 C 91.374 257.196,89.027 254.997,84.720 254.665 C 82.045 254.459,81.593 254.290,78.186 252.225 C 72.687 248.892,67.197 247.640,61.791 248.486 M72.290 348.054 C 72.290 360.895,72.312 366.149,72.339 359.728 C 72.367 353.308,72.367 342.801,72.339 336.381 C 72.312 329.960,72.290 335.213,72.290 348.054 "
            stroke="none" fill="#b3dbfb" fill-rule="evenodd"></path>
        <path id="path4"
            d="M142.401 178.458 C 141.467 178.789,140.422 179.762,139.848 180.836 L 139.428 181.622 139.334 195.124 L 139.241 208.626 119.572 264.323 C 108.754 294.955,99.863 320.124,99.814 320.253 C 99.765 320.382,99.861 320.488,100.027 320.488 C 100.237 320.488,100.328 320.317,100.328 319.925 C 100.328 319.616,100.413 319.362,100.516 319.362 C 100.619 319.362,100.703 319.109,100.703 318.800 C 100.703 318.490,100.788 318.237,100.891 318.237 C 100.994 318.237,101.078 317.984,101.078 317.675 C 101.078 317.365,101.163 317.112,101.266 317.112 C 101.369 317.112,101.453 316.943,101.453 316.737 C 101.453 316.531,101.538 316.362,101.641 316.362 C 101.744 316.362,101.828 316.109,101.828 315.799 C 101.828 315.490,101.913 315.237,102.016 315.237 C 102.119 315.237,102.203 314.984,102.203 314.674 C 102.203 314.365,102.288 314.112,102.391 314.112 C 102.494 314.112,102.579 313.858,102.579 313.549 C 102.579 313.240,102.663 312.986,102.766 312.986 C 102.869 312.986,102.954 312.733,102.954 312.424 C 102.954 312.114,103.038 311.861,103.141 311.861 C 103.244 311.861,103.329 311.608,103.329 311.299 C 103.329 310.989,103.413 310.736,103.516 310.736 C 103.619 310.736,103.704 310.567,103.704 310.361 C 103.704 310.155,103.788 309.986,103.891 309.986 C 103.994 309.986,104.079 309.733,104.079 309.423 C 104.079 309.114,104.163 308.861,104.266 308.861 C 104.369 308.861,104.454 308.608,104.454 308.298 C 104.454 307.989,104.538 307.736,104.641 307.736 C 104.744 307.736,104.829 307.482,104.829 307.173 C 104.829 306.864,104.913 306.610,105.016 306.610 C 105.120 306.610,105.204 306.357,105.204 306.048 C 105.204 305.738,105.288 305.485,105.391 305.485 C 105.495 305.485,105.579 305.232,105.579 304.923 C 105.579 304.613,105.663 304.360,105.767 304.360 C 105.870 304.360,105.954 304.191,105.954 303.985 C 105.954 303.779,106.038 303.610,106.142 303.610 C 106.245 303.610,106.329 303.357,106.329 303.047 C 106.329 302.738,106.414 302.485,106.517 302.485 C 106.620 302.485,106.704 302.232,106.704 301.922 C 106.704 301.613,106.789 301.360,106.892 301.360 C 106.995 301.360,107.079 301.106,107.079 300.797 C 107.079 300.488,107.164 300.234,107.267 300.234 C 107.370 300.234,107.454 299.981,107.454 299.672 C 107.454 299.362,107.539 299.109,107.642 299.109 C 107.745 299.109,107.829 298.856,107.829 298.547 C 107.829 298.237,107.914 297.984,108.017 297.984 C 108.120 297.984,108.204 297.815,108.204 297.609 C 108.204 297.403,108.289 297.234,108.392 297.234 C 108.495 297.234,108.579 296.981,108.579 296.671 C 108.579 296.362,108.664 296.109,108.767 296.109 C 108.870 296.109,108.955 295.856,108.955 295.546 C 108.955 295.237,109.039 294.984,109.142 294.984 C 109.245 294.984,109.330 294.730,109.330 294.421 C 109.330 294.112,109.414 293.858,109.517 293.858 C 109.620 293.858,109.705 293.605,109.705 293.296 C 109.705 292.986,109.789 292.733,109.892 292.733 C 109.995 292.733,110.080 292.480,110.080 292.171 C 110.080 291.861,110.164 291.608,110.267 291.608 C 110.370 291.608,110.455 291.439,110.455 291.233 C 110.455 291.027,110.539 290.858,110.642 290.858 C 110.745 290.858,110.830 290.605,110.830 290.295 C 110.830 289.986,110.914 289.733,111.017 289.733 C 111.120 289.733,111.205 289.480,111.205 289.170 C 111.205 288.861,111.289 288.608,111.392 288.608 C 111.496 288.608,111.580 288.354,111.580 288.045 C 111.580 287.736,111.664 287.482,111.767 287.482 C 111.871 287.482,111.955 287.229,111.955 286.920 C 111.955 286.610,112.039 286.357,112.143 286.357 C 112.246 286.357,112.330 286.104,112.330 285.795 C 112.330 285.485,112.414 285.232,112.518 285.232 C 112.621 285.232,112.705 285.063,112.705 284.857 C 112.705 284.651,112.789 284.482,112.893 284.482 C 112.996 284.482,113.080 284.229,113.080 283.919 C 113.080 283.610,113.165 283.357,113.268 283.357 C 113.371 283.357,113.455 283.104,113.455 282.794 C 113.455 282.485,113.540 282.232,113.643 282.232 C 113.746 282.232,113.830 281.978,113.830 281.669 C 113.830 281.360,113.915 281.106,114.018 281.106 C 114.121 281.106,114.205 280.853,114.205 280.544 C 114.205 280.234,114.290 279.981,114.393 279.981 C 114.496 279.981,114.580 279.728,114.580 279.419 C 114.580 279.109,114.665 278.856,114.768 278.856 C 114.871 278.856,114.955 278.687,114.955 278.481 C 114.955 278.275,115.040 278.106,115.143 278.106 C 115.246 278.106,115.331 277.853,115.331 277.543 C 115.331 277.234,115.415 276.981,115.518 276.981 C 115.621 276.981,115.706 276.728,115.706 276.418 C 115.706 276.109,115.790 275.856,115.893 275.856 C 115.996 275.856,116.081 275.602,116.081 275.293 C 116.081 274.984,116.165 274.730,116.268 274.730 C 116.371 274.730,116.456 274.477,116.456 274.168 C 116.456 273.858,116.540 273.605,116.643 273.605 C 116.746 273.605,116.831 273.352,116.831 273.043 C 116.831 272.733,116.915 272.480,117.018 272.480 C 117.121 272.480,117.206 272.227,117.206 271.917 C 117.206 271.608,117.290 271.355,117.393 271.355 C 117.496 271.355,117.581 271.186,117.581 270.980 C 117.581 270.774,117.665 270.605,117.768 270.605 C 117.872 270.605,117.956 270.352,117.956 270.042 C 117.956 269.733,118.040 269.480,118.143 269.480 C 118.247 269.480,118.331 269.226,118.331 268.917 C 118.331 268.608,118.415 268.354,118.519 268.354 C 118.622 268.354,118.706 268.101,118.706 267.792 C 118.706 267.482,118.790 267.229,118.894 267.229 C 118.997 267.229,119.081 266.976,119.081 266.667 C 119.081 266.357,119.165 266.104,119.269 266.104 C 119.372 266.104,119.456 265.851,119.456 265.541 C 119.456 265.232,119.541 264.979,119.644 264.979 C 119.747 264.979,119.831 264.810,119.831 264.604 C 119.831 264.398,119.916 264.229,120.019 264.229 C 120.122 264.229,120.206 263.976,120.206 263.666 C 120.206 263.357,120.291 263.104,120.394 263.104 C 120.497 263.104,120.581 262.850,120.581 262.541 C 120.581 262.232,120.666 261.978,120.769 261.978 C 120.872 261.978,120.956 261.725,120.956 261.416 C 120.956 261.106,121.041 260.853,121.144 260.853 C 121.247 260.853,121.331 260.600,121.331 260.291 C 121.331 259.981,121.416 259.728,121.519 259.728 C 121.622 259.728,121.707 259.475,121.707 259.165 C 121.707 258.856,121.791 258.603,121.894 258.603 C 121.997 258.603,122.082 258.434,122.082 258.228 C 122.082 258.022,122.166 257.853,122.269 257.853 C 122.372 257.853,122.457 257.600,122.457 257.290 C 122.457 256.981,122.541 256.728,122.644 256.728 C 122.747 256.728,122.832 256.474,122.832 256.165 C 122.832 255.856,122.916 255.602,123.019 255.602 C 123.122 255.602,123.207 255.349,123.207 255.040 C 123.207 254.730,123.291 254.477,123.394 254.477 C 123.497 254.477,123.582 254.224,123.582 253.915 C 123.582 253.605,123.666 253.352,123.769 253.352 C 123.872 253.352,123.957 253.099,123.957 252.789 C 123.957 252.480,124.041 252.227,124.144 252.227 C 124.248 252.227,124.332 252.058,124.332 251.852 C 124.332 251.646,124.416 251.477,124.519 251.477 C 124.623 251.477,124.707 251.224,124.707 250.914 C 124.707 250.605,124.791 250.352,124.895 250.352 C 124.998 250.352,125.082 250.098,125.082 249.789 C 125.082 249.480,125.166 249.226,125.270 249.226 C 125.373 249.226,125.457 248.973,125.457 248.664 C 125.457 248.354,125.541 248.101,125.645 248.101 C 125.748 248.101,125.832 247.848,125.832 247.539 C 125.832 247.229,125.917 246.976,126.020 246.976 C 126.123 246.976,126.207 246.723,126.207 246.414 C 126.207 246.104,126.292 245.851,126.395 245.851 C 126.498 245.851,126.582 245.682,126.582 245.476 C 126.582 245.270,126.667 245.101,126.770 245.101 C 126.873 245.101,126.957 244.848,126.957 244.538 C 126.957 244.229,127.042 243.976,127.145 243.976 C 127.248 243.976,127.332 243.722,127.332 243.413 C 127.332 243.104,127.417 242.850,127.520 242.850 C 127.623 242.850,127.707 242.597,127.707 242.288 C 127.707 241.978,127.792 241.725,127.895 241.725 C 127.998 241.725,128.083 241.472,128.083 241.163 C 128.083 240.853,128.167 240.600,128.270 240.600 C 128.373 240.600,128.458 240.431,128.458 240.225 C 128.458 240.019,128.542 239.850,128.645 239.850 C 128.748 239.850,128.833 239.597,128.833 239.287 C 128.833 238.978,128.917 238.725,129.020 238.725 C 129.123 238.725,129.208 238.472,129.208 238.162 C 129.208 237.853,129.292 237.600,129.395 237.600 C 129.498 237.600,129.583 237.346,129.583 237.037 C 129.583 236.728,129.667 236.474,129.770 236.474 C 129.873 236.474,129.958 236.221,129.958 235.912 C 129.958 235.602,130.042 235.349,130.145 235.349 C 130.248 235.349,130.333 235.096,130.333 234.787 C 130.333 234.477,130.417 234.224,130.520 234.224 C 130.624 234.224,130.708 234.055,130.708 233.849 C 130.708 233.643,130.792 233.474,130.895 233.474 C 130.999 233.474,131.083 233.221,131.083 232.911 C 131.083 232.602,131.167 232.349,131.271 232.349 C 131.374 232.349,131.458 232.096,131.458 231.786 C 131.458 231.477,131.542 231.224,131.646 231.224 C 131.749 231.224,131.833 230.970,131.833 230.661 C 131.833 230.352,131.917 230.098,132.021 230.098 C 132.124 230.098,132.208 229.845,132.208 229.536 C 132.208 229.226,132.293 228.973,132.396 228.973 C 132.499 228.973,132.583 228.720,132.583 228.411 C 132.583 228.101,132.668 227.848,132.771 227.848 C 132.874 227.848,132.958 227.679,132.958 227.473 C 132.958 227.267,133.043 227.098,133.146 227.098 C 133.249 227.098,133.333 226.845,133.333 226.535 C 133.333 226.226,133.418 225.973,133.521 225.973 C 133.624 225.973,133.708 225.720,133.708 225.410 C 133.708 225.101,133.793 224.848,133.896 224.848 C 133.999 224.848,134.083 224.594,134.083 224.285 C 134.083 223.976,134.168 223.722,134.271 223.722 C 134.374 223.722,134.459 223.469,134.459 223.160 C 134.459 222.850,134.543 222.597,134.646 222.597 C 134.749 222.597,134.834 222.344,134.834 222.035 C 134.834 221.725,134.918 221.472,135.021 221.472 C 135.124 221.472,135.209 221.303,135.209 221.097 C 135.209 220.891,135.293 220.722,135.396 220.722 C 135.499 220.722,135.584 220.384,135.584 219.972 C 135.584 219.559,135.668 219.222,135.771 219.222 C 135.874 219.222,135.959 219.053,135.959 218.847 C 135.959 218.640,136.043 218.472,136.146 218.472 C 136.249 218.472,136.334 218.218,136.334 217.909 C 136.334 217.600,136.418 217.346,136.521 217.346 C 136.624 217.346,136.709 217.093,136.709 216.784 C 136.709 216.474,136.793 216.221,136.896 216.221 C 137.000 216.221,137.084 215.968,137.084 215.659 C 137.084 215.349,137.168 215.096,137.271 215.096 C 137.375 215.096,137.459 214.927,137.459 214.721 C 137.459 214.515,137.543 214.346,137.647 214.346 C 137.750 214.346,137.834 214.008,137.834 213.596 C 137.834 213.183,137.918 212.846,138.022 212.846 C 138.125 212.846,138.209 212.677,138.209 212.471 C 138.209 212.264,138.293 212.096,138.397 212.096 C 138.500 212.096,138.584 211.842,138.584 211.533 C 138.584 211.224,138.669 210.970,138.772 210.970 C 138.875 210.970,138.959 210.717,138.959 210.408 C 138.959 210.098,139.044 209.845,139.147 209.845 C 139.250 209.845,139.334 209.592,139.334 209.283 C 139.334 208.973,139.419 208.720,139.522 208.720 C 139.645 208.720,139.709 204.094,139.709 195.218 C 139.709 186.342,139.774 181.716,139.897 181.716 C 140.000 181.716,140.084 181.547,140.084 181.341 C 140.084 181.135,140.169 180.966,140.272 180.966 C 140.375 180.966,140.459 180.836,140.459 180.678 C 140.459 180.520,140.752 180.098,141.110 179.741 C 141.467 179.383,141.889 179.090,142.047 179.090 C 142.205 179.090,142.335 179.006,142.335 178.903 C 142.335 178.800,142.504 178.715,142.710 178.715 C 142.916 178.715,143.085 178.632,143.085 178.530 C 143.085 178.411,145.975 178.326,151.102 178.293 L 159.119 178.242 151.149 178.212 C 144.557 178.188,143.044 178.230,142.401 178.458 M238.817 178.590 C 237.933 179.005,236.523 180.327,236.736 180.540 C 236.790 180.594,237.168 180.289,237.577 179.864 C 237.986 179.439,238.454 179.090,238.616 179.090 C 238.779 179.090,238.912 179.006,238.912 178.903 C 238.912 178.800,239.081 178.715,239.287 178.715 C 239.494 178.715,239.662 178.631,239.662 178.528 C 239.662 178.406,242.409 178.340,247.528 178.340 C 252.569 178.340,255.434 178.408,255.509 178.528 C 255.572 178.631,255.812 178.715,256.041 178.715 C 256.593 178.715,258.790 180.921,258.790 181.475 C 258.790 181.699,258.875 181.933,258.978 181.997 C 259.100 182.073,259.165 186.812,259.165 195.604 C 259.165 204.473,259.230 209.095,259.353 209.095 C 259.456 209.095,259.541 209.348,259.541 209.658 C 259.541 209.967,259.625 210.220,259.728 210.220 C 259.831 210.220,259.916 210.474,259.916 210.783 C 259.916 211.092,260.000 211.346,260.103 211.346 C 260.206 211.346,260.291 211.599,260.291 211.908 C 260.291 212.218,260.375 212.471,260.478 212.471 C 260.581 212.471,260.666 212.724,260.666 213.033 C 260.666 213.343,260.750 213.596,260.853 213.596 C 260.956 213.596,261.041 213.765,261.041 213.971 C 261.041 214.177,261.125 214.346,261.228 214.346 C 261.331 214.346,261.416 214.599,261.416 214.909 C 261.416 215.218,261.500 215.471,261.603 215.471 C 261.707 215.471,261.791 215.724,261.791 216.034 C 261.791 216.343,261.875 216.596,261.978 216.596 C 262.082 216.596,262.166 216.850,262.166 217.159 C 262.166 217.468,262.250 217.722,262.353 217.722 C 262.457 217.722,262.541 217.975,262.541 218.284 C 262.541 218.594,262.625 218.847,262.729 218.847 C 262.832 218.847,262.916 219.100,262.916 219.409 C 262.916 219.719,263.000 219.972,263.104 219.972 C 263.207 219.972,263.291 220.141,263.291 220.347 C 263.291 220.553,263.376 220.722,263.479 220.722 C 263.582 220.722,263.666 220.975,263.666 221.285 C 263.666 221.594,263.751 221.847,263.854 221.847 C 263.957 221.847,264.041 222.100,264.041 222.410 C 264.041 222.719,264.126 222.972,264.229 222.972 C 264.332 222.972,264.416 223.226,264.416 223.535 C 264.416 223.844,264.501 224.098,264.604 224.098 C 264.707 224.098,264.791 224.351,264.791 224.660 C 264.791 224.970,264.876 225.223,264.979 225.223 C 265.082 225.223,265.166 225.476,265.166 225.785 C 265.166 226.095,265.251 226.348,265.354 226.348 C 265.457 226.348,265.541 226.601,265.541 226.910 C 265.541 227.220,265.626 227.473,265.729 227.473 C 265.832 227.473,265.917 227.642,265.917 227.848 C 265.917 228.054,266.001 228.223,266.104 228.223 C 266.207 228.223,266.292 228.476,266.292 228.786 C 266.292 229.095,266.376 229.348,266.479 229.348 C 266.582 229.348,266.667 229.602,266.667 229.911 C 266.667 230.220,266.751 230.474,266.854 230.474 C 266.957 230.474,267.042 230.727,267.042 231.036 C 267.042 231.346,267.126 231.599,267.229 231.599 C 267.332 231.599,267.417 231.852,267.417 232.161 C 267.417 232.471,267.501 232.724,267.604 232.724 C 267.707 232.724,267.792 232.977,267.792 233.286 C 267.792 233.596,267.876 233.849,267.979 233.849 C 268.083 233.849,268.167 234.018,268.167 234.224 C 268.167 234.430,268.251 234.599,268.354 234.599 C 268.458 234.599,268.542 234.852,268.542 235.162 C 268.542 235.471,268.626 235.724,268.729 235.724 C 268.833 235.724,268.917 235.977,268.917 236.287 C 268.917 236.596,269.001 236.850,269.105 236.850 C 269.208 236.850,269.292 237.103,269.292 237.412 C 269.292 237.722,269.376 237.975,269.480 237.975 C 269.583 237.975,269.667 238.228,269.667 238.537 C 269.667 238.847,269.752 239.100,269.855 239.100 C 269.958 239.100,270.042 239.269,270.042 239.475 C 270.042 239.681,270.127 239.850,270.230 239.850 C 270.333 239.850,270.417 240.103,270.417 240.413 C 270.417 240.722,270.502 240.975,270.605 240.975 C 270.708 240.975,270.792 241.228,270.792 241.538 C 270.792 241.847,270.877 242.100,270.980 242.100 C 271.083 242.100,271.167 242.353,271.167 242.663 C 271.167 242.972,271.252 243.226,271.355 243.226 C 271.458 243.226,271.542 243.479,271.542 243.788 C 271.542 244.098,271.627 244.351,271.730 244.351 C 271.833 244.351,271.917 244.604,271.917 244.913 C 271.917 245.223,272.002 245.476,272.105 245.476 C 272.208 245.476,272.293 245.729,272.293 246.038 C 272.293 246.348,272.377 246.601,272.480 246.601 C 272.583 246.601,272.668 246.770,272.668 246.976 C 272.668 247.182,272.752 247.351,272.855 247.351 C 272.958 247.351,273.043 247.604,273.043 247.914 C 273.043 248.223,273.127 248.476,273.230 248.476 C 273.333 248.476,273.418 248.729,273.418 249.039 C 273.418 249.348,273.502 249.602,273.605 249.602 C 273.708 249.602,273.793 249.855,273.793 250.164 C 273.793 250.474,273.877 250.727,273.980 250.727 C 274.083 250.727,274.168 250.980,274.168 251.289 C 274.168 251.599,274.252 251.852,274.355 251.852 C 274.459 251.852,274.543 252.105,274.543 252.414 C 274.543 252.724,274.627 252.977,274.730 252.977 C 274.834 252.977,274.918 253.146,274.918 253.352 C 274.918 253.558,275.002 253.727,275.105 253.727 C 275.209 253.727,275.293 253.980,275.293 254.290 C 275.293 254.599,275.377 254.852,275.481 254.852 C 275.584 254.852,275.668 255.105,275.668 255.415 C 275.668 255.724,275.752 255.977,275.856 255.977 C 275.959 255.977,276.043 256.231,276.043 256.540 C 276.043 256.850,276.128 257.103,276.231 257.103 C 276.334 257.103,276.418 257.356,276.418 257.665 C 276.418 257.975,276.503 258.228,276.606 258.228 C 276.709 258.228,276.793 258.481,276.793 258.790 C 276.793 259.100,276.878 259.353,276.981 259.353 C 277.084 259.353,277.168 259.522,277.168 259.728 C 277.168 259.934,277.253 260.103,277.356 260.103 C 277.459 260.103,277.543 260.356,277.543 260.666 C 277.543 260.975,277.628 261.228,277.731 261.228 C 277.834 261.228,277.918 261.481,277.918 261.791 C 277.918 262.100,278.003 262.353,278.106 262.353 C 278.209 262.353,278.293 262.607,278.293 262.916 C 278.293 263.226,278.378 263.479,278.481 263.479 C 278.584 263.479,278.669 263.732,278.669 264.041 C 278.669 264.351,278.753 264.604,278.856 264.604 C 278.959 264.604,279.044 264.857,279.044 265.166 C 279.044 265.476,279.128 265.729,279.231 265.729 C 279.334 265.729,279.419 265.898,279.419 266.104 C 279.419 266.310,279.503 266.479,279.606 266.479 C 279.709 266.479,279.794 266.732,279.794 267.042 C 279.794 267.351,279.878 267.604,279.981 267.604 C 280.084 267.604,280.169 267.857,280.169 268.167 C 280.169 268.476,280.253 268.729,280.356 268.729 C 280.459 268.729,280.544 268.983,280.544 269.292 C 280.544 269.602,280.628 269.855,280.731 269.855 C 280.835 269.855,280.919 270.108,280.919 270.417 C 280.919 270.727,281.003 270.980,281.106 270.980 C 281.210 270.980,281.294 271.233,281.294 271.542 C 281.294 271.852,281.378 272.105,281.481 272.105 C 281.585 272.105,281.669 272.274,281.669 272.480 C 281.669 272.686,281.753 272.855,281.857 272.855 C 281.960 272.855,282.044 273.108,282.044 273.418 C 282.044 273.727,282.128 273.980,282.232 273.980 C 282.335 273.980,282.419 274.233,282.419 274.543 C 282.419 274.852,282.504 275.105,282.607 275.105 C 282.710 275.105,282.794 275.359,282.794 275.668 C 282.794 275.977,282.879 276.231,282.982 276.231 C 283.085 276.231,283.169 276.484,283.169 276.793 C 283.169 277.103,283.254 277.356,283.357 277.356 C 283.460 277.356,283.544 277.609,283.544 277.918 C 283.544 278.228,283.629 278.481,283.732 278.481 C 283.835 278.481,283.919 278.650,283.919 278.856 C 283.919 279.062,284.004 279.231,284.107 279.231 C 284.210 279.231,284.294 279.484,284.294 279.794 C 284.294 280.103,284.379 280.356,284.482 280.356 C 284.585 280.356,284.669 280.609,284.669 280.919 C 284.669 281.228,284.754 281.481,284.857 281.481 C 284.960 281.481,285.045 281.735,285.045 282.044 C 285.045 282.353,285.129 282.607,285.232 282.607 C 285.335 282.607,285.420 282.860,285.420 283.169 C 285.420 283.479,285.504 283.732,285.607 283.732 C 285.710 283.732,285.795 283.985,285.795 284.294 C 285.795 284.604,285.879 284.857,285.982 284.857 C 286.085 284.857,286.170 285.026,286.170 285.232 C 286.170 285.438,286.254 285.607,286.357 285.607 C 286.460 285.607,286.545 285.860,286.545 286.170 C 286.545 286.479,286.629 286.732,286.732 286.732 C 286.835 286.732,286.920 286.985,286.920 287.295 C 286.920 287.604,287.004 287.857,287.107 287.857 C 287.211 287.857,287.295 288.111,287.295 288.420 C 287.295 288.729,287.379 288.983,287.482 288.983 C 287.586 288.983,287.670 289.236,287.670 289.545 C 287.670 289.855,287.754 290.108,287.857 290.108 C 287.961 290.108,288.045 290.277,288.045 290.483 C 288.045 290.689,288.129 290.858,288.233 290.858 C 288.336 290.858,288.420 291.195,288.420 291.608 C 288.420 292.021,288.504 292.358,288.608 292.358 C 288.711 292.358,288.795 292.527,288.795 292.733 C 288.795 292.940,288.880 293.108,288.983 293.108 C 289.086 293.108,289.170 293.361,289.170 293.671 C 289.170 293.980,289.255 294.233,289.358 294.233 C 289.461 294.233,289.545 294.487,289.545 294.796 C 289.545 295.105,289.630 295.359,289.733 295.359 C 289.836 295.359,289.920 295.612,289.920 295.921 C 289.920 296.231,290.005 296.484,290.108 296.484 C 290.211 296.484,290.295 296.653,290.295 296.859 C 290.295 297.065,290.380 297.234,290.483 297.234 C 290.586 297.234,290.670 297.571,290.670 297.984 C 290.670 298.397,290.755 298.734,290.858 298.734 C 290.961 298.734,291.045 298.903,291.045 299.109 C 291.045 299.316,291.130 299.484,291.233 299.484 C 291.336 299.484,291.421 299.737,291.421 300.047 C 291.421 300.356,291.505 300.609,291.608 300.609 C 291.711 300.609,291.796 300.863,291.796 301.172 C 291.796 301.481,291.880 301.735,291.983 301.735 C 292.086 301.735,292.171 301.988,292.171 302.297 C 292.171 302.607,292.255 302.860,292.358 302.860 C 292.461 302.860,292.546 303.029,292.546 303.235 C 292.546 303.441,292.630 303.610,292.733 303.610 C 292.836 303.610,292.921 303.947,292.921 304.360 C 292.921 304.773,293.005 305.110,293.108 305.110 C 293.211 305.110,293.296 305.279,293.296 305.485 C 293.296 305.692,293.380 305.860,293.483 305.860 C 293.586 305.860,293.671 306.113,293.671 306.423 C 293.671 306.732,293.755 306.985,293.858 306.985 C 293.962 306.985,294.046 307.239,294.046 307.548 C 294.046 307.857,294.130 308.111,294.233 308.111 C 294.337 308.111,294.421 308.364,294.421 308.673 C 294.421 308.983,294.505 309.236,294.609 309.236 C 294.712 309.236,294.796 309.489,294.796 309.798 C 294.796 310.108,294.880 310.361,294.984 310.361 C 295.087 310.361,295.171 310.530,295.171 310.736 C 295.171 310.942,295.256 311.111,295.359 311.111 C 295.462 311.111,295.546 311.364,295.546 311.674 C 295.546 311.983,295.631 312.236,295.734 312.236 C 295.837 312.236,295.921 312.489,295.921 312.799 C 295.921 313.108,296.006 313.361,296.109 313.361 C 296.212 313.361,296.296 313.615,296.296 313.924 C 296.296 314.233,296.381 314.487,296.484 314.487 C 296.587 314.487,296.671 314.740,296.671 315.049 C 296.671 315.359,296.756 315.612,296.859 315.612 C 296.962 315.612,297.046 315.865,297.046 316.174 C 297.046 316.484,297.131 316.737,297.234 316.737 C 297.337 316.737,297.421 316.906,297.421 317.112 C 297.421 317.318,297.506 317.487,297.609 317.487 C 297.712 317.487,297.797 317.740,297.797 318.050 C 297.797 318.359,297.881 318.612,297.984 318.612 C 298.087 318.612,298.172 318.865,298.172 319.175 C 298.172 319.484,298.256 319.737,298.359 319.737 C 298.462 319.737,298.547 319.991,298.547 320.300 C 298.547 320.747,298.628 320.863,298.942 320.863 C 299.180 320.863,299.302 320.770,299.248 320.628 C 299.200 320.499,296.496 312.841,293.239 303.610 C 289.983 294.379,281.069 269.113,273.430 247.463 L 259.541 208.101 259.540 195.143 C 259.538 179.934,259.563 180.102,257.094 178.715 L 256.259 178.247 248.008 178.198 L 239.756 178.149 238.817 178.590 M159.212 178.528 C 159.212 178.631,159.341 178.715,159.497 178.715 C 159.654 178.715,160.329 179.262,160.997 179.931 C 161.666 180.599,162.213 181.275,162.213 181.431 C 162.213 181.588,162.297 181.716,162.400 181.716 C 162.524 181.716,162.588 186.279,162.588 195.030 L 162.588 208.345 199.297 208.299 L 236.006 208.252 199.391 208.204 L 162.775 208.157 162.771 194.983 C 162.767 180.344,162.820 180.984,161.499 179.589 C 160.711 178.758,159.212 178.062,159.212 178.528 M75.761 320.663 C 74.272 321.116,72.957 322.388,72.590 323.730 C 72.432 324.310,72.389 330.740,72.428 347.961 L 72.482 371.402 72.528 347.820 C 72.558 332.255,72.638 324.238,72.761 324.238 C 72.865 324.238,72.949 324.069,72.949 323.863 C 72.949 323.657,73.033 323.488,73.136 323.488 C 73.240 323.488,73.324 323.359,73.324 323.202 C 73.324 322.830,74.916 321.238,75.288 321.238 C 75.446 321.238,75.574 321.153,75.574 321.050 C 75.574 320.936,76.449 320.863,77.825 320.863 C 79.200 320.863,80.075 320.790,80.075 320.675 C 80.075 320.455,76.477 320.445,75.761 320.663 M300.234 320.675 C 299.816 320.809,299.841 320.827,300.469 320.844 C 300.856 320.854,301.172 320.778,301.172 320.675 C 301.172 320.460,300.905 320.460,300.234 320.675 M323.301 320.652 C 323.301 320.768,323.469 320.863,323.676 320.863 C 323.882 320.863,324.051 320.947,324.051 321.050 C 324.051 321.153,324.179 321.238,324.335 321.238 C 324.832 321.238,327.051 323.610,327.051 324.141 C 327.051 324.401,327.135 324.613,327.239 324.613 C 327.363 324.613,327.426 332.552,327.426 348.054 C 327.426 360.947,327.489 371.496,327.567 371.496 C 327.644 371.496,327.665 360.715,327.614 347.539 C 327.510 320.974,327.622 323.149,326.288 321.844 C 325.363 320.940,323.301 320.117,323.301 320.652 "
            stroke="none" fill="#b46f4e" fill-rule="evenodd"></path>
    </g>
</svg>