<?xml version="1.0" encoding="iso-8859-1"?>
<!-- Generator: Adobe Illustrator 19.0.0, SVG Export Plug-In . SVG Version: 6.00 Build 0)  -->
<svg version="1.1" id="Capa_1" xmlns="http://www.w3.org/2000/svg" xmlns:xlink="http://www.w3.org/1999/xlink" x="0px"
	y="0px" viewBox="0 0 512.048 512.048" style="enable-background:new 0 0 512.048 512.048;" xml:space="preserve">
	<path style="fill:#ED6362;" d="M512,203.061v192c0,17.68-14.32,32-32,32H256v-256h101.76c-16.672-11.328-25.92-33.232-17.824-55.792
	c4.832-13.44,16.176-24.144,29.872-28.208c31.936-9.44,61.232,14.432,61.232,44.96c0,16.16-8.32,30.56-20.8,39.04H480
	C497.68,171.061,512,185.381,512,203.061z" />
	<path style="fill:#E95454;" d="M511.984,289.701c0-10.592-8.576-19.168-19.168-19.168s-19.168,8.576-19.168,19.168v25.632
	c0,8.864-7.248,16.08-16.112,16.032h-0.208c-0.4,0-0.784,0.016-1.168,0.032c-8.736,0.528-16.096-6.4-16.096-15.152v-33.952
	c0-10.384-7.776-19.68-18.128-20.224c-11.056-0.576-20.192,8.208-20.192,19.136v10.496c0,8.912-7.248,16.112-16.16,16.064h-1.104
	h-0.224c-9.376,0.048-17.04-7.568-17.04-16.944v-13.568c0-10.384-7.776-19.68-18.128-20.224
	c-11.056-0.576-20.192,8.208-20.192,19.136v48.992c0,9.264-7.776,16.176-17.04,16.064c-0.08,0-0.16,0-0.224,0
	c-0.08,0-0.16,0-0.224,0c-9.264,0.112-17.04-6.8-17.04-16.064v-15.84c0-10.384-7.776-19.68-18.128-20.224
	c-11.056-0.576-20.192,8.208-20.192,19.136v118.784h224c17.68,0,32-14.32,32-32V289.701H511.984z" />
	<path style="fill:#FFCC5B;" d="M341.312,307.749c-3.28,18.48-18.176,33.728-36.592,37.376c-20.272,4.032-38.592-4.944-48.72-19.84
	v101.76H154.24c12.48-8.48,20.8-22.88,20.8-39.04c0-15.04-7.04-28.32-18.08-36.96c-11.104-8.88-26.224-12.528-41.92-8.352
	c-14.08,3.744-25.888,14.48-30.944,28.144c-8.384,22.704,0.88,44.816,17.664,56.224H32c-17.68,0-32-14.32-32-32v-192
	c0-17.68,14.32-32,32-32h69.76c-12.48,8.48-20.8,22.72-20.8,39.04c0,8.32,2.24,16.16,5.92,23.04c0,0,0.32,0.16,0.16,0.32
	c1.6,2.56,3.36,4.96,5.28,7.04c0,0.16,0.16,0.32,0.48,0.48c8.48,9.92,21.12,16,35.2,16c11.68,0,22.4-4.32,30.72-11.36
	c9.92-8.64,16.32-21.28,16.32-35.52c0-16.32-8.32-30.56-20.8-39.04H256v101.6c8.48-12.48,22.72-20.64,39.04-20.64
	C323.792,252.021,346.624,277.797,341.312,307.749z" />
	<path style="fill:#FDBC4B;" d="M164.96,336.981c-0.32,5.92-3.36,10.88-8,14.08c-11.104-8.88-26.224-12.528-41.92-8.352
	c-14.08,3.744-25.888,14.48-30.944,28.144c-8.384,22.704,0.88,44.816,17.664,56.224H32c-17.68,0-32-14.32-32-32v-192
	c0-17.68,14.32-32,32-32h69.76c-12.48,8.48-20.8,22.72-20.8,39.04c0,8.32,2.24,16.16,5.92,23.04c0,0,0.32,0.16,0.16,0.32
	c1.12,2.88,2.88,5.44,5.28,7.04c0,0.16,0.16,0.32,0.48,0.48c8.48,9.92,21.12,16,35.2,16c11.68,0,22.4-4.32,30.72-11.36
	c7.04,3.04,11.68,10.24,11.2,18.4c-0.48,10.4-9.76,18.24-20.16,18.24h-13.6c-9.28,0-16.96,7.68-16.96,16.96v1.44
	c0,8.8,7.2,16.16,16.16,16.16h10.4C156.8,316.821,165.6,325.941,164.96,336.981z" />
	<g>
	</g>
	<g>
	</g>
	<g>
	</g>
	<g>
	</g>
	<g>
	</g>
	<g>
	</g>
	<g>
	</g>
	<g>
	</g>
	<g>
	</g>
	<g>
	</g>
	<g>
	</g>
	<g>
	</g>
	<g>
	</g>
	<g>
	</g>
	<g>
	</g>
</svg>