<svg id="svg" version="1.1" xmlns="http://www.w3.org/2000/svg" xmlns:xlink="http://www.w3.org/1999/xlink" width="400"
    height="303.06569343065695" viewBox="0, 0, 400,303.06569343065695">
    <g id="svgg">
        <path id="path0"
            d="M112.077 2.250 C 110.469 2.497,108.273 4.156,107.326 5.839 L 106.423 7.445 106.341 28.100 L 106.259 48.754 122.702 48.830 L 139.145 48.905 134.146 69.489 L 129.147 90.073 184.184 90.147 C 214.454 90.187,239.270 90.171,239.330 90.110 C 239.391 90.049,237.620 80.753,235.394 69.452 L 231.347 48.905 187.060 48.831 L 142.774 48.757 142.771 28.247 L 142.768 7.737 142.079 6.257 C 141.238 4.452,139.606 3.047,137.684 2.473 C 136.322 2.067,114.504 1.876,112.077 2.250 M120.770 124.599 C 118.717 133.069,116.972 140.230,116.893 140.511 C 116.756 140.996,120.046 141.022,183.046 141.022 C 237.827 141.022,249.343 140.955,249.343 140.636 C 249.343 140.307,243.781 111.736,243.351 109.854 L 243.201 109.197 183.852 109.197 L 124.502 109.197 120.770 124.599 M112.117 160.084 C 112.117 160.131,109.949 169.079,107.299 179.969 C 104.650 190.859,102.482 199.821,102.482 199.885 C 102.482 199.948,138.153 200.000,181.752 200.000 C 244.981 200.000,261.019 199.926,261.007 199.635 C 260.998 199.434,259.254 190.467,257.130 179.708 L 253.268 160.146 182.692 160.072 C 143.876 160.032,112.117 160.037,112.117 160.084 M97.667 219.635 C 97.254 220.838,89.023 255.251,89.123 255.352 C 89.191 255.420,130.367 255.442,180.626 255.402 L 272.006 255.328 268.477 237.372 L 264.947 219.416 181.370 219.343 C 114.655 219.284,97.767 219.343,97.667 219.635 M7.297 223.902 C 4.968 224.676,2.986 226.559,2.383 228.572 C 2.133 229.404,2.044 239.356,2.044 266.238 L 2.044 302.774 11.246 302.774 L 20.449 302.774 20.370 266.058 C 20.282 224.529,20.487 227.955,17.953 225.730 C 16.011 224.025,10.021 222.997,7.297 223.902 M356.769 223.908 C 355.592 224.295,353.742 225.619,353.027 226.585 C 351.470 228.692,351.533 227.017,351.533 266.314 L 351.533 302.774 360.736 302.774 L 369.940 302.774 369.861 266.058 L 369.781 229.343 369.104 227.969 C 368.337 226.412,366.815 224.954,365.277 224.303 C 364.084 223.798,357.966 223.514,356.769 223.908 M84.244 274.818 C 84.179 275.018,82.731 280.964,81.025 288.029 C 79.320 295.095,77.811 301.303,77.672 301.825 L 77.419 302.774 179.388 302.774 L 281.356 302.774 278.571 288.613 L 275.787 274.453 180.074 274.453 C 103.761 274.453,84.337 274.527,84.244 274.818 "
            stroke="none" fill="#e49c74" fill-rule="evenodd"></path>
        <path id="path1"
            d="M262.628 2.309 C 260.597 2.821,258.719 4.364,257.624 6.423 C 257.111 7.388,257.076 8.606,256.998 28.102 L 256.916 48.759 244.219 48.759 L 231.522 48.759 231.674 49.416 C 231.757 49.777,233.542 58.810,235.639 69.489 C 237.736 80.168,239.524 89.201,239.612 89.562 L 239.771 90.219 184.411 90.219 C 153.963 90.219,129.051 90.167,129.051 90.104 C 129.051 90.040,131.203 81.139,133.833 70.323 C 136.462 59.506,138.706 50.230,138.819 49.708 L 139.024 48.759 122.712 48.759 L 106.400 48.759 77.385 131.022 C 61.427 176.266,47.532 215.650,46.508 218.540 L 44.647 223.796 29.550 223.730 C 16.323 223.673,14.593 223.715,15.583 224.073 C 17.265 224.681,18.733 226.005,19.635 227.729 L 20.438 229.264 20.438 266.204 L 20.438 303.144 48.832 302.929 C 64.449 302.811,77.265 302.678,77.312 302.634 C 77.359 302.589,78.942 296.198,80.828 288.430 L 84.258 274.307 179.903 274.233 C 256.202 274.175,275.607 274.234,275.837 274.525 C 275.996 274.726,277.353 281.164,278.854 288.832 L 281.583 302.774 301.959 302.774 C 318.622 302.774,322.336 302.704,322.336 302.389 C 322.336 302.008,317.687 282.974,313.480 266.131 C 312.276 261.314,311.199 256.847,311.086 256.204 C 310.826 254.729,306.027 234.751,305.791 234.161 C 305.695 233.920,305.578 233.435,305.531 233.084 C 305.484 232.732,303.679 225.309,301.521 216.587 C 299.363 207.866,297.171 198.825,296.650 196.496 C 296.129 194.168,295.626 192.137,295.534 191.983 C 295.441 191.829,295.335 191.435,295.299 191.107 C 295.214 190.348,288.217 161.463,287.975 160.876 C 287.712 160.236,285.092 149.606,283.766 143.796 C 282.474 138.137,277.933 119.246,277.765 118.832 C 277.667 118.591,277.548 118.131,277.501 117.810 C 277.454 117.489,276.957 115.387,276.397 113.139 C 273.923 103.204,270.948 91.026,270.815 90.291 C 270.528 88.704,270.293 87.732,270.130 87.458 C 270.038 87.304,269.932 86.910,269.894 86.582 C 269.802 85.792,267.780 77.350,267.549 76.788 C 267.450 76.547,267.319 76.022,267.259 75.620 C 267.199 75.219,265.725 69.044,263.984 61.898 L 260.818 48.905 277.124 48.830 L 293.431 48.754 293.431 28.810 C 293.431 4.906,293.462 5.098,289.217 2.826 C 287.976 2.162,264.987 1.715,262.628 2.309 M243.338 109.165 C 243.485 109.403,249.634 140.300,249.635 140.803 C 249.635 140.923,219.745 141.022,183.212 141.022 C 141.618 141.022,116.788 140.919,116.788 140.745 C 116.788 140.593,118.496 133.441,120.584 124.851 C 122.672 116.261,124.380 109.159,124.380 109.069 C 124.380 108.789,243.165 108.885,243.338 109.165 M253.430 160.365 C 253.781 161.193,261.393 200.019,261.235 200.177 C 261.171 200.241,225.382 200.260,181.704 200.220 L 102.290 200.146 107.005 180.730 C 109.599 170.051,111.812 160.953,111.924 160.511 L 112.128 159.708 182.640 159.708 L 253.151 159.708 253.430 160.365 M265.353 220.365 C 266.878 227.604,272.180 255.217,272.067 255.329 C 271.987 255.410,230.735 255.442,180.397 255.402 L 88.873 255.328 93.198 237.518 C 95.577 227.723,97.583 219.544,97.657 219.343 C 97.765 219.052,114.785 218.978,181.426 218.978 L 265.061 218.978 265.353 220.365 M365.037 224.066 C 366.652 224.643,368.057 225.827,368.972 227.382 L 369.781 228.759 369.858 265.912 L 369.936 303.066 384.749 303.066 L 399.562 303.066 399.416 265.912 L 399.270 228.759 398.622 227.546 C 397.768 225.951,396.108 224.611,394.327 224.079 C 392.268 223.465,363.317 223.452,365.037 224.066 M351.382 266.569 C 351.382 286.562,351.417 294.741,351.460 284.745 C 351.502 274.748,351.502 258.391,351.460 248.394 C 351.417 238.398,351.382 246.577,351.382 266.569 "
            stroke="none" fill="#d27a4e" fill-rule="evenodd"></path>
        <path id="path2"
            d="M261.475 51.606 C 261.847 53.172,264.067 62.321,266.408 71.939 C 268.748 81.556,270.727 89.790,270.806 90.236 C 270.885 90.682,271.928 95.032,273.126 99.903 C 276.562 113.882,283.105 140.907,284.564 147.153 C 285.296 150.285,286.338 154.555,286.880 156.642 C 287.422 158.730,290.045 169.438,292.708 180.438 C 295.371 191.438,299.506 208.387,301.897 218.102 C 304.287 227.818,307.306 240.234,308.604 245.693 C 309.902 251.153,311.822 259.234,312.872 263.650 C 313.921 268.066,315.144 272.993,315.591 274.599 C 316.037 276.204,317.770 283.199,319.442 290.143 L 322.482 302.767 336.855 302.771 L 351.228 302.774 351.307 265.912 L 351.387 229.051 352.249 227.495 C 352.723 226.638,353.608 225.587,354.215 225.159 C 354.925 224.658,355.262 224.223,355.158 223.942 C 355.070 223.701,350.133 209.708,344.188 192.847 C 338.243 175.985,324.637 137.423,313.952 107.153 C 303.268 76.883,294.267 51.361,293.951 50.438 L 293.377 48.759 277.087 48.759 L 260.798 48.759 261.475 51.606 "
            stroke="none" fill="#ac5c34" fill-rule="evenodd"></path>
        <path id="path3"
            d="M109.911 0.317 C 109.610 0.804,110.287 1.363,110.690 0.960 C 111.027 0.623,110.816 0.000,110.365 0.000 C 110.223 0.000,110.019 0.143,109.911 0.317 M259.400 0.317 C 259.099 0.804,259.776 1.363,260.179 0.960 C 260.516 0.623,260.305 0.000,259.854 0.000 C 259.712 0.000,259.508 0.143,259.400 0.317 M110.365 2.044 C 110.365 2.204,110.113 2.336,109.805 2.336 C 109.498 2.336,109.190 2.500,109.123 2.701 C 109.026 2.987,108.899 2.982,108.527 2.676 C 107.877 2.139,107.540 2.432,107.508 3.560 C 107.493 4.085,107.341 4.560,107.171 4.617 C 107.001 4.674,106.861 4.972,106.861 5.280 C 106.861 5.588,106.730 5.839,106.569 5.839 C 106.409 5.839,106.291 6.464,106.307 7.226 C 106.335 8.498,106.355 8.537,106.557 7.688 C 107.149 5.206,109.218 3.045,111.679 2.342 C 112.497 2.108,116.565 2.035,125.255 2.099 C 144.330 2.239,142.758 -0.108,142.767 28.248 L 142.774 48.759 199.927 48.687 L 257.080 48.615 200.789 48.540 L 144.498 48.466 143.782 47.750 L 143.066 47.034 143.066 26.437 C 143.066 12.900,142.966 5.839,142.774 5.839 C 142.613 5.839,142.482 5.639,142.482 5.394 C 142.482 4.814,140.003 2.336,139.424 2.336 C 139.179 2.336,138.978 2.204,138.978 2.044 C 138.978 1.853,134.015 1.752,124.672 1.752 C 115.328 1.752,110.365 1.853,110.365 2.044 M261.022 2.044 C 261.022 2.204,260.759 2.336,260.438 2.336 C 260.117 2.336,259.854 2.467,259.854 2.628 C 259.854 2.788,259.651 2.920,259.403 2.920 C 258.819 2.920,257.518 4.220,257.518 4.804 C 257.518 5.052,257.387 5.255,257.226 5.255 C 257.066 5.255,256.940 5.880,256.947 6.642 L 256.960 8.029 257.351 6.934 C 257.927 5.319,259.112 3.913,260.667 2.999 L 262.044 2.190 275.182 2.190 L 288.321 2.190 289.698 2.999 C 291.253 3.913,292.438 5.319,293.014 6.934 C 293.326 7.808,293.408 12.141,293.418 28.364 L 293.431 48.698 324.351 136.340 C 341.356 184.542,355.333 224.044,355.410 224.120 C 355.487 224.197,356.124 224.117,356.826 223.943 C 357.693 223.729,363.911 223.654,376.204 223.711 C 396.299 223.805,395.238 223.701,397.375 225.780 C 399.564 227.909,399.402 224.730,399.410 265.912 C 399.414 290.288,399.515 302.774,399.708 302.774 C 399.901 302.774,400.000 290.170,400.000 265.547 C 400.000 240.925,399.901 228.321,399.708 228.321 C 399.547 228.321,399.416 227.989,399.416 227.584 C 399.416 226.759,397.111 224.234,396.358 224.234 C 396.113 224.234,395.912 224.102,395.912 223.942 C 395.912 223.781,395.650 223.650,395.328 223.650 C 395.007 223.650,394.745 223.518,394.745 223.358 C 394.745 222.896,356.872 222.961,356.718 223.422 C 356.520 224.018,355.036 222.298,355.036 221.473 C 355.036 221.064,354.905 220.730,354.745 220.730 C 354.584 220.730,354.453 220.336,354.453 219.854 C 354.453 219.372,354.321 218.978,354.161 218.978 C 354.000 218.978,353.869 218.584,353.869 218.102 C 353.869 217.620,353.737 217.226,353.577 217.226 C 353.416 217.226,353.285 216.964,353.285 216.642 C 353.285 216.321,353.153 216.058,352.993 216.058 C 352.832 216.058,352.701 215.664,352.701 215.182 C 352.701 214.701,352.569 214.307,352.409 214.307 C 352.248 214.307,352.117 213.912,352.117 213.431 C 352.117 212.949,351.985 212.555,351.825 212.555 C 351.664 212.555,351.533 212.161,351.533 211.679 C 351.533 211.197,351.401 210.803,351.241 210.803 C 351.080 210.803,350.949 210.409,350.949 209.927 C 350.949 209.445,350.818 209.051,350.657 209.051 C 350.496 209.051,350.365 208.657,350.365 208.175 C 350.365 207.693,350.234 207.299,350.073 207.299 C 349.912 207.299,349.781 207.036,349.781 206.715 C 349.781 206.394,349.650 206.131,349.489 206.131 C 349.328 206.131,349.197 205.737,349.197 205.255 C 349.197 204.774,349.066 204.380,348.905 204.380 C 348.745 204.380,348.613 203.985,348.613 203.504 C 348.613 203.022,348.482 202.628,348.321 202.628 C 348.161 202.628,348.029 202.234,348.029 201.752 C 348.029 201.270,347.898 200.876,347.737 200.876 C 347.577 200.876,347.445 200.482,347.445 200.000 C 347.445 199.518,347.314 199.124,347.153 199.124 C 346.993 199.124,346.861 198.861,346.861 198.540 C 346.861 198.219,346.730 197.956,346.569 197.956 C 346.409 197.956,346.277 197.431,346.277 196.788 C 346.277 196.146,346.146 195.620,345.985 195.620 C 345.825 195.620,345.693 195.358,345.693 195.036 C 345.693 194.715,345.562 194.453,345.401 194.453 C 345.241 194.453,345.109 194.058,345.109 193.577 C 345.109 193.095,344.978 192.701,344.818 192.701 C 344.657 192.701,344.526 192.307,344.526 191.825 C 344.526 191.343,344.394 190.949,344.234 190.949 C 344.073 190.949,343.942 190.555,343.942 190.073 C 343.942 189.591,343.810 189.197,343.650 189.197 C 343.489 189.197,343.358 188.934,343.358 188.613 C 343.358 188.292,343.226 188.029,343.066 188.029 C 342.905 188.029,342.774 187.504,342.774 186.861 C 342.774 186.219,342.642 185.693,342.482 185.693 C 342.321 185.693,342.190 185.431,342.190 185.109 C 342.190 184.788,342.058 184.526,341.898 184.526 C 341.737 184.526,341.606 184.131,341.606 183.650 C 341.606 183.168,341.474 182.774,341.314 182.774 C 341.153 182.774,341.022 182.380,341.022 181.898 C 341.022 181.416,340.891 181.022,340.730 181.022 C 340.569 181.022,340.438 180.628,340.438 180.146 C 340.438 179.664,340.307 179.270,340.146 179.270 C 339.985 179.270,339.854 179.007,339.854 178.686 C 339.854 178.365,339.723 178.102,339.562 178.102 C 339.401 178.102,339.270 177.577,339.270 176.934 C 339.270 176.292,339.139 175.766,338.978 175.766 C 338.818 175.766,338.686 175.504,338.686 175.182 C 338.686 174.861,338.555 174.599,338.394 174.599 C 338.234 174.599,338.102 174.204,338.102 173.723 C 338.102 173.241,337.971 172.847,337.810 172.847 C 337.650 172.847,337.518 172.453,337.518 171.971 C 337.518 171.489,337.387 171.095,337.226 171.095 C 337.066 171.095,336.934 170.701,336.934 170.219 C 336.934 169.737,336.803 169.343,336.642 169.343 C 336.482 169.343,336.350 168.949,336.350 168.467 C 336.350 167.985,336.219 167.591,336.058 167.591 C 335.898 167.591,335.766 167.328,335.766 167.007 C 335.766 166.686,335.635 166.423,335.474 166.423 C 335.314 166.423,335.182 166.029,335.182 165.547 C 335.182 165.066,335.051 164.672,334.891 164.672 C 334.730 164.672,334.599 164.277,334.599 163.796 C 334.599 163.314,334.467 162.920,334.307 162.920 C 334.146 162.920,334.015 162.526,334.015 162.044 C 334.015 161.562,333.883 161.168,333.723 161.168 C 333.562 161.168,333.431 160.774,333.431 160.292 C 333.431 159.810,333.299 159.416,333.139 159.416 C 332.978 159.416,332.847 159.022,332.847 158.540 C 332.847 158.058,332.715 157.664,332.555 157.664 C 332.394 157.664,332.263 157.401,332.263 157.080 C 332.263 156.759,332.131 156.496,331.971 156.496 C 331.810 156.496,331.679 156.102,331.679 155.620 C 331.679 155.139,331.547 154.745,331.387 154.745 C 331.226 154.745,331.095 154.350,331.095 153.869 C 331.095 153.387,330.964 152.993,330.803 152.993 C 330.642 152.993,330.511 152.599,330.511 152.117 C 330.511 151.635,330.380 151.241,330.219 151.241 C 330.058 151.241,329.927 150.847,329.927 150.365 C 329.927 149.883,329.796 149.489,329.635 149.489 C 329.474 149.489,329.343 149.095,329.343 148.613 C 329.343 148.131,329.212 147.737,329.051 147.737 C 328.891 147.737,328.759 147.474,328.759 147.153 C 328.759 146.832,328.628 146.569,328.467 146.569 C 328.307 146.569,328.175 146.175,328.175 145.693 C 328.175 145.212,328.044 144.818,327.883 144.818 C 327.723 144.818,327.591 144.423,327.591 143.942 C 327.591 143.460,327.460 143.066,327.299 143.066 C 327.139 143.066,327.007 142.672,327.007 142.190 C 327.007 141.708,326.876 141.314,326.715 141.314 C 326.555 141.314,326.423 140.920,326.423 140.438 C 326.423 139.956,326.292 139.562,326.131 139.562 C 325.971 139.562,325.839 139.168,325.839 138.686 C 325.839 138.204,325.708 137.810,325.547 137.810 C 325.387 137.810,325.255 137.547,325.255 137.226 C 325.255 136.905,325.124 136.642,324.964 136.642 C 324.803 136.642,324.672 136.248,324.672 135.766 C 324.672 135.285,324.540 134.891,324.380 134.891 C 324.219 134.891,324.088 134.496,324.088 134.015 C 324.088 133.533,323.956 133.139,323.796 133.139 C 323.635 133.139,323.504 132.745,323.504 132.263 C 323.504 131.781,323.372 131.387,323.212 131.387 C 323.051 131.387,322.920 130.993,322.920 130.511 C 322.920 130.029,322.788 129.635,322.628 129.635 C 322.467 129.635,322.336 129.241,322.336 128.759 C 322.336 128.277,322.204 127.883,322.044 127.883 C 321.883 127.883,321.752 127.620,321.752 127.299 C 321.752 126.978,321.620 126.715,321.460 126.715 C 321.299 126.715,321.168 126.321,321.168 125.839 C 321.168 125.358,321.036 124.964,320.876 124.964 C 320.715 124.964,320.584 124.569,320.584 124.088 C 320.584 123.606,320.453 123.212,320.292 123.212 C 320.131 123.212,320.000 122.818,320.000 122.336 C 320.000 121.854,319.869 121.460,319.708 121.460 C 319.547 121.460,319.416 121.066,319.416 120.584 C 319.416 120.102,319.285 119.708,319.124 119.708 C 318.964 119.708,318.832 119.314,318.832 118.832 C 318.832 118.350,318.701 117.956,318.540 117.956 C 318.380 117.956,318.248 117.693,318.248 117.372 C 318.248 117.051,318.117 116.788,317.956 116.788 C 317.796 116.788,317.664 116.394,317.664 115.912 C 317.664 115.431,317.533 115.036,317.372 115.036 C 317.212 115.036,317.080 114.642,317.080 114.161 C 317.080 113.679,316.949 113.285,316.788 113.285 C 316.628 113.285,316.496 112.891,316.496 112.409 C 316.496 111.927,316.365 111.533,316.204 111.533 C 316.044 111.533,315.912 111.139,315.912 110.657 C 315.912 110.175,315.781 109.781,315.620 109.781 C 315.460 109.781,315.328 109.387,315.328 108.905 C 315.328 108.423,315.197 108.029,315.036 108.029 C 314.876 108.029,314.745 107.766,314.745 107.445 C 314.745 107.124,314.613 106.861,314.453 106.861 C 314.292 106.861,314.161 106.467,314.161 105.985 C 314.161 105.504,314.029 105.109,313.869 105.109 C 313.708 105.109,313.577 104.715,313.577 104.234 C 313.577 103.752,313.445 103.358,313.285 103.358 C 313.124 103.358,312.993 102.964,312.993 102.482 C 312.993 102.000,312.861 101.606,312.701 101.606 C 312.540 101.606,312.409 101.212,312.409 100.730 C 312.409 100.248,312.277 99.854,312.117 99.854 C 311.956 99.854,311.825 99.460,311.825 98.978 C 311.825 98.496,311.693 98.102,311.533 98.102 C 311.372 98.102,311.241 97.708,311.241 97.226 C 311.241 96.745,311.109 96.350,310.949 96.350 C 310.788 96.350,310.657 96.088,310.657 95.766 C 310.657 95.445,310.526 95.182,310.365 95.182 C 310.204 95.182,310.073 94.788,310.073 94.307 C 310.073 93.825,309.942 93.431,309.781 93.431 C 309.620 93.431,309.489 93.036,309.489 92.555 C 309.489 92.073,309.358 91.679,309.197 91.679 C 309.036 91.679,308.905 91.285,308.905 90.803 C 308.905 90.321,308.774 89.927,308.613 89.927 C 308.453 89.927,308.321 89.533,308.321 89.051 C 308.321 88.569,308.190 88.175,308.029 88.175 C 307.869 88.175,307.737 87.912,307.737 87.591 C 307.737 87.270,307.606 87.007,307.445 87.007 C 307.285 87.007,307.153 86.613,307.153 86.131 C 307.153 85.650,307.022 85.255,306.861 85.255 C 306.701 85.255,306.569 84.861,306.569 84.380 C 306.569 83.898,306.438 83.504,306.277 83.504 C 306.117 83.504,305.985 83.109,305.985 82.628 C 305.985 82.146,305.854 81.752,305.693 81.752 C 305.533 81.752,305.401 81.358,305.401 80.876 C 305.401 80.394,305.270 80.000,305.109 80.000 C 304.949 80.000,304.818 79.606,304.818 79.124 C 304.818 78.642,304.686 78.248,304.526 78.248 C 304.365 78.248,304.234 77.985,304.234 77.664 C 304.234 77.343,304.102 77.080,303.942 77.080 C 303.781 77.080,303.650 76.686,303.650 76.204 C 303.650 75.723,303.518 75.328,303.358 75.328 C 303.197 75.328,303.066 74.934,303.066 74.453 C 303.066 73.971,302.934 73.577,302.774 73.577 C 302.613 73.577,302.482 73.182,302.482 72.701 C 302.482 72.219,302.350 71.825,302.190 71.825 C 302.029 71.825,301.898 71.431,301.898 70.949 C 301.898 70.467,301.766 70.073,301.606 70.073 C 301.445 70.073,301.314 69.679,301.314 69.197 C 301.314 68.715,301.182 68.321,301.022 68.321 C 300.861 68.321,300.730 67.927,300.730 67.445 C 300.730 66.964,300.599 66.569,300.438 66.569 C 300.277 66.569,300.146 66.307,300.146 65.985 C 300.146 65.664,300.015 65.401,299.854 65.401 C 299.693 65.401,299.562 65.007,299.562 64.526 C 299.562 64.044,299.431 63.650,299.270 63.650 C 299.109 63.650,298.978 63.255,298.978 62.774 C 298.978 62.292,298.847 61.898,298.686 61.898 C 298.526 61.898,298.394 61.504,298.394 61.022 C 298.394 60.540,298.263 60.146,298.102 60.146 C 297.942 60.146,297.810 59.752,297.810 59.270 C 297.810 58.788,297.679 58.394,297.518 58.394 C 297.358 58.394,297.226 58.000,297.226 57.518 C 297.226 57.036,297.095 56.642,296.934 56.642 C 296.774 56.642,296.642 56.380,296.642 56.058 C 296.642 55.737,296.511 55.474,296.350 55.474 C 296.190 55.474,296.058 55.080,296.058 54.599 C 296.058 54.117,295.927 53.723,295.766 53.723 C 295.606 53.723,295.474 53.328,295.474 52.847 C 295.474 52.365,295.343 51.971,295.182 51.971 C 295.022 51.971,294.891 51.577,294.891 51.095 C 294.891 50.613,294.759 50.219,294.599 50.219 C 294.438 50.219,294.307 49.825,294.307 49.343 C 294.307 48.861,294.175 48.467,294.015 48.467 C 293.823 48.467,293.723 41.265,293.723 27.445 C 293.723 13.625,293.623 6.423,293.431 6.423 C 293.270 6.423,293.139 6.091,293.139 5.686 C 293.139 4.680,290.795 2.336,289.789 2.336 C 289.383 2.336,289.051 2.204,289.051 2.044 C 289.051 1.853,284.185 1.752,275.036 1.752 C 265.888 1.752,261.022 1.853,261.022 2.044 M257.065 2.653 C 256.764 3.140,257.440 3.698,257.843 3.296 C 258.180 2.959,257.969 2.336,257.518 2.336 C 257.377 2.336,257.172 2.479,257.065 2.653 M105.240 4.989 C 104.939 5.476,105.616 6.034,106.018 5.631 C 106.355 5.294,106.144 4.672,105.693 4.672 C 105.552 4.672,105.348 4.814,105.240 4.989 M254.729 4.989 C 254.428 5.476,255.105 6.034,255.507 5.631 C 255.844 5.294,255.633 4.672,255.182 4.672 C 255.041 4.672,254.837 4.814,254.729 4.989 M105.693 48.759 C 105.693 49.241,105.562 49.635,105.401 49.635 C 105.241 49.635,105.109 50.029,105.109 50.511 C 105.109 50.993,104.978 51.387,104.818 51.387 C 104.657 51.387,104.526 51.781,104.526 52.263 C 104.526 52.745,104.394 53.139,104.234 53.139 C 104.073 53.139,103.942 53.401,103.942 53.723 C 103.942 54.044,103.810 54.307,103.650 54.307 C 103.489 54.307,103.358 54.832,103.358 55.474 C 103.358 56.117,103.226 56.642,103.066 56.642 C 102.905 56.642,102.774 56.905,102.774 57.226 C 102.774 57.547,102.642 57.810,102.482 57.810 C 102.321 57.810,102.190 58.204,102.190 58.686 C 102.190 59.168,102.058 59.562,101.898 59.562 C 101.737 59.562,101.606 59.956,101.606 60.438 C 101.606 60.920,101.474 61.314,101.314 61.314 C 101.153 61.314,101.022 61.708,101.022 62.190 C 101.022 62.672,100.891 63.066,100.730 63.066 C 100.569 63.066,100.438 63.328,100.438 63.650 C 100.438 63.971,100.307 64.234,100.146 64.234 C 99.985 64.234,99.854 64.759,99.854 65.401 C 99.854 66.044,99.723 66.569,99.562 66.569 C 99.401 66.569,99.270 66.832,99.270 67.153 C 99.270 67.474,99.139 67.737,98.978 67.737 C 98.818 67.737,98.686 68.131,98.686 68.613 C 98.686 69.095,98.555 69.489,98.394 69.489 C 98.234 69.489,98.102 69.883,98.102 70.365 C 98.102 70.847,97.971 71.241,97.810 71.241 C 97.650 71.241,97.518 71.635,97.518 72.117 C 97.518 72.599,97.387 72.993,97.226 72.993 C 97.066 72.993,96.934 73.387,96.934 73.869 C 96.934 74.350,96.803 74.745,96.642 74.745 C 96.482 74.745,96.350 75.139,96.350 75.620 C 96.350 76.102,96.219 76.496,96.058 76.496 C 95.898 76.496,95.766 76.759,95.766 77.080 C 95.766 77.401,95.635 77.664,95.474 77.664 C 95.314 77.664,95.182 78.058,95.182 78.540 C 95.182 79.022,95.051 79.416,94.891 79.416 C 94.730 79.416,94.599 79.810,94.599 80.292 C 94.599 80.774,94.467 81.168,94.307 81.168 C 94.146 81.168,94.015 81.562,94.015 82.044 C 94.015 82.526,93.883 82.920,93.723 82.920 C 93.562 82.920,93.431 83.314,93.431 83.796 C 93.431 84.277,93.299 84.672,93.139 84.672 C 92.978 84.672,92.847 85.066,92.847 85.547 C 92.847 86.029,92.715 86.423,92.555 86.423 C 92.394 86.423,92.263 86.686,92.263 87.007 C 92.263 87.328,92.131 87.591,91.971 87.591 C 91.810 87.591,91.679 87.985,91.679 88.467 C 91.679 88.949,91.547 89.343,91.387 89.343 C 91.226 89.343,91.095 89.737,91.095 90.219 C 91.095 90.701,90.964 91.095,90.803 91.095 C 90.642 91.095,90.511 91.489,90.511 91.971 C 90.511 92.453,90.380 92.847,90.219 92.847 C 90.058 92.847,89.927 93.241,89.927 93.723 C 89.927 94.204,89.796 94.599,89.635 94.599 C 89.474 94.599,89.343 94.993,89.343 95.474 C 89.343 95.956,89.212 96.350,89.051 96.350 C 88.891 96.350,88.759 96.613,88.759 96.934 C 88.759 97.255,88.628 97.518,88.467 97.518 C 88.307 97.518,88.175 97.912,88.175 98.394 C 88.175 98.876,88.044 99.270,87.883 99.270 C 87.723 99.270,87.591 99.664,87.591 100.146 C 87.591 100.628,87.460 101.022,87.299 101.022 C 87.139 101.022,87.007 101.416,87.007 101.898 C 87.007 102.380,86.876 102.774,86.715 102.774 C 86.555 102.774,86.423 103.168,86.423 103.650 C 86.423 104.131,86.292 104.526,86.131 104.526 C 85.971 104.526,85.839 104.788,85.839 105.109 C 85.839 105.431,85.708 105.693,85.547 105.693 C 85.387 105.693,85.255 106.088,85.255 106.569 C 85.255 107.051,85.124 107.445,84.964 107.445 C 84.803 107.445,84.672 107.839,84.672 108.321 C 84.672 108.803,84.540 109.197,84.380 109.197 C 84.219 109.197,84.088 109.591,84.088 110.073 C 84.088 110.555,83.956 110.949,83.796 110.949 C 83.635 110.949,83.504 111.343,83.504 111.825 C 83.504 112.307,83.372 112.701,83.212 112.701 C 83.051 112.701,82.920 113.095,82.920 113.577 C 82.920 114.058,82.788 114.453,82.628 114.453 C 82.467 114.453,82.336 114.715,82.336 115.036 C 82.336 115.358,82.204 115.620,82.044 115.620 C 81.883 115.620,81.752 116.015,81.752 116.496 C 81.752 116.978,81.620 117.372,81.460 117.372 C 81.299 117.372,81.168 117.766,81.168 118.248 C 81.168 118.730,81.036 119.124,80.876 119.124 C 80.715 119.124,80.584 119.518,80.584 120.000 C 80.584 120.482,80.453 120.876,80.292 120.876 C 80.131 120.876,80.000 121.270,80.000 121.752 C 80.000 122.234,79.869 122.628,79.708 122.628 C 79.547 122.628,79.416 123.022,79.416 123.504 C 79.416 123.985,79.285 124.380,79.124 124.380 C 78.964 124.380,78.832 124.642,78.832 124.964 C 78.832 125.285,78.701 125.547,78.540 125.547 C 78.380 125.547,78.248 125.942,78.248 126.423 C 78.248 126.905,78.117 127.299,77.956 127.299 C 77.796 127.299,77.664 127.693,77.664 128.175 C 77.664 128.657,77.533 129.051,77.372 129.051 C 77.212 129.051,77.080 129.445,77.080 129.927 C 77.080 130.409,76.949 130.803,76.788 130.803 C 76.628 130.803,76.496 131.197,76.496 131.679 C 76.496 132.161,76.365 132.555,76.204 132.555 C 76.044 132.555,75.912 132.949,75.912 133.431 C 75.912 133.912,75.781 134.307,75.620 134.307 C 75.460 134.307,75.328 134.569,75.328 134.891 C 75.328 135.212,75.197 135.474,75.036 135.474 C 74.876 135.474,74.745 135.869,74.745 136.350 C 74.745 136.832,74.613 137.226,74.453 137.226 C 74.292 137.226,74.161 137.620,74.161 138.102 C 74.161 138.584,74.029 138.978,73.869 138.978 C 73.708 138.978,73.577 139.372,73.577 139.854 C 73.577 140.336,73.445 140.730,73.285 140.730 C 73.124 140.730,72.993 141.124,72.993 141.606 C 72.993 142.088,72.861 142.482,72.701 142.482 C 72.540 142.482,72.409 142.876,72.409 143.358 C 72.409 143.839,72.277 144.234,72.117 144.234 C 71.956 144.234,71.825 144.496,71.825 144.818 C 71.825 145.139,71.693 145.401,71.533 145.401 C 71.372 145.401,71.241 145.796,71.241 146.277 C 71.241 146.759,71.109 147.153,70.949 147.153 C 70.788 147.153,70.657 147.547,70.657 148.029 C 70.657 148.511,70.526 148.905,70.365 148.905 C 70.204 148.905,70.073 149.299,70.073 149.781 C 70.073 150.263,69.942 150.657,69.781 150.657 C 69.620 150.657,69.489 151.051,69.489 151.533 C 69.489 152.015,69.358 152.409,69.197 152.409 C 69.036 152.409,68.905 152.803,68.905 153.285 C 68.905 153.766,68.774 154.161,68.613 154.161 C 68.453 154.161,68.321 154.555,68.321 155.036 C 68.321 155.518,68.190 155.912,68.029 155.912 C 67.869 155.912,67.737 156.175,67.737 156.496 C 67.737 156.818,67.606 157.080,67.445 157.080 C 67.285 157.080,67.153 157.474,67.153 157.956 C 67.153 158.438,67.022 158.832,66.861 158.832 C 66.701 158.832,66.569 159.226,66.569 159.708 C 66.569 160.190,66.438 160.584,66.277 160.584 C 66.117 160.584,65.985 160.978,65.985 161.460 C 65.985 161.942,65.854 162.336,65.693 162.336 C 65.533 162.336,65.401 162.730,65.401 163.212 C 65.401 163.693,65.270 164.088,65.109 164.088 C 64.949 164.088,64.818 164.482,64.818 164.964 C 64.818 165.445,64.686 165.839,64.526 165.839 C 64.365 165.839,64.234 166.102,64.234 166.423 C 64.234 166.745,64.102 167.007,63.942 167.007 C 63.781 167.007,63.650 167.401,63.650 167.883 C 63.650 168.365,63.518 168.759,63.358 168.759 C 63.197 168.759,63.066 169.153,63.066 169.635 C 63.066 170.117,62.934 170.511,62.774 170.511 C 62.613 170.511,62.482 170.905,62.482 171.387 C 62.482 171.869,62.350 172.263,62.190 172.263 C 62.029 172.263,61.898 172.657,61.898 173.139 C 61.898 173.620,61.766 174.015,61.606 174.015 C 61.445 174.015,61.314 174.409,61.314 174.891 C 61.314 175.372,61.182 175.766,61.022 175.766 C 60.861 175.766,60.730 176.029,60.730 176.350 C 60.730 176.672,60.599 176.934,60.438 176.934 C 60.277 176.934,60.146 177.328,60.146 177.810 C 60.146 178.292,60.015 178.686,59.854 178.686 C 59.693 178.686,59.562 179.080,59.562 179.562 C 59.562 180.044,59.431 180.438,59.270 180.438 C 59.109 180.438,58.978 180.832,58.978 181.314 C 58.978 181.796,58.847 182.190,58.686 182.190 C 58.526 182.190,58.394 182.584,58.394 183.066 C 58.394 183.547,58.263 183.942,58.102 183.942 C 57.942 183.942,57.810 184.336,57.810 184.818 C 57.810 185.299,57.679 185.693,57.518 185.693 C 57.358 185.693,57.226 185.956,57.226 186.277 C 57.226 186.599,57.095 186.861,56.934 186.861 C 56.774 186.861,56.642 187.255,56.642 187.737 C 56.642 188.219,56.511 188.613,56.350 188.613 C 56.190 188.613,56.058 189.007,56.058 189.489 C 56.058 189.971,55.927 190.365,55.766 190.365 C 55.606 190.365,55.474 190.759,55.474 191.241 C 55.474 191.723,55.343 192.117,55.182 192.117 C 55.022 192.117,54.891 192.511,54.891 192.993 C 54.891 193.474,54.759 193.869,54.599 193.869 C 54.438 193.869,54.307 194.263,54.307 194.745 C 54.307 195.226,54.175 195.620,54.015 195.620 C 53.854 195.620,53.723 195.883,53.723 196.204 C 53.723 196.526,53.591 196.788,53.431 196.788 C 53.270 196.788,53.139 197.182,53.139 197.664 C 53.139 198.146,53.007 198.540,52.847 198.540 C 52.686 198.540,52.555 198.934,52.555 199.416 C 52.555 199.898,52.423 200.292,52.263 200.292 C 52.102 200.292,51.971 200.686,51.971 201.168 C 51.971 201.650,51.839 202.044,51.679 202.044 C 51.518 202.044,51.387 202.438,51.387 202.920 C 51.387 203.401,51.255 203.796,51.095 203.796 C 50.934 203.796,50.803 204.190,50.803 204.672 C 50.803 205.153,50.672 205.547,50.511 205.547 C 50.350 205.547,50.219 205.810,50.219 206.131 C 50.219 206.453,50.088 206.715,49.927 206.715 C 49.766 206.715,49.635 207.109,49.635 207.591 C 49.635 208.073,49.504 208.467,49.343 208.467 C 49.182 208.467,49.051 208.861,49.051 209.343 C 49.051 209.825,48.920 210.219,48.759 210.219 C 48.599 210.219,48.467 210.613,48.467 211.095 C 48.467 211.577,48.336 211.971,48.175 211.971 C 48.015 211.971,47.883 212.365,47.883 212.847 C 47.883 213.328,47.752 213.723,47.591 213.723 C 47.431 213.723,47.299 214.117,47.299 214.599 C 47.299 215.080,47.168 215.474,47.007 215.474 C 46.847 215.474,46.715 215.737,46.715 216.058 C 46.715 216.380,46.584 216.642,46.423 216.642 C 46.263 216.642,46.131 217.036,46.131 217.518 C 46.131 218.000,46.000 218.394,45.839 218.394 C 45.679 218.394,45.547 218.788,45.547 219.270 C 45.547 219.752,45.416 220.146,45.255 220.146 C 45.095 220.146,44.964 220.480,44.964 220.889 C 44.964 221.298,44.641 221.955,44.247 222.349 L 43.530 223.066 27.896 223.066 C 17.669 223.066,12.263 223.167,12.263 223.358 C 12.263 223.549,17.849 223.650,28.439 223.650 L 44.614 223.650 44.899 222.847 C 90.586 93.820,106.633 47.883,106.019 47.883 C 105.840 47.883,105.693 48.277,105.693 48.759 M102.904 49.369 C 102.603 49.855,103.280 50.414,103.683 50.011 C 104.020 49.674,103.809 49.051,103.358 49.051 C 103.216 49.051,103.012 49.194,102.904 49.369 M100.568 56.376 C 100.267 56.863,100.944 57.421,101.347 57.018 C 101.684 56.681,101.473 56.058,101.022 56.058 C 100.880 56.058,100.676 56.201,100.568 56.376 M98.232 63.383 C 97.932 63.870,98.608 64.428,99.011 64.025 C 99.348 63.689,99.137 63.066,98.686 63.066 C 98.545 63.066,98.340 63.209,98.232 63.383 M95.897 70.390 C 95.596 70.877,96.273 71.436,96.675 71.033 C 97.012 70.696,96.801 70.073,96.350 70.073 C 96.209 70.073,96.005 70.216,95.897 70.390 M93.561 77.398 C 93.260 77.885,93.937 78.443,94.340 78.040 C 94.676 77.703,94.466 77.080,94.015 77.080 C 93.873 77.080,93.669 77.223,93.561 77.398 M91.225 84.405 C 90.924 84.892,91.601 85.450,92.004 85.047 C 92.341 84.710,92.130 84.088,91.679 84.088 C 91.537 84.088,91.333 84.230,91.225 84.405 M88.889 89.077 C 88.589 89.563,89.265 90.122,89.668 89.719 C 90.005 89.382,89.794 88.759,89.343 88.759 C 89.201 88.759,88.997 88.902,88.889 89.077 M86.554 96.084 C 86.253 96.571,86.929 97.129,87.332 96.726 C 87.669 96.389,87.458 95.766,87.007 95.766 C 86.866 95.766,86.662 95.909,86.554 96.084 M84.218 103.091 C 83.917 103.578,84.594 104.136,84.996 103.733 C 85.333 103.397,85.123 102.774,84.672 102.774 C 84.530 102.774,84.326 102.917,84.218 103.091 M81.882 110.098 C 81.581 110.585,82.258 111.144,82.661 110.741 C 82.998 110.404,82.787 109.781,82.336 109.781 C 82.194 109.781,81.990 109.924,81.882 110.098 M79.546 117.106 C 79.245 117.593,79.922 118.151,80.325 117.748 C 80.662 117.411,80.451 116.788,80.000 116.788 C 79.858 116.788,79.654 116.931,79.546 117.106 M77.211 124.113 C 76.910 124.600,77.586 125.158,77.989 124.755 C 78.326 124.418,78.115 123.796,77.664 123.796 C 77.523 123.796,77.318 123.938,77.211 124.113 M74.875 128.785 C 74.574 129.271,75.251 129.830,75.653 129.427 C 75.990 129.090,75.779 128.467,75.328 128.467 C 75.187 128.467,74.983 128.610,74.875 128.785 M72.539 135.792 C 72.238 136.279,72.915 136.837,73.318 136.434 C 73.655 136.097,73.444 135.474,72.993 135.474 C 72.851 135.474,72.647 135.617,72.539 135.792 M70.203 142.799 C 69.902 143.286,70.579 143.844,70.982 143.441 C 71.319 143.105,71.108 142.482,70.657 142.482 C 70.515 142.482,70.311 142.625,70.203 142.799 M67.867 149.806 C 67.567 150.293,68.243 150.852,68.646 150.449 C 68.983 150.112,68.772 149.489,68.321 149.489 C 68.180 149.489,67.975 149.632,67.867 149.806 M65.532 156.814 C 65.231 157.301,65.908 157.859,66.310 157.456 C 66.647 157.119,66.436 156.496,65.985 156.496 C 65.844 156.496,65.640 156.639,65.532 156.814 M63.196 163.821 C 62.895 164.308,63.572 164.866,63.975 164.463 C 64.311 164.126,64.101 163.504,63.650 163.504 C 63.508 163.504,63.304 163.646,63.196 163.821 M60.860 168.493 C 60.559 168.979,61.236 169.538,61.639 169.135 C 61.976 168.798,61.765 168.175,61.314 168.175 C 61.172 168.175,60.968 168.318,60.860 168.493 M58.524 175.500 C 58.224 175.987,58.900 176.545,59.303 176.142 C 59.640 175.805,59.429 175.182,58.978 175.182 C 58.836 175.182,58.632 175.325,58.524 175.500 M56.189 182.507 C 55.888 182.994,56.564 183.552,56.967 183.150 C 57.304 182.813,57.093 182.190,56.642 182.190 C 56.501 182.190,56.297 182.333,56.189 182.507 M53.853 189.514 C 53.552 190.001,54.229 190.560,54.631 190.157 C 54.968 189.820,54.758 189.197,54.307 189.197 C 54.165 189.197,53.961 189.340,53.853 189.514 M51.517 196.522 C 51.216 197.009,51.893 197.567,52.296 197.164 C 52.633 196.827,52.422 196.204,51.971 196.204 C 51.829 196.204,51.625 196.347,51.517 196.522 M49.181 203.529 C 48.880 204.016,49.557 204.574,49.960 204.171 C 50.297 203.835,50.086 203.212,49.635 203.212 C 49.493 203.212,49.289 203.355,49.181 203.529 M46.846 208.201 C 46.545 208.687,47.221 209.246,47.624 208.843 C 47.961 208.506,47.750 207.883,47.299 207.883 C 47.158 207.883,46.953 208.026,46.846 208.201 M44.510 215.208 C 44.209 215.695,44.886 216.253,45.288 215.850 C 45.625 215.513,45.414 214.891,44.964 214.891 C 44.822 214.891,44.618 215.033,44.510 215.208 M4.802 222.215 C 4.501 222.702,5.178 223.260,5.580 222.858 C 5.917 222.521,5.706 221.898,5.255 221.898 C 5.114 221.898,4.910 222.041,4.802 222.215 M5.255 223.942 C 5.255 224.102,5.004 224.234,4.696 224.234 C 4.388 224.234,4.081 224.398,4.013 224.599 C 3.918 224.881,3.778 224.871,3.393 224.553 C 2.753 224.024,1.993 224.592,2.569 225.168 C 2.994 225.592,3.034 226.569,2.628 226.569 C 2.467 226.569,2.336 226.832,2.336 227.153 C 2.336 227.474,2.204 227.737,2.044 227.737 C 1.850 227.737,1.776 240.415,1.822 265.328 L 1.892 302.920 2.041 265.839 C 2.152 238.203,2.278 228.563,2.535 227.989 C 3.334 226.206,5.296 224.531,7.297 223.922 C 7.880 223.745,7.746 223.695,6.642 223.675 C 5.880 223.661,5.255 223.781,5.255 223.942 M0.130 226.887 C -0.171 227.374,0.506 227.932,0.909 227.529 C 1.246 227.192,1.035 226.569,0.584 226.569 C 0.442 226.569,0.238 226.712,0.130 226.887 "
            stroke="none" fill="#9fbad5" fill-rule="evenodd"></path>
        <path id="path4"
            d="M183.633 109.124 C 230.690 109.183,243.086 109.274,243.290 109.563 C 243.481 109.832,243.517 109.813,243.429 109.489 C 243.323 109.102,236.445 109.051,183.771 109.050 L 124.234 109.049 183.633 109.124 M137.518 159.925 C 205.733 160.124,253.362 160.125,253.240 159.927 C 253.165 159.807,221.349 159.740,182.538 159.779 C 143.726 159.819,123.467 159.884,137.518 159.925 M261.022 199.562 C 261.022 199.949,251.919 200.007,181.533 200.073 L 102.044 200.147 181.679 200.220 C 261.143 200.292,261.314 200.291,261.314 199.708 C 261.314 199.387,261.248 199.124,261.168 199.124 C 261.088 199.124,261.022 199.321,261.022 199.562 M97.709 219.197 C 97.635 219.318,135.269 219.416,181.342 219.416 C 227.414 219.416,265.109 219.318,265.109 219.197 C 265.109 218.911,97.886 218.911,97.709 219.197 M84.279 274.380 C 84.156 274.577,148.492 274.577,241.168 274.378 C 260.197 274.338,232.712 274.272,180.090 274.232 C 127.468 274.193,84.353 274.259,84.279 274.380 "
            stroke="none" fill="#d99372" fill-rule="evenodd"></path>
    </g>
</svg>