<?xml version="1.0" encoding="iso-8859-1"?>
<!-- Generator: Adobe Illustrator 19.0.0, SVG Export Plug-In . SVG Version: 6.00 Build 0)  -->
<svg version="1.1" id="Capa_1" xmlns="http://www.w3.org/2000/svg" xmlns:xlink="http://www.w3.org/1999/xlink" x="0px" y="0px" viewBox="0 0 512 512" style="enable-background:new 0 0 512 512;" xml:space="preserve">
    <path style="fill:#F2F2F2;" d="M148.267,73.6c-1.067,0-3.2,0-4.267,1.067c-1.067-7.467-7.467-12.8-14.933-12.8
	c-7.467,0-13.867,5.333-14.933,12.8c-3.2-2.133-7.467-4.267-11.733-4.267c-10.667,0-19.2,8.533-19.2,19.2l0,0
	c-1.067,0-1.067,0-2.133,0c-12.8,0-23.467,10.667-23.467,23.467s10.667,23.467,23.467,23.467s23.467-10.667,23.467-23.467l0,0
	c3.2,2.133,7.467,3.2,11.733,3.2c9.6,0,18.133-6.4,20.267-16c3.2,2.133,6.4,4.267,10.667,4.267c8.533,0,16-7.467,16-16
	S157.867,73.6,148.267,73.6z" />
    <polygon style="fill:#40596B;" points="486.4,266.667 466.133,298.667 194.133,298.667 166.4,266.667 0,266.667 0,292.267 
	59.733,450.133 451.2,450.133 512,292.267 512,266.667 " />
    <polygon style="fill:#FF7058;" points="42.667,405.333 59.733,450.133 451.2,450.133 469.333,405.333 " />
    <g>
        <circle style="fill:#F2F2F2;" cx="38.4" cy="293.333" r="16" />
        <circle style="fill:#F2F2F2;" cx="83.2" cy="293.333" r="16" />
        <circle style="fill:#F2F2F2;" cx="128" cy="293.333" r="16" />
    </g>
    <g>
        <path style="fill:#E4EAEF;" d="M128,280.533c8.533,0,14.933,6.4,16,14.933c0-1.067,0-1.067,0-2.133c0-8.533-7.467-16-16-16
		s-16,7.467-16,16c0,1.067,0,1.067,0,2.133C112,286.933,119.467,280.533,128,280.533z" />
        <path style="fill:#E4EAEF;" d="M83.2,280.533c8.533,0,14.933,6.4,16,14.933c0-1.067,0-1.067,0-2.133c0-8.533-7.467-16-16-16
		s-16,7.467-16,16c0,1.067,0,1.067,0,2.133C68.267,286.933,74.667,280.533,83.2,280.533z" />
        <path style="fill:#E4EAEF;" d="M38.4,280.533c8.533,0,14.933,6.4,16,14.933c0-1.067,0-1.067,0-2.133c0-8.533-7.467-16-16-16
		s-16,7.467-16,16c0,1.067,0,1.067,0,2.133C23.467,286.933,29.867,280.533,38.4,280.533z" />
    </g>
    <rect x="194.133" y="224" style="fill:#FFD15C;" width="135.467" height="74.667" />
    <rect x="329.6" y="224" style="fill:#FF7058;" width="135.467" height="74.667" />
    <rect x="262.4" y="148.267" style="fill:#84DBFF;" width="135.467" height="74.667" />
    <path style="fill:#ACB3BA;" d="M133.333,266.667H33.067v-69.333c0-6.4,4.267-10.667,10.667-10.667h78.933
	c6.4,0,10.667,4.267,10.667,10.667V266.667z" />
    <rect x="54.4" y="132.267" style="fill:#F2F2F2;" width="56.533" height="54.4" />
    <path style="fill:#CDD6E0;" d="M110.933,140.8H54.4c-4.267,0-7.467-3.2-7.467-7.467l0,0c0-4.267,3.2-7.467,7.467-7.467h56.533
	c4.267,0,7.467,3.2,7.467,7.467l0,0C118.4,136.533,115.2,140.8,110.933,140.8z" />
    <g></g>
    <g></g>
    <g></g>
    <g></g>
    <g></g>
    <g></g>
    <g></g>
    <g></g>
    <g></g>
    <g></g>
    <g></g>
    <g></g>
    <g></g>
    <g></g>
    <g></g>
</svg>
