<svg id="Layer_1" height="512" viewBox="0 0 512 512" width="512" xmlns="http://www.w3.org/2000/svg" data-name="Layer 1">
    <path
        d="m219.12 287.72c-52.66-63.35-120.26-87.66-149.86-90.17-3.25 36.85-9.76 81.13-21.73 120.62 15.41.02 37.53 3.87 68.2 16.83l19.741 8.946c-.352 6.323-.405 11.821-.281 16.514a47.121 47.121 0 0 0 12.34-11.05l16.97 7.69c68.04 26.37 123.08-1.5 123.08-1.5l.01-.01c-20.95-16.53-44.1-38.55-68.47-67.87z"
        fill="#5fa8ed" />
    <path
        d="m443.28 385.74-43.6-46.15s-49.85-7.98-116.87-76.29q-8.685-8.85-17.73-19.09-4.935-5.58-9.93-11.59-2.22-2.655-4.46-5.42a324.5 324.5 0 0 0 -29.66-31.99v-.01c-55.17-51.89-110.64-65.5-135.56-69.07a11.7 11.7 0 0 0 -13.4 11.61l-2.81 59.81c29.6 2.51 97.2 26.82 149.86 90.17 24.37 29.32 47.52 51.34 68.47 67.87 60.08 47.45 101.93 49.73 101.93 49.73l.02.05a96.342 96.342 0 0 1 44.85-3.51 62.136 62.136 0 0 1 3.65-6.59 89.319 89.319 0 0 0 5.25-9.53z"
        fill="#ccd8ff" />
    <path
        d="m102.07 142.74a11.662 11.662 0 0 1 8.509-11.281 203.085 203.085 0 0 0 -25.109-5.329 11.7 11.7 0 0 0 -13.4 11.61l-2.81 59.81c7.691.652 17.951 2.781 29.844 6.679.051-.557.107-1.126.156-1.679z"
        fill="#afc4f9" />
    <path
        d="m69.26 197.55c-3.25 36.85-9.76 81.13-21.73 120.62a131.1 131.1 0 0 1 30.285 4.024c11.606-38.65 18.019-81.754 21.285-117.965-11.889-3.898-22.149-6.029-29.84-6.679z"
        fill="#a4d6ff" />
    <path
        d="m389.52 405.32s-41.85-2.28-101.93-49.73l-.01.01s-55.04 27.87-123.08 1.5l-48.77-22.1c-30.67-12.96-52.79-16.81-68.2-16.83-22.2-.03-30.53 7.85-30.53 7.85v59.72s53.8 43.93 102.73 33.04l37.32-19.95c64.44-15.1 138.27 53.18 213.69 14.32a119.417 119.417 0 0 1 18.8-7.78z"
        fill="#c79a83" />
    <path
        d="m465.67 406.68-31.28-4.82a96.342 96.342 0 0 0 -44.85 3.51 119.417 119.417 0 0 0 -18.8 7.78c-75.42 38.86-149.25-29.42-213.69-14.32q-5.835 3.825-11.89 8.31a67.925 67.925 0 0 1 -10.06 6.2 66.263 66.263 0 0 1 -15.37 5.44c-48.93 10.89-102.73-33.04-102.73-33.04l.25 78.92h477.75v-26.02a57.082 57.082 0 0 0 -29.33-31.96z"
        fill="#8c6864" />
    <path
        d="m401.45 310.78a85.905 85.905 0 0 1 -13.02-4.06c-35.47-13.59-103.1-52.98-103.1-52.98l-2.52 9.56c67.02 68.31 116.87 76.29 116.87 76.29l4.49-24.79a3.469 3.469 0 0 0 -2.72-4.02z"
        fill="#f66" />
    <path
        d="m393.23 275.47c-16.78-2.32-39.36-9.88-59.19-17.53-24.5-9.45-44.8-19.03-44.8-19.03l-3.91 14.83s67.63 39.39 103.1 52.98l.01-.01s11.12-30.37 4.79-31.24z"
        fill="#5fa8ed" />
    <path
        d="m346.89 201.83a5.616 5.616 0 0 1 .75 4.53l-5.06 19.2c-15.04-21.3-44.82-19.01-44.82-19.01l5.62-21.33s28.86-5.53 43.51 16.61z"
        fill="#b0b5ca" />
    <path d="m297.76 206.55-8.52 32.36s20.3 9.58 44.8 19.03l8.54-32.37v-.01c-15.04-21.3-44.82-19.01-44.82-19.01z"
        fill="#ccd3df" />
    <path
        d="m307.72 140.88a10.5 10.5 0 0 1 4.33 11.44l-5.13 19.48c-18.89-19.08-55.78-16.63-55.78-16.63l4.88-18.49a10.484 10.484 0 0 1 8.73-7.76c8.56-1.11 24.15-.54 42.97 11.96z"
        fill="#f66" />
    <path d="m251.14 155.17-3.96 15.03 7.97 62.42 27.66 30.68 24.11-91.5c-18.89-19.08-55.78-16.63-55.78-16.63z"
        fill="#ffd876" />
    <path d="m270.81 222.44-5.73 21.77q9.03 10.26 17.73 19.09l9.3-35.28z" fill="#56568c" />
    <path
        d="m267.24 181.5-5.12 21.67-.08-.02c-13.82-13.69-39.4-14.03-39.4-14.03l4.94-18.75s8.35-3.02 19.6-.17a45.869 45.869 0 0 1 20.06 11.3z"
        fill="#b0b5ca" />
    <path
        d="m262.04 203.15c-13.82-13.69-39.4-14.03-39.4-14.03l-1.61 6.08v.01a324.5 324.5 0 0 1 29.66 31.99q2.235 2.76 4.46 5.42l6.97-29.45z"
        fill="#ccd3df" />
    <path
        d="m442.11 332.73s40.21 17.78 28.33 52.89a102.346 102.346 0 0 0 -4.77 21.06c-3.12 26.98 6.37 44.62 6.37 44.62a75.263 75.263 0 0 0 -21.28 1.43s-32.25-17.46-16.37-50.87a62.136 62.136 0 0 1 3.65-6.59 89.319 89.319 0 0 0 5.25-9.53c15.24-32.3-1.18-53.01-1.18-53.01z"
        fill="#94ba09" />
    <g fill="#8cb6f8">
        <path d="m445.37 77.02a10.885 10.885 0 1 1 -10.92 10.88 10.908 10.908 0 0 1 10.92-10.88z" />
        <path d="m403.24 203.92a9.345 9.345 0 1 1 -9.38 9.34 9.359 9.359 0 0 1 9.38-9.34z" />
        <ellipse cx="373.66" cy="111.42" rx="17.4" ry="17.34" />
        <path d="m184.82 47.34a13.845 13.845 0 1 1 -13.9 13.84 13.862 13.862 0 0 1 13.9-13.84z" />
    </g>
    <path
        d="m135.19 360.46s17.89-9.98 21.76-31.7 17.1-27.28 17.1-27.28 2.06 34.03-9.55 55.62a42.272 42.272 0 0 1 -4.33 6.58c-6.58 8.14-6.81 29.75-3.12 35.15q-5.835 3.825-11.89 8.31a67.925 67.925 0 0 1 -10.06 6.2 99.772 99.772 0 0 1 -15.73-22.99c-7.09-14.27-12.22-33.72-4.13-54.09.17-.42.33-.84.49-1.26 15.27-39.71 2.26-65.78 2.26-65.78s23.93 17.71 19.12 56.69a232.739 232.739 0 0 0 -1.92 34.55z"
        fill="#94ba09" />
    <path
        d="m135.1 413.34a66.263 66.263 0 0 1 -15.37 5.44s3.48-8.47-26.66-20.77c-12.19-4.97-13.75-20.23-13.75-20.23s20.61-4.55 40.05 12.57a99.772 99.772 0 0 0 15.73 22.99z"
        fill="#5fcda4" />
    <g fill="#4689d3">
        <path d="m348.77 344.18a13.55 13.55 0 1 1 -13.59 13.55 13.567 13.567 0 0 1 13.59-13.55z" />
        <path d="m297.76 307.66a13.55 13.55 0 1 1 -13.58 13.55 13.569 13.569 0 0 1 13.58-13.55z" />
        <path d="m250.13 260.63a13.55 13.55 0 1 1 -13.59 13.55 13.567 13.567 0 0 1 13.59-13.55z" />
        <path d="m202.09 206.47a15.74 15.74 0 1 1 -15.79 15.74 15.765 15.765 0 0 1 15.79-15.74z" />
        <path d="m141.83 163.91a18.92 18.92 0 1 1 -18.98 18.92 18.949 18.949 0 0 1 18.98-18.92z" />
        <path
            d="m72.07 140.59c11.72 0 19.32 9.39 19.32 21.08a20.973 20.973 0 0 1 -20.97 21.15c1.15-16.63 1.62-31.16 1.65-42.23z" />
    </g>
    <path d="m55.32 348.31a11.22 11.22 0 1 1 -11.26 11.22 11.235 11.235 0 0 1 11.26-11.22z" fill="#8cb6f8" />
    <path
        d="m480.847 446.42a80.3 80.3 0 0 0 -33.571.939c-2.531.019-15.737-.573-26.424-14.423-13.917-18.038-29.547-12.037-30.2-11.773a6 6 0 0 0 4.471 11.137c.077-.032 7.931-2.792 16.233 7.966a49.719 49.719 0 0 0 16.962 14.262c-.858.475-1.377.8-1.5.875a6 6 0 0 0 -1.871 8.277 6.1 6.1 0 0 0 .773.982h9.088a66.454 66.454 0 0 1 14.6-5.471c.141-.03.281-.061.418-.1a68.43 68.43 0 0 1 28.825-.871 6 6 0 1 0 2.2-11.8z"
        fill="#7c4f4c" />
    <path d="m145.138 446.941h-82.616a6 6 0 1 1 0-12h82.616a6 6 0 0 1 0 12z" fill="#f4f8fc" />
    <path d="m42.763 446.941h-3.2a6 6 0 1 1 0-12h3.2a6 6 0 0 1 0 12z" fill="#f4f8fc" />
</svg>