<svg id="Capa_1" enable-background="new 0 0 512 512" height="512" viewBox="0 0 512 512" width="512"
    xmlns="http://www.w3.org/2000/svg">
    <g>
        <g>
            <path d="m360.499 63.734v271.926h14.999l10-135.963-10-135.963z" fill="#c8d2dc" />
            <path d="m375.498 63.734h15.001v271.926h-15.001z" fill="#a2abb8" />
        </g>
        <g>
            <path
                d="m168.506 202.461 9.998-42.794-10.003-159.667-47.796 154.66-47.796 47.796v128.432l31.868 10 31.867-10 .001-96.565z"
                fill="#c8d2dc" />
            <path d="m72.909 480.133c0 17.6 14.267 31.867 31.867 31.867s31.867-14.267 31.867-31.867v-149.245h-63.734z"
                fill="#ff6c6c" />
        </g>
        <path d="m232.246 63.734c0-35.199-28.535-63.734-63.735-63.734l-.005 202.461 63.74-63.74z" fill="#a2abb8" />
        <path d="m168.501 0c-35.2 0-63.735 28.535-63.735 63.734v74.987l63.74 63.74 10-43.461-10-52.135z"
            fill="#dce6eb" />
        <path d="m264.103 202.456-95.592-95.591-.005 95.596 31.861 31.862.001 96.565 31.867 10 31.868-10z"
            fill="#c8d2dc" />
        <path d="m200.368 330.888v149.245c0 17.6 14.267 31.867 31.867 31.867s31.867-14.267 31.867-31.867v-149.245z"
            fill="#c83c50" />
        <g>
            <path d="m335.45 0 11.368 81.792h28.68l10-40.896-10-40.896z" fill="#dce6eb" />
            <path d="m415.547 0h-40.049v81.792h28.681z" fill="#c8d2dc" />
            <path d="m338.863 317.603v157.763c0 20.233 16.401 36.634 36.634 36.634h.001l10-97.199-10-97.199h-36.635z"
                fill="#1865a1" />
            <path d="m375.498 512c20.232 0 36.633-16.402 36.633-36.634v-157.763h-36.633z" fill="#0f4066" />
        </g>
        <g>
            <path d="m311.903 302.603v30h63.595l10-15-10-15z" fill="#218adc" />
            <path d="m375.498 302.603h63.593v30h-63.593z" fill="#1865a1" />
        </g>
    </g>
</svg>