<svg height="512" viewBox="0 0 512 512" width="512" xmlns="http://www.w3.org/2000/svg"><g id="Flat"><path d="m392 456h-240a32 32 0 0 1 -32-32v-368a32 32 0 0 1 32-32h224a48 48 0 0 1 48 48v352a32 32 0 0 1 -32 32z" fill="#348fd9"/><path d="m360 488h-240a32 32 0 0 1 -32-32v-368a32 32 0 0 1 32-32h184l88 80v320a32 32 0 0 1 -32 32z" fill="#60d1e0"/><g fill="#4eb9c7"><path d="m152 216h104v16h-104z"/><path d="m120 216h16v16h-16z"/><path d="m272 216h40v16h-40z"/><path d="m328 216h40v16h-40z"/><path d="m152 248h104v16h-104z"/><path d="m120 248h16v16h-16z"/><path d="m272 248h40v16h-40z"/><path d="m328 248h40v16h-40z"/><path d="m152 280h104v16h-104z"/><path d="m120 280h16v16h-16z"/><path d="m272 280h40v16h-40z"/><path d="m328 280h40v16h-40z"/><path d="m152 312h104v16h-104z"/><path d="m120 312h16v16h-16z"/><path d="m272 312h40v16h-40z"/><path d="m328 312h40v16h-40z"/><path d="m152 344h104v16h-104z"/><path d="m120 344h16v16h-16z"/><path d="m272 344h40v16h-40z"/><path d="m328 344h40v16h-40z"/><path d="m152 376h104v16h-104z"/><path d="m120 376h16v16h-16z"/><path d="m272 376h40v16h-40z"/><path d="m328 376h40v16h-40z"/><path d="m152 408h104v16h-104z"/><path d="m120 408h16v16h-16z"/><path d="m272 408h40v16h-40z"/><path d="m328 408h40v16h-40z"/><path d="m120 184h248v16h-248z"/><path d="m120 440h248v16h-248z"/><path d="m216 152h72v16h-72z"/><path d="m216 120h72v16h-72z"/><path d="m195.578 104.845-32-16a8 8 0 0 0 -7.156 0l-32 16a8 8 0 0 0 -4.422 7.155v48a8 8 0 0 0 8 8h64a8 8 0 0 0 8-8v-48a8 8 0 0 0 -4.422-7.155zm-59.578 12.099 24-12 24 12v3.056h-48zm0 35.056v-16h16v16zm32 0v-16h16v16z"/></g><path d="m304 56v48a32 32 0 0 0 32 32h56z" fill="#8adbe6"/><path d="m280 192v-32l-64 72 64 72v-32h95.432a136.567 136.567 0 0 1 96.568 40 120 120 0 0 0 -120-120z" fill="#ffb531"/><path d="m232 416v32l64-72-64-72v32h-95.432a136.567 136.567 0 0 1 -96.568-40 120 120 0 0 0 120 120z" fill="#d75246"/></g></svg>