<svg id="Layer_1" height="512" viewBox="0 0 512 512" width="512" xmlns="http://www.w3.org/2000/svg" data-name="Layer 1"><path d="m18.36 338.42 40.06 80.94-.08.26c19.84 5.9 23.84 25.53 50.48 25.53 31.34 0 31.34-27.19 62.68-27.19s31.34 27.19 62.69 27.19 31.34-27.19 62.69-27.19 31.35 27.19 62.69 27.19 31.35-27.19 62.7-27.19c24.25 0 29.74 16.27 45.5 23.64l25.87-103.18z" fill="#70798c"/><path d="m429.93 25.41h28.29v282.2h-28.29z" fill="#bc5e51"/><path d="m246 191.16h146.13v77.09h-146.13z" fill="#fb6771"/><path d="m145.16 159.3h38.22v28.67h-38.22z" fill="#d4e1f4"/><path d="m183.38 240.52v.95h-38.22v-.95-52.55h38.22z" fill="#b6c7d8"/><path d="m207.27 241.47h-72.72a73.354 73.354 0 0 0 -62.94 35.68l-36.66 61.27h172.32" fill="#a0eaea"/><path d="m126.9 278.54v35.28h-24.84v-19.28a16 16 0 0 1 16-16z" fill="#43a2ff"/><path d="m126.9 278.54h28.56v35.28h-28.56z" fill="#3090fc"/><path d="m155.46 278.54h24.85v35.28h-24.85z" fill="#43a2ff"/><path d="m207.27 307.61h270.41v30.81h-270.41z" fill="#e8a467"/><path d="m164.55 241.47h-30a73.354 73.354 0 0 0 -62.94 35.68l-36.66 61.27h30l36.66-61.27a73.354 73.354 0 0 1 62.94-35.68z" fill="#6ad3d3"/><path d="m102.463 444.73-54.103-106.31h-30l40.06 80.94-.08.26c18.141 5.395 23.05 22.26 44.123 25.11z" fill="#b0b5ca"/><path d="m246 191.16h30v77.09h-30z" fill="#e75163"/><path d="m145.16 159.3h20v28.67h-20z" fill="#bfcfe2"/><path d="m165.16 187.97h-20v52.55.95h20v-.95z" fill="#a1b5c4"/><g fill="#d1425a"><path d="m282.738 257.417a6 6 0 0 1 -6-6v-43.427a6 6 0 0 1 12 0v43.427a6 6 0 0 1 -6 6z"/><path d="m319.064 257.417a6 6 0 0 1 -6-6v-43.427a6 6 0 0 1 12 0v43.427a6 6 0 0 1 -6 6z"/><path d="m355.391 257.417a6 6 0 0 1 -6-6v-43.427a6 6 0 0 1 12 0v43.427a6 6 0 0 1 -6 6z"/></g><path d="m395.172 185.993-69.18-40.77v-19.35a6 6 0 1 0 -12 0v19.3l-70.978 40.781a6 6 0 1 0 5.978 10.405l70.962-40.771 69.126 40.738a6 6 0 1 0 6.092-10.338z" fill="#b0b5ca"/><path d="m318.4 131.151c-.27 0-.541-.005-.813-.018a17.112 17.112 0 0 1 -7.9-31.829 5.513 5.513 0 0 0 2.7-4.725v-23.146a6 6 0 1 1 12 0v23.146a17.561 17.561 0 0 1 -8.592 15.055 5.121 5.121 0 0 0 -2.513 4.656 5.2 5.2 0 0 0 4.856 4.856 5.111 5.111 0 0 0 5.359-5.105 6 6 0 0 1 12 0 17.194 17.194 0 0 1 -5.294 12.375 16.955 16.955 0 0 1 -11.803 4.735z" fill="#55d8d8"/><path d="m484.965 451.154c-17.914 0-27.14-8-35.279-15.064-7.5-6.508-13.983-12.129-27.416-12.129s-19.914 5.621-27.416 12.129c-8.14 7.061-17.367 15.064-35.281 15.064s-27.138-8-35.278-15.064c-7.5-6.508-13.982-12.129-27.416-12.129s-19.912 5.621-27.414 12.129c-8.14 7.061-17.365 15.064-35.278 15.064s-27.136-8-35.275-15.064c-7.5-6.508-13.979-12.129-27.411-12.129s-19.909 5.621-27.41 12.128c-8.138 7.062-17.362 15.065-35.274 15.065s-27.138-8-35.278-15.064c-7.5-6.508-13.981-12.129-27.415-12.129a6 6 0 0 1 0-12c17.913 0 27.139 8 35.278 15.064 7.5 6.509 13.982 12.129 27.415 12.129s19.91-5.62 27.411-12.128c8.137-7.062 17.362-15.065 35.273-15.065s27.136 8 35.274 15.064c7.5 6.509 13.98 12.129 27.412 12.129s19.913-5.62 27.415-12.129c8.139-7.061 17.365-15.064 35.277-15.064s27.14 8 35.279 15.064c7.5 6.509 13.982 12.129 27.415 12.129s19.914-5.62 27.417-12.129c8.14-7.061 17.366-15.064 35.28-15.064s27.139 8 35.279 15.064c7.5 6.509 13.982 12.129 27.416 12.129a6 6 0 0 1 0 12z" fill="#43a2ff"/><path d="m484.965 492.586c-17.914 0-27.14-8-35.279-15.064-7.5-6.508-13.983-12.129-27.416-12.129s-19.914 5.621-27.416 12.129c-8.14 7.061-17.367 15.064-35.281 15.064s-27.138-8-35.278-15.064c-7.5-6.508-13.982-12.129-27.416-12.129s-19.912 5.621-27.414 12.129c-8.14 7.061-17.365 15.064-35.278 15.064s-27.136-8-35.275-15.064c-7.5-6.508-13.979-12.129-27.411-12.129s-19.909 5.621-27.41 12.128c-8.138 7.062-17.362 15.065-35.274 15.065s-27.138-8-35.278-15.064c-7.5-6.508-13.981-12.129-27.415-12.129a6 6 0 0 1 0-12c17.913 0 27.139 8 35.278 15.065 7.5 6.508 13.982 12.128 27.415 12.128s19.91-5.62 27.411-12.128c8.137-7.062 17.362-15.065 35.273-15.065s27.136 8 35.274 15.065c7.5 6.508 13.98 12.128 27.412 12.128s19.913-5.62 27.415-12.128c8.139-7.062 17.365-15.065 35.277-15.065s27.14 8 35.279 15.065c7.5 6.508 13.982 12.128 27.415 12.128s19.914-5.62 27.417-12.129c8.14-7.061 17.366-15.064 35.28-15.064s27.139 8 35.279 15.065c7.5 6.508 13.982 12.128 27.416 12.128a6 6 0 0 1 0 12z" fill="#43a2ff"/><path d="m126.66 378.823h-5.829a6 6 0 0 1 0-12h5.829a6 6 0 0 1 0 12z" fill="#f4f8fc"/><path d="m314.1 378.823h-169.526a6 6 0 1 1 0-12h169.526a6 6 0 1 1 0 12z" fill="#f4f8fc"/><path d="m306.62 50.79h123.31v20.3h-123.31z" fill="#d16f59"/></svg>