<svg height="512pt" viewBox="-14 0 512 512.00002" width="512pt" xmlns="http://www.w3.org/2000/svg">
    <path
        d="m296.347656 163.898438c-3.257812-1.425782-6.835937-2.210938-10.578125-2.210938v-62.109375c0-7.941406-6.429687-14.382813-14.355469-14.382813-2.347656 0-4.546874.570313-6.503906 1.566407-.917968.464843-1.777344 1.035156-2.570312 1.691406-.886719.71875-1.691406 1.554687-2.390625 2.472656-.199219.265625-.496094.425781-.824219.425781h-1.035156c-.570313 0-1.039063-.464843-1.039063-1.039062v-4.960938c0-4.496093-2.0625-8.515624-5.289062-11.160156-2.464844-2.019531-5.625-3.222656-9.0625-3.222656s-6.601563 1.203125-9.078125 3.222656c-3.222656 2.644532-5.285156 6.664063-5.285156 11.160156v6.3125c0 .582032-.46875 1.050782-1.039063 1.050782-.371094 0-.707031-.203125-.886719-.519532-.890625-1.480468-2.03125-2.78125-3.363281-3.851562-2.445313-1.976562-5.566406-3.152344-8.949219-3.152344-3.4375 0-6.601562 1.207032-9.066406 3.226563-3.222656 2.644531-5.289062 6.664062-5.289062 11.160156v24.707031c0 .570313-.464844 1.039063-1.046876 1.039063h-.125c-.371093 0-.699218-.203125-.886718-.519531-.859375-1.417969-1.949219-2.664063-3.226563-3.703126-2.464843-2.03125-5.628906-3.246093-9.074219-3.246093-7.933593 0-14.355468 6.429687-14.355468 14.375v126.933593c0 6.832032 2.664062 13.308594 7.117187 18.5 4.667969 5.4375 7.238281 12.375 7.238281 19.546876v20.957031h98.015626v-18.578125c0-7.953125 3.152343-15.582032 8.765624-21.207032l12.007813-12.027343c5.214844-5.214844 8.132813-12.289063 8.132813-19.671875v-58.734375c.003906-10.765625-6.621094-20.011719-15.957032-24.050781zm-10.578125 18.042968h.285157l-.285157.054688zm0 0"
        fill="#fecbaa" />
    <path
        d="m205.035156 88.421875v110.242187c0 2.929688-2.371094 5.289063-5.289062 5.289063-2.921875 0-5.289063-2.359375-5.289063-5.289063v-77.558593c1.277344 1.035156 2.367188 2.285156 3.226563 3.699219.1875.316406.515625.519531.886718.519531h.125c.582032 0 1.046876-.464844 1.046876-1.039063v-24.707031c.003906-4.492187 2.066406-8.511719 5.292968-11.15625zm0 0"
        fill="#ffae85" />
    <path
        d="m233.625 74.195312v124.542969c0 2.921875-2.371094 5.289063-5.289062 5.289063-2.921876 0-5.289063-2.367188-5.289063-5.289063v-110.390625c1.332031 1.066406 2.472656 2.367188 3.363281 3.847656.179688.320313.519532.519532.886719.519532.570313 0 1.039063-.464844 1.039063-1.046875v-6.3125c0-4.496094 2.0625-8.515625 5.289062-11.160157zm0 0"
        fill="#ffae85" />
    <path
        d="m262.339844 88.453125v110.359375c0 2.921875-2.367188 5.289062-5.289063 5.289062-2.917969 0-5.289062-2.367187-5.289062-5.289062v-124.617188c3.226562 2.644532 5.289062 6.664063 5.289062 11.160157v4.960937c0 .570313.464844 1.035156 1.039063 1.035156h1.035156c.328125 0 .625-.160156.824219-.421874.699219-.921876 1.503906-1.757813 2.390625-2.476563zm0 0"
        fill="#ffae85" />
    <path
        d="m296.347656 163.898438v46.476562c0 2.917969-2.371094 5.289062-5.289062 5.289062-2.921875 0-5.289063-2.371093-5.289063-5.289062v-48.6875c3.742188 0 7.320313.785156 10.578125 2.210938zm0 0"
        fill="#ffae85" />
    <path
        d="m467.375 92.929688c-3.257812-1.425782-6.835938-2.210938-10.578125-2.210938v-62.109375c0-7.941406-6.429687-14.382813-14.351563-14.382813-2.347656 0-4.550781.570313-6.507812 1.5625-.917969.46875-1.777344 1.039063-2.570312 1.695313-.886719.71875-1.691407 1.554687-2.386719 2.472656-.203125.265625-.5.425781-.828125.425781h-1.035156c-.570313 0-1.039063-.46875-1.039063-1.039062v-4.960938c0-4.496093-2.058594-8.515624-5.289063-11.160156-2.460937-2.015625-5.625-3.222656-9.0625-3.222656s-6.597656 1.207031-9.074218 3.226562c-3.226563 2.644532-5.289063 6.664063-5.289063 11.160157v6.3125c0 .582031-.464843 1.046875-1.039062 1.046875-.367188 0-.707031-.199219-.886719-.519532-.886719-1.480468-2.03125-2.78125-3.363281-3.847656-2.441407-1.980468-5.5625-3.152344-8.949219-3.152344-3.4375 0-6.597656 1.207032-9.0625 3.226563-3.226562 2.644531-5.289062 6.660156-5.289062 11.15625v24.710937c0 .570313-.464844 1.035157-1.046876 1.035157h-.128906c-.367187 0-.695312-.199219-.886718-.515625-.855469-1.417969-1.945313-2.667969-3.226563-3.703125-2.464844-2.03125-5.625-3.246094-9.074219-3.246094-7.933594 0-14.351562 6.429687-14.351562 14.371094v126.9375c0 6.832031 2.664062 13.304687 7.117187 18.496093 4.664063 5.4375 7.234375 12.375 7.234375 19.546876v20.957031h98.015625v-18.578125c0-7.953125 3.152344-15.578125 8.769531-21.207032l12.003907-12.023437c5.214843-5.214844 8.136719-12.292969 8.136719-19.675781v-58.734375c0-10.765625-6.621094-20.011719-15.960938-24.050781zm-10.578125 18.042968h.285156l-.285156.054688zm0 0"
        fill="#fedfc5" />
    <g fill="#fecbaa">
        <path
            d="m376.0625 17.453125v110.242187c0 2.929688-2.367188 5.289063-5.289062 5.289063-2.917969 0-5.289063-2.359375-5.289063-5.289063v-77.558593c1.28125 1.035156 2.371094 2.285156 3.226563 3.699219.191406.316406.519531.519531.886718.519531h.128906c.582032 0 1.046876-.464844 1.046876-1.039063v-24.707031c0-4.492187 2.0625-8.511719 5.289062-11.15625zm0 0" />
        <path
            d="m404.652344 3.226562v124.542969c0 2.921875-2.371094 5.289063-5.289063 5.289063s-5.289062-2.367188-5.289062-5.289063v-110.390625c1.332031 1.066406 2.476562 2.367188 3.363281 3.847656.179688.320313.519531.519532.886719.519532.574219 0 1.039062-.464844 1.039062-1.046875v-6.3125c0-4.496094 2.0625-8.515625 5.289063-11.160157zm0 0" />
        <path
            d="m433.367188 17.484375v110.359375c0 2.921875-2.367188 5.289062-5.289063 5.289062-2.917969 0-5.289063-2.367187-5.289063-5.289062v-124.617188c3.226563 2.644532 5.289063 6.664063 5.289063 11.160157v4.960937c0 .570313.46875 1.035156 1.039063 1.035156h1.035156c.328125 0 .625-.160156.828125-.421874.695312-.921876 1.5-1.757813 2.386719-2.476563zm0 0" />
        <path
            d="m467.375 92.929688v46.476562c0 2.917969-2.371094 5.289062-5.289062 5.289062-2.921876 0-5.289063-2.371093-5.289063-5.289062v-48.6875c3.742187 0 7.320313.785156 10.578125 2.210938zm0 0" />
    </g>
    <path d="m172.382812 351.0625h124.523438v160.9375h-124.523438zm0 0" fill="#4f7693" />
    <path
        d="m179.019531 308.167969h111.25c3.664063 0 6.636719 2.972656 6.636719 6.636719v46.257812h-124.523438v-46.257812c0-3.664063 2.972657-6.636719 6.636719-6.636719zm0 0"
        fill="#fdd559" />
    <path
        d="m277.355469 334.617188c0-3.289063-2.660157-5.957032-5.945313-5.957032-3.28125 0-5.945312 2.667969-5.945312 5.957032 0 3.289062 2.664062 5.953124 5.945312 5.953124 3.285156 0 5.945313-2.664062 5.945313-5.953124zm0 0"
        fill="#ff8812" />
    <path
        d="m125.316406 241.691406c-3.257812-1.429687-6.832031-2.210937-10.574218-2.210937v-62.109375c0-7.941406-6.433594-14.386719-14.355469-14.386719-2.347657 0-4.546875.574219-6.503907 1.566406-.917968.464844-1.777343 1.039063-2.570312 1.691407-.886719.71875-1.691406 1.554687-2.390625 2.476562-.199219.261719-.496094.421875-.824219.421875h-1.035156c-.574219 0-1.039062-.464844-1.039062-1.035156v-4.960938c0-4.496093-2.0625-8.515625-5.289063-11.160156-2.464844-2.019531-5.625-3.226563-9.0625-3.226563-3.441406 0-6.601563 1.207032-9.078125 3.226563-3.226562 2.644531-5.289062 6.664063-5.289062 11.160156v6.3125c0 .582031-.464844 1.046875-1.035157 1.046875-.371093 0-.710937-.199218-.886719-.519531-.890624-1.480469-2.03125-2.78125-3.367187-3.847656-2.441406-1.980469-5.5625-3.152344-8.945313-3.152344-3.4375 0-6.601562 1.207031-9.066406 3.226563-3.226562 2.644531-5.289062 6.660156-5.289062 11.15625v24.710937c0 .570313-.464844 1.035156-1.046875 1.035156h-.125c-.371094 0-.699219-.199219-.890625-.515625-.855469-1.417968-1.945313-2.667968-3.222656-3.703125-2.464844-2.03125-5.628907-3.246093-9.078126-3.246093-7.929687 0-14.351562 6.429687-14.351562 14.371093v126.9375c0 6.832031 2.664062 13.304688 7.117188 18.496094 4.664062 5.4375 7.234374 12.375 7.234374 19.546875v20.960938h98.019532v-18.582032c0-7.953125 3.152344-15.578125 8.765625-21.207031l12.007812-12.023437c5.210938-5.214844 8.132813-12.292969 8.132813-19.675782v-58.734375c0-10.761719-6.621094-20.007812-15.960938-24.046875zm-10.574218 18.042969h.285156l-.285156.054687zm0 0"
        fill="#fedfc5" />
    <path d="m1.355469 428.847656h124.523437v83.152344h-124.523437zm0 0" fill="#4f7693" />
    <path
        d="m7.992188 385.957031h111.246093c3.667969 0 6.640625 2.972657 6.640625 6.636719v46.253906h-124.523437v-46.253906c0-3.664062 2.96875-6.636719 6.636719-6.636719zm0 0"
        fill="#ff84a7" />
    <path
        d="m106.328125 412.402344c0-3.289063-2.660156-5.957032-5.945313-5.957032-3.285156 0-5.945312 2.667969-5.945312 5.957032 0 3.289062 2.660156 5.957031 5.945312 5.957031 3.285157 0 5.945313-2.667969 5.945313-5.957031zm0 0"
        fill="#ef6085" />
    <path
        d="m34.007812 166.214844v110.242187c0 2.929688-2.371093 5.289063-5.289062 5.289063-2.921875 0-5.289062-2.359375-5.289062-5.289063v-77.5625c1.277343 1.039063 2.367187 2.285157 3.222656 3.703125.191406.316406.519531.519532.890625.519532h.125c.582031 0 1.046875-.464844 1.046875-1.039063v-24.707031c.003906-4.496094 2.066406-8.515625 5.292968-11.15625zm0 0"
        fill="#fecbaa" />
    <path
        d="m62.597656 151.984375v124.546875c0 2.917969-2.371094 5.289062-5.289062 5.289062-2.921875 0-5.289063-2.371093-5.289063-5.289062v-110.390625c1.332031 1.066406 2.472657 2.367187 3.363281 3.847656.179688.316407.515626.519531.886719.519531.570313 0 1.039063-.464843 1.039063-1.046874v-6.316407c0-4.496093 2.0625-8.511719 5.289062-11.160156zm0 0"
        fill="#fecbaa" />
    <path
        d="m91.3125 166.242188v110.363281c0 2.917969-2.367188 5.289062-5.289062 5.289062-2.917969 0-5.289063-2.371093-5.289063-5.289062v-124.621094c3.226563 2.644531 5.289063 6.664063 5.289063 11.160156v4.960938c0 .570312.464843 1.039062 1.039062 1.039062h1.035156c.328125 0 .625-.160156.824219-.425781.699219-.917969 1.503906-1.753906 2.390625-2.476562zm0 0"
        fill="#fecbaa" />
    <path
        d="m125.316406 241.691406v46.472656c0 2.921876-2.367187 5.289063-5.289062 5.289063-2.917969 0-5.289063-2.367187-5.289063-5.289063v-48.683593c3.746094 0 7.320313.78125 10.578125 2.210937zm0 0"
        fill="#fecbaa" />
    <path
        d="m350.046875 237.199219h111.25c3.664063 0 6.636719 2.972656 6.636719 6.640625v56.253906h-124.523438v-56.253906c0-3.667969 2.972656-6.640625 6.636719-6.640625zm0 0"
        fill="#83d9ff" />
    <path d="m343.410156 290.09375h124.523438v221.90625h-124.523438zm0 0" fill="#4f7693" />
    <path
        d="m448.386719 263.648438c0-3.289063-2.664063-5.957032-5.949219-5.957032-3.28125 0-5.945312 2.667969-5.945312 5.957032 0 3.289062 2.664062 5.953124 5.945312 5.953124 3.285156 0 5.949219-2.664062 5.949219-5.953124zm0 0"
        fill="#5186ff" />
</svg>