<svg id="Capa_1" enable-background="new 0 0 512 512" height="512" viewBox="0 0 512 512" width="512" xmlns="http://www.w3.org/2000/svg"><g><g fill="#60b7ff"><path d="m454.31 68.405-34.29-62.778h-223.507c-12.27 0-22.217 9.947-22.217 22.217v397.247c0 12.27 9.947 22.217 22.217 22.217h264.068c12.27 0 22.217-9.947 22.217-22.217v-1.515h16.325v-325.969z"/><path d=""/></g><g><g><path d="m458.678 159.613h-231.06c-4.268 0-7.726-3.459-7.726-7.726s3.459-7.726 7.726-7.726h231.06c4.268 0 7.726 3.459 7.726 7.726s-3.458 7.726-7.726 7.726z" fill="#0055a3"/></g><g><path d="m458.678 218.858h-231.06c-4.268 0-7.726-3.459-7.726-7.726s3.459-7.726 7.726-7.726h231.06c4.268 0 7.726 3.459 7.726 7.726s-3.458 7.726-7.726 7.726z" fill="#0055a3"/></g><g><path d="m458.678 278.105h-231.06c-4.268 0-7.726-3.459-7.726-7.726s3.459-7.726 7.726-7.726h231.06c4.268 0 7.726 3.459 7.726 7.726s-3.458 7.726-7.726 7.726z" fill="#0055a3"/></g><g><path d="m458.678 337.351h-231.06c-4.268 0-7.726-3.459-7.726-7.726s3.459-7.726 7.726-7.726h231.06c4.268 0 7.726 3.459 7.726 7.726s-3.458 7.726-7.726 7.726z" fill="#0055a3"/></g></g><path d="m482.798 86.969v338.122c0 12.27-9.947 22.217-22.217 22.217h29.202c12.27 0 22.217-9.947 22.217-22.217v-327.484z" fill="#26a6fe"/><path d="m442.237 97.607h69.763l-91.98-91.98v69.763c0 12.27 9.947 22.217 22.217 22.217z" fill="#004281"/><g fill="#eaf6ff"><path d="m333.91 496.578c-.499.739-1.042 1.446-1.624 2.118.582-.672 1.125-1.379 1.624-2.118z"/><path d="m286.285 506.373c12.27 0 22.217-9.947 22.217-22.217v-.486h13.944v-326.998l-45.843-34.08-30.879-57.9h-223.507c-12.27 0-22.217 9.947-22.217 22.217v397.247c0 12.27 9.947 22.217 22.217 22.217z"/></g><path d="m308.502 127.47v29.202 327.484c0 12.27-9.947 22.217-22.217 22.217h29.202c12.27 0 22.217-9.947 22.217-22.217v-327.484z" fill="#d8ecfe"/><path d="m267.942 156.672h69.763l-91.98-91.98v69.763c-.001 12.27 9.946 22.217 22.217 22.217z" fill="#b3dafe"/><g><g><path d="m284.382 218.858h-231.06c-4.268 0-7.726-3.459-7.726-7.726s3.459-7.726 7.726-7.726h231.06c4.268 0 7.726 3.459 7.726 7.726s-3.458 7.726-7.726 7.726z" fill="#82aee3"/></g><g><path d="m284.382 278.105h-231.06c-4.268 0-7.726-3.459-7.726-7.726s3.459-7.726 7.726-7.726h231.06c4.268 0 7.726 3.459 7.726 7.726s-3.458 7.726-7.726 7.726z" fill="#82aee3"/></g><g><path d="m284.382 337.351h-231.06c-4.268 0-7.726-3.459-7.726-7.726s3.459-7.726 7.726-7.726h231.06c4.268 0 7.726 3.459 7.726 7.726s-3.458 7.726-7.726 7.726z" fill="#82aee3"/></g><g><path d="m284.382 396.598h-231.06c-4.268 0-7.726-3.459-7.726-7.726 0-4.268 3.459-7.726 7.726-7.726h231.06c4.268 0 7.726 3.459 7.726 7.726.001 4.267-3.458 7.726-7.726 7.726z" fill="#82aee3"/></g></g></g></svg>