<svg height="512" viewBox="0 0 64 64" width="512" xmlns="http://www.w3.org/2000/svg"><g id="Artboard_04" data-name="Artboard 04"><path d="m14 6v-4h48v58h-48z" fill="#bdbdbe"/><path d="m12 28v34h46v-46l-10-10h-36z" fill="#e5e5e5"/><path d="m15 6v49a4 4 0 0 0 4 4h39v-43l-10-10z" fill="#f2f2f2"/><path d="m13.5 29.5h30a2 2 0 0 0 2-2v-14a2 2 0 0 0 -2-2h-31.5v18z" fill="#d7d7d8"/><path d="m12 28h-10v-18h42v18z" fill="#006837"/><path d="m6 21a4 4 0 0 0 4 4h34v-15h-38z" fill="#33865f"/><path d="m15 32h40v27h-40z" fill="#33865f"/><path d="m19 34h36a0 0 0 0 1 0 0v23a0 0 0 0 1 0 0h-36a2 2 0 0 1 -2-2v-19a2 2 0 0 1 2-2z" fill="#5c9e7f"/><path d="m27.707 36.707-1.414-1.414-3.793 3.793-3.793-3.793-1.414 1.414 3.793 3.793-3.793 3.793 1.414 1.414 3.793-3.793 3.793 3.793 1.414-1.414-3.793-3.793z" fill="#33865f"/><g fill="#fff"><path d="m22.5 25h-1a3.5 3.5 0 0 1 -3.5-3.5v-.5h2v.5a1.5 1.5 0 0 0 1.5 1.5h1a1.5 1.5 0 0 0 0-3h-1a3.5 3.5 0 0 1 0-7h1a3.5 3.5 0 0 1 3.5 3.5v.5h-2v-.5a1.5 1.5 0 0 0 -1.5-1.5h-1a1.5 1.5 0 0 0 0 3h1a3.5 3.5 0 0 1 0 7z"/><path d="m13 25c-2.4 0-5-2.294-5-6s2.6-6 5-6a5.311 5.311 0 0 1 3.707 1.293l-1.414 1.414a3.478 3.478 0 0 0 -2.293-.707c-1.442 0-3 1.529-3 4s1.558 4 3 4a3.469 3.469 0 0 0 2.3-.718l1.4 1.425a5.311 5.311 0 0 1 -3.7 1.293z"/><path d="m32 25a1 1 0 0 1 -.929-.628l-4-10 1.858-.744 3.071 7.68 3.071-7.68 1.858.744-4 10a1 1 0 0 1 -.929.628z"/><path d="m28.707 35.707-1.414-1.414-3.793 3.793-3.793-3.793-1.414 1.414 3.793 3.793-3.793 3.793 1.414 1.414 3.793-3.793 3.793 3.793 1.414-1.414-3.793-3.793z"/></g><rect fill="#33865f" height="5" rx="1" width="8" x="42" y="36"/><rect fill="#33865f" height="5" rx="1" width="8" x="30" y="36"/><path d="m43 35h8v5h-8z" fill="#d7d7d8"/><path d="m44 37a2 2 0 0 0 2 2h5v-4h-7z" fill="#e7e7e8"/><path d="m31 35h8v5h-8z" fill="#d7d7d8"/><path d="m32 37a2 2 0 0 0 2 2h5v-4h-7z" fill="#e7e7e8"/><rect fill="#33865f" height="5" rx="1" width="8" x="42" y="44"/><rect fill="#33865f" height="5" rx="1" width="8" x="30" y="44"/><path d="m43 43h8v5h-8z" fill="#d7d7d8"/><path d="m44 45a2 2 0 0 0 2 2h5v-4h-7z" fill="#e7e7e8"/><path d="m31 43h8v5h-8z" fill="#d7d7d8"/><path d="m32 45a2 2 0 0 0 2 2h5v-4h-7z" fill="#e7e7e8"/><rect fill="#33865f" height="5" rx="1" width="8" x="42" y="52"/><rect fill="#33865f" height="5" rx="1" width="8" x="30" y="52"/><path d="m43 51h8v5h-8z" fill="#d7d7d8"/><path d="m44 53a2 2 0 0 0 2 2h5v-4h-7z" fill="#e7e7e8"/><path d="m31 51h8v5h-8z" fill="#d7d7d8"/><path d="m32 53a2 2 0 0 0 2 2h5v-4h-7z" fill="#e7e7e8"/><rect fill="#33865f" height="5" rx="1" width="8" x="18" y="52"/><path d="m19 51h8v5h-8z" fill="#d7d7d8"/><path d="m20 53a2 2 0 0 0 2 2h5v-4h-7z" fill="#e7e7e8"/><path d="m48 6v8a2 2 0 0 0 2 2h8z" fill="#9c9d9e"/></g></svg>