<svg id="Layer_1" enable-background="new 0 0 510 510" height="512" viewBox="0 0 510 510" width="512" xmlns="http://www.w3.org/2000/svg"><g><path id="XMLID_1696_" d="m30 375v-240h46.014l-13.369 22.283 25.724 15.434 31.631-52.717-31.631-52.717-25.724 15.434 13.369 22.283h-76.014v300h150l15-15-15-15z" fill="#5ecbf1"/><path id="XMLID_817_" d="m150 510h105l15-120-15-120h-105z" fill="#ffda00"/><path id="XMLID_872_" d="m150 0v240h105l15-120-15-120z" fill="#ffda00"/><path id="XMLID_852_" d="m510 510v-150h-30l-140.729-60-15-30h-69.271v240z" fill="#ffbf00"/><path id="XMLID_853_" d="m510 90h-30l-140.729-60-15-30h-69.271v240h255z" fill="#ffbf00"/><g fill="#ff936b"><path id="XMLID_624_" d="m339.271 300 30 60h110.729v-60z"/><path id="XMLID_859_" d="m339.271 30 30 60h110.729v-60z"/></g></g></svg>