<svg id="Capa_1" enable-background="new 0 0 512 512" height="512" viewBox="0 0 512 512" width="512" xmlns="http://www.w3.org/2000/svg"><g><g><g><g><path d="m11.622 27.272v457.456c0 15.062 12.21 27.272 27.272 27.272h348.229c15.062 0 27.272-12.21 27.272-27.272v-364.454l-120.273-120.274h-255.227c-15.062 0-27.273 12.21-27.273 27.272z" fill="#eaecf0"/><path d="m320.389 26.267v113.059c0 11.381 9.226 20.606 20.606 20.606h19.148v352.068h26.98c15.062 0 27.272-12.21 27.272-27.272v-364.454z" fill="#d3d7de"/><path d="m294.122 0 120.274 120.274h-99.667c-11.381 0-20.606-9.226-20.606-20.606v-99.668z" fill="#df705d"/></g></g><g><g><path d="m431.962 274.389h-146.273v-27.218c0-18.113 14.684-32.797 32.797-32.797h80.679c18.113 0 32.797 14.684 32.797 32.797z" fill="#8dae5c"/><g><path d="m426.186 511.786h-134.722c-16.626 0-30.378-12.947-31.379-29.543l-13.653-226.264h224.786l-13.653 226.264c-1.001 16.597-14.752 29.543-31.379 29.543z" fill="#676e84"/><path d="m420.202 255.979-15.435 255.807h21.42c16.626 0 30.378-12.946 31.379-29.543l13.653-226.265h-51.017z" fill="#4a4e67"/><path d="m480.548 285.873h-243.446c-10.951 0-19.829-8.878-19.829-19.829 0-10.951 8.878-19.829 19.829-19.829h243.446c10.951 0 19.829 8.878 19.829 19.829.001 10.951-8.877 19.829-19.829 19.829z" fill="#aed180"/><path d="m480.548 246.214h-34.422v39.659h34.422c10.951 0 19.829-8.878 19.829-19.829.001-10.952-8.877-19.83-19.829-19.83z" fill="#8dae5c"/></g></g><g><g><path d="m304.793 477.643c-4.097 0-7.512-3.219-7.711-7.354l-7.35-152.454c-.205-4.263 3.083-7.884 7.345-8.09 4.289-.2 7.884 3.083 8.09 7.345l7.35 152.454c.205 4.263-3.083 7.884-7.345 8.09-.128.006-.254.009-.379.009z" fill="#d3d7de"/></g><g><path d="m340.815 477.643c-4.21 0-7.656-3.378-7.723-7.602l-2.451-152.454c-.068-4.267 3.335-7.781 7.602-7.85 4.285-.039 7.782 3.336 7.849 7.601l2.451 152.454c.068 4.267-3.335 7.781-7.602 7.85-.042 0-.085.001-.126.001z" fill="#d3d7de"/></g><g><path d="m376.837 477.643c-.042 0-.085 0-.127-.001-4.267-.068-7.67-3.583-7.602-7.85l2.45-152.454c.067-4.266 3.565-7.665 7.849-7.601 4.267.068 7.67 3.583 7.602 7.85l-2.45 152.454c-.067 4.224-3.514 7.602-7.722 7.602z" fill="#d3d7de"/></g><g><path d="m412.858 477.643c-.126 0-.252-.003-.378-.009-4.262-.205-7.55-3.827-7.345-8.09l7.35-152.454c.206-4.262 3.843-7.536 8.09-7.345 4.262.205 7.55 3.827 7.345 8.09l-7.35 152.454c-.2 4.135-3.615 7.354-7.712 7.354z" fill="#d3d7de"/></g></g></g><g><path d="m217.273 77.134h-155.687c-4.268 0-7.726-3.459-7.726-7.726s3.459-7.726 7.726-7.726h155.687c4.268 0 7.726 3.459 7.726 7.726s-3.459 7.726-7.726 7.726z" fill="#676e84"/></g><g><path d="m217.273 128h-155.687c-4.268 0-7.726-3.459-7.726-7.726s3.459-7.726 7.726-7.726h155.687c4.268 0 7.726 3.459 7.726 7.726s-3.459 7.726-7.726 7.726z" fill="#676e84"/></g></g></g></svg>