<?xml version="1.0" encoding="iso-8859-1"?>
<!-- Generator: Adobe Illustrator 19.0.0, SVG Export Plug-In . SVG Version: 6.00 Build 0)  -->
<svg version="1.1" id="Capa_1" xmlns="http://www.w3.org/2000/svg" xmlns:xlink="http://www.w3.org/1999/xlink" x="0px" y="0px"
	 viewBox="0 0 512 512" style="enable-background:new 0 0 512 512;" xml:space="preserve">
<path style="fill:#34495E;" d="M451.151,2.163c-0.671-0.66-1.469-1.206-2.404-1.582c-0.929-0.389-1.889-0.571-2.844-0.571H7.421
	c-1.884,0-3.794,0.717-5.23,2.153C0.73,3.628,0,5.512,0,7.427v497.142c0,1.902,0.73,3.799,2.191,5.243
	c1.439,1.439,3.346,2.173,5.23,2.173h497.167c1.876,0,3.781-0.735,5.212-2.173c1.444-1.439,2.199-3.341,2.199-5.243V66.076
	c0-0.929-0.195-1.889-0.579-2.826c-0.384-0.929-0.942-1.72-1.62-2.394L451.151,2.163z M60.628,491.087H34.68v-18.532h25.946
	C60.628,472.556,60.628,491.087,60.628,491.087z"/>
<path style="fill:#5D6D7E;" d="M78.756,0.01v168c0,2.575,1.004,5.005,2.839,6.799c1.82,1.841,4.232,2.839,6.82,2.839h305.513
	c2.55,0,5.005-0.998,6.82-2.839c1.828-1.797,2.796-4.227,2.796-6.799v-168H78.756z"/>
<path style="fill:#E6EAEE;" d="M147.712,0.01c-1.884,0-3.794,0.717-5.23,2.153c-1.472,1.464-2.194,3.348-2.194,5.263V168.01
	c0,1.902,0.717,3.812,2.191,5.251c1.439,1.439,3.346,2.166,5.23,2.166H393.92c1.889,0,3.794-0.722,5.225-2.166
	c1.469-1.439,2.199-3.346,2.199-5.251V7.427c0-1.915-0.722-3.794-2.199-5.263c-1.439-1.439-3.333-2.153-5.225-2.153
	C393.92,0.01,147.712,0.01,147.712,0.01z M357.181,139.866h-31.089V35.584h31.089V139.866z"/>
<path style="fill:#5D6D7E;" d="M90.135,511.985V290.56c0-3.354,1.318-6.513,3.686-8.891c2.386-2.386,5.558-3.691,8.929-3.691
	h306.506c3.359,0,6.536,1.306,8.916,3.691c2.394,2.381,3.692,5.537,3.692,8.891v221.425H90.135z"/>
<path style="fill:#FFFFFF;" d="M416.666,290.56c0-1.871-0.709-3.786-2.161-5.217c-1.439-1.439-3.333-2.186-5.251-2.186H102.751
	c-1.91,0-3.812,0.74-5.251,2.186c-1.444,1.439-2.161,3.346-2.161,5.217v221.425h321.326V290.56z"/>
<g>
	<rect x="95.334" y="474.98" style="fill:#FF7059;" width="321.331" height="37.01"/>
	<rect x="115.146" y="346.596" style="fill:#FF7059;" width="281.728" height="2.982"/>
	<rect x="115.146" y="378.673" style="fill:#FF7059;" width="281.728" height="2.982"/>
	<rect x="115.146" y="410.801" style="fill:#FF7059;" width="281.728" height="2.944"/>
	<rect x="115.146" y="442.903" style="fill:#FF7059;" width="281.728" height="2.97"/>
</g>
<g>
</g>
<g>
</g>
<g>
</g>
<g>
</g>
<g>
</g>
<g>
</g>
<g>
</g>
<g>
</g>
<g>
</g>
<g>
</g>
<g>
</g>
<g>
</g>
<g>
</g>
<g>
</g>
<g>
</g>
</svg>
