<svg height="511pt" viewBox="-20 0 511 511.99889" width="511pt" xmlns="http://www.w3.org/2000/svg"><path d="m424.179688 293.941406v100.132813c0 6.347656-5.148438 11.496093-11.496094 11.496093h-232.71875v94.910157c0 10.242187-12.382813 15.371093-19.625 8.128906l-156.472656-156.472656c-4.492188-4.492188-4.492188-11.765625 0-16.257813l156.476562-156.472656c7.242188-7.242188 19.625-2.113281 19.625 8.128906v94.910156h232.714844c6.347656 0 11.496094 5.152344 11.496094 11.496094zm0 0" fill="#ff6672"/><path d="m424.179688 293.941406v100.132813c0 6.347656-5.148438 11.496093-11.496094 11.496093h-24.722656c6.34375 0 11.496093-5.148437 11.496093-11.496093v-100.132813c0-6.347656-5.152343-11.496094-11.496093-11.496094h24.722656c6.347656 0 11.496094 5.152344 11.496094 11.496094zm0 0" fill="#f92f41"/><path d="m384.507812 282.445312-61.078124 61.078126c-5.109376 5.097656-11.847657 7.914062-18.976563 7.914062-14.90625 0-27.03125-12.09375-27.03125-26.972656v-42.019532zm0 0" fill="#f92f41"/><path d="m468.972656 176.121094-156.472656 156.472656c-7.242188 7.242188-19.625 2.113281-19.625-8.128906v-94.910156h-232.71875c-6.34375 0-11.496094-5.148438-11.496094-11.496094v-100.132813c0-6.347656 5.152344-11.496093 11.496094-11.496093h232.71875v-94.910157c0-10.242187 12.382812-15.371093 19.625-8.128906l156.472656 156.472656c4.492188 4.492188 4.492188 11.765625 0 16.257813zm0 0" fill="#65bafc"/><path d="m468.972656 176.121094-156.472656 156.472656c-7.242188 7.242188-19.625 2.113281-19.625-8.128906v-6.582032l149.890625-149.890624-149.890625-149.890626v-6.582031c0-10.242187 12.382812-15.371093 19.625-8.128906l156.472656 156.472656c4.492188 4.492188 4.492188 11.765625 0 16.257813zm0 0" fill="#0097fa"/><path d="m195.417969 187.535156v42.019532h-107.074219l61.078125-61.078126c5.097656-5.101562 11.835937-7.914062 18.964844-7.914062 14.90625 0 27.03125 12.097656 27.03125 26.972656zm0 0" fill="#0097fa"/><path d="m179.964844 244.667969v-57.132813c0-10.242187-12.382813-15.371094-19.625-8.128906l-65.257813 65.261719zm0 0" fill="#ff6672"/></svg>