<svg clip-rule="evenodd" fill-rule="evenodd" height="1.707in" image-rendering="optimizeQuality" shape-rendering="geometricPrecision" text-rendering="geometricPrecision" viewBox="0 0 1.70666 1.70666" width="1.707in" xmlns="http://www.w3.org/2000/svg"><g id="Layer_x0020_1"><g fill="#31d6ff"><path d="m.637299 1.48717h-.349638c-.0220945 0-.0399921-.0178976-.0399921-.0399921v-.390343c0-.0220945.0178976-.0399921.0399921-.0399921s.0399921.0178976.0399921.0399921v.350346h.309646c.0220945 0 .0399921.0178976.0399921.0399961 0 .0220945-.0178976.0399921-.0399921.0399921z"/><path d="m.205622 1.18842c-.0095 0-.0190354-.0033622-.0266614-.0101929-.0164528-.014748-.0178465-.0400197-.00311417-.0564803l.0820315-.0915945c.0151772-.0169291.0444055-.0169291.0595827 0l.0820472.0915945c.0147323.0164685.0133465.0417402-.00311417.0564803-.0164449.0147323-.0417323.0133307-.0564803-.00311417l-.0522402-.0583346-.0522441.0583346c-.0078937.0088189-.0188386.0133071-.0298071.0133071z"/><path d="m1.419.689799c-.0220945 0-.0399921-.0178976-.0399921-.0399921v-.350343h-.309646c-.0220945 0-.0399921-.0178976-.0399921-.0399921s.0178976-.0399921.0399921-.0399921h.349638c.0220945 0 .0399921.0178976.0399921.0399921v.390339c0 .0220906-.0178976.0399882-.0399921.0399882z"/><path d="m1.419.689799c-.0113583 0-.0222047-.00484252-.0297992-.0133031l-.0820315-.0915827c-.0147323-.0164528-.0133465-.0417283.00311417-.0564764.0164685-.0147323.0417323-.0133465.0564803.00311024l.0522402.0583268.0522441-.0583268c.0147638-.0164685.0400512-.0178268.0564803-.00311024.0164528.014748.0178268.0400197.00311024.0564764l-.0820276.0915827c-.00762205.00847638-.0184488.0133031-.029811.0133031z"/></g><path d="m1.66653 1.65106h-.76265c-.0220945 0-.0399921-.0178976-.0399921-.0399961v-.538146c0-.0107047.00430315-.0209843.0119291-.0285079l.182831-.179957c.00748425-.00735827.0175669-.0114843.028063-.0114843h.579819c.0220984 0 .0399961.0178976.0399961.0399961v.718098c0 .0220984-.0178976.0399961-.0399961.0399961z" fill="#f0f7ff"/><path d="m.863886 1.11297v-.0400512c0-.0107047.00430315-.0209843.0119291-.0285079l.182831-.179957c.00748425-.00735827.0175669-.0114843.028063-.0114843h.0400079l.00004331.221283c0 .0106654-.00425197.0208819-.0118189.0283976-.00751181.00741732-.0176339.0115945-.028189.0115945-.00010236 0-.00019685 0-.00029528 0l-.222571-.00127559z" fill="#ddebf4"/><path d="m1.53815 1.25261h-.505906c-.0220945 0-.0399921-.0178976-.0399921-.0399921 0-.0220984.0178976-.0399961.0399921-.0399961h.505906c.0220984 0 .0399961.0178976.0399961.0399961 0 .0220945-.0179055.0399921-.0399961.0399921z" fill="#918291"/><path d="m1.53815 1.37796h-.252961c-.00301181 0-.00595669-.0003189-.00877559-.00096063-.00281496.00064173-.00575984.00096063-.00877559.00096063h-.235394c-.0220945 0-.0399921-.0178976-.0399921-.0399921 0-.0220984.0178976-.0399961.0399921-.0399961h.235394c.00301575 0 .00596063.00032284.00877559.00096063.0028189-.0006378.00576378-.00096063.00877559-.00096063h.252961c.0220984 0 .0399961.0178976.0399961.0399961 0 .0220945-.0179055.0399921-.0399961.0399921z" fill="#918291"/><path d="m1.53813 1.50331h-.50589c-.0220945 0-.0399921-.0178976-.0399921-.0399921s.0178976-.0399921.0399921-.0399921h.50589c.0220984 0 .0399961.0178976.0399961.0399921s-.0179055.0399921-.0399961.0399921z" fill="#918291"/><path d="m.0401378.853689h.76265c.0220945 0 .0399921-.0178976.0399921-.0399961v-.538146c0-.0107047-.00430315-.0209843-.0119291-.0285079l-.182831-.179957c-.00748425-.00735827-.0175669-.0114843-.028063-.0114843h-.579819c-.0220984 0-.0399961.0178976-.0399961.0399961v.718098c0 .0220984.0178976.0399961.0399961.0399961z" fill="#f0f7ff"/><path d="m.84278.315598v-.0400512c0-.0107047-.00430315-.0209843-.0119291-.0285079l-.182831-.179957c-.00748425-.00735827-.0175669-.0114843-.028063-.0114843h-.0400079l-.00004331.221283c0 .0106654.00425197.0208819.0118189.0283976.00751181.00741732.0176339.0115945.028189.0115945h.00029528l.222571-.00127559z" fill="#ddebf4"/><path d="m.168516.45524h.505906c.0220945 0 .0399921-.0178976.0399921-.0399921 0-.0220984-.0178976-.0399961-.0399921-.0399961h-.505906c-.0220984 0-.0399961.0178976-.0399961.0399961 0 .0220945.0179055.0399921.0399961.0399921z" fill="#918291"/><path d="m.168516.580594h.252961c.00301181 0 .00595669-.0003189.00877559-.00096063.00281496.00064173.00575984.00096063.00877559.00096063h.235394c.0220945 0 .0399921-.0178976.0399921-.0399921 0-.0220984-.0178976-.0399961-.0399921-.0399961h-.235394c-.00301575 0-.00596063.00032284-.00877559.00096063-.0028189-.0006378-.00576378-.00096063-.00877559-.00096063h-.252961c-.0220984 0-.0399961.0178976-.0399961.0399961 0 .0220945.0179055.0399921.0399961.0399921z" fill="#918291"/><path d="m.168531.705937h.50589c.0220945 0 .0399921-.0178976.0399921-.0399921s-.0178976-.0399921-.0399921-.0399921h-.50589c-.0220984 0-.0399961.0178976-.0399961.0399921s.0179055.0399921.0399961.0399921z" fill="#918291"/></g></svg>