<svg xmlns="http://www.w3.org/2000/svg" version="1.1" xmlns:xlink="http://www.w3.org/1999/xlink" width="512" height="512" x="0" y="0" viewBox="0 0 640 640" style="enable-background:new 0 0 512 512" xml:space="preserve" class=""><g><path fill="#00acea" d="M300.586 101.45 285.277 0H60.676C26.856 0 0 27.555 0 61.371V486.09c0 33.816 26.855 60.812 60.676 60.812H273.73L427.223 314.5V148.766zm0 0" opacity="1" data-original="#00acea" class=""></path><path fill="#00efd1" d="m285.277.14 141.528 148.626h-94.211c-26.164 0-47.317-21.153-47.317-47.317zm0 0" opacity="1" data-original="#00efd1"></path><g fill="#083863"><path d="M279.852 318.676H98.527c-7.652 0-13.918 6.265-13.918 13.918 0 7.656 6.266 13.914 13.918 13.914h181.325c7.652 0 13.918-6.258 13.918-13.914 0-7.653-6.122-13.918-13.918-13.918zM98.527 276.93h140.97c7.651 0 13.917-6.262 13.917-13.918 0-7.653-6.266-13.914-13.918-13.914H98.527c-7.652 0-13.918 6.261-13.918 13.914 0 7.656 6.266 13.918 13.918 13.918zM234.066 389.648H98.527c-7.652 0-13.918 6.266-13.918 13.914 0 7.657 6.266 13.918 13.918 13.918h135.54c7.656 0 13.917-6.261 13.917-13.918 0-7.648-6.261-13.914-13.918-13.914zm0 0" fill="#083863" opacity="1" data-original="#083863" class=""></path></g><path fill="#fedb41" d="M426.805 286.813c86.28 12.101 152.656 86.136 152.656 175.753 0 97.97-79.457 177.434-177.426 177.434-67.351 0-126.078-37.574-156-92.96-13.637-25.188-21.43-53.993-21.43-84.61 0-97.97 79.461-177.43 177.43-177.43 8.352.14 16.559.7 24.77 1.813zm0 0" opacity="1" data-original="#fedb41" class=""></path><path fill="#083863" d="M411.914 359.867c-2.64-2.781-6.262-4.453-10.156-4.453-3.899 0-7.516 1.672-10.16 4.453l-81.551 87.535c-5.285 5.567-4.867 14.473.7 19.618 2.64 2.507 6.124 3.761 9.464 3.761 3.754 0 7.648-1.535 10.434-4.453l57.613-61.652v151.969c0 7.652 6.262 13.918 13.914 13.918 7.656 0 13.918-6.266 13.918-13.918v-151.97l57.195 61.653c5.29 5.567 13.918 5.98 19.621.692 5.567-5.286 5.844-14.051.696-19.618zm0 0" opacity="1" data-original="#083863" class=""></path></g></svg>