<svg xmlns="http://www.w3.org/2000/svg" version="1.1" xmlns:xlink="http://www.w3.org/1999/xlink" width="512" height="512" x="0" y="0" viewBox="0 0 64 64" style="enable-background:new 0 0 512 512" xml:space="preserve" class=""><g><path fill="#403496" d="M49 5a2 2 0 0 0-2-2H5a2 2 0 0 0-2 2v4.257h46z" opacity="1" data-original="#fcb64d" class=""></path><path fill="#0e0078" d="M5 7a2 2 0 0 1 2-2h42a2 2 0 0 0-2-2H5a2 2 0 0 0-2 2v4.257h2z" opacity="1" data-original="#f78c1e" class=""></path><path fill="#eeeeee" d="M3 9.257V59a2 2 0 0 0 2 2h42a2 2 0 0 0 2-2V9.257z" opacity="1" data-original="#eeeeee" class=""></path><path fill="#e0e0e0" d="M49 11.257v-2H3V59a2 2 0 0 0 2 2v-5.743c0-24.3 19.7-44 44-44z" opacity="1" data-original="#e0e0e0" class=""></path><g fill="#434343"><path d="M38.9 15.416H9.1a1 1 0 0 0 0 2h29.8a1 1 0 0 0 0-2zM32.9 21.197H9.1a1 1 0 0 0 0 2h23.8a1 1 0 0 0 0-2zM26.9 26.979H9.1a1 1 0 0 0 0 2h17.8a1 1 0 0 0 0-2zM21.9 32.76H9.1a1 1 0 0 0 0 2h12.8a1 1 0 0 0 0-2zM16.9 38.54H9.1a1 1 0 0 0 0 2h7.8a1 1 0 0 0 0-2z" fill="#434343" opacity="1" data-original="#434343" class=""></path></g><path fill="#6d63b4" d="m47.726 16.512 7.07 7.07-4.284 4.284-7.07-7.07z" opacity="1" data-original="#faa629" class=""></path><path fill="#0e0078" d="m51.013 21.804 2.786 2.786 1-1-7.07-7.07-4.285 4.284 1 1a4.645 4.645 0 0 1 6.569 0z" opacity="1" data-original="#f78c1e" class=""></path><path fill="#6a60b6" d="M43.444 20.804 19.402 44.845l3.536 3.536 24.041-24.042z" opacity="1" data-original="#f47c20" class=""></path><path fill="#0e0078" d="M22.931 48.379 46.97 24.34l3.535 3.535-24.038 24.038z" opacity="1" data-original="#f78c1e" class=""></path><path fill="#ec417a" d="m60.414 15.147-4.242-4.243a2 2 0 0 0-2.829 0l-5.615 5.615L54.8 23.59l5.615-5.615a2 2 0 0 0 0-2.828z" opacity="1" data-original="#ec417a" class=""></path><path fill="#d81b61" d="M49.1 17.147a8 8 0 0 1 11.314 0c.126.126.224.267.31.414a1.995 1.995 0 0 0-.31-2.414l-4.242-4.243a2 2 0 0 0-2.829 0l-5.615 5.615 1 1z" opacity="1" data-original="#d81b61" class=""></path><path fill="#434343" d="m17.28 54.038 9.193-2.121-7.07-7.071z" opacity="1" data-original="#434343" class=""></path><path fill="#212121" d="m24.54 51.983.308.309 1.625-.375-7.07-7.071-2.122 9.192.487-.113c.711-3.082 4.535-4.178 6.772-1.942z" opacity="1" data-original="#212121" class=""></path></g></svg>