<svg id="Icon" height="512" viewBox="0 0 64 64" width="512" xmlns="http://www.w3.org/2000/svg"><path d="m49.00001 5c0-1.10455-.89545-2-2-2h-42c-1.10455 0-2 .89545-2 2v4.25745h46z" fill="#fcb64d"/><path d="m5.00001 7c0-1.10455.89545-2 2-2h42c0-1.10455-.89545-2-2-2h-42c-1.10455 0-2 .89545-2 2v4.25745h2z" fill="#f78c1e"/><path d="m3.00001 9.25745v49.74255c0 1.10455.89545 2 2 2h42c1.10455 0 2-.89545 2-2v-49.74255z" fill="#eee"/><path d="m49.00001 11.25745v-2h-46v49.74255c0 1.10455.89545 2 2 2v-5.7426c0-24.3005 19.69945-43.99995 43.99995-43.99995h.00004z" fill="#e0e0e0"/><g fill="#434343"><path d="m38.90089 15.41602h-29.80176c-.55225 0-1 .44775-1 1s.44775 1 1 1h29.80176c.55225 0 1-.44775 1-1s-.44775-1-1-1z"/><path d="m32.90089 21.19727h-23.80176c-.55225 0-1 .44775-1 1s.44775 1 1 1h23.80176c.55225 0 1-.44775 1-1s-.44775-1-1-1z"/><path d="m26.90089 26.97852h-17.80176c-.55225 0-1 .44775-1 1s.44775 1 1 1h17.80176c.55225 0 1-.44775 1-1s-.44775-1-1-1z"/><path d="m21.90089 32.75928h-12.80176c-.55225 0-1 .44775-1 1s.44775 1 1 1h12.80176c.55225 0 1-.44775 1-1s-.44775-1-1-1z"/><path d="m16.90089 38.54053h-7.80176c-.55225 0-1 .44775-1 1s.44775 1 1 1h7.80176c.55225 0 1-.44775 1-1s-.44775-1-1-1z"/></g><path d="m44.122 19.167h10v6.059h-10z" fill="#faa629" transform="matrix(.707 .707 -.707 .707 30.083 -28.233)"/><path d="m51.0129 21.80381 2.78649 2.78646 1-1-7.07111-7.07104-4.28461 4.28461 1 1c1.81404-1.81404 4.75518-1.81405 6.56922-.00002z" fill="#f78c1e"/><path d="m43.44367 20.80383-24.04162 24.04163v.00006l3.53552 3.53546 24.04162-24.04162z" fill="#f47c20"/><path d="m19.726 35.628h34v5h-34z" fill="#f78c1e" transform="matrix(.707 -.707 .707 .707 -16.204 37.136)"/><path d="m60.41419 15.14697-4.24261-4.24261c-.78107-.78107-2.04736-.78107-2.82843 0l-5.61481 5.61481 7.07104 7.07111 5.61481-5.61487c.78107-.78101.78107-2.04736 0-2.82843z" fill="#ec417a"/><path d="m49.10054 17.14697c3.12418-3.12418 8.18947-3.12418 11.31365 0 .12585.12586.22388.26728.30914.41425.44415-.7652.34607-1.75903-.30914-2.41425l-4.24261-4.24261c-.78105-.78105-2.04738-.78105-2.82843 0l-5.61481 5.61481 1 1z" fill="#d81b61"/><path d="m17.28071 54.03784 9.19238-2.12128-7.07104-7.07104z" fill="#434343"/><path d="m24.53982 51.98329.30827.30827 1.625-.375-7.07104-7.07104-2.12134 9.19232.48749-.11249c.71126-3.08205 4.53501-4.17867 6.77162-1.94206z" fill="#212121"/></svg>