<svg xmlns="http://www.w3.org/2000/svg" version="1.1" xmlns:xlink="http://www.w3.org/1999/xlink" width="512" height="512" x="0" y="0" viewBox="0 0 128 128" style="enable-background:new 0 0 512 512" xml:space="preserve" class=""><g><path fill="#a92435" d="m56.47 74.61 50.263-50.262 7.068 7.069-50.263 50.262z" opacity="1" data-original="#d06161" class=""></path><path fill="#7f0919" d="m49.402 67.54 50.263-50.262 7.068 7.069L56.47 74.609z" opacity="1" data-original="#ba5050" class=""></path><path fill="#635c64" d="m40.6 90.49 11.48-4.41-7.07-7.07z" opacity="1" data-original="#635c64" class=""></path><path fill="#ffddce" d="m45.01 79.01 7.07 7.07 11.47-4.4-14.14-14.14z" opacity="1" data-original="#ffddce" class=""></path><path fill="#e8d891" d="M111.25 14.185a6 6 0 0 0-8.486 0l-4.885 4.886 14.142 14.142 4.885-4.886a6 6 0 0 0 0-8.485z" opacity="1" data-original="#e8d891"></path><path fill="#373592" d="M97.27 69.177a38 38 0 1 1-38.544-39.761v7.4L79.112 23.7 58.733 10.614v6.8a50 50 0 1 0 50.523 52.318l-6.364 4.752z" opacity="1" data-original="#afd092" class=""></path></g></svg>