<svg id="Layer_1" enable-background="new 0 0 512 512" viewBox="0 0 512 512" xmlns="http://www.w3.org/2000/svg"><g><g><path d="m457 2.6v188.2h-73.2v-25.3l-68.1 46.8 68.1 46.8v-25.3h73.2v275.6h-402.1v-162.2h73.3v25.3l68.1-46.8-68.1-46.9v25.4h-73.3v-211.6l90.1-90z" fill="#fae8cc"/></g><g><path d="m54.9 92.6 90.1-90v90z" fill="#f8d69e"/></g><g><path d="m55 347.2v42.8h-11.1c-23.8 0-42.9-19.1-43-42.8z" fill="#f29344"/></g><g><path d="m128.2 372.5v-25.3h-126.3c-.6 0-1-.5-1-1 0-23.2 18.7-41.9 41.9-41.9h85.4v-25.4l68 46.8z" fill="#f9aa6e"/></g><g><path d="m511.1 190.8h-54.1v-42.9h11.1c23.8.1 42.9 19.2 43 42.9z" fill="#f29344"/></g><g><path d="m511.1 191.8c0 23.2-18.7 41.9-41.9 41.9h-85.4v25.4l-68-46.8 68-46.8v25.3h126.3c.5 0 1 .5 1 1z" fill="#f9aa6e"/></g><g><g><path d="m397.4 81.2h-214.4c-7.7-.1-7.8-11.6 0-11.8h214.4c7.7.1 7.8 11.6 0 11.8z" fill="#0aad5c"/></g></g><g><g><path d="m397.4 125.6h-282.9c-7.6-.1-7.8-11.6 0-11.8h282.9c7.6.2 7.8 11.7 0 11.8z" fill="#0aad5c"/></g></g><g><g><path d="m306.6 172.1h-192.1c-7.7-.1-7.8-11.6 0-11.8h192.1c7.7.1 7.8 11.7 0 11.8z" fill="#0aad5c"/></g></g><g><g><path d="m267.5 220.2h-153c-7.7-.1-7.8-11.6 0-11.8h153c7.7.2 7.8 11.7 0 11.8z" fill="#0aad5c"/></g></g><g><g><path d="m306.6 265h-192.1c-7.7-.1-7.8-11.6 0-11.8h192.1c7.7.2 7.8 11.7 0 11.8z" fill="#0aad5c"/></g></g><g><g><path d="m397.4 311.5h-166c-7.7-.1-7.8-11.6 0-11.8h166c7.7.1 7.8 11.7 0 11.8z" fill="#0aad5c"/></g></g><g><g><path d="m397.4 358h-166c-7.7-.1-7.8-11.6 0-11.8h166c7.7.1 7.8 11.6 0 11.8z" fill="#0aad5c"/></g></g><g><g><path d="m397.4 404.4h-282.9c-7.6-.1-7.8-11.6 0-11.8h282.9c7.6.2 7.8 11.7 0 11.8z" fill="#0aad5c"/></g></g><g><g><path d="m397.4 450.9h-282.9c-7.6-.1-7.8-11.6 0-11.8h282.9c7.6.1 7.8 11.7 0 11.8z" fill="#0aad5c"/></g></g></g></svg>