<svg xmlns="http://www.w3.org/2000/svg" version="1.1" xmlns:xlink="http://www.w3.org/1999/xlink" width="512" height="512" x="0" y="0" viewBox="0 0 512 512" style="enable-background:new 0 0 512 512" xml:space="preserve" class=""><g><path fill="#fffcf9" d="M457 2.6v188.2h-73.2v-25.3l-68.1 46.8 68.1 46.8v-25.3H457v275.6H54.9V347.2h73.3v25.3l68.1-46.8-68.1-46.9v25.4H54.9V92.6l90.1-90z" opacity="1" data-original="#fae8cc" class=""></path><path fill="#cfc9bf" d="m54.9 92.6 90.1-90v90z" opacity="1" data-original="#f8d69e" class=""></path><path fill="#130d69" d="M55 347.2V390H43.9C20.1 390 1 370.9.9 347.2z" opacity="1" data-original="#f29344" class=""></path><path fill="#3b3685" d="M128.2 372.5v-25.3H1.9c-.6 0-1-.5-1-1 0-23.2 18.7-41.9 41.9-41.9h85.4v-25.4l68 46.8z" opacity="1" data-original="#f9aa6e" class=""></path><path fill="#130d69" d="M511.1 190.8H457v-42.9h11.1c23.8.1 42.9 19.2 43 42.9z" opacity="1" data-original="#f29344" class=""></path><path fill="#3b3685" d="M511.1 191.8c0 23.2-18.7 41.9-41.9 41.9h-85.4v25.4l-68-46.8 68-46.8v25.3h126.3c.5 0 1 .5 1 1z" opacity="1" data-original="#f9aa6e" class=""></path><path fill="#ba2828" d="M397.4 81.2H183c-7.7-.1-7.8-11.6 0-11.8h214.4c7.7.1 7.8 11.6 0 11.8zM397.4 125.6H114.5c-7.6-.1-7.8-11.6 0-11.8h282.9c7.6.2 7.8 11.7 0 11.8zM306.6 172.1H114.5c-7.7-.1-7.8-11.6 0-11.8h192.1c7.7.1 7.8 11.7 0 11.8zM267.5 220.2h-153c-7.7-.1-7.8-11.6 0-11.8h153c7.7.2 7.8 11.7 0 11.8zM306.6 265H114.5c-7.7-.1-7.8-11.6 0-11.8h192.1c7.7.2 7.8 11.7 0 11.8zM397.4 311.5h-166c-7.7-.1-7.8-11.6 0-11.8h166c7.7.1 7.8 11.7 0 11.8zM397.4 358h-166c-7.7-.1-7.8-11.6 0-11.8h166c7.7.1 7.8 11.6 0 11.8zM397.4 404.4H114.5c-7.6-.1-7.8-11.6 0-11.8h282.9c7.6.2 7.8 11.7 0 11.8zM397.4 450.9H114.5c-7.6-.1-7.8-11.6 0-11.8h282.9c7.6.1 7.8 11.7 0 11.8z" opacity="1" data-original="#0aad5c" class=""></path></g></svg>