<svg height="512" viewBox="0 0 128 128" width="512" xmlns="http://www.w3.org/2000/svg"><g><g><path d="m49.604 48.011h71.093v9.998h-71.093z" fill="#d06161" transform="matrix(.707 -.707 .707 .707 -12.544 75.737)"/><path d="m42.534 40.941h71.093v9.998h-71.093z" fill="#ba5050" transform="matrix(.707 -.707 .707 .707 -9.615 68.667)"/></g><path d="m40.6 90.49 11.48-4.41-7.07-7.07z" fill="#635c64"/><path d="m45.01 79.01 7.07 7.07 11.47-4.4-14.14-14.14z" fill="#ffddce"/><path d="m111.25 14.185a6 6 0 0 0 -8.486 0l-4.885 4.886 14.142 14.142 4.885-4.886a6 6 0 0 0 0-8.485z" fill="#e8d891"/><path d="m97.27 69.177a38 38 0 1 1 -38.544-39.761v7.4l20.386-13.116-20.379-13.086v6.8a50 50 0 1 0 50.523 52.318l-6.364 4.752z" fill="#afd092"/></g></svg>