<?xml version="1.0" encoding="UTF-8" standalone="no"?>
<!-- Created with Inkscape (http://www.inkscape.org/) -->

<svg
   version="1.1"
   id="svg2655"
   xml:space="preserve"
   width="682.66669"
   height="682.66669"
   viewBox="0 0 682.66669 682.66669"
   xmlns="http://www.w3.org/2000/svg"
   xmlns:svg="http://www.w3.org/2000/svg"><defs
     id="defs2659"><clipPath
       clipPathUnits="userSpaceOnUse"
       id="clipPath2685"><path
         d="M 0,512 H 512 V 0 H 0 Z"
         id="path2683" /></clipPath></defs><g
     id="g2661"
     transform="matrix(1.3333333,0,0,-1.3333333,0,682.66667)"><g
       id="g2663"
       transform="translate(69.3179,437.126)"><path
         d="M 0,0 H 151.127"
         style="fill:none;stroke:#000000;stroke-width:15;stroke-linecap:round;stroke-linejoin:round;stroke-miterlimit:10;stroke-dasharray:none;stroke-opacity:1"
         id="path2665" /></g><g
       id="g2667"
       transform="translate(69.3179,387.75)"><path
         d="M 0,0 H 151.127"
         style="fill:none;stroke:#000000;stroke-width:15;stroke-linecap:round;stroke-linejoin:round;stroke-miterlimit:10;stroke-dasharray:none;stroke-opacity:1"
         id="path2669" /></g><g
       id="g2671"
       transform="translate(296.2998,69.8701)"><path
         d="M 0,0 H 128.089"
         style="fill:none;stroke:#000000;stroke-width:15;stroke-linecap:round;stroke-linejoin:round;stroke-miterlimit:10;stroke-dasharray:none;stroke-opacity:1"
         id="path2673" /></g><g
       id="g2675"
       transform="translate(296.2998,37.3477)"><path
         d="M 0,0 H 128.089"
         style="fill:none;stroke:#000000;stroke-width:15;stroke-linecap:round;stroke-linejoin:round;stroke-miterlimit:10;stroke-dasharray:none;stroke-opacity:1"
         id="path2677" /></g><g
       id="g2679"><g
         id="g2681"
         clip-path="url(#clipPath2685)"><g
           id="g2687"
           transform="translate(411.792,387.75)"><path
             d="m 0,0 h -96.747 c -11.048,0 -20.003,8.955 -20.003,20.003 v 96.747"
             style="fill:none;stroke:#000000;stroke-width:15;stroke-linecap:round;stroke-linejoin:round;stroke-miterlimit:10;stroke-dasharray:none;stroke-opacity:1"
             id="path2689" /></g><g
           id="g2691"
           transform="translate(411.7822,262.1064)"><path
             d="m 0,0 h -159.563 c -12.224,0 -22.133,-9.917 -22.133,-22.151 v -210.29 c 0,-12.234 9.909,-22.152 22.133,-22.152 H 57.266 c 12.223,0 22.132,9.917 22.132,22.152 v 152.977 c 0,11.092 -4.402,21.73 -12.239,29.573 l -37.61,37.642 C 21.712,-4.406 11.083,0 0,0 Z"
             style="fill:none;stroke:#000000;stroke-width:15;stroke-linecap:round;stroke-linejoin:round;stroke-miterlimit:10;stroke-dasharray:none;stroke-opacity:1"
             id="path2693" /></g><g
           id="g2695"
           transform="translate(450.2402,7.5137)"><path
             d="m 0,0 v 80.693 c 0,7.562 -6.13,13.693 -13.691,13.693 h -152.41 c -7.561,0 -13.691,-6.131 -13.691,-13.693 V 0"
             style="fill:none;stroke:#000000;stroke-width:15;stroke-linecap:round;stroke-linejoin:round;stroke-miterlimit:10;stroke-dasharray:none;stroke-opacity:1"
             id="path2697" /></g><g
           id="g2699"
           transform="translate(284.1396,163.4355)"><path
             d="m 0,0 h 105.754 c 7.561,0 13.691,6.13 13.691,13.691 v 34.161 c 0,7.561 -6.13,13.691 -13.691,13.691 L 0,61.543 c -7.562,0 -13.691,-6.13 -13.691,-13.691 V 13.691 C -13.691,6.13 -7.562,0 0,0 Z"
             style="fill:none;stroke:#000000;stroke-width:15;stroke-linecap:round;stroke-linejoin:round;stroke-miterlimit:10;stroke-dasharray:none;stroke-opacity:1"
             id="path2701" /></g><g
           id="g2703"
           transform="translate(411.792,296.542)"><path
             d="m 0,0 v 91.208 l -116.75,116.75 H -364.5 c -14.621,0 -26.473,-11.853 -26.473,-26.474 v -444.052 c 0,-14.621 11.852,-26.474 26.473,-26.474 h 147.898"
             style="fill:none;stroke:#000000;stroke-width:15;stroke-linecap:round;stroke-linejoin:round;stroke-miterlimit:10;stroke-dasharray:none;stroke-opacity:1"
             id="path2705" /></g></g></g></g></svg>
