<svg xmlns="http://www.w3.org/2000/svg" version="1.1" xmlns:xlink="http://www.w3.org/1999/xlink" width="512" height="512" x="0" y="0" viewBox="0 0 1707 1707" style="enable-background:new 0 0 512 512" xml:space="preserve" fill-rule="evenodd" class=""><g><path fill="#2f3132" d="M967 1706H739c-40 0-72-32-72-72v-133c-49-14-96-33-140-58l-95 94c-28 28-73 28-101 0l-162-161c-28-28-28-74 0-102l95-94c-25-45-45-92-59-141H72c-39 0-72-32-72-72V739c0-40 33-72 72-72h133c14-49 34-96 59-140l-95-94c-28-28-27-74 0-102l162-162c28-28 74-27 102 0l94 95c44-25 91-45 140-58V72c0-39 33-72 72-72h229c39 0 72 33 72 72v134c48 14 95 33 140 58l94-94c28-28 74-28 102 0l161 161c28 28 28 74 0 102l-94 94c25 44 44 92 58 140h133c40 0 72 33 72 72v229c0 39-32 72-72 72h-133c-14 48-33 96-58 140l94 94c28 28 28 74 0 102l-161 161c-28 28-74 28-102 0l-94-94c-45 25-92 44-141 58v134c0 39-32 71-72 71z" opacity="1" data-original="#596c76" class=""></path><path fill="#5b5050" d="M853 1368c-284 0-514-231-514-515 0-283 230-514 514-514s514 231 514 514c0 284-230 515-514 515z" opacity="1" data-original="#9facba" class=""></path><path fill="#eef0fc" d="M853 1187c-184 0-334-150-334-334s150-334 334-334 334 150 334 334-150 334-334 334z" opacity="1" data-original="#eef0fc" class=""></path></g></svg>