<svg id="Icon" height="512" viewBox="0 0 64 64" width="512" xmlns="http://www.w3.org/2000/svg"><path d="m61 35.63091v-7.26188c0-1.0412-.79884-1.90822-1.83656-1.99331l-4.70126-.38548c-.76732-.06292-1.45048-.55334-1.705-1.27994-.268-.76507-.57663-1.5109-.92411-2.23464-.33316-.69392-.19769-1.52312.3003-2.11007l3.05106-3.59609c.67361-.79394.6254-1.97189-.11084-2.70813l-5.13496-5.13496c-.73624-.73624-1.91419-.78445-2.70813-.11084l-3.59609 3.05106c-.58695.49799-1.41615.63345-2.11006.3003-.72375-.34747-1.46958-.65611-2.23464-.92411-.7266-.25453-1.21703-.93769-1.27995-1.705l-.38548-4.70127c-.08509-1.03772-.95211-1.83656-1.99331-1.83656h-7.26194c-1.0412 0-1.90822.79884-1.99331 1.83656l-.38548 4.70127c-.06292.76732-.55334 1.45048-1.27995 1.705-.76506.268-1.51089.57663-2.23464.92411-.69391.33315-1.52311.19769-2.11006-.3003l-3.59609-3.05106c-.79394-.67361-1.97189-.6254-2.70813.11084l-5.13496 5.13496c-.73624.73624-.78445 1.91419-.11084 2.70813l3.05106 3.59609c.49799.58695.63345 1.41615.3003 2.11007-.34748.72374-.65611 1.46957-.92411 2.23464-.25452.7266-.93769 1.21703-1.705 1.27994l-4.70126.38548c-1.03772.08509-1.83656.95211-1.83656 1.99331v7.26188c0 1.0412.79884 1.90822 1.83656 1.99331l4.70126.38548c.76732.06292 1.45049.55335 1.70501 1.27996.268.76509.57664 1.51094.92412 2.2347.33315.69391.19768 1.52311-.30031 2.11006l-3.05106 3.59608c-.67361.79394-.6254 1.9719.11084 2.70813l5.13495 5.13491c.73624.73623 1.91418.78444 2.70812.11083l3.59608-3.05106c.58696-.498 1.41618-.63345 2.1101-.30029.72375.34749 1.46958.65614 2.23465.92415.72659.25453 1.217.93769 1.27991 1.70499l.38548 4.70127c.08509 1.03772.95211 1.83656 1.99331 1.83656h7.26194c1.0412 0 1.90822-.79884 1.99331-1.83656l.38548-4.70127c.06291-.76731.55332-1.45047 1.27991-1.70499.76507-.26801 1.5109-.57666 2.23465-.92415.69392-.33317 1.52314-.19772 2.1101.30029l3.59608 3.05106c.79394.67361 1.97188.6254 2.70812-.11083l5.13495-5.13491c.73624-.73624.78446-1.91419.11084-2.70813l-3.05106-3.59608c-.49799-.58695-.63346-1.41614-.30031-2.11006.34748-.72376.65612-1.46961.92412-2.2347.25452-.72661.93769-1.21704 1.70501-1.27996l4.70126-.38548c1.03772-.08509 1.83656-.95211 1.83656-1.99331z" fill="#546f7a"/><path d="m52.53998 52.46997-2.59998 2.60004c-.73999.73999-1.91998.78998-2.71002.10999l-3.59998-3.04999c-.58002-.48999-1.41003-.63-2.10999-.30005-.72003.35004-1.47003.66003-2.23004.93005-.72998.25-1.21997.92999-1.27997 1.69995l-.39001 4.70001c-.08002 1.04004-.95001 1.84003-1.98999 1.84003h-7.26001c-1.03998 0-1.90997-.79999-1.98999-1.84003l-.39001-4.70001c-.06-.76996-.54999-1.44995-1.27997-1.69995-.76001-.27002-1.51001-.58002-2.23004-.93005-.69995-.32996-1.52997-.18994-2.10999.30005l-3.59998 3.04999c-.79004.67999-1.97003.63-2.71002-.10999l-5.13-5.13c-.73999-.73999-.78998-1.92004-.10999-2.71002l3.04999-3.59998c.48999-.58002.63-1.41003.29999-2.11005-.34998-.71997-.65997-1.46997-.92999-2.22998-.25-.72998-.92999-1.21997-1.70001-1.27997l-4.69995-.39001c-1.04004-.08002-1.84003-.95001-1.84003-1.98999v-7.26001c0-1.04004.79999-1.91003 1.84003-1.98999l4.69995-.39001c.77002-.06 1.45001-.54999 1.70001-1.28003.27002-.75995.58002-1.50995.92999-2.22998.33002-.70001.19-1.52997-.29999-2.10999l-3.04999-3.60004c-.67999-.78998-.63-1.96997.10999-2.70996l5.13-5.13c.73999-.73999 1.91998-.78998 2.71002-.10999l3.59998 3.04999c.35999.29999.79999.46997 1.26001.47998 1.77997 12.47003 8.16998 33.73999 30.90997 40.12z" fill="#455b64"/><circle cx="32" cy="32" fill="#cfd8dc" r="16"/><path d="m18 34c0-8.83655 7.16345-16 16-16 3.909 0 7.48706 1.4057 10.26599 3.73401-2.93506-3.50299-7.33844-5.73401-12.26599-5.73401-8.83655 0-16 7.16345-16 16 0 4.92755 2.23102 9.33093 5.73401 12.26599-2.32831-2.77893-3.73401-6.35699-3.73401-10.26599z" fill="#b0bec5"/><circle cx="32" cy="32" fill="#90a4ae" r="10"/></svg>