<svg clip-rule="evenodd" fill-rule="evenodd" height="1.707in" image-rendering="optimizeQuality" shape-rendering="geometricPrecision" text-rendering="geometricPrecision" viewBox="0 0 1707 1707" width="1.707in" xmlns="http://www.w3.org/2000/svg"><g id="Layer_x0020_1"><path d="m967 1706h-228c-40 0-72-32-72-72v-133c-49-14-96-33-140-58l-95 94c-28 28-73 28-101 0l-162-161c-28-28-28-74 0-102l95-94c-25-45-45-92-59-141h-133c-39 0-72-32-72-72v-228c0-40 33-72 72-72h133c14-49 34-96 59-140l-95-94c-28-28-27-74 0-102l162-162c28-28 74-27 102 0l94 95c44-25 91-45 140-58v-134c0-39 33-72 72-72h229c39 0 72 33 72 72v134c48 14 95 33 140 58l94-94c28-28 74-28 102 0l161 161c28 28 28 74 0 102l-94 94c25 44 44 92 58 140h133c40 0 72 33 72 72v229c0 39-32 72-72 72h-133c-14 48-33 96-58 140l94 94c28 28 28 74 0 102l-161 161c-28 28-74 28-102 0l-94-94c-45 25-92 44-141 58v134c0 39-32 71-72 71z" fill="#596c76"/><path d="m853 1368c-284 0-514-231-514-515 0-283 230-514 514-514s514 231 514 514c0 284-230 515-514 515z" fill="#9facba"/><path d="m853 1187c-184 0-334-150-334-334s150-334 334-334 334 150 334 334-150 334-334 334z" fill="#eef0fc"/></g></svg>