<svg id="Capa_1" enable-background="new 0 0 512 512" height="512" viewBox="0 0 512 512" width="512" xmlns="http://www.w3.org/2000/svg"><g><path clip-rule="evenodd" d="m407.311 93.134c-87.072-80.117-221.774-77.525-305.7 5.881l45 45.252c61.755-61.243 161.464-60.827 222.707.928 12.946 13.054 23.506 28.275 31.202 44.972h-40.712l76.1 131.8 76.092-131.801h-43.11c-11.641-37.194-32.881-70.663-61.578-97.033zm-255.124 228.832h-37.739c36.284 78.98 129.723 113.593 208.703 77.309 16.818-7.726 32.142-18.359 45.267-31.409l45 45.252c-86.862 86.098-227.074 85.478-313.172-1.385-24.944-25.166-43.486-55.95-54.066-89.767h-46.18l76.089-131.8z" fill="#0291f7" fill-rule="evenodd"/></g></svg>