<svg id="Icons" viewBox="0 0 60 60" xmlns="http://www.w3.org/2000/svg"><path d="m6 51c0 1.657 1.343 3 3 3h4v-7h-5s-2 0-2 4z" fill="#5aa064"/><path d="m54 12v43c0 2.209-1.791 4-4 4h-34c-2.209 0-4-1.791-4-4v-50c0-2.209 1.791-4 4-4h27z" fill="#e8ecef"/><path d="m54 12h-10c-.55 0-1-.45-1-1v-10z" fill="#c7d0dd"/><path d="m9 48h36c1.657 0 3-1.343 3-3v-14c0-1.657-1.343-3-3-3h-36c-1.657 0-3 1.343-3 3v20c0-1.657 1.343-3 3-3z" fill="#61c161"/><g fill="#fff"><path d="m30 42h-5v-9c0-.553-.448-1-1-1s-1 .447-1 1v10c0 .553.448 1 1 1h6c.552 0 1-.447 1-1s-.448-1-1-1z"/><path d="m20.515 32.143c-.474-.284-1.088-.131-1.372.343l-2.143 3.571-2.143-3.571c-.284-.474-.898-.626-1.372-.343-.474.284-.627.898-.343 1.372l2.691 4.485-2.691 4.485c-.284.474-.131 1.088.343 1.372.161.097.338.143.514.143.34 0 .671-.173.858-.485l2.143-3.571 2.143 3.571c.188.312.519.485.858.485.175 0 .353-.046.514-.143.474-.284.627-.898.343-1.372l-2.691-4.485 2.691-4.485c.284-.474.131-1.088-.343-1.372z"/><path d="m37.242 37.03c-1.737-.435-2.242-.688-2.242-1.53 0-.813.916-1.5 2-1.5 1.415 0 2.09 1.105 2.13 1.174.27.477.873.649 1.355.381s.657-.876.389-1.359c-.05-.09-1.248-2.195-3.874-2.195-2.206 0-4 1.57-4 3.5 0 2.531 2.261 3.096 3.758 3.47 1.737.435 2.242.688 2.242 1.53 0 .813-.916 1.5-2 1.5-1.428 0-2.103-1.127-2.126-1.166-.269-.483-.874-.659-1.359-.389-.482.268-.657.876-.389 1.359.05.09 1.248 2.195 3.874 2.195 2.206 0 4-1.57 4-3.5 0-2.531-2.261-3.096-3.758-3.47z"/></g></svg>