<svg id="Layer_1" enable-background="new 0 0 512 512" height="512" viewBox="0 0 512 512" width="512" xmlns="http://www.w3.org/2000/svg"><path d="m426.128 221.963c3.426 11.129 13.803 19.241 26.041 19.241 15.021 0 27.242-12.22 27.242-27.241s-12.221-27.242-27.242-27.242c-12.237 0-22.615 8.113-26.041 19.242h-54.681v-29.234h45.689c2.094 0 4.104-.821 5.599-2.286l16.436-16.103c3.866 2.108 8.295 3.307 12.999 3.307 15.021 0 27.241-12.22 27.241-27.241s-12.221-27.242-27.241-27.242c-15.021 0-27.242 12.221-27.242 27.242 0 4.505 1.106 8.754 3.05 12.501l-14.107 13.821h-42.424v-16.109c0-.389-.015-.775-.029-1.161l32.071-11.866c1.781-.659 3.271-1.93 4.2-3.586l22.238-39.606c1.861.403 3.792.621 5.772.621 15.021 0 27.241-12.221 27.241-27.242s-12.221-27.242-27.241-27.242c-15.021 0-27.242 12.221-27.242 27.242 0 7.271 2.869 13.881 7.528 18.771l-20.807 37.057-28.499 10.544c-5.483-8.679-15.157-14.46-26.16-14.46h-3.381v-30.855c.001-45.124-36.711-81.836-81.836-81.836-45.126 0-81.838 36.712-81.838 81.836v30.855h-3.381c-10.826 0-20.364 5.596-25.892 14.042l-27.37-10.126-20.806-37.056c4.659-4.89 7.528-11.5 7.528-18.771 0-15.021-12.221-27.242-27.242-27.242s-27.241 12.221-27.241 27.242 12.22 27.241 27.241 27.241c1.98 0 3.91-.218 5.772-.621l22.238 39.606c.93 1.656 2.419 2.927 4.2 3.586l30.691 11.355c-.03.554-.047 1.111-.047 1.672v16.109h-41.026l-14.107-13.821c1.944-3.747 3.05-7.996 3.05-12.501 0-15.021-12.221-27.242-27.242-27.242s-27.241 12.221-27.241 27.242 12.221 27.241 27.241 27.241c4.704 0 9.133-1.199 12.999-3.307l16.436 16.103c1.495 1.465 3.505 2.286 5.599 2.286h44.292v29.234h-53.284c-3.426-11.129-13.803-19.242-26.042-19.242-15.021 0-27.241 12.221-27.241 27.242s12.221 27.241 27.241 27.241c12.238 0 22.615-8.112 26.042-19.241h53.284v29.234h-44.293c-2.094 0-4.104.821-5.599 2.286l-16.436 16.102c-3.865-2.108-8.295-3.307-12.999-3.307-15.021 0-27.241 12.221-27.241 27.242s12.221 27.242 27.241 27.242c15.021 0 27.242-12.221 27.242-27.242 0-4.505-1.106-8.754-3.05-12.501l14.107-13.821h41.026v16.11c0 1.043.054 2.074.155 3.091l-30.478 9.823c-1.919.619-3.534 1.939-4.521 3.698l-22.238 39.606c-1.862-.403-3.792-.621-5.772-.621-15.021 0-27.241 12.22-27.241 27.241s12.221 27.242 27.241 27.242c15.021 0 27.242-12.221 27.242-27.242 0-7.271-2.869-13.881-7.528-18.771l20.711-36.887 28.279-9.114c5.622 7.782 14.766 12.861 25.079 12.861h59.128v40.325l-18.008-22.979c-11.804-15.062-27.358-15.782-36.812-10.08-9.527 5.745-15.712 19.208-8.053 36.333 13.327 29.799 25.826 50.396 35.87 66.946 13.096 21.581 21.778 35.89 24.138 56.137v22.083c0 4.418 3.582 8 8 8h126.567c4.418 0 8-3.582 8-8v-20.088c17.973-27.529 20.707-68.873 20.708-91.427l.001-24.509c0-14.365-11.687-26.052-26.051-26.052-3.986 0-7.768.9-11.149 2.508-3.226-10.725-13.192-18.56-24.954-18.56-3.936 0-7.671.877-11.02 2.447-1.464-5.206-4.522-9.742-8.595-13.085h32.666c10.474 0 19.742-5.238 25.339-13.227l29.416 9.48 20.71 36.887c-4.659 4.89-7.528 11.5-7.528 18.771 0 15.021 12.221 27.242 27.242 27.242s27.241-12.221 27.241-27.242-12.221-27.241-27.241-27.241c-1.98 0-3.91.218-5.772.621l-22.238-39.607c-.987-1.758-2.603-3.079-4.521-3.698l-31.842-10.262c.075-.875.122-1.758.122-2.652v-16.11h42.424l14.107 13.821c-1.944 3.747-3.05 7.996-3.05 12.501 0 15.021 12.221 27.242 27.242 27.242s27.241-12.221 27.241-27.242-12.221-27.242-27.241-27.242c-4.704 0-9.134 1.199-12.999 3.307l-16.436-16.102c-1.495-1.465-3.505-2.286-5.599-2.286h-45.689v-29.234h54.681zm26.041-19.242c6.199 0 11.242 5.043 11.242 11.242 0 6.198-5.043 11.241-11.242 11.241-6.198 0-11.241-5.043-11.241-11.241 0-6.199 5.043-11.242 11.241-11.242zm.001-79.557c6.198 0 11.241 5.043 11.241 11.242 0 6.198-5.043 11.241-11.241 11.241-6.199 0-11.242-5.043-11.242-11.241 0-6.199 5.043-11.242 11.242-11.242zm-16.471-72.626c6.198 0 11.241 5.043 11.241 11.242s-5.043 11.242-11.241 11.242c-6.199 0-11.242-5.043-11.242-11.242s5.043-11.242 11.242-11.242zm-370.639 11.242c0-6.199 5.043-11.242 11.241-11.242 6.199 0 11.242 5.043 11.242 11.242s-5.043 11.241-11.242 11.241c-6.198 0-11.241-5.042-11.241-11.241zm-5.23 83.867c-6.198 0-11.241-5.043-11.241-11.241 0-6.199 5.043-11.242 11.241-11.242 6.199 0 11.242 5.043 11.242 11.242 0 6.198-5.043 11.241-11.242 11.241zm0 79.557c-6.198 0-11.241-5.043-11.241-11.241 0-6.199 5.043-11.242 11.241-11.242 6.199 0 11.242 5.043 11.242 11.242 0 6.198-5.043 11.241-11.242 11.241zm0 79.558c-6.198 0-11.241-5.043-11.241-11.242s5.043-11.242 11.241-11.242c6.199 0 11.242 5.043 11.242 11.242s-5.043 11.242-11.242 11.242zm16.471 72.625c-6.198 0-11.241-5.043-11.241-11.242 0-6.198 5.043-11.241 11.241-11.241 6.199 0 11.242 5.043 11.242 11.241 0 6.199-5.043 11.242-11.242 11.242zm370.639-11.241c0 6.199-5.043 11.242-11.241 11.242-6.199 0-11.242-5.043-11.242-11.242 0-6.198 5.043-11.241 11.242-11.241 6.198-.001 11.241 5.042 11.241 11.241zm5.23-83.868c6.198 0 11.241 5.043 11.241 11.242s-5.043 11.242-11.241 11.242c-6.199 0-11.242-5.043-11.242-11.242s5.043-11.242 11.242-11.242zm-262.706-199.442c0-36.302 29.535-65.836 65.838-65.836s65.837 29.534 65.837 65.836v30.855h-19.095v-30.855c0-25.773-20.969-46.742-46.742-46.742-25.774 0-46.743 20.968-46.743 46.742v30.855h-19.095zm96.58 30.856h-61.485v-30.856c0-16.951 13.791-30.742 30.743-30.742 16.951 0 30.742 13.791 30.742 30.742zm-19.762 101.294c-3.349-1.57-7.083-2.453-11.02-2.453-3.919 0-7.636.875-10.974 2.432-5.487-3.663-8.825-9.801-8.825-16.488 0-10.938 8.899-19.837 19.838-19.837s19.837 8.899 19.837 19.837c.001 6.7-3.35 12.849-8.856 16.509zm-23.936 280.014v-6.538h110.567v6.538zm85.122-154.127c5.543 0 10.052 4.509 10.052 10.051v24.84c0 4.418 3.582 8 8 8s8-3.582 8-8v-8.788c0-5.542 4.509-10.052 10.052-10.052 5.542 0 10.051 4.509 10.051 10.051l-.001 24.508c-.001 16.359-1.727 55.878-17.048 80.978h-115.342c-3.706-20.273-12.976-35.597-25.347-55.983-9.812-16.169-22.023-36.292-34.942-65.178-3.225-7.209-2.554-13.528 1.709-16.099 3.738-2.253 10.122-1.198 15.957 6.248l32.305 41.221c2.104 2.687 5.681 3.74 8.907 2.627s5.39-4.15 5.39-7.562v-139.15c0-5.542 4.509-10.052 10.052-10.052 5.542 0 10.051 4.509 10.051 10.052l-.001 130.708c0 4.418 3.582 8 8 8s8-3.582 8-8v-34.929c0-5.542 4.509-10.052 10.052-10.052s10.052 4.509 10.052 10.052v41.4c0 4.418 3.582 8 8 8s8-3.582 8-8v-24.84c-.001-5.543 4.508-10.051 10.051-10.051zm27.979-57.566c0 8.231-6.696 14.927-14.928 14.927h-59.207l.001-59.649c0-4.516-1.156-8.766-3.187-12.473 8.162-6.728 13.012-16.787 13.012-27.635 0-19.761-16.076-35.837-35.837-35.837s-35.838 16.077-35.838 35.837c0 10.825 4.83 20.862 12.96 27.59-2.046 3.718-3.213 7.984-3.213 12.518v59.649h-59.128c-8.231 0-14.928-6.696-14.928-14.927v-138.688c0-8.231 6.696-14.927 14.928-14.927h170.438c8.231 0 14.928 6.696 14.928 14.927v138.688z"/></svg>