<svg id="svg8" height="512" viewBox="0 0 16.933333 16.933334" width="512" xmlns="http://www.w3.org/2000/svg" xmlns:svg="http://www.w3.org/2000/svg"><g id="layer6" stroke-linejoin="round"><path id="path848" d="m2.1171875 3.9667969c-.9194577 0-1.39696235.4814251-1.62695312.9414062-.22999078.4599812-.22656251.9121094-.2265625.9121094v5.0253905s-.003428.452128.2265625.91211c.22999074.459981.71042122.941406 1.62695312.941406h2.2578125v-.529297h-2.2578125c-.6690434 0-.9854598-.31467-1.15234375-.648438-.16688395-.333767-.171875-.675781-.171875-.675781v-5.0253905s.004991-.3420137.171875-.6757813c.16688395-.3337675.48710215-.6484375 1.15234375-.6484375h5.8203125c.6699816 0 .9854599.31467 1.1523438.6484375.1668838.3337676.1699218.6757813.1699218.6757813v.5292969h.5292969v-.5292969s.00343-.4521282-.2265625-.9121094c-.2299907-.4599811-.7063693-.9414062-1.625-.9414062z"/><path id="path850" d="m5.0273437.26367188c-1.597111.00000001-2.907613 1.31352262-2.9082031 2.91015622l-.00195 1.0585938h.5292969l.00195-1.0585938c.0004831-1.3071783 1.0715032-2.38085934 2.3789062-2.38085935 1.3074879.00000051 2.3813427 1.07314705 2.3808594 2.38085935v1.0585938h.5292969v-1.0585938c.0005903-1.5975026-1.3131308-2.9101556-2.9101563-2.91015622z"/><path id="path852" d="m5.0273437 1.8496094c-.7723855 0-1.3219917.5831905-1.3222656 1.3242187v1.0585938h.5292969v-1.0585938c.000179-.4842639.3430121-.7949218.7929687-.7949218.4460133 0 .7951005.3117324.7949219.7949218l-.00195 1.0585938h.5292969l.00195-1.0585938c.0002737-.7406993-.5511622-1.3242187-1.3242188-1.3242187z"/><g stroke-linecap="round"><path id="path854" d="m7.9375 6.0859375a.26460996.26460996 0 0 0 -.2597656.2128906l-.1015625.5039063c-.4420759.1151361-.8625758.291675-1.2539063.5273437l-.4375-.2890625a.26460996.26460996 0 0 0 -.3339844.0332031l-1.1230468 1.1230469a.26460996.26460996 0 0 0 -.0332032.3320313l.2871094.4296875c-.2340516.3946577-.4074549.8187321-.5195312 1.2636716l-.5097656.101563a.26460996.26460996 0 0 0 -.2128907.259765v1.585938a.26460996.26460996 0 0 0 .2128907.259766l.5039062.09961c.1151433.442902.2931945.865815.5292969 1.257812l-.2910157.4375a.26460996.26460996 0 0 0 .033203.333985l1.1230468 1.121094a.26460996.26460996 0 0 0 .3339844.0332l.4277346-.285155c.3946261.233981.8207375.407496 1.265625.519532l.099609.507812a.26460996.26460996 0 0 0 .259766.212891h1.5878906a.26460996.26460996 0 0 0 .2597657-.212891l.099609-.501953c.4487824-.110541.8770994-.283063 1.2753904-.517578l.417969.277344a.26460996.26460996 0 0 0 .333984-.0332l1.123047-1.121094a.26460996.26460996 0 0 0 .0332-.333985l-.279296-.419921c.234484-.398589.409171-.826301.519531-1.275391l.501953-.09961a.26460996.26460996 0 0 0 .212891-.259766v-1.585938a.26460996.26460996 0 0 0 -.212891-.259765l-.492188-.09766c-.1160647-.4469901-.2959647-.8725474-.5351527-1.2675766l.285156-.4296875a.26460996.26460996 0 0 0 -.0332-.3320313l-1.12305-1.1230469a.26460996.26460996 0 0 0 -.333984-.0332031l-.423828.2832031c-.396572-.2345167-.82249-.4100343-1.2695314-.5214843l-.0996093-.5039063a.26460996.26460996 0 0 0 -.2597657-.2128906zm.2167969.5292969h1.1542969l.085937.4257812a.26460996.26460996 0 0 0 .2050781.2070313c.5140676.1061999 1.0046996.3084346 1.4453126.59375a.26460996.26460996 0 0 0 .289062-.00195l.357422-.2382812.816407.8164063-.242188.3613281a.26460996.26460996 0 0 0 0 .2929687c.291086.4387716.497717.9268346.609375 1.4414064a.26460996.26460996 0 0 0 .207031.203125l.41211.08398v1.152344l-.423828.08594a.26460996.26460996 0 0 0 -.207032.207031c-.104888.516502-.306161 1.00824-.591797 1.451172a.26460996.26460996 0 0 0 .002.289062l.234375.34961-.816407.816406-.349609-.232422a.26460996.26460996 0 0 0 -.291016-.002c-.442932.285635-.934669.484956-1.4511716.589844a.26460996.26460996 0 0 0 -.2070313.208984l-.083984.421875h-1.1543427l-.0859375-.4276882a.26460996.26460996 0 0 0 -.2050782-.207032c-.5124443-.107072-1.000387-.308645-1.4394531-.59375a.26460996.26460996 0 0 0 -.2910156.002l-.3613281.240188-.8164063-.816406.2460938-.369141a.26460996.26460996 0 0 0 .00195-.292969c-.2879244-.436254-.4925022-.92086-.6035125-1.43164a.26460996.26460996 0 0 0 -.2070313-.203125l-.4238281-.085938v-1.152344l.4296875-.08594a.26460996.26460996 0 0 0 .2070312-.205075c.1070723-.5124446.3086456-1.0003874.59375-1.4394535a.26460996.26460996 0 0 0 -.0019531-.2910156l-.2421875-.3613281.8164063-.8164063.3691406.2460937a.26460996.26460996 0 0 0 .2929687 0c.4362546-.2879275.922813-.4925053 1.4335938-.6035156a.26460996.26460996 0 0 0 .203125-.2070312z"/><path id="path856" d="m8.7304688 7.9375c-1.8964941.0000001-3.4394531 1.5429591-3.4394532 3.439453-.0000001 1.896494 1.5429589 3.439453 3.4394532 3.439453 1.8964942 0 3.4394532-1.542959 3.4394532-3.439453s-1.542959-3.4394531-3.4394532-3.439453zm0 .5292969c1.6105112-.0000001 2.9121092 1.2996449 2.9121092 2.9101561 0 1.610512-1.301598 2.910156-2.9121092 2.910156-1.6105115 0-2.9101564-1.299644-2.9101563-2.910156.0000001-1.6105111 1.299645-2.9101561 2.9101563-2.9101561z"/><path id="path858" d="m8.7304688 8.9960938c-.7274922-.0000001-1.3222655.5947735-1.3222657 1.3222652.0000003.727492.5947736 1.324219 1.3222657 1.324219.727492 0 1.3242182-.596727 1.3242192-1.324219-.000001-.7274917-.5967271-1.3222653-1.3242192-1.3222652zm0 .5292968c.4415093 0 .7949215.3514594.7949215.7929684 0 .44151-.3534123.794922-.7949215.794922-.4415093 0-.7929686-.353412-.7929688-.794922.0000001-.441509.3514594-.7929684.7929688-.7929684z"/><path id="path860" d="m8.7304688 11.90625c-1.1367197 0-2.0745499.905024-2.1152344 2.041016l.5292968.01953c.030689-.856888.7285-1.53125 1.5859376-1.53125.8579598 0 1.5579012.673814 1.5878902 1.53125l.527344-.01758c-.039757-1.136701-.9778356-2.042966-2.1152342-2.042966z"/></g></g></svg>