<svg version="1.1" id="Capa_1" xmlns="http://www.w3.org/2000/svg" xmlns:xlink="http://www.w3.org/1999/xlink" x="0px" y="0px" viewBox="0 0 512 512" style="enable-background:new 0 0 512 512;" xml:space="preserve">
<g>
	<g>
		<g>
			
				<line style="fill:none;stroke:#000000;stroke-width:15;stroke-linecap:round;stroke-linejoin:round;stroke-miterlimit:10;" x1="138" y1="145.4" x2="138" y2="148.041"/>
			
				<line style="fill:none;stroke:#000000;stroke-width:15;stroke-linecap:round;stroke-linejoin:round;stroke-miterlimit:10;" x1="138" y1="182.379" x2="138" y2="185.021"/>
		</g>
		<path style="fill:none;stroke:#000000;stroke-width:15;stroke-linecap:round;stroke-linejoin:round;stroke-miterlimit:10;" d="&#10;&#9;&#9;&#9;M185.728,97.123h-57.033c-14.062,0-25.461,11.399-25.461,25.461V416 M103.234,451v28.039c0,14.062,11.399,25.461,25.461,25.461&#10;&#9;&#9;&#9;h254.61c14.062,0,25.461-11.399,25.461-25.461V122.584c0-14.062-11.399-25.461-25.461-25.461h-57.033"/>
		
			<line style="fill:none;stroke:#000000;stroke-width:15;stroke-linecap:round;stroke-linejoin:round;stroke-miterlimit:10;" x1="302.773" y1="125.13" x2="329.947" y2="152.304"/>
		
			<line style="fill:none;stroke:#000000;stroke-width:15;stroke-linecap:round;stroke-linejoin:round;stroke-miterlimit:10;" x1="354.696" y1="177.053" x2="408.766" y2="231.123"/>
		<path style="fill:none;stroke:#000000;stroke-width:15;stroke-linecap:round;stroke-linejoin:round;stroke-miterlimit:10;" d="&#10;&#9;&#9;&#9;M306.124,289.187H205.877c-23.04,0-41.717,18.678-41.717,41.717v26.473c0,8.695,7.049,15.744,15.744,15.744h152.193&#10;&#9;&#9;&#9;c8.695,0,15.744-7.049,15.744-15.744v-26.473C347.841,307.864,329.163,289.187,306.124,289.187z"/>
		<path style="fill:none;stroke:#000000;stroke-width:15;stroke-linecap:round;stroke-linejoin:round;stroke-miterlimit:10;" d="&#10;&#9;&#9;&#9;M324.745,456.371h-137.49c-12.656,0-22.915-10.259-22.915-22.915v0c0-12.656,10.259-22.915,22.915-22.915h137.49&#10;&#9;&#9;&#9;c12.656,0,22.915,10.259,22.915,22.915v0C347.66,446.112,337.4,456.371,324.745,456.371z"/>
		<path style="fill:none;stroke:#000000;stroke-width:15;stroke-linecap:round;stroke-linejoin:round;stroke-miterlimit:10;" d="&#10;&#9;&#9;&#9;M227.993,56v36.031c0,2.812,2.28,5.092,5.092,5.092h45.83c2.812,0,5.092-2.28,5.092-5.092V12.592c0-2.812-2.28-5.092-5.092-5.092&#10;&#9;&#9;&#9;h-45.83c-2.812,0-5.092,2.28-5.092,5.092V21"/>
		<path style="fill:none;stroke:#000000;stroke-width:15;stroke-linejoin:round;stroke-miterlimit:10;" d="M227.993,69.116h-32.081&#10;&#9;&#9;&#9;c-5.625,0-10.184,4.56-10.184,10.184v35.646c0,5.625,4.56,10.184,10.184,10.184h120.176c5.625,0,10.184-4.56,10.184-10.184V79.3&#10;&#9;&#9;&#9;c0-5.625-4.56-10.184-10.184-10.184h-32.081"/>
		<path style="fill:none;stroke:#000000;stroke-width:15;stroke-linecap:round;stroke-linejoin:round;stroke-miterlimit:10;" d="&#10;&#9;&#9;&#9;M258.804,167.329h-5.608c-26.844,0-48.604,21.761-48.604,48.604v21.844c0,28.392,23.016,51.409,51.409,51.409&#10;&#9;&#9;&#9;c28.392,0,51.409-23.016,51.409-51.409v-21.844C307.409,189.09,285.648,167.329,258.804,167.329z"/>
		<path style="fill:none;stroke:#000000;stroke-width:15;stroke-linejoin:round;stroke-miterlimit:10;" d="M307.409,222.477h-10.086&#10;&#9;&#9;&#9;c-9.49,0-17.877-4.715-22.95-11.929c-1.116-1.587-3.457-1.587-4.573,0c-5.073,7.214-13.461,11.929-22.95,11.929h-42.257"/>
		
			<polygon style="fill:none;stroke:#000000;stroke-width:15;stroke-linecap:round;stroke-linejoin:round;stroke-miterlimit:10;" points="&#10;&#9;&#9;&#9;266.168,323.025 275.629,289.187 236.371,289.187 245.788,323.025 245.788,323.025 236.801,373.121 275.187,373.121 &#10;&#9;&#9;&#9;266.168,323.025 &#9;&#9;"/>
		
			<line style="fill:none;stroke:#000000;stroke-width:15;stroke-linejoin:round;stroke-miterlimit:10;" x1="266.168" y1="323.025" x2="245.788" y2="323.025"/>
	</g>
</g>
<g>
</g>
<g>
</g>
<g>
</g>
<g>
</g>
<g>
</g>
<g>
</g>
<g>
</g>
<g>
</g>
<g>
</g>
<g>
</g>
<g>
</g>
<g>
</g>
<g>
</g>
<g>
</g>
<g>
</g>
</svg>