<svg id="Layer_1" enable-background="new 0 0 64 64" height="512" viewBox="0 0 64 64" width="512" xmlns="http://www.w3.org/2000/svg"><g><g><path d="m56.91 5.06h-1.19v-.21c0-2.67-2.18-4.85-4.85-4.85h-38.18c-2.67 0-4.85 2.18-4.85 4.85v3.98h-2.23c-1.82 0-3.3 1.48-3.3 3.3s1.48 3.3 3.3 3.3h2.23v10.74h-2.23c-1.82 0-3.3 1.48-3.3 3.3s1.48 3.3 3.3 3.3h2.23v10.74h-2.23c-1.82 0-3.3 1.48-3.3 3.3s1.48 3.3 3.3 3.3h2.23v3.98c0 2.67 2.18 4.85 4.85 4.85h1.12v.28c0 2.63 2.14 4.78 4.78 4.78h38.32c2.63 0 4.78-2.14 4.78-4.78v-49.39c0-2.63-2.14-4.77-4.78-4.77zm-52.66 7.07c0-.75.61-1.36 1.36-1.36h3.19.01.01 3.2c.75 0 1.36.61 1.36 1.36s-.61 1.36-1.36 1.36h-3.19c-.01 0-.02 0-.02 0-.01 0-.01 0-.02 0h-3.18c-.75 0-1.36-.61-1.36-1.36zm0 17.34c0-.75.61-1.36 1.36-1.36h3.18.02.02 3.19c.75 0 1.36.61 1.36 1.36s-.61 1.36-1.36 1.36h-3.19c-.01 0-.01 0-.02 0s-.01 0-.02 0h-3.18c-.75 0-1.36-.61-1.36-1.36zm0 17.34c0-.75.61-1.36 1.36-1.36h6.41c.75 0 1.36.61 1.36 1.36s-.61 1.36-1.36 1.36h-3.2-.01-.01-3.19c-.75 0-1.36-.61-1.36-1.36zm5.53 7.28v-3.98h2.24c1.82 0 3.3-1.48 3.3-3.3s-1.48-3.3-3.3-3.3h-2.24v-10.74h2.24c1.82 0 3.3-1.48 3.3-3.3s-1.48-3.3-3.3-3.3h-2.24v-10.74h2.24c1.82 0 3.3-1.48 3.3-3.3s-1.48-3.3-3.3-3.3h-2.24v-3.98c0-1.6 1.31-2.91 2.91-2.91h38.19c1.6 0 2.91 1.31 2.91 2.91v1.16.01.01 48.05c0 1.6-1.31 2.91-2.91 2.91h-36.08c-.01 0-.01 0-.02 0s-.01 0-.02 0h-2.07c-1.61.01-2.91-1.3-2.91-2.9zm49.97 5.13c0 1.57-1.27 2.84-2.84 2.84h-38.32c-1.57 0-2.84-1.27-2.84-2.84v-.28h35.13c2.67 0 4.85-2.18 4.85-4.85v-47.09h1.19c1.57 0 2.84 1.27 2.84 2.84v49.38z"/><path d="m22.39 29.01c3.76 1.05 7.54 1.58 11.33 1.58 3.78 0 7.57-.53 11.33-1.58.42-.12.71-.5.71-.93 0-.23-.05-5.74-4.23-7-1.41-.43-2.98-1.24-4.08-1.85.49-.68.89-1.48 1.16-2.39.77-.55 1.26-1.73 1.42-2.54.24-1.22-.13-2.05-.73-2.5l.02-.56c.06-1.39-.4-2.68-1.31-3.63-.97-1.01-2.33-1.57-3.85-1.57h-.88c-1.52 0-2.88.56-3.85 1.57-.91.95-1.38 2.24-1.31 3.62l.02.57c-.59.44-.97 1.27-.73 2.5.16.81.64 1.99 1.42 2.55.27.92.68 1.72 1.16 2.39-1.14.64-2.68 1.43-4.07 1.85-4.18 1.26-4.23 6.77-4.23 7 0 .43.28.81.7.92zm6.93-15.08c-.06-.33-.03-.5-.01-.56.02 0 .04-.01.05-.01.45-.11.76-.52.75-.98l-.04-1.22c-.04-.87.23-1.63.78-2.2.6-.63 1.47-.97 2.45-.97h.88c.98 0 1.85.34 2.45.97.55.57.81 1.33.78 2.21l-.04 1.21c-.02.46.34.86.79.96 0 0 .08.15 0 .59-.12.64-.45 1.17-.61 1.31-.33.1-.59.36-.67.7-.52 2.11-1.77 3.53-3.13 3.53-1.35 0-2.61-1.42-3.13-3.53-.08-.34-.34-.6-.67-.7-.19-.14-.51-.68-.63-1.31zm-2.84 9.01c1.76-.53 3.68-1.55 4.93-2.28.71.48 1.49.75 2.32.75.82 0 1.61-.27 2.32-.75 1.25.73 3.17 1.75 4.93 2.28 2.09.63 2.65 3.15 2.8 4.41-6.67 1.73-13.42 1.73-20.09 0 .13-1.26.69-3.78 2.79-4.41z"/><path d="m20.6 51.54h26.25c.54 0 .97-.43.97-.97v-7.58c0-.54-.43-.97-.97-.97h-26.25c-.54 0-.97.43-.97.97v7.58c0 .54.43.97.97.97zm.97-7.58h24.31v5.64h-24.31z"/></g></g></svg>