<svg id="Layer_1" enable-background="new 0 0 512 512" viewBox="0 0 512 512" xmlns="http://www.w3.org/2000/svg"><path d="m381.064 178.639c-4.418 0-8 3.582-8 8v100.977c0 4.418 3.582 8 8 8h40.232c4.418 0 8-3.582 8-8v-100.977c0-4.418-3.582-8-8-8zm32.232 100.976h-24.232v-84.977h24.232zm-181.642-60.537c-4.418 0-8 3.582-8 8v60.536c0 4.418 3.582 8 8 8h40.232c4.418 0 8-3.582 8-8v-60.536c0-4.418-3.582-8-8-8zm32.232 60.536h-24.232v-44.536h24.232zm232.114-181.188h-40.232c-4.418 0-8 3.582-8 8v181.188c0 4.418 3.582 8 8 8h40.232c4.418 0 8-3.582 8-8v-181.188c0-4.418-3.582-8-8-8zm-8 181.188h-24.232v-165.188h24.232zm-181.641-128.414c-4.418 0-8 3.582-8 8v128.415c0 4.418 3.582 8 8 8h40.232c4.418 0 8-3.582 8-8v-128.415c0-4.418-3.582-8-8-8zm32.232 128.415h-24.232v-112.415h24.232zm-37.375-170.455c0 2.946.512 5.773 1.443 8.404l-36.91 28.741c-4.006-2.673-8.813-4.234-13.979-4.234-13.928 0-25.259 11.331-25.259 25.259s11.331 25.259 25.259 25.259c13.927 0 25.258-11.331 25.258-25.259 0-2.946-.512-5.773-1.443-8.404l36.911-28.741c4.006 2.672 8.813 4.234 13.979 4.234 9.279 0 17.401-5.033 21.792-12.509l27.828 5.842c1.447 12.562 12.142 22.352 25.086 22.352 13.927 0 25.258-11.331 25.258-25.258 0-3.553-.741-6.936-2.071-10.006l39.001-34.883c3.693 2.116 7.963 3.333 12.516 3.333 13.927 0 25.258-11.331 25.258-25.259s-11.331-25.259-25.258-25.259-25.258 11.331-25.258 25.259c0 3.553.741 6.935 2.071 10.005l-39.001 34.883c-3.692-2.116-7.963-3.333-12.515-3.333-9.279 0-17.4 5.033-21.791 12.509l-27.829-5.843c-1.447-12.562-12.142-22.351-25.086-22.351-13.929.001-25.26 11.332-25.26 25.259zm-49.446 67.429c-5.105 0-9.259-4.153-9.259-9.259s4.153-9.259 9.259-9.259c5.105 0 9.258 4.153 9.258 9.259s-4.153 9.259-9.258 9.259zm224.114-127.817c5.105 0 9.258 4.153 9.258 9.259s-4.153 9.259-9.258 9.259-9.258-4.153-9.258-9.259 4.153-9.259 9.258-9.259zm-74.704 66.815c5.105 0 9.258 4.153 9.258 9.259 0 5.104-4.153 9.258-9.258 9.258s-9.258-4.153-9.258-9.258c0-5.106 4.153-9.259 9.258-9.259zm-74.705-15.685c5.105 0 9.259 4.153 9.259 9.258s-4.153 9.259-9.259 9.259c-5.105 0-9.258-4.153-9.258-9.259-.001-5.104 4.153-9.258 9.258-9.258zm164.195 201.74h-253.7c-4.804 0-9.009 2.563-11.356 6.384-31.073-19.729-49.966-53.711-49.966-91.09 0-59.533 48.433-107.967 107.966-107.967 2.008 0 4.036.056 6.026.165 4.411.258 8.185-3.135 8.429-7.547.244-4.411-3.135-8.185-7.547-8.429-2.283-.126-4.607-.189-6.908-.189-68.355 0-123.966 55.611-123.966 123.967 0 45.513 24.395 86.638 63.992 108.51v14.352c-46.335-22.721-76.737-70.678-76.737-122.86 0-75.383 61.328-136.711 136.71-136.711 8.931 0 17.86.866 26.54 2.573 4.336.852 8.541-1.971 9.394-6.306s-1.97-8.541-6.305-9.394c-9.695-1.907-19.663-2.874-29.628-2.874-84.205 0-152.71 68.506-152.71 152.711 0 29.245 8.213 57.405 23.793 81.87l-35.405 34.355c-3.111-1.822-6.651-2.838-10.365-2.894-.11-.001-.22-.002-.33-.002-5.539 0-10.755 2.108-14.722 5.957l-79.468 77.115c-4.044 3.925-6.318 9.203-6.404 14.862-.085 5.661 2.029 11.006 5.955 15.051l28.691 29.569c4.142 4.268 9.659 6.411 15.184 6.411 5.311 0 10.628-1.981 14.731-5.963l79.468-77.111c4.045-3.925 6.32-9.204 6.405-14.866.056-3.714-.852-7.283-2.58-10.448l34.195-33.181c10.255 7.957 21.518 14.601 33.589 19.753v97.314c0 7.35 5.979 13.329 13.33 13.329h253.699c7.35 0 13.33-5.979 13.33-13.329v-139.758c0-7.35-5.979-13.329-13.33-13.329zm-349.78 83.033-79.468 77.111c-2.005 1.946-5.344 1.897-7.291-.107l-28.692-29.569c-.949-.978-1.459-2.279-1.438-3.666s.571-2.674 1.549-3.623l79.468-77.114c.978-.949 2.279-1.502 3.667-1.438 1.388.021 2.675.57 3.623 1.548l28.692 29.567c.949.978 1.46 2.28 1.439 3.668-.021 1.387-.571 2.674-1.549 3.623zm4.387-25.859-14.281-14.717 33.103-32.122c4.281 5.386 8.892 10.453 13.807 15.176zm342.723 93.243h-248.36v-134.417h248.36zm-230.533-23.725c4.134.52 7.384 3.77 7.904 7.903.656 5.223 5.12 9.161 10.384 9.161h176.13c5.264 0 9.728-3.938 10.384-9.16.52-4.135 3.77-7.385 7.907-7.904 5.221-.658 9.158-5.122 9.158-10.384v-66.2c0-5.262-3.937-9.726-9.162-10.384-4.134-.52-7.384-3.77-7.903-7.903-.656-5.223-5.12-9.161-10.383-9.161h-176.131c-5.264 0-9.728 3.938-10.384 9.16-.52 4.135-3.77 7.385-7.906 7.904-5.222.658-9.159 5.122-9.159 10.384v66.2c0 5.262 3.938 9.726 9.161 10.384zm6.839-72.193c7.466-2.494 13.344-8.372 15.839-15.839h167.35c2.495 7.468 8.374 13.346 15.839 15.839v57.419c-7.466 2.495-13.344 8.372-15.839 15.839h-167.35c-2.495-7.467-8.373-13.345-15.839-15.839zm165.904 28.709c0-5.335 4.325-9.661 9.661-9.661 5.335 0 9.66 4.325 9.66 9.661s-4.325 9.66-9.66 9.66c-5.336 0-9.661-4.325-9.661-9.66zm-152.101 0c0-5.335 4.325-9.661 9.66-9.661s9.66 4.325 9.66 9.661-4.325 9.66-9.66 9.66-9.66-4.325-9.66-9.66zm93.913 14.903c.296-.342.551-.735.424-1.783-.141-1.157-.47-3.868-9.875-5.412-18.173-2.985-21.376-13.52-21.668-19.533-.457-9.399 5.455-17.353 14.917-20.411v-.622c0-4.418 3.582-8 8-8s8 3.582 8 8v.515c6.494 2.091 11.871 6.823 14.663 13.474 1.71 4.073-.205 8.763-4.279 10.473-4.073 1.711-8.762-.205-10.473-4.279-2.079-4.95-7.312-5.21-10.078-4.584-1.159.263-4.929 1.376-4.769 4.659.103 2.114 2.888 3.636 8.279 4.521 14.1 2.315 21.894 8.8 23.165 19.273.648 5.345-.806 10.247-4.206 14.179-2.926 3.382-7.284 5.879-12.303 7.166v.322c0 4.418-3.582 8-8 8s-8-3.582-8-8v-.466c-8.2-2.383-14.4-8.385-16.42-16.489-1.069-4.287 1.54-8.629 5.827-9.698 4.286-1.069 8.629 1.541 9.697 5.827 1.044 4.188 5.697 5.578 9.383 5.483 3.657-.089 6.65-1.382 7.716-2.615z"/></svg>