<svg height="512" viewBox="0 0 128 128" width="512" xmlns="http://www.w3.org/2000/svg"><g fill="rgb(0,0,0)"><path d="m70.685 19.3a6.685 6.685 0 1 0 -6.685 6.681 6.693 6.693 0 0 0 6.685-6.681zm-6.685 3.181a3.184 3.184 0 1 1 3.185-3.181 3.187 3.187 0 0 1 -3.185 3.181z"/><path d="m112.055 65.243a1.748 1.748 0 0 0 -1.845-.085l-20.717 11.573a1.75 1.75 0 0 0 .284 3.183l4.023 1.386c-3.353 3.86-11.661 12.608-21.375 16.79l-1.215-46.65h10.071a1.749 1.749 0 0 0 1.75-1.75v-7.084a1.75 1.75 0 0 0 -1.75-1.75h-10.346l-.221-8.438a14.741 14.741 0 1 0 -13.428 0l-.221 8.438h-10.346a1.75 1.75 0 0 0 -1.75 1.75v7.084a1.749 1.749 0 0 0 1.75 1.75h10.071l-1.219 46.648c-9.714-4.182-18.022-12.93-21.371-16.788l4.027-1.384a1.751 1.751 0 0 0 .284-3.183l-20.721-11.575a1.75 1.75 0 0 0 -2.59 1.777l3.533 24.6a1.75 1.75 0 0 0 3.207.694l2.63-4.116c4.759 7.515 18.231 26.316 38.731 35.189a1.758 1.758 0 0 0 1.39 0c20.5-8.873 33.972-27.674 38.731-35.189l2.63 4.116a1.75 1.75 0 0 0 3.207-.694l3.533-24.6a1.751 1.751 0 0 0 -.737-1.692zm-5.587 21.129-1.6-2.51a1.748 1.748 0 0 0 -1.474-.807h-.038a1.749 1.749 0 0 0 -1.476.872c-1.528 2.633-15.458 25.8-37.876 35.854-22.422-10.053-36.352-33.221-37.88-35.854a1.75 1.75 0 0 0 -1.477-.872h-.037a1.748 1.748 0 0 0 -1.474.807l-1.6 2.51-2.36-16.433 14.21 7.938-2.724.936a1.75 1.75 0 0 0 -.816 2.724c.492.638 12.22 15.68 26.842 20.735a1.749 1.749 0 0 0 2.321-1.608l1.33-50.928a1.751 1.751 0 0 0 -1.749-1.8h-10.121v-3.58h10.3a1.748 1.748 0 0 0 1.749-1.7l.291-11.106a1.753 1.753 0 0 0 -1.071-1.85 11.241 11.241 0 1 1 8.522 0 1.747 1.747 0 0 0 -1.073 1.8l.292 11.159a1.75 1.75 0 0 0 1.749 1.7h10.3v3.581h-10.114a1.75 1.75 0 0 0 -1.749 1.8l1.335 50.924a1.749 1.749 0 0 0 2.321 1.608c14.621-5.055 26.35-20.1 26.842-20.735a1.75 1.75 0 0 0 -.816-2.724l-2.724-.936 14.21-7.938z"/></g></svg>