<?xml version="1.0" encoding="iso-8859-1"?>
<!-- Generator: Adobe Illustrator 19.0.0, SVG Export Plug-In . SVG Version: 6.00 Build 0)  -->
<svg version="1.1" id="Layer_1" xmlns="http://www.w3.org/2000/svg" xmlns:xlink="http://www.w3.org/1999/xlink" x="0px" y="0px"
	 viewBox="0 0 496.688 496.688" style="enable-background:new 0 0 496.688 496.688;" xml:space="preserve">
<g>
	<g>
		<g>
			<path d="M128,32.004H32v224h96V32.004z M112,240.004H48v-192h64V240.004z"/>
			<path d="M80,432.004c26.472,0,48-21.528,48-48s-21.528-48-48-48s-48,21.528-48,48S53.528,432.004,80,432.004z M80,352.004
				c17.648,0,32,14.352,32,32s-14.352,32-32,32s-32-14.352-32-32S62.352,352.004,80,352.004z"/>
			<rect x="32" y="272.004" width="64" height="16"/>
			<rect x="112" y="272.004" width="16" height="16"/>
			<path d="M272,32.004h-96v224h96V32.004z M256,240.004h-64v-192h64V240.004z"/>
			<path d="M224,432.004c26.472,0,48-21.528,48-48s-21.528-48-48-48s-48,21.528-48,48S197.528,432.004,224,432.004z M224,352.004
				c17.648,0,32,14.352,32,32s-14.352,32-32,32s-32-14.352-32-32S206.352,352.004,224,352.004z"/>
			<rect x="176" y="272.004" width="64" height="16"/>
			<rect x="256" y="272.004" width="16" height="16"/>
			<path d="M453.496,4.38L304,17.7V0.004H160h-8H0v496h152h8h144V129.292l32.744,367.392l159.944-14.256L453.496,4.38z M144,480.004
				H16v-464h128V480.004z M288,480.004H160v-464h128V480.004z M311.496,33.092l127.496-11.36l40.32,446.184l-128.056,11.408
				L311.496,33.092z"/>
			<path d="M424.472,39.084l-95.632,8.528l18.472,207.176l95.616-8.52L424.472,39.084z M346.2,62.124l63.752-5.68l15.616,175.304
				l-63.744,5.68L346.2,62.124z"/>
			<path d="M454.296,373.764c-2.344-26.368-25.616-45.92-52.08-43.552c-26.36,2.352-45.896,25.712-43.544,52.072
				c1.144,12.768,7.176,24.336,17.016,32.56c8.72,7.288,19.488,11.184,30.712,11.184c1.448,0,2.888-0.064,4.344-0.192
				C437.112,423.484,456.648,400.124,454.296,373.764z M409.32,409.9c-8.512,0.768-16.816-1.84-23.368-7.328
				c-6.552-5.488-10.584-13.192-11.344-21.704c-1.568-17.576,11.456-33.152,29.032-34.712c0.96-0.088,1.912-0.128,2.864-0.128
				c16.376,0,30.376,12.552,31.848,29.168C439.928,392.756,426.896,408.332,409.32,409.9z"/>
			
				<rect x="349.298" y="267.842" transform="matrix(0.996 -0.0888 0.0888 0.996 -22.9895 34.9503)" width="63.989" height="15.999"/>
			
				<rect x="429.084" y="262.856" transform="matrix(-0.996 0.0889 -0.0889 -0.996 896.5178 501.7792)" width="15.999" height="15.999"/>
		</g>
	</g>
</g>
<g>
</g>
<g>
</g>
<g>
</g>
<g>
</g>
<g>
</g>
<g>
</g>
<g>
</g>
<g>
</g>
<g>
</g>
<g>
</g>
<g>
</g>
<g>
</g>
<g>
</g>
<g>
</g>
<g>
</g>
</svg>
