<svg id="Layer_1" enable-background="new 0 0 512 512" viewBox="0 0 512 512" xmlns="http://www.w3.org/2000/svg"><path d="m131.023 174.496h-52.424c-8.185 0-14.843 6.659-14.843 14.844v52.425c0 8.185 6.659 14.844 14.843 14.844h52.425c8.185 0 14.844-6.659 14.844-14.844v-52.425c-.001-8.185-6.66-14.844-14.845-14.844zm-1.156 66.112h-50.112v-50.112h50.112zm-44.658-20.754c-3.124-3.125-3.124-8.189 0-11.314 3.124-3.123 8.189-3.123 11.313 0l5.207 5.207 10.808-13.361c2.779-3.435 7.816-3.968 11.251-1.188 3.435 2.778 3.967 7.816 1.188 11.251l-16.399 20.272c-1.426 1.764-3.534 2.838-5.799 2.958-.141.007-.281.011-.421.011-2.116 0-4.152-.839-5.656-2.343zm45.814 49.008h-52.424c-8.185 0-14.843 6.659-14.843 14.844v52.425c0 8.185 6.659 14.844 14.843 14.844h52.425c8.185 0 14.844-6.659 14.844-14.844v-52.425c-.001-8.185-6.66-14.844-14.845-14.844zm-1.156 66.113h-50.112v-50.112h50.112zm-44.658-20.755c-3.124-3.125-3.124-8.189 0-11.314 3.124-3.123 8.189-3.123 11.313 0l5.207 5.207 10.808-13.361c2.779-3.436 7.816-3.968 11.251-1.188 3.435 2.778 3.967 7.816 1.188 11.251l-16.399 20.272c-1.426 1.764-3.534 2.838-5.799 2.958-.141.007-.281.011-.421.011-2.116 0-4.152-.839-5.656-2.343zm45.814 49.009h-52.424c-8.185 0-14.843 6.659-14.843 14.844v52.425c0 8.185 6.659 14.843 14.843 14.843h52.425c8.185 0 14.844-6.658 14.844-14.843v-52.425c-.001-8.185-6.66-14.844-14.845-14.844zm-1.156 66.111h-50.112v-50.111h50.112zm-44.658-20.754c-3.124-3.125-3.124-8.189 0-11.314 3.124-3.123 8.189-3.123 11.313 0l5.207 5.207 10.808-13.361c2.779-3.435 7.816-3.969 11.251-1.188 3.435 2.778 3.967 7.816 1.188 11.251l-16.399 20.272c-1.426 1.764-3.534 2.838-5.799 2.958-.141.007-.281.011-.421.011-2.116 0-4.152-.839-5.656-2.343zm94.431-214.596h85.828c4.418 0 8 3.582 8 8s-3.582 8-8 8h-85.828c-4.418 0-8-3.582-8-8s3.582-8 8-8zm63.869 35.124c0 4.418-3.582 8-8 8h-55.869c-4.418 0-8-3.582-8-8s3.582-8 8-8h55.869c4.418 0 8 3.582 8 8zm29.959 161.609c0 4.418-3.582 8-8 8h-85.828c-4.418 0-8-3.582-8-8s3.582-8 8-8h85.828c4.418 0 8 3.582 8 8zm-29.959 27.124c0 4.418-3.582 8-8 8h-55.869c-4.418 0-8-3.582-8-8s3.582-8 8-8h55.869c4.418 0 8 3.582 8 8zm-179.753-287.931c0-4.418 3.582-8 8-8h148.369c4.418 0 8 3.582 8 8s-3.582 8-8 8h-148.369c-4.419 0-8-3.582-8-8zm435.344 288.399-49.363-47.9c-3.093-3.004-7.193-4.653-11.506-4.556-2.027.03-3.984.441-5.807 1.174l-18.744-18.188c8.867-14.722 13.975-31.952 13.975-50.354 0-30.031-13.597-56.941-34.953-74.913v-139.342c0-4.36-1.629-8.296-4.714-11.383l-45.461-45.46c-3.084-3.084-7.02-4.714-11.381-4.714h-248.208c-8.875 0-16.097 7.221-16.097 16.097v32.937h-42.744c-8.876 0-16.097 7.222-16.097 16.098v385.413c0 8.876 7.221 16.097 16.097 16.097h293.667c8.875 0 16.096-7.221 16.096-16.097v-32.937h42.744c8.875 0 16.097-7.221 16.097-16.097v-41.809l12.788 12.409c-.677 1.844-1.03 3.812-.999 5.839.065 4.326 1.805 8.362 4.898 11.362l49.365 47.902c3.034 2.943 7.022 4.556 11.254 4.556.083 0 .167-.001.25-.002 4.326-.064 8.361-1.805 11.363-4.898l17.822-18.367c6.211-6.398 6.057-16.656-.342-22.867zm-78.819-40.77-4.65 4.792-15.915-15.443c1.557-1.592 3.061-3.236 4.508-4.93zm-8.626-79.055c0 45.154-36.736 81.891-81.891 81.891s-81.891-36.736-81.891-81.891 36.736-81.892 81.891-81.892 81.891 36.737 81.891 81.892zm-127.997-199.462 22.889 22.888h-22.889zm81.731-26.145h-22.89v-22.89zm-282.548-34.107c0-.042.055-.097.097-.097h243.561v38.154c0 6.644 5.405 12.049 12.048 12.049h38.155v123.725c-12.818-7.033-27.372-11.277-42.841-11.917v-67.42c0-4.36-1.629-8.296-4.714-11.383l-45.462-45.46c-3.085-3.085-7.021-4.715-11.381-4.715h-189.463zm234.924 434.544h-293.668c-.042 0-.097-.055-.097-.097v-385.412c0-.042.055-.098.097-.098h243.561v38.155c0 6.644 5.405 12.048 12.048 12.048h38.155v63.408c-45.07 5.488-80.785 41.722-85.466 87.033h-52.755c-4.418 0-8 3.582-8 8s3.582 8 8 8h52.413c.224 3.769.658 7.481 1.299 11.124h-53.712c-4.418 0-8 3.582-8 8s3.582 8 8 8h55.869c.691 0 1.358-.097 1.998-.262 12.217 34.335 43.085 59.899 80.354 64.437v77.568c0 .042-.055.096-.096.096zm58.84-49.033h-42.744v-27.998c15.469-.64 30.023-4.883 42.841-11.917v39.818c0 .041-.056.097-.097.097zm111.356 5.753-17.823 18.367c0 .001 0 .001-.001.001-.057.059-.185.058-.242.003l-49.365-47.902c-.058-.057-.059-.185-.003-.242l17.822-18.367c.029-.03.076-.045.124-.045.046 0 .091.014.12.042l49.364 47.9c.055.054.058.188.004.243zm-158.198-203.856c-39.869 0-72.305 32.436-72.305 72.305s32.436 72.305 72.305 72.305 72.305-32.436 72.305-72.305-32.436-72.305-72.305-72.305zm0 128.609c-31.047 0-56.305-25.258-56.305-56.305s25.258-56.305 56.305-56.305 56.305 25.258 56.305 56.305-25.258 56.305-56.305 56.305zm28.458-42.216c.737 6.07-.908 11.631-4.757 16.082-3.646 4.216-9.256 7.243-15.701 8.614v1.907c0 4.418-3.582 8-8 8s-8-3.582-8-8v-2.045c-10.189-2.482-17.949-9.62-20.392-19.414-1.069-4.287 1.54-8.629 5.827-9.698 4.286-1.063 8.628 1.54 9.698 5.827 1.566 6.28 8.234 8.368 13.516 8.236 4.63-.109 9.031-1.675 10.951-3.895.617-.714 1.215-1.71.976-3.688-.226-1.858-.754-6.21-13.812-8.354-21.182-3.479-24.904-15.528-25.238-22.4-.542-11.171 6.83-20.567 18.475-23.763v-2.192c0-4.418 3.582-8 8-8s8 3.582 8 8v2.119c7.512 1.98 14.544 6.978 18.308 15.942 1.71 4.073-.205 8.763-4.279 10.473-4.076 1.711-8.763-.205-10.473-4.279-3.063-7.296-10.656-7.706-14.661-6.799-1.802.408-7.659 2.173-7.389 7.723.073 1.501.266 5.485 11.849 7.388 16.523 2.714 25.642 10.189 27.102 22.216z"/></svg>