<svg id="Layer_3" height="512" viewBox="0 0 64 64" width="512" xmlns="http://www.w3.org/2000/svg" data-name="Layer 3"><path d="m62 10h-1.466a9.858 9.858 0 0 0 -.673-1.619l1.039-1.038a1 1 0 0 0 0-1.414l-2.829-2.829a1 1 0 0 0 -1.414 0l-1.038 1.038a9.9 9.9 0 0 0 -1.619-.672v-1.466a1 1 0 0 0 -1-1h-4a1 1 0 0 0 -1 1v1.466a9.9 9.9 0 0 0 -1.619.672l-1.038-1.038a1.029 1.029 0 0 0 -1.414 0l-2.829 2.829a1 1 0 0 0 0 1.414l1.038 1.038a9.858 9.858 0 0 0 -.672 1.619h-1.466a1 1 0 0 0 -1 1v4a1 1 0 0 0 1 1h1.466a9.858 9.858 0 0 0 .673 1.619l-1.039 1.038a1 1 0 0 0 0 1.414l2.829 2.829a1 1 0 0 0 1.414 0l1.038-1.038a9.858 9.858 0 0 0 1.619.672v1.466a1 1 0 0 0 1 1h4a1 1 0 0 0 1-1v-1.466a9.858 9.858 0 0 0 1.619-.673l1.038 1.039a1.029 1.029 0 0 0 1.414 0l2.829-2.829a1 1 0 0 0 0-1.414l-1.038-1.038a9.858 9.858 0 0 0 .672-1.619h1.466a1 1 0 0 0 1-1v-4a1 1 0 0 0 -1-1zm-1 4h-1.23a1 1 0 0 0 -.975.778 7.959 7.959 0 0 1 -1.027 2.473 1 1 0 0 0 .138 1.241l.872.872-1.414 1.414-.872-.872a1 1 0 0 0 -1.24-.139 7.918 7.918 0 0 1 -2.474 1.027 1 1 0 0 0 -.778.975v1.231h-2v-1.231a1 1 0 0 0 -.778-.975 7.918 7.918 0 0 1 -2.474-1.027 1 1 0 0 0 -1.24.139l-.872.872-1.414-1.414.872-.872a1 1 0 0 0 .138-1.241 7.959 7.959 0 0 1 -1.027-2.473 1 1 0 0 0 -.975-.778h-1.23v-2h1.23a1 1 0 0 0 .975-.778 7.959 7.959 0 0 1 1.027-2.473 1 1 0 0 0 -.138-1.241l-.872-.872 1.414-1.414.872.872a1 1 0 0 0 1.24.139 7.913 7.913 0 0 1 2.474-1.027 1 1 0 0 0 .778-.976v-1.23h2v1.23a1 1 0 0 0 .778.976 7.913 7.913 0 0 1 2.474 1.027 1 1 0 0 0 1.24-.139l.872-.872 1.414 1.414-.872.872a1 1 0 0 0 -.138 1.241 7.959 7.959 0 0 1 1.032 2.473 1 1 0 0 0 .97.778h1.23z"/><path d="m51 7a6 6 0 1 0 6 6 6.006 6.006 0 0 0 -6-6zm0 10a4 4 0 1 1 4-4 4 4 0 0 1 -4 4z"/><path d="m7 5h3v2h-3z"/><path d="m5 9h10v2h-10z"/><path d="m5 13h10v2h-10z"/><path d="m5 17h8v2h-8z"/><path d="m7 41h3v2h-3z"/><path d="m5 45h10v2h-10z"/><path d="m5 49h10v2h-10z"/><path d="m5 53h10v2h-10z"/><path d="m28.707 37.293a1 1 0 0 0 -.707-.293h-11a1 1 0 0 0 -1 1v1.586l-2.293-2.293a1 1 0 0 0 -.707-.293h-4v-10h2.059a9.025 9.025 0 1 0 7.941-9.941v-10.059a1 1 0 0 0 -.293-.707l-5-5a1 1 0 0 0 -.707-.293h-11a1 1 0 0 0 -1 1v24a1 1 0 0 0 1 1h5v10h-5a1 1 0 0 0 -1 1v24a1 1 0 0 0 1 1h31a1 1 0 0 0 1-1v-19a1 1 0 0 0 -.293-.707zm-1.707-11.293a7 7 0 1 1 -7-7 7.008 7.008 0 0 1 7 7zm-13-21.586 1.586 1.586h-1.586zm-11-1.414h9v4a1 1 0 0 0 1 1h4v9.525a9.014 9.014 0 0 0 -5.941 7.475h-8.059zm26 37.414 1.586 1.586h-1.586zm-15 0 1.586 1.586h-1.586zm-11 20.586v-22h9v4a1 1 0 0 0 1 1h4v17zm16 0v-18a1 1 0 0 0 -.293-.707l-.707-.707v-2.586h9v4a1 1 0 0 0 1 1h4v17z"/><path d="m22 41h3v2h-3z"/><path d="m20 45h10v2h-10z"/><path d="m20 49h10v2h-10z"/><path d="m20 53h10v2h-10z"/><path d="m20 27h5v-2h-4v-3h-2v4a1 1 0 0 0 1 1z"/><path d="m30.641 7.232a1 1 0 0 0 -1.641.768v2h-7a1 1 0 0 0 -1 1v4a1 1 0 0 0 1 1h7v2a1 1 0 0 0 1.641.768l6-5a1 1 0 0 0 0-1.536zm.359 8.633v-.865a1 1 0 0 0 -1-1h-7v-2h7a1 1 0 0 0 1-1v-.865l3.438 2.865z"/><path d="m53 26h-4a1 1 0 0 0 -1 1v5h-2a1 1 0 0 0 -.769 1.64l5 6a1 1 0 0 0 1.538 0l5-6a1 1 0 0 0 -.769-1.64h-2v-5a1 1 0 0 0 -1-1zm-2 11.438-2.865-3.438h.865a1 1 0 0 0 1-1v-5h2v5a1 1 0 0 0 1 1h.865z"/><path d="m51 41a11 11 0 1 0 11 11 11.013 11.013 0 0 0 -11-11zm0 20a9 9 0 1 1 9-9 9.01 9.01 0 0 1 -9 9z"/><path d="m53.293 46.293-4.293 4.293-1.293-1.293a1 1 0 0 0 -1.414 0l-3 3a1 1 0 0 0 0 1.414l5 5a1 1 0 0 0 1.414 0l8-8a1 1 0 0 0 0-1.414l-3-3a1 1 0 0 0 -1.414 0zm-4.293 10.293-3.586-3.586 1.586-1.586 1.293 1.293a1 1 0 0 0 1.414 0l4.293-4.293 1.586 1.586z"/></svg>