<?xml version="1.0" encoding="UTF-8" standalone="no"?>
<!-- Created with Inkscape (http://www.inkscape.org/) -->

<svg
   version="1.1"
   id="svg3228"
   xml:space="preserve"
   width="682.66669"
   height="682.66669"
   viewBox="0 0 682.66669 682.66669"
   xmlns="http://www.w3.org/2000/svg"
   xmlns:svg="http://www.w3.org/2000/svg"><defs
     id="defs3232"><clipPath
       clipPathUnits="userSpaceOnUse"
       id="clipPath3246"><path
         d="M 0,512 H 512 V 0 H 0 Z"
         id="path3244" /></clipPath></defs><g
     id="g3234"
     transform="matrix(1.3333333,0,0,-1.3333333,0,682.66667)"><g
       id="g3236"
       transform="translate(191.3496,431.7681)"><path
         d="M 0,0 V 36.366 H 129.301 V 0"
         style="fill:none;stroke:#000000;stroke-width:15;stroke-linecap:round;stroke-linejoin:round;stroke-miterlimit:10;stroke-dasharray:none;stroke-opacity:1"
         id="path3238" /></g><g
       id="g3240"><g
         id="g3242"
         clip-path="url(#clipPath3246)"><g
           id="g3248"
           transform="translate(357.0166,431.7681)"><path
             d="M 0,0 V 54.549 C 0,64.591 -8.141,72.732 -18.184,72.732 H -183.85 c -10.043,0 -18.183,-8.141 -18.183,-18.183 V 0"
             style="fill:none;stroke:#000000;stroke-width:15;stroke-linecap:round;stroke-linejoin:round;stroke-miterlimit:10;stroke-dasharray:none;stroke-opacity:1"
             id="path3250" /></g><g
           id="g3252"
           transform="translate(142.8613,397.4229)"><path
             d="M 0,0 V 34.345 H 60.61 V 0"
             style="fill:none;stroke:#000000;stroke-width:15;stroke-linecap:round;stroke-linejoin:round;stroke-miterlimit:10;stroke-dasharray:none;stroke-opacity:1"
             id="path3254" /></g><g
           id="g3256"
           transform="translate(369.1387,397.4229)"><path
             d="M 0,0 V 34.345 H -60.61 V 0"
             style="fill:none;stroke:#000000;stroke-width:15;stroke-linecap:round;stroke-linejoin:round;stroke-miterlimit:10;stroke-dasharray:none;stroke-opacity:1"
             id="path3258" /></g><g
           id="g3260"
           transform="translate(488.3369,238.8271)"><path
             d="m 0,0 v -211.124 c 0,-11.158 -9.045,-20.203 -20.203,-20.203 h -424.268 c -11.158,0 -20.203,9.045 -20.203,20.203 V 0"
             style="fill:none;stroke:#000000;stroke-width:15;stroke-linecap:round;stroke-linejoin:round;stroke-miterlimit:10;stroke-dasharray:none;stroke-opacity:1"
             id="path3262" /></g><g
           id="g3264"
           transform="translate(112.5566,260.0405)"><path
             d="M 0,0 V 137.382"
             style="fill:none;stroke:#000000;stroke-width:15;stroke-linecap:round;stroke-linejoin:round;stroke-miterlimit:10;stroke-dasharray:none;stroke-opacity:1"
             id="path3266" /></g><g
           id="g3268"
           transform="translate(80.2314,316.0713)"><path
             d="M 0,0 V -56.031"
             style="fill:none;stroke:#000000;stroke-width:15;stroke-linecap:round;stroke-linejoin:round;stroke-miterlimit:10;stroke-dasharray:none;stroke-opacity:1"
             id="path3270" /></g><g
           id="g3272"
           transform="translate(80.2314,397.4229)"><path
             d="M 0,0 V -46.329"
             style="fill:none;stroke:#000000;stroke-width:15;stroke-linecap:round;stroke-linejoin:round;stroke-miterlimit:10;stroke-dasharray:none;stroke-opacity:1"
             id="path3274" /></g><g
           id="g3276"
           transform="translate(126.6992,225.6953)"><path
             d="M 0,0 V 34.345 H -60.609 V 0"
             style="fill:none;stroke:#000000;stroke-width:15;stroke-linecap:round;stroke-linejoin:round;stroke-miterlimit:10;stroke-dasharray:none;stroke-opacity:1"
             id="path3278" /></g><g
           id="g3280"
           transform="translate(112.5566,7.5)"><path
             d="M 0,0 V 218.195"
             style="fill:none;stroke:#000000;stroke-width:15;stroke-linecap:round;stroke-linejoin:round;stroke-miterlimit:10;stroke-dasharray:none;stroke-opacity:1"
             id="path3282" /></g><g
           id="g3284"
           transform="translate(80.2314,225.6953)"><path
             d="M 0,0 V -218.195"
             style="fill:none;stroke:#000000;stroke-width:15;stroke-linecap:round;stroke-linejoin:round;stroke-miterlimit:10;stroke-dasharray:none;stroke-opacity:1"
             id="path3286" /></g><g
           id="g3288"
           transform="translate(286.3047,225.6953)"><path
             d="m 0,0 v -30.305 c 0,-16.737 -13.567,-30.305 -30.305,-30.305 -16.737,0 -30.304,13.568 -30.304,30.305 V 0"
             style="fill:none;stroke:#000000;stroke-width:15;stroke-linecap:round;stroke-linejoin:round;stroke-miterlimit:10;stroke-dasharray:none;stroke-opacity:1"
             id="path3290" /></g><g
           id="g3292"
           transform="translate(399.4434,260.0405)"><path
             d="M 0,0 V 137.382"
             style="fill:none;stroke:#000000;stroke-width:15;stroke-linecap:round;stroke-linejoin:round;stroke-miterlimit:10;stroke-dasharray:none;stroke-opacity:1"
             id="path3294" /></g><g
           id="g3296"
           transform="translate(431.7686,397.4229)"><path
             d="M 0,0 V -137.382"
             style="fill:none;stroke:#000000;stroke-width:15;stroke-linecap:round;stroke-linejoin:round;stroke-miterlimit:10;stroke-dasharray:none;stroke-opacity:1"
             id="path3298" /></g><g
           id="g3300"
           transform="translate(385.3008,225.6953)"><path
             d="M 0,0 V 34.345 H 60.609 V 0"
             style="fill:none;stroke:#000000;stroke-width:15;stroke-linecap:round;stroke-linejoin:round;stroke-miterlimit:10;stroke-dasharray:none;stroke-opacity:1"
             id="path3302" /></g><g
           id="g3304"
           transform="translate(399.4434,7.5)"><path
             d="M 0,0 V 218.195"
             style="fill:none;stroke:#000000;stroke-width:15;stroke-linecap:round;stroke-linejoin:round;stroke-miterlimit:10;stroke-dasharray:none;stroke-opacity:1"
             id="path3306" /></g><g
           id="g3308"
           transform="translate(431.7686,107.3569)"><path
             d="M 0,0 V -99.857"
             style="fill:none;stroke:#000000;stroke-width:15;stroke-linecap:round;stroke-linejoin:round;stroke-miterlimit:10;stroke-dasharray:none;stroke-opacity:1"
             id="path3310" /></g><g
           id="g3312"
           transform="translate(431.7686,225.6953)"><path
             d="M 0,0 V -83.29"
             style="fill:none;stroke:#000000;stroke-width:15;stroke-linecap:round;stroke-linejoin:round;stroke-miterlimit:10;stroke-dasharray:none;stroke-opacity:1"
             id="path3314" /></g><g
           id="g3316"
           transform="translate(306.3926,225.6953)"><path
             d="m 0,0 h -248.385 c -27.894,0 -50.508,22.613 -50.508,50.508 v 101.016 c 0,11.158 9.045,20.204 20.204,20.204 h 456.593 c 11.158,0 20.203,-9.046 20.203,-20.204 V 50.508 C 198.107,22.613 175.494,0 147.6,0 H 35.106"
             style="fill:none;stroke:#000000;stroke-width:15;stroke-linecap:round;stroke-linejoin:round;stroke-miterlimit:10;stroke-dasharray:none;stroke-opacity:1"
             id="path3318" /></g></g></g></g></svg>
