<svg id="Layer_1" enable-background="new 0 0 512 512" viewBox="0 0 512 512" xmlns="http://www.w3.org/2000/svg"><path d="m179.012 293.651c-34.727 0-62.979 28.252-62.979 62.979s28.252 62.979 62.979 62.979 62.979-28.252 62.979-62.979-28.253-62.979-62.979-62.979zm0 111.957c-27.007 0-48.979-21.972-48.979-48.979s21.972-48.979 48.979-48.979 48.979 21.972 48.979 48.979-21.972 48.979-48.979 48.979zm231.5-187.971c-18.266 0-37.924 5.862-37.924 18.732s19.658 18.732 37.924 18.732 37.925-5.862 37.925-18.732-19.66-18.732-37.925-18.732zm0 23.464c-12.023 0-20.086-2.723-23.055-4.732 2.969-2.009 11.031-4.732 23.055-4.732s20.086 2.723 23.056 4.732c-2.97 2.009-11.033 4.732-23.056 4.732zm85.488-170.865h-22.595c-1.143-6.815-7.067-12.03-14.202-12.03h-46.266v-19.345c0-3.866-3.134-7-7-7h-23.832c-3.866 0-7 3.134-7 7v4.381h-16.832c-3.866 0-7 3.134-7 7v2.553h-58.181c-7.949 0-14.416 6.467-14.416 14.417v11.164h-3.385c-3.866 0-7 3.134-7 7s3.134 7 7 7h3.385v1.01h-10.143c-1.583 0-2.871-1.288-2.871-2.872v-5.427c0-3.866-3.134-7-7-7s-7 3.134-7 7v5.427c0 9.303 7.568 16.872 16.871 16.872h10.679c1.689 6.086 7.264 10.571 13.879 10.571h58.181v2.546c0 3.866 3.134 7 7 7h16.832v4.381c0 3.866 3.134 7 7 7h23.832c3.866 0 7-3.134 7-7v-19.339h46.266c7.135 0 13.059-5.215 14.202-12.03h22.596c3.866 0 7-3.134 7-7v-16.279c0-3.866-3.134-7-7-7zm-168.925-3.442v37.161h-10.2v-37.161zm-34.398 36.744v-36.327c0-.218.198-.417.416-.417h9.782v37.161h-9.782c-.218 0-.416-.199-.416-.417zm48.398.417v-37.161h10.198v37.161zm24.198 9.546v-56.26h9.832v56.259h-9.832zm33.665 11.381h-9.832v-79.021h9.832zm60.681-26.756c0 .218-.198.417-.416.417h-46.266v-26.337h46.266c.218 0 .416.198.416.417zm29.381-11.614h-15.381v-2.276h15.381zm-15.556 120.379c-16.921-6.419-39.271-9.955-62.933-9.955-1.59 0-3.172.019-4.749.05v-3.032c0-4.945-1.915-9.339-5.538-12.706l-17.253-16.031c-5.135-4.77-12.316-5.991-18.735-3.193-6.91 3.012-10.414 8.845-10.414 17.336 0 1.844-1.5 3.344-3.344 3.344h-6.664c-1.845 0-3.345-1.5-3.345-3.344v-11.768c0-9.563-7.78-17.344-17.344-17.344h-48.153c-.797 0-2.054-1.306-3.88-3.299l-19.235-20.954c-3.032-3.31-7.185-7.842-14.203-7.842h-47.234v-25.992h34.315c3.866 0 7-3.134 7-7s-3.134-7-7-7h-41.235c-.053 0-.107 0-.16 0h-41.235c-3.866 0-7 3.134-7 7s3.134 7 7 7h34.315v25.994h-64.568c-6.753 0-12.753 3.787-15.656 9.881l-4.986 10.459c-.594 1.247-1.638 1.905-3.019 1.905h-18.825c-9.563 0-17.345 7.78-17.345 17.344v52.317h-29.021v-49.147c0-3.866-3.134-7-7-7s-7 3.134-7 7v112.294c0 3.866 3.134 7 7 7s7-3.134 7-7v-49.147h29.021v52.317c0 9.563 7.781 17.344 17.345 17.344h11.003c.711 1.646 1.727 3.192 3.069 4.535 6.533 6.533 6.378 14.855 4.054 20.466-2.323 5.61-8.099 11.604-17.337 11.604-8.08 0-14.653 6.573-14.653 14.653v23.301c0 8.08 6.573 14.653 14.653 14.653 9.238 0 15.014 5.995 17.337 11.604 2.324 5.61 2.479 13.933-4.053 20.465-5.714 5.713-5.714 15.009 0 20.724l16.476 16.476c2.768 2.768 6.447 4.292 10.362 4.292s7.595-1.524 10.361-4.292c6.544-6.544 14.867-6.394 20.474-4.072 5.606 2.322 11.597 8.101 11.597 17.355 0 8.08 6.573 14.653 14.652 14.653h23.302c8.079 0 14.652-6.573 14.652-14.653 0-9.239 5.994-15.013 11.604-17.337 5.607-2.324 13.932-2.48 20.465 4.053 2.768 2.768 6.447 4.292 10.362 4.292 3.914 0 7.594-1.524 10.361-4.292l16.478-16.477c5.713-5.714 5.713-15.01-.001-20.723-6.532-6.533-6.377-14.855-4.053-20.465 2.323-5.61 8.099-11.604 17.337-11.604 8.08 0 14.653-6.573 14.653-14.653v-23.301c0-8.08-6.573-14.653-14.653-14.653-7.223 0-12.319-3.667-15.313-7.947h45.469v118.327c0 11.779 10.496 22.248 29.556 29.479 16.92 6.419 39.27 9.955 62.932 9.955s46.012-3.535 62.933-9.955c19.059-7.231 29.556-17.7 29.556-29.479v-204.337c-.001-11.778-10.498-22.247-29.557-29.478zm-185.575 137.435c.36 0 .653.293.653.653v23.301c0 .36-.293.653-.653.653-13.499 0-25.098 7.758-30.271 20.247s-2.457 26.177 7.089 35.722c.255.255.254.67 0 .925l-16.477 16.476c-.254.255-.67.254-.926 0-9.545-9.545-23.233-12.26-35.722-7.088-12.489 5.173-20.247 16.772-20.247 30.271 0 .36-.293.653-.652.653h-23.302c-.359 0-.652-.293-.652-.653 0-13.512-7.756-25.118-20.239-30.29-4.185-1.733-8.502-2.579-12.756-2.579-8.438 0-16.622 3.333-22.975 9.686-.254.253-.669.253-.925 0l-16.476-16.476c-.256-.255-.256-.67-.001-.925 9.546-9.545 12.262-23.233 7.089-35.722-5.174-12.489-16.772-20.247-30.271-20.247-.36 0-.653-.293-.653-.653v-23.301c0-.36.293-.653.653-.653 13.499 0 25.098-7.758 30.271-20.247 5.174-12.489 2.458-26.177-7.088-35.723-.255-.255-.254-.669.001-.924l16.476-16.477c.256-.256.671-.255.925 0 9.547 9.545 23.235 12.262 35.723 7.088 12.489-5.173 20.247-16.772 20.247-30.271 0-.36.293-.653.652-.653h23.302c.359 0 .652.293.652.653 0 13.499 7.758 25.098 20.247 30.271 12.488 5.173 26.177 2.457 35.722-7.088.256-.256.671-.255.925 0l16.477 16.477c.255.255.256.67 0 .925-9.545 9.545-12.261 23.234-7.088 35.723 5.172 12.488 16.771 20.246 30.27 20.246zm-18.552-35.946c.557-3.455 2.139-6.994 5.268-10.123 5.713-5.713 5.714-15.009.001-20.723l-16.479-16.479c-5.713-5.711-15.01-5.709-20.723.001-6.53 6.532-14.853 6.379-20.465 4.054-5.61-2.324-11.604-8.098-11.604-17.337 0-8.08-6.573-14.653-14.652-14.653h-23.302c-8.079 0-14.652 6.574-14.652 14.653 0 9.239-5.994 15.013-11.604 17.337s-13.933 2.479-20.466-4.054c-5.712-5.711-15.008-5.713-20.724 0l-16.477 16.478c-.682.681-1.276 1.417-1.795 2.188h-12.277c-1.845 0-3.345-1.5-3.345-3.344v-118.634c0-1.844 1.5-3.344 3.345-3.344h18.824c6.753 0 12.752-3.787 15.656-9.882l4.986-10.459c.594-1.246 1.638-1.905 3.019-1.905h125.803c.798 0 2.055 1.306 3.881 3.299l19.236 20.955c3.031 3.309 7.184 7.841 14.201 7.841h48.153c1.844 0 3.344 1.5 3.344 3.344v11.768c0 9.563 7.781 17.344 17.345 17.344h6.664c9.563 0 17.344-7.78 17.344-17.344 0-3.627.842-3.995 2.008-4.503 1.295-.564 2.578-.344 3.612.616l17.252 16.03c.759.705 1.068 1.415 1.068 2.451v3.747c-16.554 1.357-31.82 4.499-44.183 9.189-19.059 7.231-29.556 17.7-29.556 29.479v72.01zm62.707-19.092c4.023 2.732 8.87 5.229 14.496 7.436v126.452c-9.36-4.466-14.496-9.505-14.496-13.755zm78.488 176.851c-47.912 0-78.487-15.063-78.487-25.433v-9.653c4.274 2.902 9.477 5.539 15.556 7.845 16.92 6.419 39.27 9.955 62.932 9.955s46.012-3.535 62.933-9.955c6.079-2.306 11.282-4.943 15.556-7.845v9.653c-.002 10.37-30.578 25.433-78.49 25.433zm-49.991-37.727v-127.196c4.598 1.195 9.447 2.217 14.495 3.058v127.542c-5.26-.963-10.108-2.116-14.495-3.404zm28.495 5.378v-127.701c4.73.448 9.574.749 14.496.895v127.762c-5.052-.159-9.894-.486-14.496-.956zm28.496.955v-127.761c4.922-.146 9.766-.447 14.496-.895v127.701c-4.603.47-9.445.797-14.496.955zm28.496-2.93v-127.541c5.048-.84 9.897-1.863 14.495-3.058v127.196c-4.39 1.288-9.232 2.441-14.495 3.403zm28.495-8.638v-126.452c5.626-2.207 10.474-4.704 14.497-7.437v120.133c0 4.25-5.137 9.289-14.497 13.756zm-63.991-130.089c-47.912 0-78.487-15.063-78.487-25.433v-9.653c4.274 2.902 9.477 5.539 15.556 7.845 16.92 6.419 39.27 9.955 62.932 9.955s46.012-3.535 62.933-9.955c6.079-2.306 11.282-4.943 15.556-7.845v9.653c-.002 10.37-30.578 25.433-78.49 25.433zm0-31.286c-47.912 0-78.487-15.063-78.487-25.433s30.575-25.433 78.487-25.433 78.488 15.063 78.488 25.433-30.576 25.433-78.488 25.433z"/></svg>