<svg id="Layer_3" height="512" viewBox="0 0 64 64" width="512" xmlns="http://www.w3.org/2000/svg" data-name="Layer 3"><path d="m32 5a3 3 0 1 0 3 3 3 3 0 0 0 -3-3zm0 4a1 1 0 1 1 1-1 1 1 0 0 1 -1 1z"/><path d="m54 9h-9v-1a1 1 0 0 0 -1-1h-5.071a7 7 0 0 0 -13.858 0h-5.071a1 1 0 0 0 -1 1v1h-9a1 1 0 0 0 -1 1v52a1 1 0 0 0 1 1h44a1 1 0 0 0 1-1v-52a1 1 0 0 0 -1-1zm-33 0h5a1 1 0 0 0 1-1 5 5 0 0 1 10 0 1 1 0 0 0 1 1h5v6h-22zm23 8a1 1 0 0 0 1-1v-1h4v36h-4a1 1 0 0 0 -1 1v5h-29v-42h4v1a1 1 0 0 0 1 1zm3.865 36-1.865 2.238v-2.238zm5.135 8h-42v-50h8v2h-5a1 1 0 0 0 -1 1v44a1 1 0 0 0 1 1h31a1 1 0 0 0 .768-.359l5-6a1 1 0 0 0 .232-.641v-38a1 1 0 0 0 -1-1h-5v-2h8z"/><path d="m17 20v4a1 1 0 0 0 1 1h28a1 1 0 0 0 1-1v-4a1 1 0 0 0 -1-1h-28a1 1 0 0 0 -1 1zm2 1h26v2h-26z"/><path d="m17 27h30v2h-30z"/><path d="m17 31h26v2h-26z"/><path d="m17 35h30v2h-30z"/><path d="m17 39h26v2h-26z"/><path d="m17 43h30v2h-30z"/><path d="m17 47h26v2h-26z"/><path d="m17 51h25v2h-25z"/><path d="m45 31h2v2h-2z"/><path d="m45 39h2v2h-2z"/><path d="m45 47h2v2h-2z"/></svg>