<svg id="Layer_1" enable-background="new 0 0 512 512" viewBox="0 0 512 512" xmlns="http://www.w3.org/2000/svg"><path d="m93.53 181.76v-51.26c0-3.31 2.69-6 6-6h32.48c3.31 0 6 2.69 6 6s-2.69 6-6 6h-26.48v39.26h39.26v-20.51c0-3.31 2.69-6 6-6s6 2.69 6 6v26.51c0 3.31-2.69 6-6 6h-51.26c-3.32 0-6-2.69-6-6zm104.16-33.89h99.43c3.31 0 6-2.69 6-6s-2.69-6-6-6h-99.43c-3.31 0-6 2.69-6 6s2.68 6 6 6zm-77.1.9c-2.34-2.34-6.14-2.34-8.49 0-2.34 2.34-2.34 6.14 0 8.49l8.23 8.23c1.13 1.13 2.65 1.76 4.24 1.76h.07c1.61-.02 3.15-.69 4.27-1.85l26.69-27.92c2.29-2.4 2.2-6.19-.19-8.48-2.4-2.29-6.19-2.2-8.48.19l-22.45 23.48zm52.09 27.18h124.44c3.31 0 6-2.69 6-6s-2.69-6-6-6h-124.44c-3.31 0-6 2.69-6 6s2.68 6 6 6zm-21.89 106.51c3.31 0 6-2.69 6-6v-26.51c0-3.31-2.69-6-6-6s-6 2.69-6 6v20.51h-39.26v-39.26h26.48c3.31 0 6-2.69 6-6s-2.69-6-6-6h-32.48c-3.31 0-6 2.69-6 6v51.26c0 3.31 2.69 6 6 6zm146.33-51.89h-99.43c-3.31 0-6 2.69-6 6s2.69 6 6 6h99.43c3.31 0 6-2.69 6-6s-2.69-6-6-6zm-150.19-6.68-22.45 23.48-3.89-3.9c-2.34-2.34-6.14-2.34-8.49 0-2.34 2.34-2.34 6.14 0 8.49l8.23 8.23c1.13 1.13 2.65 1.76 4.24 1.76h.07c1.61-.02 3.15-.69 4.27-1.85l26.69-27.92c2.29-2.4 2.2-6.19-.19-8.48s-6.19-2.21-8.48.19zm25.75 46.77h124.44c3.31 0 6-2.69 6-6s-2.69-6-6-6h-124.44c-3.31 0-6 2.69-6 6s2.68 6 6 6zm57.17 43.25h-128.23c-3.31 0-6 2.69-6 6s2.69 6 6 6h128.23c3.31 0 6-2.69 6-6s-2.68-6-6-6zm-19.9 33.66h-108.33c-3.31 0-6 2.69-6 6s2.69 6 6 6h108.33c3.31 0 6-2.69 6-6s-2.69-6-6-6zm-2.18 33.65h-106.15c-3.31 0-6 2.69-6 6s2.69 6 6 6h106.15c3.31 0 6-2.69 6-6s-2.69-6-6-6zm257.93-15.5v25.84c0 7.54-6.14 13.68-13.68 13.68h-18.63c-.78 0-1.35.41-1.59 1.15-1.39 4.22-3.11 8.37-5.12 12.35-.35.7-.24 1.39.31 1.94l13.18 13.18c5.33 5.33 5.33 14.01 0 19.34l-18.27 18.27c-2.58 2.58-6.01 4-9.67 4s-7.09-1.42-9.67-4l-13.18-13.18c-.55-.55-1.24-.67-1.94-.31-3.97 2.01-8.13 3.74-12.35 5.12-.74.24-1.15.81-1.15 1.59v18.63c0 7.54-6.13 13.68-13.68 13.68h-25.84c-7.54 0-13.68-6.14-13.68-13.68v-18.63c0-.78-.41-1.35-1.15-1.59-4.22-1.39-8.38-3.11-12.35-5.12-.7-.35-1.39-.24-1.94.31l-13.18 13.18c-2.58 2.58-6.01 4-9.67 4s-7.09-1.42-9.67-4l-18.27-18.27c-5.33-5.33-5.33-14.01 0-19.34l3.2-3.2h-205.41c-3.31 0-6-2.69-6-6v-358.38c0-3.31 2.69-6 6-6h66.12v-8.24c0-3.31 2.69-6 6-6h38.84c2.88-17.58 18.18-31.04 36.56-31.04s33.68 13.46 36.56 31.04h38.84c3.31 0 6 2.69 6 6v8.24h66.12c3.31 0 6 2.69 6 6v194h6.92c7.54 0 13.68 6.14 13.68 13.68v18.63c0 .78.41 1.35 1.15 1.59 4.22 1.39 8.37 3.11 12.35 5.12.7.35 1.39.24 1.94-.31l13.18-13.18c2.58-2.58 6.01-4 9.67-4s7.09 1.42 9.67 4l18.27 18.27c2.58 2.58 4 6.01 4 9.67s-1.42 7.09-4 9.67l-13.18 13.18c-.55.55-.66 1.24-.31 1.94 2.01 3.98 3.74 8.13 5.12 12.35.24.74.81 1.15 1.59 1.15h18.63c7.54 0 13.68 6.14 13.68 13.68zm-335.27-272.49h138.79v-35.19h-38.35c-3.31 0-6-2.69-6-6 0-13.81-11.23-25.04-25.04-25.04s-25.04 11.23-25.04 25.04c0 3.31-2.69 6-6 6h-38.35v35.19zm-72.13 325.42h209.66c-1.99-3.95-3.71-8.07-5.08-12.27-.24-.74-.81-1.15-1.59-1.15h-18.63c-7.54 0-13.68-6.14-13.68-13.68v-25.84c0-7.54 6.14-13.68 13.68-13.68h18.63c.78 0 1.35-.41 1.59-1.15 1.39-4.23 3.11-8.38 5.12-12.35.35-.7.24-1.39-.31-1.94l-13.18-13.18c-2.58-2.58-4-6.01-4-9.67s1.42-7.09 4-9.67l18.27-18.27c2.58-2.58 6.01-4 9.67-4s7.09 1.42 9.67 4l13.18 13.18c.55.55 1.24.66 1.94.31 3.97-2.01 8.13-3.74 12.35-5.12.74-.24 1.15-.81 1.15-1.59v-18.63c0-7.54 6.14-13.68 13.68-13.68h6.92v-188h-60.12v26.95c0 3.31-2.69 6-6 6h-150.79c-3.31 0-6-2.69-6-6v-26.94h-60.13zm395.4-52.93c0-.91-.77-1.68-1.68-1.68h-18.63c-5.92 0-11.14-3.78-12.99-9.41-1.2-3.65-2.69-7.24-4.43-10.67-2.68-5.29-1.66-11.66 2.53-15.85l13.18-13.18c.42-.42.48-.92.48-1.19s-.06-.76-.48-1.19l-18.27-18.27c-.42-.42-.92-.49-1.19-.49s-.76.06-1.19.48l-13.18 13.18c-4.19 4.19-10.56 5.21-15.85 2.53-3.43-1.74-7.02-3.23-10.67-4.43-5.63-1.85-9.41-7.07-9.41-12.99v-18.63c0-.91-.77-1.68-1.68-1.68h-25.84c-.91 0-1.68.77-1.68 1.68v18.63c0 5.92-3.78 11.14-9.41 12.99-3.65 1.2-7.24 2.69-10.67 4.43-5.29 2.68-11.66 1.66-15.85-2.53l-13.18-13.18c-.42-.42-.92-.49-1.19-.49-.26 0-.76.06-1.18.48l-18.27 18.27c-.42.42-.48.92-.48 1.19s.06.76.48 1.18l13.18 13.18c4.19 4.19 5.21 10.56 2.53 15.85-1.74 3.43-3.23 7.02-4.43 10.67-1.85 5.63-7.07 9.41-12.99 9.41h-18.63c-.91 0-1.68.77-1.68 1.68v25.84c0 .91.77 1.68 1.68 1.68h18.63c5.92 0 11.14 3.78 12.99 9.41 1.2 3.65 2.69 7.24 4.43 10.67 2.68 5.29 1.66 11.66-2.53 15.85l-13.18 13.18c-.64.64-.64 1.73 0 2.37l18.27 18.27c.42.42.92.48 1.19.48.26 0 .76-.06 1.19-.48l13.18-13.18c2.63-2.63 6.12-4.01 9.66-4.01 2.1 0 4.22.49 6.19 1.48 3.43 1.74 7.02 3.23 10.67 4.43 5.63 1.85 9.41 7.07 9.41 12.99v18.63c0 .91.77 1.68 1.68 1.68h25.84c.91 0 1.68-.77 1.68-1.68v-18.63c0-5.92 3.78-11.14 9.41-12.99 3.65-1.2 7.24-2.69 10.67-4.43 5.29-2.68 11.66-1.66 15.85 2.53l13.18 13.18c.42.42.92.48 1.19.48.26 0 .76-.06 1.18-.48l18.27-18.27c.64-.64.64-1.73 0-2.37l-13.18-13.18c-4.19-4.19-5.21-10.56-2.53-15.85 1.74-3.44 3.23-7.03 4.43-10.67 1.85-5.63 7.07-9.41 12.99-9.41h18.63c.91 0 1.68-.77 1.68-1.68zm-54.35 12.92c0 28.68-23.33 52.01-52.01 52.01s-52.01-23.33-52.01-52.01 23.33-52.01 52.01-52.01 52.01 23.33 52.01 52.01zm-12 0c0-22.06-17.95-40.01-40.01-40.01s-40.01 17.95-40.01 40.01 17.95 40.01 40.01 40.01 40.01-17.95 40.01-40.01z"/></svg>