<svg id="Layer_1" enable-background="new 0 0 512 512" viewBox="0 0 512 512" xmlns="http://www.w3.org/2000/svg"><path d="m155.007 140.215v47.488c0 7.83 6.37 14.199 14.199 14.199h47.489c7.829 0 14.199-6.37 14.199-14.199v-47.488c0-7.83-6.37-14.199-14.199-14.199h-47.489c-7.829 0-14.199 6.37-14.199 14.199zm16 1.801h43.886v43.887h-43.886zm40.796 17.793-14.854 18.363c-1.426 1.763-3.534 2.838-5.799 2.958-.141.007-.281.011-.421.011-2.116 0-4.152-.839-5.656-2.343l-10.411-10.41c-3.124-3.124-3.125-8.189 0-11.314 3.124-3.124 8.189-3.125 11.314 0l4.125 4.125 9.264-11.452c2.779-3.435 7.816-3.966 11.251-1.188 3.433 2.778 3.966 7.815 1.187 11.25zm4.892 137.169h-47.489c-7.829 0-14.199 6.37-14.199 14.199v47.488c0 7.829 6.37 14.199 14.199 14.199h47.489c7.829 0 14.199-6.37 14.199-14.199v-47.488c0-7.829-6.37-14.199-14.199-14.199zm-1.801 59.886h-43.886v-43.887h43.886zm-40.232-17.513c-3.125-3.124-3.125-8.189-.001-11.313 3.124-3.125 8.189-3.124 11.313-.001l4.125 4.124 9.264-11.452c2.779-3.435 7.816-3.968 11.251-1.188 3.435 2.778 3.967 7.816 1.188 11.251l-14.854 18.363c-1.426 1.764-3.534 2.838-5.799 2.958-.141.007-.281.011-.421.011-2.115 0-4.152-.839-5.656-2.343zm78.071-187.677c0-4.418 3.582-8 8-8h94.669c4.418 0 8 3.582 8 8s-3.582 8-8 8h-94.669c-4.418 0-8-3.581-8-8zm0 24.571c0-4.418 3.582-8 8-8h75.993c4.418 0 8 3.582 8 8s-3.582 8-8 8h-75.993c-4.418 0-8-3.581-8-8zm0 60.91c0-4.418 3.582-8 8-8h94.669c4.418 0 8 3.582 8 8s-3.582 8-8 8h-94.669c-4.418 0-8-3.581-8-8zm151.353-193.322h-64.44v-3.373c0-4.418-3.582-8-8-8h-35.574c-6.139-14.671-20.507-24.46-36.867-24.46s-30.728 9.789-36.867 24.46h-35.574c-4.418 0-8 3.582-8 8v3.373h-64.44c-14.786 0-26.815 12.029-26.815 26.815v334.056c-1.641-.573-3.377-.899-5.168-.926-4.376-.095-8.497 1.568-11.62 4.6l-50.339 48.848c-6.462 6.273-6.617 16.634-.346 23.095l18.174 18.73c3.198 3.295 7.458 4.95 11.723 4.95 4.1 0 8.205-1.53 11.373-4.604l50.338-48.847c1.992-1.932 3.421-4.291 4.218-6.878h288.225c14.786 0 26.815-12.029 26.815-26.815v-346.208c-.001-14.786-12.03-26.816-26.816-26.816zm-209.321 4.627h33.347c3.696 0 6.911-2.532 7.777-6.125 2.603-10.795 12.192-18.335 23.316-18.335s20.713 7.54 23.317 18.336c.866 3.593 4.081 6.125 7.777 6.125h33.347v32.921h-128.881zm136.881 48.921c4.418 0 8-3.582 8-8v-3.373h49.081v315.491h-121.678c11.567-12.862 19.845-28.738 23.489-46.292l46.188-.001c4.418 0 8-3.582 8-8s-3.582-8-8-8l-44.209.001c.061-1.421.098-2.848.098-4.284 0-1.437-.038-2.865-.098-4.287h62.885c4.418 0 8-3.582 8-8s-3.582-8-8-8h-64.865c-3.515-16.93-11.335-32.301-22.263-44.91h68.453c4.418 0 8-3.582 8-8s-3.582-8-8-8h-75.993c-2.485 0-4.705 1.133-6.172 2.91-7.163-5.65-15.119-10.334-23.668-13.867v-17.072c0-7.83-6.37-14.199-14.199-14.199h-47.489c-7.829 0-14.199 6.37-14.199 14.199v17.072c-9.213 3.807-17.738 8.953-25.324 15.201v-171.962h49.081v3.373c0 4.418 3.582 8 8 8zm-214.614 302.036c1.541 1.811 3.145 3.565 4.809 5.261l-16.457 15.969-4.961-5.113zm-13.523-9.171v-11.388c1.254 2.542 2.61 5.025 4.068 7.44zm30.458 24.961c6.883 5.07 14.435 9.282 22.502 12.467h-35.349zm-24.682-80.284c0-46.134 37.532-83.666 83.665-83.666s83.666 37.532 83.666 83.666c0 46.133-37.532 83.665-83.666 83.665-46.133 0-83.665-37.532-83.665-83.665zm105.609-97.227c-7.063-1.593-14.406-2.439-21.944-2.439-7.537 0-14.88.846-21.942 2.439v-10.199h43.886zm-100.57-177.863h64.44v10.175h-57.081c-4.418 0-8 3.582-8 8v196.574c-3.896 5.105-7.31 10.596-10.175 16.405v-220.338c.001-5.964 4.852-10.816 10.816-10.816zm-13.823 379.236-50.337 48.846c-.12.115-.357.113-.472-.006l-18.175-18.731c-.115-.117-.11-.355.008-.47l50.339-48.848c.022-.021.095-.054.236-.083.148.002.212.068.234.091l18.175 18.73c.021.022.085.089.083.236-.002.149-.069.214-.091.235zm314.4-22.211c0 5.964-4.852 10.815-10.815 10.815h-174.655c6.821-2.692 13.275-6.116 19.267-10.175h148.028c4.418 0 8-3.582 8-8v-331.49c0-4.418-3.582-8-8-8h-57.081v-10.175h64.44c5.964 0 10.815 4.852 10.815 10.815v346.21zm-147.235-374.636c0 4.673-3.788 8.461-8.461 8.461s-8.461-3.788-8.461-8.461 3.788-8.461 8.461-8.461 8.461 3.788 8.461 8.461zm-74.716 219.125c-40.569 0-73.574 33.005-73.574 73.574s33.005 73.574 73.574 73.574 73.574-33.005 73.574-73.574-33.005-73.574-73.574-73.574zm0 131.148c-31.746 0-57.574-25.828-57.574-57.574s25.828-57.574 57.574-57.574c31.747 0 57.574 25.828 57.574 57.574s-25.827 57.574-57.574 57.574zm278.089-290.918h-7.011c-14.076 0-25.528 11.452-25.528 25.528v178.084c0 1.404.37 2.784 1.072 4l21.034 36.432c1.429 2.476 4.07 4 6.928 4s5.499-1.524 6.928-4l21.033-36.432c.702-1.216 1.072-2.596 1.072-4v-178.084c0-14.076-11.452-25.528-25.528-25.528zm-16.539 195.612v-141.623h26.067v141.623zm9.527-179.612h7.011c5.254 0 9.528 4.274 9.528 9.528v12.462h-26.066v-12.462c0-5.254 4.273-9.528 9.527-9.528zm3.507 208.044-7.177-12.432h14.354z"/></svg>