<?xml version="1.0" encoding="UTF-8" standalone="no"?>
<!-- Created with Inkscape (http://www.inkscape.org/) -->

<svg
   version="1.1"
   id="svg2475"
   xml:space="preserve"
   width="682.66669"
   height="682.66669"
   viewBox="0 0 682.66669 682.66669"
   xmlns="http://www.w3.org/2000/svg"
   xmlns:svg="http://www.w3.org/2000/svg"><defs
     id="defs2479"><clipPath
       clipPathUnits="userSpaceOnUse"
       id="clipPath2549"><path
         d="M 0,512 H 512 V 0 H 0 Z"
         id="path2547" /></clipPath></defs><g
     id="g2481"
     transform="matrix(1.3333333,0,0,-1.3333333,0,682.66667)"><g
       id="g2483"
       transform="translate(192.2852,248.0503)"><path
         d="M 0,0 H -100.829"
         style="fill:none;stroke:#000000;stroke-width:15;stroke-linecap:round;stroke-linejoin:round;stroke-miterlimit:10;stroke-dasharray:none;stroke-opacity:1"
         id="path2485" /></g><g
       id="g2487"
       transform="translate(192.2852,182.6353)"><path
         d="M 0,0 H -100.829"
         style="fill:none;stroke:#000000;stroke-width:15;stroke-linecap:round;stroke-linejoin:round;stroke-miterlimit:10;stroke-dasharray:none;stroke-opacity:1"
         id="path2489" /></g><g
       id="g2491"
       transform="translate(192.2852,117.2207)"><path
         d="M 0,0 H -100.829"
         style="fill:none;stroke:#000000;stroke-width:15;stroke-linecap:round;stroke-linejoin:round;stroke-miterlimit:10;stroke-dasharray:none;stroke-opacity:1"
         id="path2493" /></g><g
       id="g2495"
       transform="translate(276.3965,206.9795)"><path
         d="M 0,0 H 15.918"
         style="fill:none;stroke:#000000;stroke-width:15;stroke-linecap:round;stroke-linejoin:round;stroke-miterlimit:10;stroke-dasharray:none;stroke-opacity:1"
         id="path2497" /></g><g
       id="g2499"
       transform="translate(324.752,206.9795)"><path
         d="M 0,0 H 15.918"
         style="fill:none;stroke:#000000;stroke-width:15;stroke-linecap:round;stroke-linejoin:round;stroke-miterlimit:10;stroke-dasharray:none;stroke-opacity:1"
         id="path2501" /></g><g
       id="g2503"
       transform="translate(373.1074,206.9795)"><path
         d="M 0,0 H 15.918"
         style="fill:none;stroke:#000000;stroke-width:15;stroke-linecap:round;stroke-linejoin:round;stroke-miterlimit:10;stroke-dasharray:none;stroke-opacity:1"
         id="path2505" /></g><g
       id="g2507"
       transform="translate(421.4639,206.9795)"><path
         d="M 0,0 H 15.917"
         style="fill:none;stroke:#000000;stroke-width:15;stroke-linecap:round;stroke-linejoin:round;stroke-miterlimit:10;stroke-dasharray:none;stroke-opacity:1"
         id="path2509" /></g><g
       id="g2511"
       transform="translate(276.3965,167.9795)"><path
         d="M 0,0 H 15.918"
         style="fill:none;stroke:#000000;stroke-width:15;stroke-linecap:round;stroke-linejoin:round;stroke-miterlimit:10;stroke-dasharray:none;stroke-opacity:1"
         id="path2513" /></g><g
       id="g2515"
       transform="translate(324.752,167.9795)"><path
         d="M 0,0 H 15.918"
         style="fill:none;stroke:#000000;stroke-width:15;stroke-linecap:round;stroke-linejoin:round;stroke-miterlimit:10;stroke-dasharray:none;stroke-opacity:1"
         id="path2517" /></g><g
       id="g2519"
       transform="translate(373.1074,167.9795)"><path
         d="M 0,0 H 15.918"
         style="fill:none;stroke:#000000;stroke-width:15;stroke-linecap:round;stroke-linejoin:round;stroke-miterlimit:10;stroke-dasharray:none;stroke-opacity:1"
         id="path2521" /></g><g
       id="g2523"
       transform="translate(421.4639,167.9795)"><path
         d="M 0,0 H 15.917"
         style="fill:none;stroke:#000000;stroke-width:15;stroke-linecap:round;stroke-linejoin:round;stroke-miterlimit:10;stroke-dasharray:none;stroke-opacity:1"
         id="path2525" /></g><g
       id="g2527"
       transform="translate(276.3965,128.9795)"><path
         d="M 0,0 H 15.918"
         style="fill:none;stroke:#000000;stroke-width:15;stroke-linecap:round;stroke-linejoin:round;stroke-miterlimit:10;stroke-dasharray:none;stroke-opacity:1"
         id="path2529" /></g><g
       id="g2531"
       transform="translate(324.752,128.9795)"><path
         d="M 0,0 H 15.918"
         style="fill:none;stroke:#000000;stroke-width:15;stroke-linecap:round;stroke-linejoin:round;stroke-miterlimit:10;stroke-dasharray:none;stroke-opacity:1"
         id="path2533" /></g><g
       id="g2535"
       transform="translate(373.1074,128.9795)"><path
         d="M 0,0 H 15.918"
         style="fill:none;stroke:#000000;stroke-width:15;stroke-linecap:round;stroke-linejoin:round;stroke-miterlimit:10;stroke-dasharray:none;stroke-opacity:1"
         id="path2537" /></g><g
       id="g2539"
       transform="translate(421.4639,128.9795)"><path
         d="M 0,0 H 15.917"
         style="fill:none;stroke:#000000;stroke-width:15;stroke-linecap:round;stroke-linejoin:round;stroke-miterlimit:10;stroke-dasharray:none;stroke-opacity:1"
         id="path2541" /></g><g
       id="g2543"><g
         id="g2545"
         clip-path="url(#clipPath2549)"><g
           id="g2551"
           transform="translate(160.0762,427.6509)"><path
             d="m 0,0 c 0,0 -13.547,12.495 -34.429,6.205 -19.174,-5.776 -23.935,-32.011 -10.906,-42.23 7.482,-5.869 18.739,-10.693 33.911,-16.056 33.956,-12.003 21.403,-59.89 -13.137,-60.12 -13.479,-0.09 -19.781,0.766 -31.622,8.512"
             style="fill:none;stroke:#000000;stroke-width:15;stroke-linecap:round;stroke-linejoin:round;stroke-miterlimit:10;stroke-dasharray:none;stroke-opacity:1"
             id="path2553" /></g><g
           id="g2555"
           transform="translate(135.5156,451.7915)"><path
             d="M 0,0 V -153.822"
             style="fill:none;stroke:#000000;stroke-width:15;stroke-linecap:round;stroke-linejoin:round;stroke-miterlimit:10;stroke-dasharray:none;stroke-opacity:1"
             id="path2557" /></g><g
           id="g2559"
           transform="translate(437.3809,253.8179)"><path
             d="m 0,0 c 0,-3.186 -2.582,-5.768 -5.768,-5.768 h -149.448 c -3.185,0 -5.768,2.582 -5.768,5.768 v 38.384 c 0,3.186 2.583,5.768 5.768,5.768 H -5.768 C -2.582,44.152 0,41.57 0,38.384 Z m -200.002,1.673 v -165.298 c 0,-10.238 8.3,-18.537 18.537,-18.537 H 20.481 c 10.238,0 18.537,8.299 18.537,18.537 V 61.968 c 0,10.237 -8.299,18.536 -18.537,18.536 h -201.946 c -10.237,0 -18.537,-8.299 -18.537,-18.536 V 36.736"
             style="fill:none;stroke:#000000;stroke-width:15;stroke-linecap:round;stroke-linejoin:round;stroke-miterlimit:10;stroke-dasharray:none;stroke-opacity:1"
             id="path2561" /></g><g
           id="g2563"
           transform="translate(431.6133,297.9702)"><path
             d="m 0,0 h -149.448 c -3.186,0 -5.769,-2.583 -5.769,-5.768 v -38.384 c 0,-3.186 2.583,-5.768 5.769,-5.768 H 0 c 3.186,0 5.768,2.582 5.768,5.768 V -5.768 C 5.768,-2.583 3.186,0 0,0 Z"
             style="fill:none;stroke:#000000;stroke-width:15;stroke-linecap:round;stroke-linejoin:round;stroke-miterlimit:10;stroke-dasharray:none;stroke-opacity:1"
             id="path2565" /></g><g
           id="g2567"
           transform="translate(420.9697,369.5103)"><path
             d="m 0,0 v 35.804 c 0,6.514 -2.658,12.505 -6.964,16.81 -10.984,10.985 -75.412,75.412 -75.412,75.412 -2.004,2.005 -4.37,3.647 -6.963,4.828 -3.063,1.394 -6.417,2.136 -9.848,2.136 h -262.408 c -13.13,0 -23.773,-10.644 -23.773,-23.774 v -449.453 c 0,-13.13 10.643,-23.773 23.773,-23.773 h 337.822 c 13.129,0 23.773,10.643 23.773,23.773 v 5.362"
             style="fill:none;stroke:#000000;stroke-width:15;stroke-linecap:round;stroke-linejoin:round;stroke-miterlimit:10;stroke-dasharray:none;stroke-opacity:1"
             id="path2569" /></g><g
           id="g2571"
           transform="translate(418.8057,415.1611)"><path
             d="M 0,0 H -68.239 C -78.697,0 -87.175,8.478 -87.175,18.936 V 87.203"
             style="fill:none;stroke:#000000;stroke-width:15;stroke-linecap:round;stroke-linejoin:round;stroke-miterlimit:10;stroke-dasharray:none;stroke-opacity:1"
             id="path2573" /></g></g></g></g></svg>
