<svg height="512" viewBox="0 0 64 64" width="512" xmlns="http://www.w3.org/2000/svg"><g id="Fail"><path d="m42.7041 48a6.6719 6.6719 0 0 1 -4.75-1.9678l-5.2427-5.2422-4.7661 4.7657a6.7182 6.7182 0 0 1 -9.501-9.501l4.7657-4.7661-5.2426-5.2422a6.7182 6.7182 0 0 1 9.501-9.501l5.2426 5.2422 13.82-13.82a6.727 6.727 0 0 1 9.5009 0 6.7263 6.7263 0 0 1 0 9.501l-13.82 13.82 5.2422 5.2427a6.7183 6.7183 0 0 1 -4.75 11.4687zm-9.9927-9.624a.997.997 0 0 1 .7071.2929l5.9492 5.9493a4.7184 4.7184 0 0 0 6.6728-6.6729l-5.9492-5.95a1 1 0 0 1 0-1.4141l14.5269-14.5265a4.7185 4.7185 0 0 0 -6.6729-6.6729l-14.5268 14.5269a1 1 0 0 1 -1.4141 0l-5.95-5.9492a4.7184 4.7184 0 1 0 -6.6729 6.6728l5.95 5.9492a1 1 0 0 1 0 1.4141l-5.4731 5.4732a4.7184 4.7184 0 0 0 6.6729 6.6728l5.4731-5.4727a.9967.9967 0 0 1 .707-.2929z"/><path d="m32 62a30 30 0 0 1 0-60 29.6416 29.6416 0 0 1 8.1758 1.1387 1 1 0 1 1 -.5518 1.9228 27.6161 27.6161 0 0 0 -7.624-1.0615 27.9632 27.9632 0 1 0 26.7261 19.6191 1 1 0 0 1 1.9082-.5986 30.0268 30.0268 0 0 1 -28.6343 38.9795z"/></g></svg>