<svg id="Layer_1" enable-background="new 0 0 512 512" viewBox="0 0 512 512" xmlns="http://www.w3.org/2000/svg"><path d="m240.202 89.978c0-5.248 4.254-9.502 9.502-9.502s9.502 4.255 9.502 9.502c0 5.248-4.254 9.503-9.502 9.503s-9.502-4.254-9.502-9.503zm-140.111-9.502c-5.248 0-9.502 4.255-9.502 9.502 0 5.248 4.254 9.503 9.502 9.503s9.502-4.255 9.502-9.503c.001-5.247-4.254-9.502-9.502-9.502zm212.825 76.305v65.117c0 5.244-3.924 9.69-9.127 10.344-4.007.503-7.157 3.654-7.66 7.661-.654 5.203-5.101 9.126-10.344 9.126h-173.25c-5.243 0-9.69-3.923-10.344-9.125-.503-4.007-3.653-7.158-7.66-7.661-5.203-.654-9.126-5.101-9.126-10.344v-65.117c0-5.244 3.924-9.69 9.126-10.344 4.007-.504 7.157-3.654 7.66-7.661.654-5.203 5.101-9.125 10.344-9.125h173.25c5.243 0 9.689 3.923 10.344 9.125.503 4.007 3.653 7.158 7.661 7.662 5.202.652 9.126 5.1 9.126 10.342zm-16 4.413c-7.312-2.474-13.069-8.232-15.543-15.543h-164.425c-2.474 7.311-8.231 13.069-15.543 15.542v56.292c7.311 2.474 13.069 8.232 15.543 15.543h164.424c2.474-7.311 8.232-13.069 15.544-15.543zm-22.949 18.643c-5.248 0-9.502 4.255-9.502 9.502 0 5.248 4.254 9.503 9.502 9.503s9.502-4.254 9.502-9.503c0-5.247-4.254-9.502-9.502-9.502zm-149.613 0c-5.248 0-9.502 4.255-9.502 9.502 0 5.248 4.254 9.503 9.502 9.503s9.503-4.254 9.503-9.503c-.001-5.247-4.255-9.502-9.503-9.502zm76.149 1.425c-5.233-.859-7.937-2.314-8.034-4.325-.151-3.128 3.474-4.196 4.589-4.449 2.679-.61 7.753-.359 9.765 4.433 1.711 4.074 6.402 5.988 10.474 4.278 4.073-1.711 5.989-6.4 4.278-10.474-2.749-6.547-8.032-11.215-14.414-13.297v-.41c0-4.418-3.582-8-8-8s-8 3.582-8 8v.517c-9.311 3.048-15.123 10.902-14.672 20.178.288 5.956 3.456 16.387 21.423 19.336 9.153 1.503 9.469 4.102 9.604 5.211.118.978-.115 1.339-.386 1.653-1.03 1.19-3.935 2.44-7.493 2.525-3.562.091-8.09-1.251-9.099-5.295-1.068-4.286-5.409-6.897-9.698-5.827-4.287 1.069-6.896 5.411-5.827 9.698 1.992 7.987 8.085 13.911 16.148 16.286v.36c0 4.418 3.582 8 8 8s8-3.582 8-8v-.216c4.922-1.281 9.194-3.741 12.07-7.065 3.369-3.896 4.81-8.753 4.167-14.048-1.259-10.366-8.962-16.782-22.895-19.069zm303.23 28.929c0 4.418-3.582 8-8 8h-119.198v214.209c0 39.48-32.119 71.599-71.599 71.599s0 0-.001 0h-226.514c-19.293 0-37.927-7.9-51.125-21.674-13.034-13.604-19.77-31.456-18.965-50.267.129-3.029 1.96-5.725 4.729-6.962 2.769-1.235 5.998-.803 8.341 1.122l23.852 19.589 22.463-19.454c3.006-2.604 7.469-2.604 10.475 0l22.326 19.335 17.4-15.07v-159.3h-43.532c-7.302 0-13.242-5.94-13.242-13.242v-86.119h-11.021c-7.302 0-13.242-5.94-13.242-13.242v-137.473c0-7.302 5.94-13.242 13.242-13.242h249.551c7.303 0 13.243 5.94 13.243 13.242v86.119h11.02c7.302 0 13.242 5.94 13.242 13.242v17.99h94.956.001c39.48.001 71.598 32.12 71.598 71.598zm-442.59-54.234v-98.537c0-5.245 3.925-9.692 9.129-10.344 4.004-.503 7.154-3.654 7.657-7.661.654-5.203 5.101-9.125 10.344-9.125h173.25c5.243 0 9.689 3.923 10.344 9.125.504 4.007 3.654 7.158 7.662 7.662 5.2.652 9.125 5.099 9.125 10.344v49.94h8.263v-83.361h-244.037v131.957zm137.69-48.596h73.82v-45.528c-7.311-2.475-13.069-8.233-15.543-15.542h-164.424c-2.474 7.311-8.231 13.069-15.543 15.543v45.528h74.114c-.188-.559-.363-1.125-.508-1.707-1.068-4.287 1.54-8.629 5.827-9.698 4.289-1.07 8.63 1.54 9.698 5.827 1.008 4.044 5.526 5.386 9.1 5.295 3.559-.085 6.462-1.334 7.492-2.525.271-.313.504-.676.386-1.653-.135-1.11-.45-3.708-9.604-5.21-17.967-2.95-21.135-13.381-21.423-19.336-.451-9.277 5.36-17.131 14.673-20.178v-.517c0-4.418 3.582-8 8-8s8 3.582 8 8v.411c6.382 2.082 11.664 6.75 14.413 13.297 1.711 4.074-.205 8.763-4.279 10.473-4.067 1.71-8.762-.205-10.473-4.279-2.012-4.791-7.086-5.041-9.765-4.433-1.115.253-4.74 1.321-4.589 4.449.098 2.01 2.801 3.465 8.034 4.325 13.935 2.288 21.637 8.704 22.895 19.071.27 2.22.152 4.358-.301 6.387zm-121.69 147.957h244.035v-131.957h-244.035zm182.549 232.682c-1.909-1.539-3.754-3.181-5.526-4.925-9.987-9.827-16.917-22.094-20.21-35.494l-18.109 14.873c-3.011 2.474-7.369 2.417-10.314-.135l-22.326-19.335-22.325 19.335c-3.006 2.604-7.469 2.604-10.475 0l-22.327-19.335-22.326 19.335c-3.006 2.604-7.469 2.604-10.475 0l-22.326-19.335-22.326 19.335c-2.947 2.553-7.303 2.607-10.314.135l-13.439-11.038c2.411 7.324 6.457 14.079 11.977 19.84 10.343 10.798 24.397 16.744 39.57 16.744zm100.843-277.809c0-22.422 10.368-42.461 26.553-55.599h-49.91v103.483c0 7.302-5.94 13.242-13.242 13.242h-190.02v155.555l21.728 18.816 22.325-19.335c3.006-2.604 7.469-2.604 10.475 0l22.463 19.454 23.852-19.589c2.342-1.925 5.573-2.359 8.341-1.122 2.769 1.237 4.6 3.933 4.729 6.962 1.34 31.37 26.425 55.942 57.107 55.942h.001c30.657 0 55.599-24.941 55.599-55.599v-222.21zm126.624-8c-3.889-26.882-27.083-47.598-55.025-47.599-27.941 0-51.124 20.719-55.016 47.599zm-159.116 93.249h-163.85c-4.418 0-8 3.582-8 8s3.582 8 8 8h163.85c4.418 0 8-3.582 8-8s-3.582-8-8-8zm0 86.526h-163.85c-4.418 0-8 3.582-8 8s3.582 8 8 8h163.85c4.418 0 8-3.582 8-8s-3.582-8-8-8zm0-43.262h-163.85c-4.418 0-8 3.582-8 8s3.582 8 8 8h163.85c4.418 0 8-3.582 8-8s-3.582-8-8-8z"/></svg>