<?xml version="1.0"?>
<svg xmlns="http://www.w3.org/2000/svg" data-name="Layer 1" id="Layer_1" viewBox="0 0 128 128"><title/><path d="M73,44H33a2,2,0,0,0,0,4H73a2,2,0,0,0,0-4Z"/><path d="M33,38H73a2,2,0,0,0,0-4H33a2,2,0,0,0,0,4Z"/><path d="M73,54H33a2,2,0,0,0,0,4H73a2,2,0,0,0,0-4Z"/><path d="M75,66a2.0001,2.0001,0,0,0-2-2H33a2,2,0,0,0,0,4H73A2.0001,2.0001,0,0,0,75,66Z"/><path d="M37,24H69a2.0001,2.0001,0,0,0,2-2V9.77783a2.0001,2.0001,0,0,0-2-2H62.26758a9.41025,9.41025,0,0,0-18.53516,0H37a2.0001,2.0001,0,0,0-2,2V22A2.0001,2.0001,0,0,0,37,24Zm2-12.22217h6.5332a2.0001,2.0001,0,0,0,2-2,5.47517,5.47517,0,1,1,10.93359,0,2.0001,2.0001,0,0,0,2,2H67V20H39Z"/><path d="M33,104a2,2,0,0,0,0,4H59.80682a30.80268,30.80268,0,0,1-.65906-4Z"/><path d="M33,94a2,2,0,0,0,0,4H59.14777a30.80268,30.80268,0,0,1,.65906-4Z"/><path d="M64.09607,84H33a2,2,0,0,0,0,4H61.86792A30.97664,30.97664,0,0,1,64.09607,84Z"/><path d="M74.153,74.37036A1.98572,1.98572,0,0,0,73,74H33a2,2,0,0,0,0,4H69.23981A31.18091,31.18091,0,0,1,74.153,74.37036Z"/><path d="M81,71.33679a30.74556,30.74556,0,0,1,4-.92786V18h2a4.00458,4.00458,0,0,1,4,4V70.02539a31.03046,31.03046,0,0,1,4,.38354V22a8.00917,8.00917,0,0,0-8-8H75v4h6Z"/><path d="M19,124a4.00458,4.00458,0,0,1-4-4V22a4.00458,4.00458,0,0,1,4-4h2v94a6.00656,6.00656,0,0,0,6,6H64.09607a30.97664,30.97664,0,0,1-2.22815-4H27a2.002,2.002,0,0,1-2-2V18h6V14H19a8.00917,8.00917,0,0,0-8,8v98a8.00917,8.00917,0,0,0,8,8H74.79639a31.16071,31.16071,0,0,1-5.55658-4Z"/><path d="M90,74a27,27,0,1,0,27,27A27.03078,27.03078,0,0,0,90,74Zm0,50a23,23,0,1,1,23-23A23.0262,23.0262,0,0,1,90,124Z"/><path d="M101.19824,88.39844a2.00175,2.00175,0,0,0-2.7998.40332L84.644,107.18848,77.21,101.541A2.00023,2.00023,0,0,0,74.79,104.72656l9.03857,6.86621a2.02273,2.02273,0,0,0,2.81153-.39453l14.96143-20A2.0005,2.0005,0,0,0,101.19824,88.39844Z"/></svg>
