<svg clip-rule="evenodd" fill-rule="evenodd" height="1.707in" image-rendering="optimizeQuality" shape-rendering="geometricPrecision" text-rendering="geometricPrecision" viewBox="0 0 1707 1707" width="1.707in" xmlns="http://www.w3.org/2000/svg"><g id="Layer_x0020_1"><path d="m1140 1707h-578c-32 0-57-26-57-58 0-28-5-58 8-67 75-50 75-167 0-217-13-10-8-39-8-67 0-32 25-58 57-58h578c32 0 58 26 58 58 0 27 5 60-9 70-68 50-68 161 0 211 14 10 9 42 9 70 0 32-26 58-58 58zm-596-98c0 26-6 58 18 58h578c24 0 17-33 17-62-79-66-79-196 0-263 0-29 7-62-17-62h-578c-24 0-18 32-18 58 86 66 86 204 0 271z"/><path d="m793 1593c-12 0-20-9-20-20v-200c0-26 40-26 40 0v200c0 11-10 20-20 20zm-117 0c-11 0-20-9-20-20v-200c0-26 40-26 40 0v200c0 11-9 20-20 20z"/><path d="m793 1493h-117c-26 0-26-40 0-40h117c26 0 26 40 0 40z"/><path d="m973 1498c-99 0-82 19-82-125 0-28 43-20 82-20 96 0 96 145 0 145zm-42-40c28 0 75 8 75-32s-47-33-75-33z"/><path d="m911 1593c-11 0-20-9-20-20v-95c0-26 40-26 40 0v95c0 11-9 20-20 20z"/><path d="m1011 1593c-7 0-13-3-17-10l-55-95c-13-22 22-43 35-20l55 95c7 14-2 30-18 30z"/><path d="m1010 1013c-11 0-20-9-20-20v-146c0-26 40-26 40 0v146c0 11-9 20-20 20zm-313 0c-11 0-20-9-20-20v-146c0-26 40-26 40 0v146c0 11-9 20-20 20z"/><path d="m274 1369c-11 0-20-9-20-20v-102c1-158 264-274 401-274h396c150 0 391 130 401 274l1 102c0 27-40 27-40 1l-1-101c-20-128-235-235-361-235h-396c-135 0-360 109-361 233v103c0 11-9 19-20 19z"/><path d="m853 1189c-4 0-8-1-11-4l-251-170c-17-12-7-33 8-36 5-1 10-1 15 3l239 163 240-163c5-4 10-4 14-3 15 3 25 24 8 36l-250 171c-4 2-8 3-12 3z"/><path d="m1010 1013c-21 0-28-27-10-37l253-142c-62-165-24-299-18-320 20-254-105-371-181-418-122-75-279-75-401 0-77 47-201 164-182 418 7 21 45 154-17 320l253 142c23 13 3 48-20 35l-268-151c-9-5-13-16-9-25 71-173 22-307 22-315-17-203 56-370 200-458 134-83 308-83 443 0 143 88 216 255 200 458-1 5-49 144 22 315 3 9 0 20-9 25-32 18-265 153-278 153z"/><path d="m954 252c-17 0-26-18-16-32 97-129 12-175 53-192 44-18 61 114-22 217-4 5-10 7-15 7z"/><path d="m853 879c-179 0-325-166-325-371 0-16-2-109 2-117 85-206 212 13 410-173 9-9 24-7 31 4 27 46 119 176 185 167 12-1 23 8 23 20v99c-1 205-146 371-326 371zm-285-477v106c0 182 128 330 285 330 158 0 285-148 285-330v-79c-80-9-158-118-189-166-200 170-314-19-381 139z"/><path d="m772 519c-3 0-46-14-71-2-24 11-41-26-17-37 30-13 124-13 106 27-3 7-10 12-18 12z"/><path d="m1014 519c-3 0-46-14-71-2-24 11-41-26-17-37 30-13 124-12 106 27-3 7-11 12-18 12z"/><path d="m854 727c-54 0-127-38-100-66 8-8 21-8 29-1 37 36 104 36 141 0 19-18 47 11 28 30-26 24-62 37-98 37z"/><path d="m1010 1013c-11 0-20-9-20-20v-184c0-27 40-27 40 0v184c0 11-9 20-20 20zm-313 0c-11 0-20-9-20-20v-184c0-27 40-27 40 0v184c0 11-9 20-20 20z"/><path d="m445 1643h-116c-51 0-92-42-92-92v-155c0-51 41-92 92-92h116c90 0 164 74 164 164v11c0 90-74 164-164 164zm-116-299c-29 0-52 23-52 52 0 229-25 207 168 207 68 0 124-56 124-124v-11c0-68-56-124-124-124z"/><path d="m1378 1643h-116c-90 0-164-74-164-164v-11c0-90 74-164 164-164h116c51 0 92 41 92 92v155c0 50-41 92-92 92zm-116-299c-68 0-124 56-124 124v11c0 68 56 124 124 124 192 0 168 22 168-207 0-29-23-52-52-52z"/></g></svg>