<?xml version="1.0" encoding="UTF-8"?>
<svg xmlns="http://www.w3.org/2000/svg" xmlns:xlink="http://www.w3.org/1999/xlink" version="1.1" id="Capa_1" x="0px" y="0px" viewBox="0 0 512 512" style="enable-background:new 0 0 512 512;" xml:space="preserve" width="512" height="512">
<g>
	<g>
		<g>
			<path style="fill:none;stroke:#000000;stroke-width:15;stroke-linecap:round;stroke-linejoin:round;stroke-miterlimit:10;" d="&#10;&#9;&#9;&#9;&#9;M131.756,352.381v149.064c-2.728,0-5.455-0.641-7.967-1.923L17.569,445.37C11.407,442.231,7.5,435.73,7.5,428.618V300.389&#10;&#9;&#9;&#9;&#9;c0-3.586,0.993-7.015,2.769-9.942L131.756,352.381z"/>
			<path style="fill:none;stroke:#000000;stroke-width:15;stroke-linecap:round;stroke-linejoin:round;stroke-miterlimit:10;" d="&#10;&#9;&#9;&#9;&#9;M210.462,463.462L256,440.253V289.04l-124.241,63.342v149.06c2.721,0,5.455-0.641,7.959-1.923l38.882-19.817"/>
			<path style="fill:none;stroke:#000000;stroke-width:15;stroke-linecap:round;stroke-linejoin:round;stroke-miterlimit:10;" d="&#10;&#9;&#9;&#9;&#9;M256,289.04l-124.241,63.342L10.264,290.443c1.681-2.758,4.064-5.08,6.967-6.628l114.529-61.552L256,289.04z"/>
		</g>
		<g>
			<path style="fill:none;stroke:#000000;stroke-width:15;stroke-linecap:round;stroke-linejoin:round;stroke-miterlimit:10;" d="&#10;&#9;&#9;&#9;&#9;M380.244,352.381v149.064c2.728,0,5.455-0.641,7.967-1.923l106.22-54.151c6.162-3.139,10.069-9.64,10.069-16.752V300.389&#10;&#9;&#9;&#9;&#9;c0-3.586-0.993-7.015-2.768-9.942L380.244,352.381z"/>
			<path style="fill:none;stroke:#000000;stroke-width:15;stroke-linecap:round;stroke-linejoin:round;stroke-miterlimit:10;" d="&#10;&#9;&#9;&#9;&#9;M380.241,352.382v149.06c-2.721,0-5.455-0.641-7.959-1.923L256,440.253V289.04L380.241,352.382z"/>
			<path style="fill:none;stroke:#000000;stroke-width:15;stroke-linecap:round;stroke-linejoin:round;stroke-miterlimit:10;" d="&#10;&#9;&#9;&#9;&#9;M316.1,256.737L256,289.04l124.241,63.342l121.495-61.939c-1.681-2.758-4.064-5.08-6.967-6.628l-50.38-27.076"/>
		</g>
		<g>
			<path style="fill:none;stroke:#000000;stroke-width:15;stroke-linecap:round;stroke-linejoin:round;stroke-miterlimit:10;" d="&#10;&#9;&#9;&#9;&#9;M256,138.273V289.04l-124.241-66.777l-0.003-135.977c0-3.586,0.993-7.015,2.768-9.941L256,138.273z"/>
			<path style="fill:none;stroke:#000000;stroke-width:15;stroke-linecap:round;stroke-linejoin:round;stroke-miterlimit:10;" d="&#10;&#9;&#9;&#9;&#9;M256,289.04V138.273l121.47-61.928c1.775,2.927,2.768,6.356,2.768,9.941l0.001,27.396"/>
			<path style="fill:none;stroke:#000000;stroke-width:15;stroke-linecap:round;stroke-linejoin:round;stroke-miterlimit:10;" d="&#10;&#9;&#9;&#9;&#9;M377.47,76.344L256,138.273L134.524,76.344c1.682-2.763,4.059-5.08,6.961-6.634l106.204-57.055&#10;&#9;&#9;&#9;&#9;c0.029-0.012,0.053-0.03,0.082-0.042c5.192-2.758,11.353-2.745,16.534,0.042l106.204,57.055&#10;&#9;&#9;&#9;&#9;C373.411,71.265,375.794,73.581,377.47,76.344z"/>
		</g>
	</g>
	<path style="fill:none;stroke:#000000;stroke-width:15;stroke-linecap:round;stroke-linejoin:round;stroke-miterlimit:10;" d="&#10;&#9;&#9;M433.996,173.149c-13.313-14.562-32.466-23.696-53.752-23.696c-40.212,0-72.81,32.598-72.81,72.81s32.598,72.81,72.81,72.81&#10;&#9;&#9;s72.81-32.598,72.81-72.81c0-6.178-0.769-12.176-2.218-17.904"/>
	
		<polyline style="fill:none;stroke:#000000;stroke-width:15;stroke-linecap:round;stroke-linejoin:round;stroke-miterlimit:10;" points="&#10;&#9;&#9;346.089,225.329 370.346,247.805 413.105,202.853 &#9;"/>
</g>















</svg>
