<svg enable-background="new 0 0 512 512" height="512" viewBox="0 0 512 512" width="512" xmlns="http://www.w3.org/2000/svg" xmlns:xlink="http://www.w3.org/1999/xlink"><linearGradient id="SVGID_1_" gradientUnits="userSpaceOnUse" x1="29.372" x2="480.256" y1="40.453" y2="491.336"><stop offset="0" stop-color="rgb(0,0,0)"/><stop offset="1" stop-color="rgb(0,0,0)"/></linearGradient><g id="Backup" display="none"><g display="inline"><path d="m113.684 361.077h87.463v87.463h-87.463z" fill="rgb(0,0,0)"/><path d="m201.146 361.077h87.463v87.463h-87.463z" fill="rgb(0,0,0)"/><path d="m288.609 361.077h87.463v87.463h-87.463z" fill="rgb(0,0,0)"/><path d="m113.684 213.443h87.463v87.463h-87.463z" fill="rgb(0,0,0)"/><path d="m201.146 213.443h87.463v87.463h-87.463z" fill="rgb(0,0,0)"/><path d="m288.609 213.443h87.463v87.463h-87.463z" fill="rgb(0,0,0)"/><path d="m113.684 65.81h87.463v87.463h-87.463z" fill="rgb(0,0,0)"/><path d="m44.461 153.273h400.834v25.278h-400.834z" style="fill:rgb(0,0,0);stroke:rgb(0,0,0);stroke-width:8;stroke-linecap:round;stroke-linejoin:round;stroke-miterlimit:10"/><path d="m44.461 300.906h400.834v25.278h-400.834z" style="fill:rgb(0,0,0);stroke:rgb(0,0,0);stroke-width:8;stroke-linecap:round;stroke-linejoin:round;stroke-miterlimit:10"/><path d="m44.461 448.54h400.834v25.278h-400.834z" style="fill:rgb(0,0,0);stroke:rgb(0,0,0);stroke-width:8;stroke-linecap:round;stroke-linejoin:round;stroke-miterlimit:10"/><path d="m31.822 43.658h25.277v464.342h-25.277z" style="fill:rgb(0,0,0);stroke:rgb(0,0,0);stroke-width:8;stroke-linecap:round;stroke-linejoin:round;stroke-miterlimit:10"/><path d="m432.656 43.658h25.277v464.342h-25.277z" style="fill:rgb(0,0,0);stroke:rgb(0,0,0);stroke-width:8;stroke-linecap:round;stroke-linejoin:round;stroke-miterlimit:10"/><path d="m168.791 386.936-11.375-6.677-11.377 6.677v-25.859h22.752z" fill="rgb(0,0,0)"/><path d="m113.684 448.54v-87.463h87.462v87.463" style="fill:none;stroke:rgb(0,0,0);stroke-width:8;stroke-linecap:round;stroke-linejoin:round;stroke-miterlimit:10"/><path d="m168.791 361.925v25.011l-11.375-6.677-11.377 6.677v-25.011" style="fill:none;stroke:rgb(0,0,0);stroke-width:8;stroke-linecap:round;stroke-linejoin:round;stroke-miterlimit:10"/><path d="m256.254 386.936-11.375-6.677-11.377 6.677v-25.859h22.752z" fill="rgb(0,0,0)"/><path d="m201.146 361.077h87.463v87.463" style="fill:none;stroke:rgb(0,0,0);stroke-width:8;stroke-linecap:round;stroke-linejoin:round;stroke-miterlimit:10"/><path d="" style="fill:none;stroke:rgb(0,0,0);stroke-width:8;stroke-linecap:round;stroke-linejoin:round;stroke-miterlimit:10"/><path d="m256.254 361.925v25.011l-11.375-6.677-11.377 6.677v-25.011" style="fill:none;stroke:rgb(0,0,0);stroke-width:8;stroke-linecap:round;stroke-linejoin:round;stroke-miterlimit:10"/><path d="m343.717 386.936-11.375-6.677-11.377 6.677v-25.859h22.752z" fill="rgb(0,0,0)"/><path d="m288.609 361.077h87.463v87.463" style="fill:none;stroke:rgb(0,0,0);stroke-width:8;stroke-linecap:round;stroke-linejoin:round;stroke-miterlimit:10"/><path d="" style="fill:none;stroke:rgb(0,0,0);stroke-width:8;stroke-linecap:round;stroke-linejoin:round;stroke-miterlimit:10"/><path d="m343.717 361.925v25.011l-11.375-6.677-11.377 6.677v-25.011" style="fill:none;stroke:rgb(0,0,0);stroke-width:8;stroke-linecap:round;stroke-linejoin:round;stroke-miterlimit:10"/><path d="m168.791 239.302-11.375-6.676-11.377 6.676v-25.859h22.752z" fill="rgb(0,0,0)"/><path d="m113.684 300.906v-87.463h87.462v87.463" style="fill:none;stroke:rgb(0,0,0);stroke-width:8;stroke-linecap:round;stroke-linejoin:round;stroke-miterlimit:10"/><path d="m168.791 214.292v25.01l-11.375-6.676-11.377 6.676v-25.01" style="fill:none;stroke:rgb(0,0,0);stroke-width:8;stroke-linecap:round;stroke-linejoin:round;stroke-miterlimit:10"/><path d="m256.254 239.302-11.375-6.676-11.377 6.676v-25.859h22.752z" fill="rgb(0,0,0)"/><path d="" style="fill:none;stroke:rgb(0,0,0);stroke-width:8;stroke-linecap:round;stroke-linejoin:round;stroke-miterlimit:10"/><path d="m201.146 213.443h87.463v87.463" style="fill:none;stroke:rgb(0,0,0);stroke-width:8;stroke-linecap:round;stroke-linejoin:round;stroke-miterlimit:10"/><path d="m256.254 214.292v25.01l-11.375-6.676-11.377 6.676v-25.01" style="fill:none;stroke:rgb(0,0,0);stroke-width:8;stroke-linecap:round;stroke-linejoin:round;stroke-miterlimit:10"/><path d="m343.717 239.302-11.375-6.676-11.377 6.676v-25.859h22.752z" fill="rgb(0,0,0)"/><path d="m288.609 213.443h87.463v87.463" style="fill:none;stroke:rgb(0,0,0);stroke-width:8;stroke-linecap:round;stroke-linejoin:round;stroke-miterlimit:10"/><path d="" style="fill:none;stroke:rgb(0,0,0);stroke-width:8;stroke-linecap:round;stroke-linejoin:round;stroke-miterlimit:10"/><path d="m343.717 214.292v25.01l-11.375-6.676-11.377 6.676v-25.01" style="fill:none;stroke:rgb(0,0,0);stroke-width:8;stroke-linecap:round;stroke-linejoin:round;stroke-miterlimit:10"/><path d="m168.791 91.668-11.375-6.676-11.377 6.676v-25.858h22.752z" fill="rgb(0,0,0)"/><g stroke="rgb(0,0,0)" stroke-linecap="round" stroke-linejoin="round" stroke-miterlimit="10" stroke-width="8"><path d="m113.684 153.273v-87.463h87.462v87.463" fill="none"/><path d="m168.791 66.658v25.01l-11.375-6.676-11.377 6.676v-25.01" fill="none"/><path d="m480.178 211.403c0 5.728-4.686 10.414-10.412 10.414h-133.424c-5.729 0-10.414-4.686-10.414-10.414v-180.936c0-5.727 4.686-10.414 10.414-10.414h133.424c5.727 0 10.412 4.687 10.412 10.414z" fill="rgb(0,0,0)"/><path d="m336.666 32.745h132.773v176.38h-132.773z" fill="rgb(0,0,0)"/><path d="m413.359 14.305c0-5.691-4.615-10.305-10.304-10.305-5.693 0-10.307 4.614-10.307 10.305h-14.426v23.864h49.463v-23.864z" fill="rgb(0,0,0)"/><path d="m354.492 59.977h16.863v16.863h-16.863z" fill="rgb(0,0,0)"/><path d="m386.01 68.407h66.906" fill="none"/><path d="m352.746 107.22h16.863v16.864h-16.863z" fill="rgb(0,0,0)"/><path d="m384.262 115.652h66.908" fill="none"/><path d="m352.746 159.748h16.863v16.862h-16.863z" fill="rgb(0,0,0)"/><path d="m384.262 168.179h66.908" fill="none"/></g></g></g><g id="Main" display="none"><g display="inline"><path d="m113.684 361.077h87.463v87.463h-87.463z" fill="rgb(0,0,0)"/><path d="m201.146 361.077h87.463v87.463h-87.463z" fill="rgb(0,0,0)"/><path d="m288.609 361.077h87.463v87.463h-87.463z" fill="rgb(0,0,0)"/><path d="m113.684 213.443h87.463v87.463h-87.463z" fill="rgb(0,0,0)"/><path d="m201.146 213.443h87.463v87.463h-87.463z" fill="rgb(0,0,0)"/><path d="m288.609 213.443h87.463v87.463h-87.463z" fill="rgb(0,0,0)"/><path d="m113.684 65.81h87.463v87.463h-87.463z" fill="rgb(0,0,0)"/><path d="m44.461 153.273h400.834v25.278h-400.834z" style="fill:rgb(0,0,0);stroke:rgb(0,0,0);stroke-width:8;stroke-linecap:round;stroke-linejoin:round;stroke-miterlimit:10"/><path d="m44.461 300.906h400.834v25.278h-400.834z" style="fill:rgb(0,0,0);stroke:rgb(0,0,0);stroke-width:8;stroke-linecap:round;stroke-linejoin:round;stroke-miterlimit:10"/><path d="m44.461 448.54h400.834v25.278h-400.834z" style="fill:rgb(0,0,0);stroke:rgb(0,0,0);stroke-width:8;stroke-linecap:round;stroke-linejoin:round;stroke-miterlimit:10"/><path d="m31.822 43.658h25.277v464.342h-25.277z" style="fill:rgb(0,0,0);stroke:rgb(0,0,0);stroke-width:8;stroke-linecap:round;stroke-linejoin:round;stroke-miterlimit:10"/><path d="m432.656 43.658h25.277v464.342h-25.277z" style="fill:rgb(0,0,0);stroke:rgb(0,0,0);stroke-width:8;stroke-linecap:round;stroke-linejoin:round;stroke-miterlimit:10"/><path d="m168.791 386.936-11.375-6.677-11.377 6.677v-25.859h22.752z" fill="rgb(0,0,0)"/><path d="m113.684 448.54v-87.463h87.462v87.463" style="fill:none;stroke:rgb(0,0,0);stroke-width:8;stroke-linecap:round;stroke-linejoin:round;stroke-miterlimit:10"/><path d="m168.791 361.925v25.011l-11.375-6.677-11.377 6.677v-25.011" style="fill:none;stroke:rgb(0,0,0);stroke-width:8;stroke-linecap:round;stroke-linejoin:round;stroke-miterlimit:10"/><path d="m256.254 386.936-11.375-6.677-11.377 6.677v-25.859h22.752z" fill="rgb(0,0,0)"/><path d="m201.146 361.077h87.463v87.463" style="fill:none;stroke:rgb(0,0,0);stroke-width:8;stroke-linecap:round;stroke-linejoin:round;stroke-miterlimit:10"/><path d="" style="fill:none;stroke:rgb(0,0,0);stroke-width:8;stroke-linecap:round;stroke-linejoin:round;stroke-miterlimit:10"/><path d="m256.254 361.925v25.011l-11.375-6.677-11.377 6.677v-25.011" style="fill:none;stroke:rgb(0,0,0);stroke-width:8;stroke-linecap:round;stroke-linejoin:round;stroke-miterlimit:10"/><path d="m343.717 386.936-11.375-6.677-11.377 6.677v-25.859h22.752z" fill="rgb(0,0,0)"/><path d="m288.609 361.077h87.463v87.463" style="fill:none;stroke:rgb(0,0,0);stroke-width:8;stroke-linecap:round;stroke-linejoin:round;stroke-miterlimit:10"/><path d="" style="fill:none;stroke:rgb(0,0,0);stroke-width:8;stroke-linecap:round;stroke-linejoin:round;stroke-miterlimit:10"/><path d="m343.717 361.925v25.011l-11.375-6.677-11.377 6.677v-25.011" style="fill:none;stroke:rgb(0,0,0);stroke-width:8;stroke-linecap:round;stroke-linejoin:round;stroke-miterlimit:10"/><path d="m168.791 239.302-11.375-6.676-11.377 6.676v-25.859h22.752z" fill="rgb(0,0,0)"/><path d="m113.684 300.906v-87.463h87.462v87.463" style="fill:none;stroke:rgb(0,0,0);stroke-width:8;stroke-linecap:round;stroke-linejoin:round;stroke-miterlimit:10"/><path d="m168.791 214.292v25.01l-11.375-6.676-11.377 6.676v-25.01" style="fill:none;stroke:rgb(0,0,0);stroke-width:8;stroke-linecap:round;stroke-linejoin:round;stroke-miterlimit:10"/><path d="m256.254 239.302-11.375-6.676-11.377 6.676v-25.859h22.752z" fill="rgb(0,0,0)"/><path d="" style="fill:none;stroke:rgb(0,0,0);stroke-width:8;stroke-linecap:round;stroke-linejoin:round;stroke-miterlimit:10"/><path d="m201.146 213.443h87.463v87.463" style="fill:none;stroke:rgb(0,0,0);stroke-width:8;stroke-linecap:round;stroke-linejoin:round;stroke-miterlimit:10"/><path d="m256.254 214.292v25.01l-11.375-6.676-11.377 6.676v-25.01" style="fill:none;stroke:rgb(0,0,0);stroke-width:8;stroke-linecap:round;stroke-linejoin:round;stroke-miterlimit:10"/><path d="m343.717 239.302-11.375-6.676-11.377 6.676v-25.859h22.752z" fill="rgb(0,0,0)"/><path d="m288.609 213.443h87.463v87.463" style="fill:none;stroke:rgb(0,0,0);stroke-width:8;stroke-linecap:round;stroke-linejoin:round;stroke-miterlimit:10"/><path d="" style="fill:none;stroke:rgb(0,0,0);stroke-width:8;stroke-linecap:round;stroke-linejoin:round;stroke-miterlimit:10"/><path d="m343.717 214.292v25.01l-11.375-6.676-11.377 6.676v-25.01" style="fill:none;stroke:rgb(0,0,0);stroke-width:8;stroke-linecap:round;stroke-linejoin:round;stroke-miterlimit:10"/><path d="m168.791 91.668-11.375-6.676-11.377 6.676v-25.858h22.752z" fill="rgb(0,0,0)"/><g stroke="rgb(0,0,0)" stroke-linecap="round" stroke-linejoin="round" stroke-miterlimit="10" stroke-width="8"><path d="m113.684 153.273v-87.463h87.462v87.463" fill="none"/><path d="m168.791 66.658v25.01l-11.375-6.676-11.377 6.676v-25.01" fill="none"/><path d="m480.178 211.403c0 5.728-4.686 10.414-10.412 10.414h-133.424c-5.729 0-10.414-4.686-10.414-10.414v-180.936c0-5.727 4.686-10.414 10.414-10.414h133.424c5.727 0 10.412 4.687 10.412 10.414z" fill="rgb(0,0,0)"/><path d="m336.666 32.745h132.773v176.38h-132.773z" fill="rgb(0,0,0)"/><path d="m413.359 14.305c0-5.691-4.615-10.305-10.304-10.305-5.693 0-10.307 4.614-10.307 10.305h-14.426v23.864h49.463v-23.864z" fill="rgb(0,0,0)"/><path d="m354.492 59.977h16.863v16.863h-16.863z" fill="rgb(0,0,0)"/><path d="m386.01 68.407h66.906" fill="none"/><path d="m352.746 107.22h16.863v16.864h-16.863z" fill="rgb(0,0,0)"/><path d="m384.262 115.652h66.908" fill="none"/><path d="m352.746 159.748h16.863v16.862h-16.863z" fill="rgb(0,0,0)"/><path d="m384.262 168.179h66.908" fill="none"/></g></g></g><g id="Shadow" display="none"><g display="inline"><path d="m113.684 361.077h87.463v87.463h-87.463z" fill="rgb(0,0,0)"/><path d="m201.146 361.077h87.463v87.463h-87.463z" fill="rgb(0,0,0)"/><path d="m288.609 361.077h87.463v87.463h-87.463z" fill="rgb(0,0,0)"/><path d="m113.684 213.443h87.463v87.463h-87.463z" fill="rgb(0,0,0)"/><path d="m201.146 213.443h87.463v87.463h-87.463z" fill="rgb(0,0,0)"/><path d="m288.609 213.443h87.463v87.463h-87.463z" fill="rgb(0,0,0)"/><path d="m113.684 65.81h87.463v87.463h-87.463z" fill="rgb(0,0,0)"/><path d="m44.461 153.273h400.834v25.278h-400.834z" fill="rgb(0,0,0)"/><path d="m44.461 300.906h400.834v25.278h-400.834z" fill="rgb(0,0,0)"/><path d="m44.461 448.54h400.834v25.278h-400.834z" fill="rgb(0,0,0)"/><path d="m31.822 43.658h25.277v464.342h-25.277z" fill="rgb(0,0,0)"/><path d="m432.656 43.658h25.277v464.342h-25.277z" fill="rgb(0,0,0)"/><g fill="rgb(0,0,0)"><path d="m168.791 386.936-11.375-6.677-11.377 6.677v-25.859h22.752z"/><path d="m256.254 386.936-11.375-6.677-11.377 6.677v-25.859h22.752z"/><path d="m343.717 386.936-11.375-6.677-11.377 6.677v-25.859h22.752z"/><path d="m168.791 239.302-11.375-6.676-11.377 6.676v-25.859h22.752z"/><path d="m256.254 239.302-11.375-6.676-11.377 6.676v-25.859h22.752z"/><path d="m343.717 239.302-11.375-6.676-11.377 6.676v-25.859h22.752z"/><path d="m168.791 91.668-11.375-6.676-11.377 6.676v-25.858h22.752z"/><path d="m480.178 211.403c0 5.728-4.686 10.414-10.412 10.414h-133.424c-5.729 0-10.414-4.686-10.414-10.414v-180.936c0-5.727 4.686-10.414 10.414-10.414h133.424c5.727 0 10.412 4.687 10.412 10.414z"/></g><path d="m336.666 32.745h132.773v176.38h-132.773z" fill="rgb(0,0,0)"/><path d="m413.359 14.305c0-5.691-4.615-10.305-10.304-10.305-5.693 0-10.307 4.614-10.307 10.305h-14.426v23.864h49.463v-23.864z" fill="rgb(0,0,0)"/><path d="m354.492 59.977h16.863v16.863h-16.863z" fill="rgb(0,0,0)"/><path d="m352.746 107.22h16.863v16.864h-16.863z" fill="rgb(0,0,0)"/><path d="m352.746 159.748h16.863v16.862h-16.863z" fill="rgb(0,0,0)"/></g></g><g id="Line" style="display:none;fill:none;stroke:rgb(0,0,0);stroke-width:8;stroke-linecap:round;stroke-linejoin:round;stroke-miterlimit:10"><path d="m113.684 448.54v-87.463h87.462v87.463" display="inline"/><path d="m168.791 361.925v25.011l-11.375-6.677-11.377 6.677v-25.011" display="inline"/><path d="m201.146 361.077h87.463v87.463" display="inline"/><path d="" display="inline"/><path d="m256.254 361.925v25.011l-11.375-6.677-11.377 6.677v-25.011" display="inline"/><path d="m288.609 361.077h87.463v87.463" display="inline"/><path d="" display="inline"/><path d="m343.717 361.925v25.011l-11.375-6.677-11.377 6.677v-25.011" display="inline"/><path d="m113.684 300.906v-87.463h87.462v87.463" display="inline"/><path d="m168.791 214.292v25.01l-11.375-6.676-11.377 6.676v-25.01" display="inline"/><path d="" display="inline"/><path d="m201.146 213.443h87.463v87.463" display="inline"/><path d="m256.254 214.292v25.01l-11.375-6.676-11.377 6.676v-25.01" display="inline"/><path d="m288.609 213.443h87.463v87.463" display="inline"/><path d="" display="inline"/><path d="m343.717 214.292v25.01l-11.375-6.676-11.377 6.676v-25.01" display="inline"/><path d="m113.684 153.273v-87.463h87.462v87.463" display="inline"/><path d="m168.791 66.658v25.01l-11.375-6.676-11.377 6.676v-25.01" display="inline"/><path d="m386.01 68.407h66.906" display="inline"/><path d="m384.262 115.652h66.908" display="inline"/><path d="m384.262 168.179h66.908" display="inline"/></g><g id="Base" display="none"><path d="m385.072 439.54v-78.463c0-4.962-4.037-9-9-9h-262.388c-4.963 0-9 4.038-9 9v78.463h-38.584v-104.356h357.557v104.356z" display="inline" fill="none"/><path d="m385.072 230.817h38.584v61.089h-38.584z" display="inline" fill="none"/><path d="m66.1 291.906v-104.355h250.828v16.893h-203.244c-4.963 0-9 4.038-9 9v78.463h-38.584z" display="inline" fill="none"/><path d="m122.684 439.54v-69.463h14.355v16.858c0 3.218 1.735 6.211 4.528 7.811 1.358.778 2.905 1.189 4.472 1.189 1.601 0 3.177-.428 4.557-1.239l6.82-4.002 6.819 4.002c1.381.81 2.956 1.238 4.556 1.238 1.567 0 3.114-.412 4.474-1.19 2.791-1.597 4.526-4.59 4.526-7.81v-16.858h14.355v69.463h-69.462z" display="inline" fill="rgb(0,0,0)"/><path d="m210.146 439.54v-69.463h14.355v16.858c0 3.218 1.735 6.211 4.528 7.811 1.358.778 2.905 1.189 4.472 1.189 1.601 0 3.177-.428 4.557-1.239l6.82-4.002 6.819 4.002c1.381.81 2.956 1.238 4.556 1.238 1.567 0 3.114-.412 4.474-1.19 2.791-1.597 4.526-4.59 4.526-7.81v-16.858h14.355v69.463h-69.462z" display="inline" fill="rgb(0,0,0)"/><path d="m297.609 439.54v-69.463h14.355v16.858c0 3.218 1.735 6.211 4.528 7.811 1.359.778 2.906 1.189 4.473 1.189 1.6 0 3.176-.428 4.556-1.239l6.82-4.002 6.819 4.002c1.381.81 2.956 1.238 4.556 1.238 1.567 0 3.114-.412 4.474-1.19 2.791-1.597 4.526-4.59 4.526-7.81v-16.858h14.355v69.463h-69.462z" display="inline" fill="rgb(0,0,0)"/><path d="m122.684 291.906v-69.463h14.355v16.859c0 3.218 1.735 6.211 4.528 7.811 1.357.778 2.904 1.189 4.472 1.189 1.6 0 3.175-.428 4.555-1.238l6.822-4.003 6.819 4.002c1.381.81 2.956 1.238 4.557 1.238 1.567 0 3.114-.412 4.474-1.191 2.79-1.596 4.525-4.589 4.525-7.809v-16.859h14.355v69.463h-69.462z" display="inline" fill="rgb(0,0,0)"/><path d="m210.146 291.906v-69.463h14.355v16.859c0 3.218 1.735 6.211 4.528 7.811 1.357.778 2.904 1.189 4.472 1.189 1.6 0 3.175-.428 4.555-1.238l6.822-4.003 6.819 4.002c1.381.81 2.956 1.238 4.557 1.238 1.567 0 3.114-.412 4.474-1.191 2.79-1.596 4.525-4.589 4.525-7.809v-16.859h14.355v69.463h-69.462z" display="inline" fill="rgb(0,0,0)"/><path d="m297.609 291.906v-69.463h14.355v16.859c0 3.218 1.735 6.211 4.528 7.811 1.357.778 2.904 1.189 4.472 1.189 1.6 0 3.175-.428 4.555-1.238l6.822-4.003 6.819 4.002c1.381.81 2.956 1.238 4.557 1.238 1.567 0 3.114-.412 4.474-1.191 2.79-1.596 4.525-4.589 4.525-7.809v-8.485h14.355v61.089h-69.462z" display="inline" fill="rgb(0,0,0)"/><path d="m122.684 144.273v-69.463h14.355v16.858c0 3.218 1.735 6.211 4.528 7.811 1.357.778 2.904 1.189 4.472 1.189 1.6 0 3.175-.428 4.555-1.238l6.822-4.003 6.819 4.002c1.381.81 2.956 1.238 4.557 1.238 1.567 0 3.114-.412 4.474-1.191 2.79-1.596 4.525-4.589 4.525-7.809v-16.857h14.355v69.463z" display="inline" fill="rgb(0,0,0)"/><path d="m66.1 162.273h250.828v7.278h-250.828z" display="inline" fill="rgb(0,0,0)"/><path d="m66.1 309.906h357.557v7.278h-357.557z" display="inline" fill="rgb(0,0,0)"/><path d="m66.1 457.54h357.557v7.278h-357.557z" display="inline" fill="rgb(0,0,0)"/><path d="m40.822 52.658h7.277v446.342h-7.277z" display="inline" fill="rgb(0,0,0)"/><path d="m441.656 230.817h7.277v268.183h-7.277z" display="inline" fill="rgb(0,0,0)"/><g fill="rgb(0,0,0)"><path d="m155.039 370.077h4.752v1.501c-.771-.211-1.569-.319-2.375-.319s-1.605.108-2.377.32z" display="inline"/><path d="m242.502 370.077h4.752v1.501c-.771-.211-1.569-.319-2.375-.319s-1.605.108-2.377.32z" display="inline"/><path d="m329.965 370.077h4.752v1.501c-.771-.211-1.569-.319-2.375-.319s-1.605.108-2.377.32z" display="inline"/><path d="m155.039 222.443h4.752v1.502c-.771-.21-1.569-.319-2.375-.319s-1.605.108-2.377.32z" display="inline"/><path d="m242.502 222.443h4.752v1.502c-.771-.21-1.569-.319-2.375-.319s-1.605.108-2.377.32z" display="inline"/><path d="m324.965 220.221v12.096l5.353-3.141c1.251-.734 2.8-.733 4.049 0l5.351 3.14v-6.5h-3.375c-4.626.001-8.739-2.198-11.378-5.595z" display="inline"/><path d="m155.039 74.81h4.752v1.501c-.771-.21-1.569-.319-2.375-.319s-1.605.108-2.377.32z" display="inline"/><path d="m329.928 211.403c0 3.537 2.877 6.414 6.414 6.414h133.424c3.536 0 6.412-2.877 6.412-6.414v-180.936c0-3.537-2.876-6.414-6.412-6.414h-37.98v4.692h37.654c2.209 0 4 1.791 4 4v176.38c0 2.209-1.791 4-4 4h-132.774c-2.209 0-4-1.791-4-4v-176.38c0-2.209 1.791-4 4-4h37.656v-4.692h-37.98c-3.537 0-6.414 2.877-6.414 6.414z" display="inline"/></g><path d="m345.666 200.125v-17.965c1.649 2.099 4.21 3.45 7.08 3.45h16.863c4.963 0 9-4.038 9-9v-1.432c1.546 1.251 3.514 2.001 5.652 2.001h66.908c4.963 0 9-4.038 9-9s-4.037-9-9-9h-66.908c-2.139 0-4.106.75-5.652 2.001v-1.432c0-4.962-4.037-9-9-9h-16.863c-2.87 0-5.431 1.351-7.08 3.45v-24.563c1.649 2.099 4.21 3.45 7.08 3.45h16.863c4.963 0 9-4.038 9-9v-1.433c1.546 1.251 3.514 2.001 5.652 2.001h66.908c4.963 0 9-4.038 9-9s-4.037-9-9-9h-66.908c-2.139 0-4.106.75-5.652 2.001v-1.433c0-4.962-4.037-9-9-9h-16.863c-2.87 0-5.431 1.351-7.08 3.45v-23.066c.822 4.12 4.468 7.234 8.826 7.234h16.863c4.963 0 9-4.038 9-9v-1.436c1.546 1.252 3.515 2.003 5.654 2.003h66.906c3.142 0 5.913-1.619 7.523-4.065v126.784zm114.773-136.652c-1.61-2.447-4.382-4.065-7.523-4.065h-66.906c-2.14 0-4.108.751-5.654 2.003v-1.434c0-4.962-4.037-9-9-9h-16.863c-4.358 0-8.004 3.114-8.826 7.234v-16.466h24.397c1.386 3.189 4.565 5.424 8.259 5.424h49.463c3.693 0 6.873-2.235 8.259-5.424h24.396v21.728z" display="inline" fill="rgb(0,0,0)"/><path d="m387.322 29.169v-5.864h5.426c4.963 0 9-4.038 9-9 0-.72.586-1.305 1.307-1.305.72 0 1.305.585 1.305 1.305 0 4.962 4.037 9 9 9h5.426v5.864z" display="inline" fill="rgb(0,0,0)"/><path d="m358.492 63.977h8.863v8.863h-8.863z" display="inline" fill="rgb(0,0,0)"/><path d="m356.746 111.22h8.863v8.864h-8.863z" display="inline" fill="rgb(0,0,0)"/><path d="m356.746 163.748h8.863v8.862h-8.863z" display="inline" fill="rgb(0,0,0)"/></g><g id="Blue" display="none"><g display="inline"><path d="m109.684 444.54v-83.463c0-2.209 1.791-4 4-4h87.463 87.463 87.463c2.209 0 4 1.791 4 4v83.463h48.584v-114.356h-367.557v114.356z" fill="none"/><path d="m380.072 225.817h48.584v71.089h-48.584z" fill="none"/><path d="m61.1 182.551v114.355h48.584v-83.463c0-2.209 1.791-4 4-4h87.463 87.463 33.318v-26.893h-260.828z" fill="none"/><path d="m197.146 365.077h-24.355v21.858c0 1.434-.768 2.759-2.013 3.471-.615.353-1.302.529-1.987.529-.7 0-1.399-.184-2.024-.55l-9.351-5.488-9.353 5.488c-1.236.726-2.768.734-4.012.021-1.245-.713-2.013-2.037-2.013-3.471v-21.858h-24.355v79.463h79.463z" fill="rgb(0,0,0)"/><path d="m284.609 365.077h-24.355v21.858c0 1.434-.768 2.759-2.013 3.471-.615.353-1.302.529-1.987.529-.7 0-1.399-.184-2.024-.55l-9.351-5.488-9.353 5.488c-1.236.726-2.768.734-4.012.021-1.245-.713-2.013-2.037-2.013-3.471v-21.858h-24.355v79.463h79.463z" fill="rgb(0,0,0)"/><path d="m372.072 365.077h-24.355v21.858c0 1.434-.768 2.759-2.013 3.471-.615.353-1.302.529-1.987.529-.7 0-1.399-.184-2.024-.55l-9.351-5.488-9.353 5.488c-1.236.726-2.767.734-4.012.021s-2.013-2.037-2.013-3.471v-21.858h-24.355v79.463h79.463z" fill="rgb(0,0,0)"/><path d="m117.684 217.443v79.463h79.463v-79.463h-24.355v21.859c0 1.434-.768 2.759-2.013 3.471-1.243.713-2.774.705-4.012-.021l-9.351-5.488-9.353 5.488c-.625.367-1.324.55-2.024.55-.686 0-1.372-.176-1.987-.529-1.245-.713-2.013-2.037-2.013-3.471v-21.859z" fill="rgb(0,0,0)"/><path d="m284.609 217.443h-24.355v21.859c0 1.434-.768 2.759-2.013 3.471-1.243.713-2.774.705-4.012-.021l-9.351-5.488-9.353 5.488c-.625.367-1.324.55-2.024.55-.686 0-1.372-.176-1.987-.529-1.245-.713-2.013-2.037-2.013-3.471v-21.859h-24.355v79.463h79.463z" fill="rgb(0,0,0)"/><path d="m347.717 239.302c0 1.434-.768 2.759-2.013 3.471-1.243.713-2.774.705-4.012-.021l-9.351-5.488-9.353 5.488c-.625.367-1.324.55-2.024.55-.686 0-1.372-.176-1.987-.529-1.245-.713-2.013-2.037-2.013-3.471v-21.859h-24.355v79.463h79.463v-71.089h-24.355z" fill="rgb(0,0,0)"/><path d="m197.146 149.273v-79.463h-24.355v21.858c0 1.434-.768 2.759-2.013 3.471-1.243.713-2.774.705-4.012-.021l-9.351-5.488-9.353 5.488c-.625.367-1.324.55-2.024.55-.686 0-1.372-.176-1.987-.529-1.245-.713-2.013-2.037-2.013-3.471v-21.858h-24.355v79.463z" fill="rgb(0,0,0)"/><path d="m61.1 157.273h260.828v17.278h-260.828z" fill="rgb(0,0,0)"/><path d="m61.1 304.906h367.557v17.278h-367.557z" fill="rgb(0,0,0)"/><path d="m61.1 452.54h367.557v17.278h-367.557z" fill="rgb(0,0,0)"/><path d="m35.822 47.658h17.277v456.342h-17.277z" fill="rgb(0,0,0)"/><path d="m436.656 225.817h17.277v278.183h-17.277z" fill="rgb(0,0,0)"/><g fill="rgb(0,0,0)"><path d="m155.392 376.81c1.25-.733 2.799-.733 4.049 0l5.351 3.14v-14.873h-14.752v14.873z"/><path d="m242.854 376.81c1.25-.733 2.799-.733 4.049 0l5.351 3.14v-14.873h-14.752v14.873z"/><path d="m330.317 376.81c1.25-.733 2.799-.733 4.049 0l5.351 3.14v-14.873h-14.752v14.873z"/><path d="m155.392 229.176c1.251-.734 2.8-.733 4.049 0l5.351 3.14v-14.873h-14.752v14.874z"/><path d="m242.854 229.176c1.251-.734 2.8-.733 4.049 0l5.351 3.14v-14.873h-14.752v14.874z"/><path d="m324.965 220.221v12.096l5.353-3.141c1.251-.734 2.8-.733 4.049 0l5.351 3.14v-6.5h-3.375c-4.626.001-8.739-2.198-11.378-5.595z"/><path d="m155.392 81.542c1.251-.734 2.8-.733 4.049 0l5.351 3.14v-14.872h-14.752v14.873z"/><path d="m329.928 211.403c0 3.537 2.877 6.414 6.414 6.414h133.424c3.536 0 6.412-2.877 6.412-6.414v-180.936c0-3.537-2.876-6.414-6.412-6.414h-37.98v4.692h37.654c2.209 0 4 1.791 4 4v176.38c0 2.209-1.791 4-4 4h-132.774c-2.209 0-4-1.791-4-4v-176.38c0-2.209 1.791-4 4-4h37.656v-4.692h-37.98c-3.537 0-6.414 2.877-6.414 6.414z"/></g><path d="m465.439 205.125v-168.38h-33.654v1.424c0 2.209-1.791 4-4 4h-49.463c-2.209 0-4-1.791-4-4v-1.424h-33.656v168.38zm-14.269-32.946h-66.908c-2.209 0-4-1.791-4-4s1.791-4 4-4h66.908c2.209 0 4 1.791 4 4s-1.791 4-4 4zm-65.16-107.772h66.906c2.209 0 4 1.791 4 4s-1.791 4-4 4h-66.906c-2.209 0-4-1.791-4-4s1.791-4 4-4zm-1.748 47.245h66.908c2.209 0 4 1.791 4 4s-1.791 4-4 4h-66.908c-2.209 0-4-1.791-4-4s1.791-4 4-4zm-33.77-51.675c0-2.209 1.791-4 4-4h16.863c2.209 0 4 1.791 4 4v16.863c0 2.209-1.791 4-4 4h-16.863c-2.209 0-4-1.791-4-4zm-1.746 47.243c0-2.209 1.791-4 4-4h16.863c2.209 0 4 1.791 4 4v16.864c0 2.209-1.791 4-4 4h-16.863c-2.209 0-4-1.791-4-4zm0 69.39v-16.862c0-2.209 1.791-4 4-4h16.863c2.209 0 4 1.791 4 4v16.862c0 2.209-1.791 4-4 4h-16.863c-2.209 0-4-1.791-4-4z" fill="rgb(0,0,0)"/><path d="m382.322 34.169h41.463v-15.864h-10.426c-2.209 0-4-1.791-4-4 0-3.477-2.828-6.305-6.305-6.305-3.478 0-6.307 2.829-6.307 6.305 0 2.209-1.791 4-4 4h-10.426v15.864z" fill="rgb(0,0,0)"/><path d="m358.492 63.977h8.863v8.863h-8.863z" fill="rgb(0,0,0)"/><path d="m356.746 111.22h8.863v8.864h-8.863z" fill="rgb(0,0,0)"/><path d="m356.746 163.748h8.863v8.862h-8.863z" fill="rgb(0,0,0)"/></g></g><g id="Glyph" display="none"><path d="m54.813 450.622v-118.045h379.413v118.045h-50.151v-86.155c0-2.28-1.849-4.129-4.129-4.129h-90.284-90.284-90.284c-2.28 0-4.129 1.849-4.129 4.129v86.155zm329.261-225.779v73.382h50.151v-73.382zm-329.261-44.661v118.044h50.151v-86.155c0-2.28 1.849-4.129 4.129-4.129h90.284 90.284 34.394v-27.76zm140.435 188.414h-25.142v22.563c0 1.48-.792 2.848-2.077 3.583-.635.364-1.344.546-2.052.546-.723 0-1.444-.189-2.09-.568l-9.651-5.665-9.654 5.665c-1.276.75-2.857.758-4.142.022s-2.077-2.103-2.077-3.583v-22.563h-25.142v82.026h82.026v-82.026zm90.284 0h-25.142v22.563c0 1.48-.792 2.848-2.077 3.583-.635.364-1.344.546-2.052.546-.723 0-1.444-.189-2.09-.568l-9.651-5.665-9.654 5.665c-1.276.75-2.857.758-4.142.022s-2.077-2.103-2.077-3.583v-22.563h-25.142v82.026h82.026v-82.026zm90.284 0h-25.141v22.563c0 1.48-.793 2.848-2.078 3.583-.635.364-1.344.546-2.051.546-.724 0-1.445-.189-2.09-.568l-9.652-5.665-9.654 5.665c-1.276.75-2.855.758-4.142.022-1.285-.736-2.077-2.103-2.077-3.583v-22.563h-25.141v82.026h82.026zm-262.594-152.396v82.026h82.026v-82.026h-25.142v22.564c0 1.48-.792 2.848-2.077 3.583-1.283.736-2.864.728-4.142-.022l-9.651-5.665-9.654 5.665c-.646.378-1.367.568-2.09.568-.708 0-1.417-.182-2.052-.546-1.285-.736-2.077-2.103-2.077-3.583v-22.564zm172.31 0h-25.142v22.564c0 1.48-.792 2.848-2.077 3.583-1.283.736-2.864.728-4.142-.022l-9.651-5.665-9.654 5.665c-.646.378-1.367.568-2.09.568-.708 0-1.417-.182-2.052-.546-1.285-.736-2.077-2.103-2.077-3.583v-22.564h-25.142v82.026h82.026v-82.026zm65.144 22.564c0 1.48-.793 2.848-2.078 3.583-1.283.736-2.863.728-4.141-.022l-9.652-5.665-9.654 5.665c-.646.378-1.367.568-2.09.568-.708 0-1.416-.182-2.052-.546-1.285-.736-2.077-2.103-2.077-3.583v-22.564h-25.142v82.026h82.026v-73.382h-25.141v13.92zm-155.428-92.934v-82.026h-25.142v22.564c0 1.48-.792 2.848-2.077 3.583-1.283.736-2.864.727-4.142-.022l-9.651-5.665-9.654 5.665c-.646.379-1.367.568-2.09.568-.708 0-1.417-.182-2.052-.546-1.285-.736-2.077-2.103-2.077-3.583v-22.564h-25.142v82.026zm-140.435 26.093h269.242v-17.835h-269.242zm379.413 152.396v-17.835h-379.413v17.835zm0 134.561h-379.413v17.835h379.413zm-387.671-417.943h-17.835v471.063h17.835zm395.929 183.906v287.157h17.834v-287.157zm-290.338 155.864c1.29-.757 2.889-.757 4.179 0l5.523 3.242v-15.353h-15.228v15.353zm90.285 0c1.29-.757 2.889-.757 4.179 0l5.523 3.242v-15.353h-15.228v15.353zm90.284 0c1.29-.757 2.889-.757 4.18 0l5.522 3.242v-15.353h-15.228v15.353zm-180.569-152.396c1.291-.758 2.89-.756 4.179 0l5.523 3.241v-15.352h-15.228v15.353zm90.285 0c1.291-.758 2.89-.756 4.179 0l5.523 3.241v-15.352h-15.228v15.353zm84.758-9.244v12.486l5.525-3.242c1.291-.758 2.89-.756 4.18 0l5.522 3.241v-6.709h-3.483c-4.774 0-9.02-2.269-11.744-5.776zm-175.043-143.152c1.291-.758 2.89-.757 4.179 0l5.523 3.241v-15.352h-15.228v15.353zm180.167 134.05c0 3.65 2.97 6.62 6.621 6.62h137.728c3.65 0 6.619-2.97 6.619-6.62v-186.773c0-3.65-2.969-6.621-6.619-6.621h-39.206v4.843h38.869c2.28 0 4.129 1.849 4.129 4.129v182.07c0 2.28-1.849 4.129-4.129 4.129h-137.057c-2.279 0-4.129-1.849-4.129-4.129v-182.07c0-2.28 1.85-4.129 4.129-4.129h38.871v-4.843h-39.205c-3.651 0-6.621 2.97-6.621 6.621zm11.084-6.481v-173.812h34.741v1.47c0 2.28 1.85 4.129 4.129 4.129h51.059c2.281 0 4.129-1.849 4.129-4.129v-1.47h34.74v173.812zm118.198-38.138c0-2.28-1.849-4.129-4.129-4.129h-69.066c-2.28 0-4.129 1.849-4.129 4.129s1.849 4.129 4.129 4.129h69.066c2.28 0 4.129-1.849 4.129-4.129zm-75.521-102.99c0 2.28 1.85 4.129 4.129 4.129h69.064c2.281 0 4.13-1.849 4.13-4.129s-1.849-4.129-4.13-4.129h-69.064c-2.279 0-4.129 1.849-4.129 4.129zm-1.803 48.769c0 2.28 1.849 4.129 4.129 4.129h69.066c2.28 0 4.129-1.849 4.129-4.129s-1.849-4.129-4.129-4.129h-69.066c-2.281 0-4.129 1.849-4.129 4.129zm-30.731-40.064c0 2.28 1.849 4.129 4.13 4.129h17.406c2.281 0 4.129-1.849 4.129-4.129v-17.408c0-2.28-1.848-4.129-4.129-4.129h-17.406c-2.281 0-4.13 1.849-4.13 4.129zm-1.802 48.768c0 2.28 1.849 4.129 4.129 4.129h17.407c2.28 0 4.129-1.849 4.129-4.129v-17.408c0-2.28-1.849-4.129-4.129-4.129h-17.407c-2.28 0-4.129 1.849-4.129 4.129zm4.129 58.349h17.407c2.28 0 4.129-1.849 4.129-4.129v-17.406c0-2.28-1.849-4.129-4.129-4.129h-17.407c-2.28 0-4.129 1.849-4.129 4.129v17.406c0 2.281 1.849 4.129 4.129 4.129zm30.53-151.164h42.8v-16.376h-10.762c-2.28 0-4.129-1.849-4.129-4.129 0-3.589-2.92-6.509-6.508-6.509-3.59 0-6.511 2.92-6.511 6.509 0 2.28-1.849 4.129-4.129 4.129h-10.762v16.376zm-15.45 30.768h-9.148v9.149h9.148zm-1.801 48.768h-9.149v9.15h9.149zm0 63.37v-9.148h-9.149v9.148z" display="inline"/></g><g id="Outline"><path d="m31.822 512h25.278c2.209 0 4-1.791 4-4v-30.182h367.557v30.182c0 2.209 1.791 4 4 4h25.277c2.209 0 4-1.791 4-4v-282.183h7.832c7.947 0 14.412-6.466 14.412-14.414v-180.936c0-7.948-6.465-14.414-14.412-14.414h-37.98v-1.748c0-2.209-1.791-4-4-4h-10.996c-1.734-5.947-7.235-10.305-13.735-10.305-6.501 0-12.003 4.358-13.737 10.305h-10.995c-2.209 0-4 1.791-4 4v1.748h-37.98c-7.948 0-14.414 6.466-14.414 14.414v118.806h-116.783v-83.463c0-2.209-1.791-4-4-4h-87.463c-2.209 0-4 1.791-4 4v83.463h-48.583v-105.615c0-2.209-1.791-4-4-4h-25.278c-2.209 0-4 1.791-4 4v464.342c0 2.209 1.791 4 4 4zm4-464.342h17.278v456.342h-17.278zm128.969 22.152v14.873l-5.351-3.14c-1.249-.733-2.798-.734-4.049 0l-5.353 3.141v-14.874zm-22.752 0v21.858c0 1.434.768 2.758 2.013 3.471.615.353 1.302.529 1.987.529.7 0 1.399-.184 2.024-.55l9.353-5.488 9.351 5.488c1.237.726 2.769.734 4.012.021 1.245-.712 2.013-2.037 2.013-3.471v-21.858h24.355v79.463h-79.463v-79.463zm179.889 87.463v17.278h-260.828v-17.278zm14.414-133.22h37.98v4.692h-37.656c-2.209 0-4 1.791-4 4v176.38c0 2.209 1.791 4 4 4h132.773c2.209 0 4-1.791 4-4v-176.38c0-2.209-1.791-4-4-4h-37.654v-4.692h37.98c3.536 0 6.412 2.877 6.412 6.414v180.936c0 3.537-2.876 6.414-6.412 6.414h-133.423c-3.537 0-6.414-2.877-6.414-6.414v-180.936c0-3.536 2.877-6.414 6.414-6.414zm56.406-5.748c2.209 0 4-1.791 4-4 0-3.477 2.829-6.305 6.307-6.305 3.477 0 6.305 2.829 6.305 6.305 0 2.209 1.791 4 4 4h10.426v15.864h-41.463v-15.864zm-52.082 18.44h33.656v1.424c0 2.209 1.791 4 4 4h49.463c2.209 0 4-1.791 4-4v-1.424h33.654v168.38h-124.773zm95.99 467.255v-278.183h17.277v278.183zm-271.865-286.557v14.873l-5.351-3.14c-1.249-.733-2.798-.734-4.049 0l-5.353 3.141v-14.874zm-20.739 25.33c.615.353 1.302.529 1.987.529.7 0 1.399-.184 2.024-.55l9.353-5.488 9.351 5.488c1.237.726 2.769.734 4.012.021 1.245-.712 2.013-2.037 2.013-3.471v-21.859h24.355v79.463h-79.463v-79.463h24.355v21.859c0 1.434.768 2.759 2.013 3.471zm61.094-25.33h24.355v21.859c0 1.434.768 2.758 2.013 3.471.615.353 1.302.529 1.987.529.7 0 1.399-.184 2.024-.55l9.353-5.488 9.351 5.488c1.237.726 2.769.734 4.012.021 1.245-.712 2.013-2.037 2.013-3.471v-21.859h24.355v79.463h-79.463zm47.108 0v14.873l-5.351-3.14c-1.249-.733-2.798-.734-4.049 0l-5.353 3.141v-14.874zm127.818 79.463v-71.089h48.584v71.089zm-8 0h-79.463v-79.463h24.355v21.859c0 1.434.768 2.758 2.013 3.471.615.353 1.302.529 1.987.529.7 0 1.399-.184 2.024-.55l9.353-5.488 9.351 5.488c1.237.726 2.769.734 4.012.021 1.245-.712 2.013-2.037 2.013-3.471v-13.485h24.355zm-32.355-64.59-5.351-3.14c-1.249-.733-2.798-.734-4.049 0l-5.353 3.141v-12.096c2.639 3.397 6.752 5.596 11.377 5.596h3.375v6.499zm-51.108-22.873h-87.463-87.463c-2.209 0-4 1.791-4 4v83.463h-48.583v-114.355h260.828v26.893h-33.319zm140.047 95.463v17.278h-367.556v-17.278zm0 25.278v114.356h-48.584v-83.463c0-2.209-1.791-4-4-4h-87.463-87.463-87.463c-2.209 0-4 1.791-4 4v83.463h-48.583v-114.356zm-88.939 34.893v14.873l-5.351-3.14c-1.25-.733-2.799-.733-4.049 0l-5.353 3.141v-14.873h14.753zm-87.463 0v14.873l-5.351-3.14c-1.25-.733-2.799-.733-4.049 0l-5.353 3.141v-14.873h14.753zm-87.463 0v14.873l-5.351-3.14c-1.25-.733-2.799-.733-4.049 0l-5.353 3.141v-14.873h14.753zm-47.107 0h24.355v21.858c0 1.434.768 2.758 2.013 3.471 1.244.713 2.775.705 4.012-.021l9.353-5.488 9.351 5.488c.625.367 1.324.55 2.024.55.686 0 1.372-.176 1.987-.529 1.245-.712 2.013-2.037 2.013-3.471v-21.858h24.355v79.463h-79.463zm87.462 0h24.355v21.858c0 1.434.768 2.758 2.013 3.471 1.244.713 2.775.705 4.012-.021l9.353-5.488 9.351 5.488c.625.367 1.324.55 2.024.55.686 0 1.372-.176 1.987-.529 1.245-.712 2.013-2.037 2.013-3.471v-21.858h24.355v79.463h-79.463zm87.463 0h24.355v21.858c0 1.434.768 2.758 2.013 3.471s2.775.705 4.012-.021l9.353-5.488 9.351 5.488c.625.367 1.324.55 2.024.55.686 0 1.372-.176 1.987-.529 1.245-.712 2.013-2.037 2.013-3.471v-21.858h24.355v79.463h-79.463zm-231.509 87.463h367.557v17.278h-367.557z"/><path d="m354.492 80.84h16.863c2.209 0 4-1.791 4-4v-16.863c0-2.209-1.791-4-4-4h-16.863c-2.209 0-4 1.791-4 4v16.863c0 2.209 1.791 4 4 4zm4-16.863h8.863v8.863h-8.863z"/><path d="m386.01 72.407h66.906c2.209 0 4-1.791 4-4s-1.791-4-4-4h-66.906c-2.209 0-4 1.791-4 4s1.791 4 4 4z"/><path d="m352.746 128.084h16.863c2.209 0 4-1.791 4-4v-16.864c0-2.209-1.791-4-4-4h-16.863c-2.209 0-4 1.791-4 4v16.864c0 2.209 1.791 4 4 4zm4-16.864h8.863v8.864h-8.863z"/><path d="m384.262 119.652h66.908c2.209 0 4-1.791 4-4s-1.791-4-4-4h-66.908c-2.209 0-4 1.791-4 4s1.791 4 4 4z"/><path d="m352.746 180.61h16.863c2.209 0 4-1.791 4-4v-16.862c0-2.209-1.791-4-4-4h-16.863c-2.209 0-4 1.791-4 4v16.862c0 2.209 1.791 4 4 4zm12.863-16.862v8.862h-8.863v-8.862z"/><path d="m451.17 164.179h-66.908c-2.209 0-4 1.791-4 4s1.791 4 4 4h66.908c2.209 0 4-1.791 4-4s-1.791-4-4-4z"/></g><g id="Gradient" display="none"><path d="m31.822 512h25.278c2.209 0 4-1.791 4-4v-30.182h367.557v30.182c0 2.209 1.791 4 4 4h25.277c2.209 0 4-1.791 4-4v-282.183h7.832c7.947 0 14.412-6.466 14.412-14.414v-180.936c0-7.948-6.465-14.414-14.412-14.414h-37.98v-1.748c0-2.209-1.791-4-4-4h-10.996c-1.734-5.947-7.235-10.305-13.735-10.305-6.501 0-12.003 4.358-13.737 10.305h-10.995c-2.209 0-4 1.791-4 4v1.748h-37.98c-7.948 0-14.414 6.466-14.414 14.414v118.806h-116.783v-83.463c0-2.209-1.791-4-4-4h-87.463c-2.209 0-4 1.791-4 4v83.463h-48.583v-105.615c0-2.209-1.791-4-4-4h-25.278c-2.209 0-4 1.791-4 4v464.342c0 2.209 1.791 4 4 4zm4-464.342h17.278v456.342h-17.278zm128.969 22.152v14.873l-5.351-3.14c-1.249-.733-2.798-.734-4.049 0l-5.353 3.141v-14.874zm-22.752 0v21.858c0 1.434.768 2.758 2.013 3.471.615.353 1.302.529 1.987.529.7 0 1.399-.184 2.024-.55l9.353-5.488 9.351 5.488c1.237.726 2.769.734 4.012.021 1.245-.712 2.013-2.037 2.013-3.471v-21.858h24.355v79.463h-79.463v-79.463zm179.889 87.463v17.278h-260.828v-17.278zm14.414-133.22h37.98v4.692h-37.656c-2.209 0-4 1.791-4 4v176.38c0 2.209 1.791 4 4 4h132.773c2.209 0 4-1.791 4-4v-176.38c0-2.209-1.791-4-4-4h-37.654v-4.692h37.98c3.536 0 6.412 2.877 6.412 6.414v180.936c0 3.537-2.876 6.414-6.412 6.414h-133.423c-3.537 0-6.414-2.877-6.414-6.414v-180.936c0-3.536 2.877-6.414 6.414-6.414zm56.406-5.748c2.209 0 4-1.791 4-4 0-3.477 2.829-6.305 6.307-6.305 3.477 0 6.305 2.829 6.305 6.305 0 2.209 1.791 4 4 4h10.426v15.864h-41.463v-15.864zm-52.082 18.44h33.656v1.424c0 2.209 1.791 4 4 4h49.463c2.209 0 4-1.791 4-4v-1.424h33.654v168.38h-124.773zm95.99 467.255v-278.183h17.277v278.183zm-271.865-286.557v14.873l-5.351-3.14c-1.249-.733-2.798-.734-4.049 0l-5.353 3.141v-14.874zm-20.739 25.33c.615.353 1.302.529 1.987.529.7 0 1.399-.184 2.024-.55l9.353-5.488 9.351 5.488c1.237.726 2.769.734 4.012.021 1.245-.712 2.013-2.037 2.013-3.471v-21.859h24.355v79.463h-79.463v-79.463h24.355v21.859c0 1.434.768 2.759 2.013 3.471zm61.094-25.33h24.355v21.859c0 1.434.768 2.758 2.013 3.471.615.353 1.302.529 1.987.529.7 0 1.399-.184 2.024-.55l9.353-5.488 9.351 5.488c1.237.726 2.769.734 4.012.021 1.245-.712 2.013-2.037 2.013-3.471v-21.859h24.355v79.463h-79.463zm47.108 0v14.873l-5.351-3.14c-1.249-.733-2.798-.734-4.049 0l-5.353 3.141v-14.874zm127.818 79.463v-71.089h48.584v71.089zm-8 0h-79.463v-79.463h24.355v21.859c0 1.434.768 2.758 2.013 3.471.615.353 1.302.529 1.987.529.7 0 1.399-.184 2.024-.55l9.353-5.488 9.351 5.488c1.237.726 2.769.734 4.012.021 1.245-.712 2.013-2.037 2.013-3.471v-13.485h24.355zm-32.355-64.59-5.351-3.14c-1.249-.733-2.798-.734-4.049 0l-5.353 3.141v-12.096c2.639 3.397 6.752 5.596 11.377 5.596h3.375v6.499zm-51.108-22.873h-87.463-87.463c-2.209 0-4 1.791-4 4v83.463h-48.583v-114.355h260.828v26.893h-33.319zm140.047 95.463v17.278h-367.556v-17.278zm0 25.278v114.356h-48.584v-83.463c0-2.209-1.791-4-4-4h-87.463-87.463-87.463c-2.209 0-4 1.791-4 4v83.463h-48.583v-114.356zm-88.939 34.893v14.873l-5.351-3.14c-1.25-.733-2.799-.733-4.049 0l-5.353 3.141v-14.873h14.753zm-87.463 0v14.873l-5.351-3.14c-1.25-.733-2.799-.733-4.049 0l-5.353 3.141v-14.873h14.753zm-87.463 0v14.873l-5.351-3.14c-1.25-.733-2.799-.733-4.049 0l-5.353 3.141v-14.873h14.753zm-47.107 0h24.355v21.858c0 1.434.768 2.758 2.013 3.471 1.244.713 2.775.705 4.012-.021l9.353-5.488 9.351 5.488c.625.367 1.324.55 2.024.55.686 0 1.372-.176 1.987-.529 1.245-.712 2.013-2.037 2.013-3.471v-21.858h24.355v79.463h-79.463zm87.462 0h24.355v21.858c0 1.434.768 2.758 2.013 3.471 1.244.713 2.775.705 4.012-.021l9.353-5.488 9.351 5.488c.625.367 1.324.55 2.024.55.686 0 1.372-.176 1.987-.529 1.245-.712 2.013-2.037 2.013-3.471v-21.858h24.355v79.463h-79.463zm87.463 0h24.355v21.858c0 1.434.768 2.758 2.013 3.471s2.775.705 4.012-.021l9.353-5.488 9.351 5.488c.625.367 1.324.55 2.024.55.686 0 1.372-.176 1.987-.529 1.245-.712 2.013-2.037 2.013-3.471v-21.858h24.355v79.463h-79.463zm-231.509 87.463h367.557v17.278h-367.557zm293.392-371.7h16.863c2.209 0 4-1.791 4-4v-16.863c0-2.209-1.791-4-4-4h-16.863c-2.209 0-4 1.791-4 4v16.863c0 2.209 1.791 4 4 4zm4-16.863h8.863v8.863h-8.863zm23.518 4.43c0-2.209 1.791-4 4-4h66.906c2.209 0 4 1.791 4 4s-1.791 4-4 4h-66.906c-2.209 0-4-1.791-4-4zm-29.264 59.677h16.863c2.209 0 4-1.791 4-4v-16.864c0-2.209-1.791-4-4-4h-16.863c-2.209 0-4 1.791-4 4v16.864c0 2.209 1.791 4 4 4zm4-16.864h8.863v8.864h-8.863zm23.516 4.432c0-2.209 1.791-4 4-4h66.908c2.209 0 4 1.791 4 4s-1.791 4-4 4h-66.908c-2.209 0-4-1.791-4-4zm-27.516 64.958h16.863c2.209 0 4-1.791 4-4v-16.862c0-2.209-1.791-4-4-4h-16.863c-2.209 0-4 1.791-4 4v16.862c0 2.209 1.791 4 4 4zm12.863-16.862v8.862h-8.863v-8.862zm89.561 4.431c0 2.209-1.791 4-4 4h-66.908c-2.209 0-4-1.791-4-4s1.791-4 4-4h66.908c2.209 0 4 1.791 4 4z" display="inline" fill="url(#SVGID_1_)"/></g><g id="Outline_Blue" display="none"><path d="m31.822 512h25.278c2.209 0 4-1.791 4-4v-30.182h367.557v30.182c0 2.209 1.791 4 4 4h25.277c2.209 0 4-1.791 4-4v-282.183h7.832c7.947 0 14.412-6.466 14.412-14.414v-180.936c0-7.948-6.465-14.414-14.412-14.414h-37.98v-1.748c0-2.209-1.791-4-4-4h-10.996c-1.734-5.947-7.235-10.305-13.735-10.305-6.501 0-12.003 4.358-13.737 10.305h-10.995c-2.209 0-4 1.791-4 4v1.748h-37.98c-7.948 0-14.414 6.466-14.414 14.414v118.806h-116.783v-83.463c0-2.209-1.791-4-4-4h-87.463c-2.209 0-4 1.791-4 4v83.463h-48.583v-105.615c0-2.209-1.791-4-4-4h-25.278c-2.209 0-4 1.791-4 4v464.342c0 2.209 1.791 4 4 4zm4-464.342h17.278v456.342h-17.278zm128.969 22.152v14.873l-5.351-3.14c-1.249-.733-2.798-.734-4.049 0l-5.353 3.141v-14.874zm-22.752 0v21.858c0 1.434.768 2.758 2.013 3.471.615.353 1.302.529 1.987.529.7 0 1.399-.184 2.024-.55l9.353-5.488 9.351 5.488c1.237.726 2.769.734 4.012.021 1.245-.712 2.013-2.037 2.013-3.471v-21.858h24.355v79.463h-79.463v-79.463zm179.889 87.463v17.278h-260.828v-17.278zm14.414-133.22h37.98v4.692h-37.656c-2.209 0-4 1.791-4 4v176.38c0 2.209 1.791 4 4 4h132.773c2.209 0 4-1.791 4-4v-176.38c0-2.209-1.791-4-4-4h-37.654v-4.692h37.98c3.536 0 6.412 2.877 6.412 6.414v180.936c0 3.537-2.876 6.414-6.412 6.414h-133.423c-3.537 0-6.414-2.877-6.414-6.414v-180.936c0-3.536 2.877-6.414 6.414-6.414zm56.406-5.748c2.209 0 4-1.791 4-4 0-3.477 2.829-6.305 6.307-6.305 3.477 0 6.305 2.829 6.305 6.305 0 2.209 1.791 4 4 4h10.426v15.864h-41.463v-15.864zm-52.082 18.44h33.656v1.424c0 2.209 1.791 4 4 4h49.463c2.209 0 4-1.791 4-4v-1.424h33.654v168.38h-124.773zm95.99 467.255v-278.183h17.277v278.183zm-271.865-286.557v14.873l-5.351-3.14c-1.249-.733-2.798-.734-4.049 0l-5.353 3.141v-14.874zm-20.739 25.33c.615.353 1.302.529 1.987.529.7 0 1.399-.184 2.024-.55l9.353-5.488 9.351 5.488c1.237.726 2.769.734 4.012.021 1.245-.712 2.013-2.037 2.013-3.471v-21.859h24.355v79.463h-79.463v-79.463h24.355v21.859c0 1.434.768 2.759 2.013 3.471zm61.094-25.33h24.355v21.859c0 1.434.768 2.758 2.013 3.471.615.353 1.302.529 1.987.529.7 0 1.399-.184 2.024-.55l9.353-5.488 9.351 5.488c1.237.726 2.769.734 4.012.021 1.245-.712 2.013-2.037 2.013-3.471v-21.859h24.355v79.463h-79.463zm47.108 0v14.873l-5.351-3.14c-1.249-.733-2.798-.734-4.049 0l-5.353 3.141v-14.874zm127.818 79.463v-71.089h48.584v71.089zm-8 0h-79.463v-79.463h24.355v21.859c0 1.434.768 2.758 2.013 3.471.615.353 1.302.529 1.987.529.7 0 1.399-.184 2.024-.55l9.353-5.488 9.351 5.488c1.237.726 2.769.734 4.012.021 1.245-.712 2.013-2.037 2.013-3.471v-13.485h24.355zm-32.355-64.59-5.351-3.14c-1.249-.733-2.798-.734-4.049 0l-5.353 3.141v-12.096c2.639 3.397 6.752 5.596 11.377 5.596h3.375v6.499zm-51.108-22.873h-87.463-87.463c-2.209 0-4 1.791-4 4v83.463h-48.583v-114.355h260.828v26.893h-33.319zm140.047 95.463v17.278h-367.556v-17.278zm0 25.278v114.356h-48.584v-83.463c0-2.209-1.791-4-4-4h-87.463-87.463-87.463c-2.209 0-4 1.791-4 4v83.463h-48.583v-114.356zm-88.939 34.893v14.873l-5.351-3.14c-1.25-.733-2.799-.733-4.049 0l-5.353 3.141v-14.873h14.753zm-87.463 0v14.873l-5.351-3.14c-1.25-.733-2.799-.733-4.049 0l-5.353 3.141v-14.873h14.753zm-87.463 0v14.873l-5.351-3.14c-1.25-.733-2.799-.733-4.049 0l-5.353 3.141v-14.873h14.753zm-47.107 0h24.355v21.858c0 1.434.768 2.758 2.013 3.471 1.244.713 2.775.705 4.012-.021l9.353-5.488 9.351 5.488c.625.367 1.324.55 2.024.55.686 0 1.372-.176 1.987-.529 1.245-.712 2.013-2.037 2.013-3.471v-21.858h24.355v79.463h-79.463zm87.462 0h24.355v21.858c0 1.434.768 2.758 2.013 3.471 1.244.713 2.775.705 4.012-.021l9.353-5.488 9.351 5.488c.625.367 1.324.55 2.024.55.686 0 1.372-.176 1.987-.529 1.245-.712 2.013-2.037 2.013-3.471v-21.858h24.355v79.463h-79.463zm87.463 0h24.355v21.858c0 1.434.768 2.758 2.013 3.471s2.775.705 4.012-.021l9.353-5.488 9.351 5.488c.625.367 1.324.55 2.024.55.686 0 1.372-.176 1.987-.529 1.245-.712 2.013-2.037 2.013-3.471v-21.858h24.355v79.463h-79.463zm-231.509 87.463h367.557v17.278h-367.557z" display="inline"/><path d="m354.492 80.84h16.863c2.209 0 4-1.791 4-4v-16.863c0-2.209-1.791-4-4-4h-16.863c-2.209 0-4 1.791-4 4v16.863c0 2.209 1.791 4 4 4zm4-16.863h8.863v8.863h-8.863z" display="inline"/><path d="m386.01 72.407h66.906c2.209 0 4-1.791 4-4s-1.791-4-4-4h-66.906c-2.209 0-4 1.791-4 4s1.791 4 4 4z" display="inline"/><path d="m352.746 128.084h16.863c2.209 0 4-1.791 4-4v-16.864c0-2.209-1.791-4-4-4h-16.863c-2.209 0-4 1.791-4 4v16.864c0 2.209 1.791 4 4 4zm4-16.864h8.863v8.864h-8.863z" display="inline"/><path d="m384.262 119.652h66.908c2.209 0 4-1.791 4-4s-1.791-4-4-4h-66.908c-2.209 0-4 1.791-4 4s1.791 4 4 4z" display="inline"/><path d="m352.746 180.61h16.863c2.209 0 4-1.791 4-4v-16.862c0-2.209-1.791-4-4-4h-16.863c-2.209 0-4 1.791-4 4v16.862c0 2.209 1.791 4 4 4zm12.863-16.862v8.862h-8.863v-8.862z" display="inline"/><path d="m451.17 164.179h-66.908c-2.209 0-4 1.791-4 4s1.791 4 4 4h66.908c2.209 0 4-1.791 4-4s-1.791-4-4-4z" display="inline"/></g></svg>