<svg id="Layer_1" enable-background="new 0 0 500 500" viewBox="0 0 500 500" xmlns="http://www.w3.org/2000/svg"><path clip-rule="evenodd" d="m431.708 453.131h-155.998v-126.067h45.715v28.637c0 7.951 6.472 14.428 14.422 14.428h35.719c7.956 0 14.433-6.477 14.433-14.428v-28.637h45.71v126.067zm-325.108-126.067h45.715v28.637c0 7.951 6.472 14.428 14.433 14.428h35.714c7.951 0 14.428-6.477 14.428-14.428v-28.637h45.715v126.067h-156.005zm58.82 0v28.637c0 .717.611 1.322 1.328 1.322h35.714c.717 0 1.317-.605 1.317-1.322v-28.637zm169.11 0v28.637c0 .717.6 1.322 1.317 1.322h35.719c.712 0 1.322-.605 1.322-1.322v-28.637zm-51.369-126.04h38.263v28.631c0 7.956 6.472 14.433 14.422 14.433h35.719c7.956 0 14.433-6.477 14.433-14.433v-28.631h38.246c4.118 0 7.463 3.345 7.463 7.458v105.477h-155.997v-105.477c0-4.113 3.339-7.458 7.451-7.458zm51.369 0v28.631c0 .717.6 1.328 1.317 1.328h35.719c.712 0 1.322-.611 1.322-1.328v-28.631zm89.715-13.105h-141.084c-11.335 0-20.557 9.222-20.557 20.563v105.477h-162.554c-3.62 0-6.555 2.936-6.555 6.55v139.173c0 3.62 2.936 6.555 6.555 6.555h338.208c3.62 0 6.556-2.936 6.556-6.555v-251.2c-.001-11.341-9.229-20.563-20.569-20.563zm-220.943 50.847c0 3.619-2.936 6.555-6.555 6.555h-57.554c-3.619 0-6.555-2.936-6.555-6.555 0-3.62 2.936-6.55 6.555-6.55h57.554c3.619 0 6.555 2.93 6.555 6.55zm0-56.327c0 3.62-2.936 6.55-6.555 6.55h-57.554c-3.619 0-6.555-2.93-6.555-6.55s2.936-6.556 6.555-6.556h57.554c3.619 0 6.555 2.936 6.555 6.556zm0-56.327c0 3.614-2.936 6.55-6.555 6.55h-57.554c-3.619 0-6.555-2.936-6.555-6.55 0-3.619 2.936-6.555 6.555-6.555h57.554c3.619 0 6.555 2.936 6.555 6.555zm-85.418 95.643c2.549 2.555 2.549 6.707 0 9.267l-12.382 12.378c-2.556 2.556-6.705 2.567-9.267 0l-7.429-7.424c-2.561-2.561-2.561-6.712 0-9.267 2.56-2.561 6.712-2.561 9.262 0l2.796 2.796 7.749-7.749c2.559-2.561 6.711-2.561 9.271-.001zm0-56.327c2.549 2.555 2.549 6.707 0 9.262l-12.383 12.382c-2.554 2.549-6.711 2.562-9.267 0l-7.429-7.43c-2.561-2.561-2.561-6.707 0-9.262 2.56-2.561 6.701-2.561 9.262 0l2.796 2.79 7.749-7.743c2.56-2.559 6.712-2.559 9.272.001zm0-56.332c2.549 2.56 2.549 6.707 0 9.267l-12.383 12.383c-2.554 2.548-6.712 2.561-9.267 0l-7.429-7.43c-2.561-2.561-2.561-6.707 0-9.267 2.56-2.561 6.701-2.561 9.262 0l2.796 2.796 7.749-7.749c2.56-2.561 6.712-2.561 9.272 0zm-49.592 148.905v-174.416c0-4.981 4.045-9.032 9.026-9.032h28.788v11.99c0 3.62 2.93 6.55 6.55 6.55h63.874c3.625 0 6.555-2.93 6.555-6.55v-11.99h28.788c4.976 0 9.032 4.051 9.032 9.032v174.416c0 4.981-4.057 9.032-9.032 9.032h-134.555c-4.981 0-9.026-4.051-9.026-9.032zm50.914-194.043v16.036h50.774v-16.036h-8.724c-3.668 0-6.635-3.018-6.55-6.712.132-5.717-4.447-10.377-10.108-10.377-5.586 0-10.125 4.539-10.125 10.113.044 4.074-2.817 6.976-6.544 6.976zm114.806 194.043c0 12.203-9.934 22.132-22.137 22.132h-134.557c-12.209 0-22.132-9.929-22.132-22.132v-174.416c0-12.209 9.923-22.137 22.132-22.137h28.788v-4.045c0-3.614 2.93-6.55 6.55-6.55h9.542c2.69-9.839 11.716-17.089 22.401-17.089 10.674 0 19.7 7.25 22.401 17.089h9.531c3.625 0 6.555 2.936 6.555 6.55v4.045h28.788c12.203 0 22.137 9.928 22.137 22.137v174.416z" fill-rule="evenodd"/></svg>