<svg enable-background="new 0 0 64 64" viewBox="0 0 64 64" xmlns="http://www.w3.org/2000/svg"><g id="_x33_0_electronic_bill_payment"/><g id="_x32_9_banking"/><g id="_x32_8_cafe_bill"/><g id="_x32_7_invoice"><g><g><path d="m35.1567 44.8057-4.4033 4.3916-1.3223-1.2412c-.4028-.376-1.0352-.3564-1.4136.0449-.3774.4033-.3574 1.0361.0454 1.4141l2.0278 1.9023c.1924.1807.4385.2705.6841.2705.2559 0 .5112-.0977.7061-.292l5.0879-5.0742c.3911-.3896.3921-1.0234.002-1.4141-.3901-.3916-1.0239-.3916-1.4141-.0019z"/><path d="m32.002 37.6318c-5.5835 0-10.126 4.5322-10.126 10.1025 0 5.5684 4.5425 10.0986 10.126 10.0986 5.5815 0 10.1221-4.5303 10.1221-10.0986-.0001-5.5702-4.5406-10.1025-10.1221-10.1025zm0 18.2012c-4.4805 0-8.126-3.6328-8.126-8.0986 0-4.4678 3.6455-8.1025 8.126-8.1025 4.4785 0 8.1221 3.6348 8.1221 8.1025-.0001 4.4658-3.6436 8.0986-8.1221 8.0986z"/><path d="m55.9189 18.9258h-3.3008v-17.9258c0-.5527-.4478-1-1-1h-31.0644c-.2646 0-.5186.1055-.7061.292l-8.1719 8.1514c-.1885.1875-.2939.4424-.2939.708v9.7744h-3.3007c-2.8462 0-5.1621 2.3125-5.1621 5.1553v8.3877 28.25c-.0001 1.8095 1.4726 3.2812 3.2831 3.2812h51.5957c1.8105 0 3.2832-1.4717 3.2832-3.2813v-28.25-8.3877c.0001-2.8427-2.3159-5.1552-5.1621-5.1552zm0 2c1.7437 0 3.1621 1.415 3.1621 3.1553v7.3877h-6.4629v-10.543zm-36.3652-17.5158v4.7413h-4.7533zm1 6.7414c.5522 0 1-.4473 1-1v-7.1514h29.0645v29.4688h-37.2364v-21.3174zm-12.4726 10.7744h3.3008v10.543h-6.463v-7.3877c0-1.7403 1.4185-3.1553 3.1622-3.1553zm51 39.793c0 .7061-.5757 1.2813-1.2832 1.2813h-51.5958c-.7075 0-1.2832-.5752-1.2832-1.2813v-27.25h54.1621v27.25z"/><path d="m31.9751 15.916c-.0049 0-.0103 0-.0151 0-.9507 0-1.5107-.501-1.5771-1.4102-.041-.5498-.5166-.9717-1.0708-.9238-.5508.04-.9644.5195-.9243 1.0703.1186 1.6192 1.1328 2.7839 2.6069 3.1392v.688c0 .5527.4478 1 1 1s1-.4473 1-1v-.6866c.6752-.1522 1.2693-.4461 1.7119-.8876.5547-.5537.8477-1.2734.8477-2.0791.0034-1.1084-.4395-3.0313-3.4087-3.4453-1.5308-.2734-1.5928-.9072-1.5273-1.54.1235-.8008 1.0596-1.0459 1.627-.999.3105.0215 1.0332.1484 1.0435.8613.0078.5518.4653.96 1.0142.9854.5522-.0078.9937-.4619.9858-1.0146-.0197-1.3766-.9184-2.4193-2.2939-2.7367v-.5906c0-.5527-.4478-1-1-1s-1 .4473-1 1v.6672c-1.1376.3379-2.1462 1.1837-2.3594 2.5701-.1235 1.1729.1221 3.2227 3.1963 3.7715 1.7266.2412 1.7241 1.0371 1.7227 1.4678 0 .2734-.085.4912-.2598.665-.2727.2724-.7512.4277-1.3196.4277z"/><path d="m21.1353 28.2178h21.7295c.5522 0 1-.4473 1-1s-.4478-1-1-1h-21.7295c-.5522 0-1 .4473-1 1s.4477 1 1 1z"/><path d="m21.1353 23.5391h21.7295c.5522 0 1-.4473 1-1s-.4478-1-1-1h-21.7295c-.5522 0-1 .4473-1 1s.4477 1 1 1z"/></g></g></g><g id="_x32_6_barcode_payment"/><g id="_x32_5_credit"/><g id="_x32_4_online_payment"/><g id="_x32_3_receipt"/><g id="_x32_2_atm"/><g id="_x32_1_pay"/><g id="_x32_0_bill"/><g id="_x31_9_expense"/><g id="_x31_8_online_store"/><g id="_x31_7_email"/><g id="_x31_6_calendar"/><g id="_x31_5_wallet"/><g id="_x31_4_cashback"/><g id="_x31_3_money_bag"/><g id="_x31_2_check"/><g id="_x31_1_pay"/><g id="_x31_0_report"/><g id="_x39__money"/><g id="_x38__cashier"/><g id="_x37__cash"/><g id="_x36__mbanking"/><g id="_x35__shopping"/><g id="_x34__invoice"/><g id="_x33__exchange"/><g id="_x32__calculator"/><g id="_x31__edc_machine"/></svg>