<?xml version="1.0" encoding="UTF-8" standalone="no"?>
<!-- Created with Inkscape (http://www.inkscape.org/) -->

<svg
   version="1.1"
   id="svg3777"
   xml:space="preserve"
   width="682.66669"
   height="682.66669"
   viewBox="0 0 682.66669 682.66669"
   xmlns="http://www.w3.org/2000/svg"
   xmlns:svg="http://www.w3.org/2000/svg"><defs
     id="defs3781"><clipPath
       clipPathUnits="userSpaceOnUse"
       id="clipPath3791"><path
         d="M 0,512 H 512 V 0 H 0 Z"
         id="path3789" /></clipPath></defs><g
     id="g3783"
     transform="matrix(1.3333333,0,0,-1.3333333,0,682.66667)"><g
       id="g3785"><g
         id="g3787"
         clip-path="url(#clipPath3791)"><g
           id="g3793"
           transform="translate(173.8311,504.5)"><path
             d="m 0,0 h 238.397 c 15.629,0 28.298,-12.667 28.298,-28.294 v -440.412 c 0,-15.626 -12.669,-28.294 -28.298,-28.294 H -74.06 c -15.628,0 -28.297,12.668 -28.297,28.294 V -28.294 C -102.357,-12.667 -89.688,0 -74.06,0 h 44.54"
             style="fill:none;stroke:#000000;stroke-width:15;stroke-linecap:round;stroke-linejoin:round;stroke-miterlimit:10;stroke-dasharray:none;stroke-opacity:1"
             id="path3795" /></g><g
           id="g3797"
           transform="translate(139.9639,289.106)"><path
             d="M 0,0 H 261.931"
             style="fill:none;stroke:#000000;stroke-width:15;stroke-linecap:round;stroke-linejoin:round;stroke-miterlimit:10;stroke-dasharray:none;stroke-opacity:1"
             id="path3799" /></g><g
           id="g3801"
           transform="translate(139.9639,248.666)"><path
             d="M 0,0 H 261.931"
             style="fill:none;stroke:#000000;stroke-width:15;stroke-linecap:round;stroke-linejoin:round;stroke-miterlimit:10;stroke-dasharray:none;stroke-opacity:1"
             id="path3803" /></g><g
           id="g3805"
           transform="translate(139.9639,208.2256)"><path
             d="M 0,0 H 116.036"
             style="fill:none;stroke:#000000;stroke-width:15;stroke-linecap:round;stroke-linejoin:round;stroke-miterlimit:10;stroke-dasharray:none;stroke-opacity:1"
             id="path3807" /></g><g
           id="g3809"
           transform="translate(139.9639,167.7861)"><path
             d="M 0,0 H 116.036"
             style="fill:none;stroke:#000000;stroke-width:15;stroke-linecap:round;stroke-linejoin:round;stroke-miterlimit:10;stroke-dasharray:none;stroke-opacity:1"
             id="path3811" /></g><g
           id="g3813"
           transform="translate(139.9639,369.9863)"><path
             d="M 0,0 H 261.931"
             style="fill:none;stroke:#000000;stroke-width:15;stroke-linecap:round;stroke-linejoin:round;stroke-miterlimit:10;stroke-dasharray:none;stroke-opacity:1"
             id="path3815" /></g><g
           id="g3817"
           transform="translate(139.9639,329.5464)"><path
             d="M 0,0 H 261.931"
             style="fill:none;stroke:#000000;stroke-width:15;stroke-linecap:round;stroke-linejoin:round;stroke-miterlimit:10;stroke-dasharray:none;stroke-opacity:1"
             id="path3819" /></g><g
           id="g3821"
           transform="translate(119.7969,289.106)"><path
             d="m 0,0 c 0,-4.157 -3.37,-7.528 -7.528,-7.528 -4.159,0 -7.53,3.371 -7.53,7.528 0,4.158 3.371,7.528 7.53,7.528 C -3.37,7.528 0,4.158 0,0"
             style="fill:#000000;fill-opacity:1;fill-rule:nonzero;stroke:none"
             id="path3823" /></g><g
           id="g3825"
           transform="translate(119.7969,369.9863)"><path
             d="m 0,0 c 0,-4.157 -3.37,-7.528 -7.528,-7.528 -4.159,0 -7.53,3.371 -7.53,7.528 0,4.158 3.371,7.528 7.53,7.528 C -3.37,7.528 0,4.158 0,0"
             style="fill:#000000;fill-opacity:1;fill-rule:nonzero;stroke:none"
             id="path3827" /></g><g
           id="g3829"
           transform="translate(119.7969,329.5464)"><path
             d="m 0,0 c 0,-4.158 -3.37,-7.528 -7.528,-7.528 -4.159,0 -7.53,3.37 -7.53,7.528 0,4.158 3.371,7.528 7.53,7.528 C -3.37,7.528 0,4.158 0,0"
             style="fill:#000000;fill-opacity:1;fill-rule:nonzero;stroke:none"
             id="path3831" /></g><g
           id="g3833"
           transform="translate(119.7969,248.666)"><path
             d="m 0,0 c 0,-4.157 -3.37,-7.528 -7.528,-7.528 -4.159,0 -7.53,3.371 -7.53,7.528 0,4.157 3.371,7.528 7.53,7.528 C -3.37,7.528 0,4.157 0,0"
             style="fill:#000000;fill-opacity:1;fill-rule:nonzero;stroke:none"
             id="path3835" /></g><g
           id="g3837"
           transform="translate(119.7969,208.2256)"><path
             d="m 0,0 c 0,-4.157 -3.37,-7.527 -7.528,-7.527 -4.159,0 -7.53,3.37 -7.53,7.527 0,4.158 3.371,7.528 7.53,7.528 C -3.37,7.528 0,4.158 0,0"
             style="fill:#000000;fill-opacity:1;fill-rule:nonzero;stroke:none"
             id="path3839" /></g><g
           id="g3841"
           transform="translate(119.7969,167.7861)"><path
             d="m 0,0 c 0,-4.158 -3.37,-7.528 -7.528,-7.528 -4.159,0 -7.53,3.37 -7.53,7.528 0,4.157 3.371,7.527 7.53,7.527 C -3.37,7.527 0,4.157 0,0"
             style="fill:#000000;fill-opacity:1;fill-rule:nonzero;stroke:none"
             id="path3843" /></g><g
           id="g3845"
           transform="translate(139.9639,127.3457)"><path
             d="M 0,0 H 116.036"
             style="fill:none;stroke:#000000;stroke-width:15;stroke-linecap:round;stroke-linejoin:round;stroke-miterlimit:10;stroke-dasharray:none;stroke-opacity:1"
             id="path3847" /></g><g
           id="g3849"
           transform="translate(119.7969,127.3457)"><path
             d="m 0,0 c 0,-4.158 -3.37,-7.528 -7.528,-7.528 -4.159,0 -7.53,3.37 -7.53,7.528 0,4.157 3.371,7.527 7.53,7.527 C -3.37,7.527 0,4.157 0,0"
             style="fill:#000000;fill-opacity:1;fill-rule:nonzero;stroke:none"
             id="path3851" /></g><g
           id="g3853"
           transform="translate(139.9639,86.9053)"><path
             d="M 0,0 H 116.036"
             style="fill:none;stroke:#000000;stroke-width:15;stroke-linecap:round;stroke-linejoin:round;stroke-miterlimit:10;stroke-dasharray:none;stroke-opacity:1"
             id="path3855" /></g><g
           id="g3857"
           transform="translate(112.2676,46.4648)"><path
             d="M 0,0 H 42.083"
             style="fill:none;stroke:#000000;stroke-width:15;stroke-linecap:round;stroke-linejoin:round;stroke-miterlimit:10;stroke-dasharray:none;stroke-opacity:1"
             id="path3859" /></g><g
           id="g3861"
           transform="translate(352.1465,46.4648)"><path
             d="M 0,0 H 42.083"
             style="fill:none;stroke:#000000;stroke-width:15;stroke-linecap:round;stroke-linejoin:round;stroke-miterlimit:10;stroke-dasharray:none;stroke-opacity:1"
             id="path3863" /></g><g
           id="g3865"
           transform="translate(119.7969,86.9053)"><path
             d="m 0,0 c 0,-4.157 -3.37,-7.527 -7.528,-7.527 -4.159,0 -7.53,3.37 -7.53,7.527 0,4.157 3.371,7.528 7.53,7.528 C -3.37,7.528 0,4.157 0,0"
             style="fill:#000000;fill-opacity:1;fill-rule:nonzero;stroke:none"
             id="path3867" /></g><g
           id="g3869"
           transform="translate(222.5586,465.959)"><path
             d="M 0,0 H -22.269 V -54.935"
             style="fill:none;stroke:#000000;stroke-width:15;stroke-linecap:round;stroke-linejoin:round;stroke-miterlimit:10;stroke-dasharray:none;stroke-opacity:1"
             id="path3871" /></g><g
           id="g3873"
           transform="translate(200.29,439.0117)"><path
             d="M 0,0 H 20.5"
             style="fill:none;stroke:#000000;stroke-width:15;stroke-linecap:round;stroke-linejoin:round;stroke-miterlimit:10;stroke-dasharray:none;stroke-opacity:1"
             id="path3875" /></g><g
           id="g3877"
           transform="translate(279.2764,465.959)"><path
             d="M 0,0 H -22.269 V -54.935"
             style="fill:none;stroke:#000000;stroke-width:15;stroke-linecap:round;stroke-linejoin:round;stroke-miterlimit:10;stroke-dasharray:none;stroke-opacity:1"
             id="path3879" /></g><g
           id="g3881"
           transform="translate(257.0078,439.0117)"><path
             d="M 0,0 H 20.499"
             style="fill:none;stroke:#000000;stroke-width:15;stroke-linecap:round;stroke-linejoin:round;stroke-miterlimit:10;stroke-dasharray:none;stroke-opacity:1"
             id="path3883" /></g><g
           id="g3885"
           transform="translate(332.749,466.4292)"><path
             d="M 0,0 H -23.108 V -54.834 H 0"
             style="fill:none;stroke:#000000;stroke-width:15;stroke-linecap:round;stroke-linejoin:round;stroke-miterlimit:10;stroke-dasharray:none;stroke-opacity:1"
             id="path3887" /></g><g
           id="g3889"
           transform="translate(331.0449,439.0117)"><path
             d="M 0,0 H -21.404"
             style="fill:none;stroke:#000000;stroke-width:15;stroke-linecap:round;stroke-linejoin:round;stroke-miterlimit:10;stroke-dasharray:none;stroke-opacity:1"
             id="path3891" /></g><g
           id="g3893"
           transform="translate(375.9209,437.7544)"><path
             d="M 0,0 23.25,-26.413"
             style="fill:none;stroke:#000000;stroke-width:15;stroke-linecap:round;stroke-linejoin:round;stroke-miterlimit:10;stroke-dasharray:none;stroke-opacity:1"
             id="path3895" /></g><g
           id="g3897"
           transform="translate(369.2471,466.6816)"><path
             d="M 0,0 V -55.34"
             style="fill:none;stroke:#000000;stroke-width:15;stroke-linecap:round;stroke-linejoin:round;stroke-miterlimit:10;stroke-dasharray:none;stroke-opacity:1"
             id="path3899" /></g><g
           id="g3901"
           transform="translate(399.1709,452.2993)"><path
             d="m 0,0 c 0,-7.943 -6.966,-14.382 -15.198,-14.382 -4.083,0 -14.606,-0.063 -14.606,-0.063 0,0 -0.065,10.441 -0.065,14.445 0,3.289 -0.037,14.382 -0.037,14.382 h 14.708 C -6.966,14.382 0,7.943 0,0 Z"
             style="fill:none;stroke:#000000;stroke-width:15;stroke-linecap:round;stroke-linejoin:round;stroke-miterlimit:10;stroke-dasharray:none;stroke-opacity:1"
             id="path3903" /></g><g
           id="g3905"
           transform="translate(166.3018,438.4917)"><path
             d="m 0,0 c 0,-15.282 -12.39,-27.67 -27.674,-27.67 -15.284,0 -27.674,12.388 -27.674,27.67 0,15.282 12.39,27.67 27.674,27.67 C -12.39,27.67 0,15.282 0,0 Z"
             style="fill:none;stroke:#000000;stroke-width:15;stroke-linecap:round;stroke-linejoin:round;stroke-miterlimit:10;stroke-dasharray:none;stroke-opacity:1"
             id="path3907" /></g><g
           id="g3909"
           transform="translate(373.1885,175.0186)"><path
             d="m 0,0 v 1.443 c 0,9.49 -7.694,17.182 -17.185,17.182 h -20.956 c -9.49,0 -17.183,-7.692 -17.183,-17.182 v -12.864 c 0,-9.489 7.693,-17.182 17.183,-17.182 h 20.956 C -7.694,-28.603 0,-36.295 0,-45.784 v -12.863 c 0,-9.49 -7.694,-17.183 -17.185,-17.183 h -20.956 c -9.49,0 -17.183,7.693 -17.183,17.183"
             style="fill:none;stroke:#000000;stroke-width:15;stroke-linecap:round;stroke-linejoin:round;stroke-miterlimit:10;stroke-dasharray:none;stroke-opacity:1"
             id="path3911" /></g><g
           id="g3913"
           transform="translate(345.5264,207.1953)"><path
             d="M 0,0 V -119.26"
             style="fill:none;stroke:#000000;stroke-width:15;stroke-linecap:round;stroke-linejoin:round;stroke-miterlimit:10;stroke-dasharray:none;stroke-opacity:1"
             id="path3915" /></g></g></g></g></svg>
