<svg id="Layer_1" enable-background="new 0 0 512 512" height="512" viewBox="0 0 512 512" width="512" xmlns="http://www.w3.org/2000/svg"><path clip-rule="evenodd" d="m481.27 7.999h-404.354c-4.418 0-8 3.582-8 8v113.494l-40.531 64.691c-13.002 20.753-.658 48.59 7.857 63.336.077.134.158.265.243.394l77.397 117.722-4.964 18.524-14.387-3.723c-5.701-1.474-11.646-.635-16.742 2.366-5.097 3.001-8.716 7.793-10.19 13.493l-7.734 29.89c-3.052 11.797 4.062 23.878 15.859 26.932l155.269 40.178c1.85.479 3.705.707 5.532.707 9.829 0 18.824-6.618 21.399-16.566l7.734-29.89c3.052-11.798-4.062-23.879-15.859-26.932l-15.788-4.085 21.536-79.982c8.921-33.134 4.053-53.612-2.687-81.955-2.805-11.798-5.938-24.986-8.711-41.276h237.121c4.418 0 8-3.582 8-8v-199.318c0-4.418-3.582-8-8-8zm-231.765 440.923c.833 1.414 1.068 3.053.664 4.615l-7.734 29.889c-.842 3.256-4.174 5.22-7.434 4.378l-155.268-40.178c-3.257-.843-5.221-4.178-4.378-7.434l7.734-29.89c.404-1.562 1.405-2.881 2.818-3.714.962-.566 2.028-.856 3.104-.856.505 0 1.012.063 1.511.193l155.269 40.178c1.563.405 2.882 1.406 3.714 2.819zm-9.406-106.536-21.577 80.134-94.112-24.353 5.857-21.858c.591-2.205.211-4.558-1.043-6.465l-79.24-120.523c-5.454-9.491-16.853-32.577-8.04-46.643l26.973-43.051v55.688c0 4.418 3.582 8 8 8h55.998c9.985 22.009 24.546 42.13 35.368 55.506 2.172 2.686 5.824 3.673 9.053 2.45s5.31-4.38 5.159-7.83l-3.757-86.008c-.08-29.086 8.29-46.577 22.403-46.803 9.758-.146 19.889 8.278 20.127 16.713.002.049.004.099.006.147 2.518 54.001 10.323 86.83 16.022 110.801 6.653 27.986 10.669 44.877 2.803 74.095zm-99.098-169.544c-2.847-11.293-11.575-20.211-22.652-23.158v-68.054c11.077-2.947 19.806-11.865 22.652-23.158h276.186c2.847 11.293 11.575 20.211 22.652 23.158v68.054c-11.077 2.947-19.806 11.865-22.652 23.158h-178.985c-.363-5.114-.682-10.441-.943-16.03-.535-17.149-17.854-32.44-36.375-32.18-8.167.13-33.083 4.234-37.479 48.21zm24.369 75.21c-5.692-8.429-10.635-16.77-14.683-24.737h13.602zm307.9-40.737h-231.563c-.782-5.778-1.506-11.92-2.153-18.473h184.645c4.418 0 8-3.582 8-8 0-8.933 7.017-16.2 15.641-16.2 4.418 0 8-3.582 8-8v-81.97c0-4.418-3.582-8-8-8-8.624 0-15.641-7.268-15.641-16.2 0-4.418-3.582-8-8-8h-290.21c-4.418 0-8 3.582-8 8 0 8.933-7.017 16.2-15.641 16.2-4.418 0-8 3.582-8 8v81.97c0 4.418 3.582 8 8 8 8.624 0 15.641 7.268 15.641 16.2 0 4.418 3.582 8 8 8h28.795l.807 18.473h-78.675v-183.316h388.354zm-273.706-83.656h-35.64c-4.418 0-8-3.582-8-8s3.582-8 8-8h35.64c4.418 0 8 3.582 8 8s-3.582 8-8 8zm151.055-8c0-4.418 3.582-8 8-8h35.641c4.418 0 8 3.582 8 8s-3.582 8-8 8h-35.641c-4.418 0-8-3.582-8-8zm-60.907 18.315c.545-.63 1.021-1.446.816-3.137-.201-1.655-.672-5.533-12.675-7.504-20.312-3.336-23.885-14.947-24.206-21.572-.519-10.661 6.432-19.642 17.446-22.801v-1.732c0-4.418 3.582-8 8-8s8 3.582 8 8v1.659c7.09 1.96 13.694 6.743 17.255 15.225 1.711 4.073-.205 8.763-4.279 10.473-4.067 1.71-8.763-.204-10.473-4.279-2.779-6.619-9.694-6.982-13.336-6.158-1.616.366-6.87 1.943-6.633 6.839.059 1.192.234 4.82 10.818 6.559 15.822 2.599 24.559 9.786 25.965 21.364.712 5.861-.879 11.232-4.599 15.532-3.439 3.977-8.686 6.853-14.719 8.202v1.443c0 4.418-3.582 8-8 8s-8-3.582-8-8v-1.583c-9.615-2.456-16.923-9.268-19.244-18.575-1.068-4.287 1.54-8.629 5.827-9.698 4.287-1.062 8.629 1.54 9.698 5.827 1.416 5.677 7.532 7.587 12.321 7.441 4.191-.1 8.309-1.549 10.018-3.525zm-78.592 328.986c-.617-5.262 3.15-10.028 8.412-10.645 5.262-.616 10.027 3.15 10.644 8.412.616 5.262-3.149 10.028-8.412 10.645s-10.028-3.149-10.644-8.412z" fill-rule="evenodd"/></svg>