<svg id="Layer_1" enable-background="new 0 0 512 512" viewBox="0 0 512 512" xmlns="http://www.w3.org/2000/svg"><path d="m147.779 174.099h55.027c8.372 0 15.183-6.812 15.183-15.184v-55.026c0-8.372-6.811-15.184-15.183-15.184h-55.027c-8.372 0-15.183 6.812-15.183 15.184v55.026c0 8.372 6.811 15.184 15.183 15.184zm.817-69.394h53.393v53.394h-53.393zm47.553 21.089-17.212 21.278c-1.426 1.764-3.534 2.838-5.799 2.958-.141.007-.281.011-.421.011-2.116 0-4.152-.839-5.656-2.343l-12.062-12.062c-3.124-3.125-3.124-8.189 0-11.314 3.124-3.123 8.189-3.123 11.313 0l5.777 5.777 11.622-14.367c2.778-3.435 7.815-3.968 11.251-1.188 3.434 2.777 3.966 7.815 1.187 11.25zm-48.37 142.828h55.027c8.372 0 15.183-6.812 15.183-15.184v-55.026c0-8.372-6.811-15.183-15.183-15.183h-55.027c-8.372 0-15.183 6.811-15.183 15.183v55.026c0 8.373 6.811 15.184 15.183 15.184zm.817-69.393h53.393v53.393h-53.393zm47.553 21.088-17.212 21.278c-1.426 1.764-3.534 2.838-5.799 2.958-.141.007-.281.011-.421.011-2.116 0-4.152-.839-5.656-2.343l-12.062-12.062c-3.124-3.125-3.124-8.189 0-11.314 3.124-3.123 8.189-3.123 11.313 0l5.777 5.777 11.622-14.367c2.778-3.435 7.815-3.968 11.251-1.188 3.434 2.778 3.966 7.816 1.187 11.25zm41.563-66.018c0-4.418 3.582-8 8-8h153.188c4.418 0 8 3.582 8 8s-3.582 8-8 8h-153.188c-4.418 0-8-3.582-8-8zm0-45.794c0-4.418 3.582-8 8-8h153.188c4.418 0 8 3.582 8 8s-3.582 8-8 8h-153.188c-4.418 0-8-3.582-8-8zm0 94.523c0-4.418 3.582-8 8-8h153.188c4.418 0 8 3.582 8 8s-3.582 8-8 8h-153.188c-4.418 0-8-3.582-8-8zm0 45.795c0-4.418 3.582-8 8-8h153.188c4.418 0 8 3.582 8 8s-3.582 8-8 8h-153.188c-4.418 0-8-3.582-8-8zm252.486 118.619-13.841-5.327c-2.095-7.375-5.035-14.468-8.777-21.173l6.024-13.563c1.344-3.024.686-6.563-1.654-8.904l-20.414-20.414c-1.747-1.746-4.162-2.552-6.533-2.292v-222.276c0-4.522-1.691-8.604-4.889-11.803l-48.802-48.802c-3.199-3.198-7.28-4.888-11.803-4.888h-266.45c-9.204 0-16.691 7.488-16.691 16.692v252.115c-46.259 15.473-79.692 59.205-79.692 110.603 0 64.288 52.302 116.59 116.59 116.59 39.057 0 73.688-19.307 94.857-48.875h58.956c.135 1.879.916 3.695 2.307 5.087l20.414 20.413c2.34 2.34 5.88 2.995 8.904 1.654l13.57-6.026c6.705 3.742 13.795 6.682 21.165 8.775l5.33 13.846c1.189 3.088 4.156 5.126 7.466 5.126h28.869c3.31 0 6.277-2.038 7.466-5.126l5.328-13.842c7.378-2.096 14.471-5.036 21.173-8.777l13.563 6.024c3.024 1.345 6.564.686 8.904-1.654l20.413-20.413c2.34-2.341 2.998-5.88 1.654-8.904l-6.027-13.569c3.742-6.705 6.682-13.795 8.776-21.166l13.845-5.329c3.089-1.188 5.126-4.156 5.126-7.466v-28.869c-.001-3.31-2.039-6.278-5.127-7.467zm-72.51-305.548h-26.58v-26.58zm-305.32-37.202c0-.369.323-.692.691-.692h262.05v41.547c0 6.808 5.539 12.347 12.346 12.347h41.547v224.508c-6.687-3.727-13.756-6.656-21.106-8.743l-5.33-13.847c-1.188-3.088-4.156-5.126-7.466-5.126h-28.868c-3.31 0-6.277 2.038-7.466 5.126l-3.749 9.74h-109.305c-4.418 0-8 3.582-8 8s3.582 8 8 8h56.597l-12.923 12.924c-2.34 2.34-2.998 5.879-1.655 8.903l3.539 7.968h-45.557c-2.694 0-5.072 1.336-6.521 3.377-18.479-40.043-59.007-67.904-105.925-67.904-7.132 0-14.116.647-20.898 1.879v-248.007zm20.898 463.308c-55.466 0-100.59-45.124-100.59-100.59s45.124-100.591 100.59-100.591 100.591 45.125 100.591 100.591-45.125 100.59-100.591 100.59zm116.591-100.59c0-12.644-2.031-24.82-5.77-36.229.525.108 1.068.166 1.626.166h43.011c-1.453 3.511-2.703 7.104-3.743 10.768l-13.844 5.329c-3.088 1.188-5.126 4.156-5.126 7.466v28.868c0 3.31 2.038 6.277 5.126 7.466l13.841 5.328c2.095 7.376 5.036 14.469 8.778 21.173l-.613 1.381h-55.404c7.75-15.595 12.118-33.153 12.118-51.716zm229.467 10.874-12.548 4.83c-2.462.947-4.298 3.048-4.909 5.613-2.044 8.59-5.435 16.77-10.08 24.312-1.383 2.246-1.57 5.03-.499 7.441l5.463 12.301-12.645 12.645-12.295-5.461c-2.411-1.072-5.196-.884-7.443.5-7.537 4.643-15.718 8.035-24.318 10.082-2.566.61-4.666 2.447-5.613 4.908l-4.828 12.545h-17.883l-4.831-12.549c-.948-2.462-3.048-4.298-5.614-4.909-8.586-2.042-16.766-5.434-24.311-10.079-2.247-1.384-5.032-1.571-7.441-.499l-12.3 5.463-12.646-12.645 5.46-12.295c1.071-2.411.884-5.195-.5-7.442-4.644-7.54-8.036-15.722-10.082-24.318-.611-2.565-2.447-4.666-4.909-5.613l-12.544-4.829v-17.882l12.547-4.83c2.461-.947 4.298-3.048 4.909-5.614 2.045-8.593 5.436-16.772 10.08-24.312 1.384-2.247 1.571-5.031.5-7.442l-5.462-12.299 12.646-12.646 12.3 5.464c2.411 1.071 5.196.884 7.443-.5 7.541-4.645 15.72-8.035 24.31-10.078 2.566-.611 4.667-2.447 5.614-4.909l4.831-12.55h17.882l4.831 12.55c.947 2.462 3.048 4.298 5.614 4.909 8.59 2.043 16.77 5.434 24.31 10.078 2.247 1.385 5.031 1.569 7.443.5l12.3-5.464 12.646 12.646-5.46 12.295c-1.071 2.411-.884 5.195.499 7.442 4.645 7.541 8.036 15.723 10.081 24.317.611 2.566 2.447 4.667 4.909 5.614l12.544 4.828v17.882zm-98.657-67.288c-32.172 0-58.346 26.174-58.346 58.347s26.174 58.347 58.346 58.347 58.346-26.174 58.346-58.347-26.174-58.347-58.346-58.347zm0 100.693c-23.35 0-42.346-18.997-42.346-42.347s18.997-42.347 42.346-42.347 42.346 18.997 42.346 42.347-18.996 42.347-42.346 42.347zm-170.727-2.935-9.794-3.831c-1.588-.621-3.335-.718-4.985-.277l-61.627 16.513c-3.364-4.443-8.414-7.527-14.2-8.29l-24.278-93.801c-.914-3.529-4.099-5.995-7.745-5.995h-24.811c-4.418 0-8 3.582-8 8s3.582 8 8 8h18.618l22.729 87.817c-5.231 3.891-8.64 10.099-8.64 17.105 0 11.762 9.569 21.33 21.331 21.33 10.875 0 19.858-8.186 21.153-18.716l59.073-15.829 7.347 2.874c4.113 1.61 8.754-.422 10.364-4.536s-.42-8.755-4.535-10.364zm-93.401 30.571c-2.939 0-5.331-2.391-5.331-5.33s2.392-5.331 5.331-5.331 5.331 2.392 5.331 5.331-2.392 5.33-5.331 5.33zm2.373-91.009c-2.05.549-3.797 1.89-4.858 3.728s-1.348 4.021-.799 6.07l12.766 47.643c.549 2.05 1.89 3.797 3.728 4.857 1.227.709 2.608 1.072 4 1.072.693 0 1.39-.09 2.071-.272l54.562-14.62c4.268-1.144 6.8-5.53 5.657-9.798l-12.766-47.642c-1.144-4.268-5.529-6.8-9.798-5.657zm59.6 35.094-39.107 10.479-8.625-32.188 11.826-3.169 1.335 4.982c.958 3.574 4.19 5.932 7.723 5.932.685 0 1.382-.089 2.075-.274 4.268-1.144 6.8-5.53 5.657-9.798l-1.335-4.983 11.826-3.169zm-70.109-43.403c.958 3.574 4.19 5.932 7.723 5.932.685 0 1.382-.089 2.076-.274l44.204-11.845c4.268-1.144 6.8-5.53 5.657-9.798l-10.342-38.599c-.549-2.05-1.89-3.797-3.728-4.857-1.838-1.062-4.02-1.35-6.071-.8l-44.205 11.845c-2.049.55-3.796 1.89-4.857 3.728s-1.348 4.021-.799 6.07zm13.83-36.793.688 2.569c.958 3.574 4.19 5.932 7.723 5.932.685 0 1.382-.089 2.075-.274 4.268-1.144 6.801-5.53 5.657-9.798l-.689-2.57 6.648-1.781 6.201 23.144-28.75 7.704-6.202-23.144z"/></svg>