<svg id="Layer_1" enable-background="new 0 0 512 512" viewBox="0 0 512 512" xmlns="http://www.w3.org/2000/svg"><path d="m82.445 290.858.001-218.991c0-.001 0-.001 0-.002v-28.428c0-.55-.014-1.097-.042-1.642-.006-.121-.019-.241-.027-.362-.026-.426-.055-.852-.097-1.275-.01-.095-.024-.188-.035-.283-.049-.449-.103-.896-.171-1.341-.008-.053-.019-.104-.027-.157-.076-.486-.162-.971-.26-1.451 0-.002-.001-.004-.001-.006-.844-4.13-2.489-8.037-4.859-11.537-.061-.091-.127-.178-.189-.268-.225-.326-.452-.651-.69-.97-.236-.317-.483-.626-.73-.934-.071-.088-.137-.178-.208-.265-1.356-1.652-2.871-3.167-4.523-4.523-.098-.081-.2-.155-.299-.235-.298-.239-.596-.477-.902-.705-.322-.241-.651-.47-.98-.697-.086-.06-.17-.123-.257-.181-3.492-2.365-7.39-4.008-11.51-4.854-.013-.003-.025-.006-.038-.009-.466-.095-.935-.177-1.406-.252-.068-.011-.135-.025-.203-.035-.418-.063-.839-.114-1.261-.161-.122-.014-.242-.033-.365-.045-.379-.038-.76-.062-1.142-.087-.165-.011-.329-.028-.495-.036-.389-.019-.78-.024-1.172-.03-.155-.002-.308-.012-.464-.012h-4.871-4.869c-17.839.001-32.353 14.514-32.353 32.353v247.421c0 1.404.37 2.784 1.072 4l29.223 50.616c1.429 2.475 4.069 4 6.928 4s5.499-1.525 6.928-4l29.223-50.616c.701-1.216 1.071-2.596 1.071-4zm-15.999-210.993-.001 202.993h-42.445v-202.993zm-42.446-16v-20.428c0-9.017 7.336-16.352 16.353-16.352h9.741c.096 0 .19.012.286.014.455.008.909.024 1.355.069.214.021.422.065.634.094.325.046.653.084.972.149.24.048.472.119.709.178.282.07.568.132.844.217.281.087.555.196.831.298.219.081.442.151.656.24.38.159.75.342 1.117.531.097.049.198.091.294.142 1.397.752 2.694 1.714 3.851 2.871 1.156 1.156 2.117 2.452 2.869 3.848.059.11.106.226.163.337.18.354.357.709.51 1.074.095.228.171.465.256.698.096.262.201.521.283.788.091.294.157.598.231.898.054.218.12.433.164.654.071.35.115.708.163 1.065.024.181.062.358.08.54.054.542.083 1.09.083 1.646v20.428h-42.445zm21.223 261.609-15.366-26.616h30.732zm294.263-25.652c0 4.418-3.582 8-8 8h-52.512c-4.418 0-8-3.582-8-8s3.582-8 8-8h52.512c4.418 0 8 3.582 8 8zm47.268-60.483c0 4.418-3.582 8-8 8h-172.281c-4.418 0-8-3.582-8-8s3.582-8 8-8h172.281c4.418 0 8 3.582 8 8zm-218.351-127.504h211.938c4.418 0 8 3.582 8 8s-3.582 8-8 8h-211.938c-4.418 0-8-3.582-8-8s3.582-8 8-8zm262.208 38.241c0 4.418-3.582 8-8 8h-254.208c-4.418 0-8-3.582-8-8s3.582-8 8-8h254.208c4.418 0 8 3.581 8 8zm-223.196-80.644c0-4.418 3.582-8 8-8h16c4.418 0 8 3.582 8 8s-3.582 8-8 8h-16c-4.418 0-8-3.581-8-8zm-64 0c0-4.418 3.582-8 8-8h16c4.418 0 8 3.582 8 8s-3.582 8-8 8h-16c-4.418 0-8-3.581-8-8zm255.998 0c0-4.418 3.582-8 8-8h16c4.418 0 8 3.582 8 8s-3.582 8-8 8h-16c-4.418 0-8-3.581-8-8zm-127.999 0c0-4.418 3.582-8 8-8h16c4.418 0 8 3.582 8 8s-3.582 8-8 8h-16c-4.418 0-8-3.581-8-8zm64 0c0-4.418 3.582-8 8-8h16c4.418 0 8 3.582 8 8s-3.582 8-8 8h-16c-4.418 0-8-3.581-8-8zm9.959 118.885h-176.97c-4.418 0-8-3.582-8-8s3.582-8 8-8h176.97c4.418 0 8 3.582 8 8s-3.582 8-8 8zm15.662 81.264c0 4.418-3.582 8-8 8h-120.844c-4.418 0-8-3.582-8-8s3.582-8 8-8h120.844c4.418 0 8 3.581 8 8zm-185.316 51.65c-33.729 0-61.169 27.44-61.169 61.169s27.44 61.169 61.169 61.169 61.169-27.44 61.169-61.169-27.441-61.169-61.169-61.169zm0 106.338c-24.906 0-45.169-20.263-45.169-45.169 0-24.907 20.263-45.169 45.169-45.169s45.169 20.263 45.169 45.169-20.263 45.169-45.169 45.169zm323.169-286.362c-3.081-1.193-6.578-.369-8.803 2.075l-12.339 13.552v-139.871c0-4.418-3.582-8-8-8h-369.895c-4.418 0-8 3.582-8 8v278.697l-12.215 12.215c-2.34 2.34-2.997 5.879-1.654 8.904l6.455 14.533c-4.023 7.173-7.173 14.769-9.398 22.669l-14.83 5.708c-3.088 1.188-5.126 4.156-5.126 7.466v30.487c0 3.31 2.038 6.277 5.126 7.466l14.827 5.707c2.228 7.906 5.377 15.503 9.4 22.675l-6.454 14.529c-1.343 3.025-.686 6.564 1.655 8.904l21.559 21.558c2.339 2.34 5.878 2.999 8.903 1.655l14.535-6.456c7.173 4.022 14.768 7.171 22.667 9.397l5.709 14.832c1.188 3.089 4.156 5.126 7.466 5.126h30.487c3.31 0 6.277-2.038 7.466-5.126l5.707-14.827c7.906-2.227 15.503-5.377 22.675-9.4l14.529 6.453c3.024 1.344 6.562.687 8.904-1.654l8.767-8.768h210.735c4.418 0 8-3.582 8-8v-25.949h18.254c4.418 0 8-3.582 8-8v-279.096c0-3.304-2.031-6.268-5.112-7.461zm-37.142-116.244v149.444l-169.264 185.909c-.396-.239-.81-.455-1.253-.625l-14.827-5.707c-2.226-7.904-5.376-15.501-9.4-22.675l6.454-14.529c1.343-3.025.686-6.564-1.654-8.904l-21.558-21.557c-2.341-2.34-5.878-2.998-8.904-1.655l-14.536 6.456c-7.171-4.022-14.766-7.171-22.667-9.398l-5.709-14.832c-1.188-3.089-4.156-5.126-7.466-5.126h-30.486c-3.31 0-6.277 2.038-7.466 5.126l-5.71 14.832c-7.9 2.227-15.496 5.375-22.666 9.398l-14.536-6.456c-.727-.323-1.484-.523-2.247-.62v-259.081zm-218.932 438.321-13.266-5.892c-2.409-1.07-5.194-.885-7.442.5-8.002 4.929-16.688 8.529-25.813 10.701-2.565.611-4.666 2.447-5.613 4.909l-5.21 13.535h-19.501l-5.212-13.54c-.947-2.462-3.048-4.298-5.614-4.909-9.116-2.169-17.799-5.769-25.806-10.699-2.248-1.384-5.032-1.569-7.441-.499l-13.271 5.895-13.79-13.79 5.893-13.265c1.07-2.412.884-5.196-.5-7.443-4.929-8.002-8.529-16.687-10.701-25.812-.61-2.566-2.447-4.667-4.908-5.614l-13.535-5.209v-19.502l13.538-5.211c2.462-.947 4.298-3.048 4.909-5.614 2.169-9.118 5.769-17.801 10.699-25.808 1.383-2.247 1.569-5.031.499-7.442l-5.894-13.27 13.79-13.79 13.271 5.895c2.409 1.07 5.194.884 7.442-.5 8.003-4.929 16.685-8.528 25.805-10.699 2.565-.611 4.666-2.447 5.613-4.909l5.212-13.54h19.501l5.212 13.539c.947 2.462 3.048 4.298 5.613 4.909 9.12 2.171 17.803 5.771 25.806 10.699 2.248 1.383 5.033 1.569 7.442.5l13.272-5.895 13.789 13.79-5.893 13.265c-1.07 2.412-.884 5.196.5 7.443 4.931 8.006 8.531 16.69 10.7 25.812.611 2.567 2.447 4.667 4.909 5.615l13.535 5.209v.986l-44.381 48.745c-2.133 2.342-2.683 5.722-1.402 8.62 1.28 2.897 4.149 4.766 7.317 4.766h8.649c.057.153.104.308.17.458l5.895 13.271zm218.932-9.569h-187.996c.589-1.833.522-3.857-.294-5.694l-5.443-12.254h193.733zm-201.754-33.949 228.008-250.429v18.907h-6.349c-4.418 0-8 3.582-8 8s3.582 8 8 8h6.349v14.69h-18.527c-4.418 0-8 3.582-8 8s3.582 8 8 8h18.527v14.691h-6.349c-4.418 0-8 3.582-8 8s3.582 8 8 8h6.349v14.691h-18.527c-4.418 0-8 3.582-8 8s3.582 8 8 8h18.527v14.691h-6.349c-4.418 0-8 3.582-8 8s3.582 8 8 8h6.349v14.691h-18.527c-4.418 0-8 3.582-8 8s3.582 8 8 8h18.527v14.691h-6.349c-4.418 0-8 3.582-8 8s3.582 8 8 8h6.349v31.376h-228.008zm186.415-149.3c-3.102-1.182-6.61-.326-8.819 2.151l-89.86 100.774c-2.099 2.353-2.619 5.719-1.33 8.596 1.29 2.877 4.148 4.729 7.301 4.729h89.86c4.418 0 8-3.582 8-8v-100.775c0-3.319-2.05-6.293-5.152-7.475zm-10.848 100.249h-64.008l64.008-71.782z"/></svg>