<svg id="Layer_1" enable-background="new 0 0 512 512" viewBox="0 0 512 512" xmlns="http://www.w3.org/2000/svg"><path d="m226.869 205.287 9.089 3.555c4.114 1.608 8.754-.421 10.364-4.536 1.609-4.115-.421-8.755-4.536-10.364l-11.536-4.512c-1.589-.622-3.335-.718-4.984-.277l-73.515 19.698c-3.898-5.605-10.149-9.453-17.312-10.102l-28.839-111.421c-.914-3.53-4.099-5.996-7.745-5.996h-29.226c-4.418 0-8 3.582-8 8s3.582 8 8 8h23.033l27.289 105.43c-6.255 4.271-10.371 11.456-10.371 19.586 0 13.07 10.633 23.703 23.703 23.703 12.411 0 22.617-9.59 23.615-21.748zm-94.585 24.764c-4.248 0-7.703-3.456-7.703-7.703s3.456-7.703 7.703-7.703 7.703 3.456 7.703 7.703c-.001 4.248-3.456 7.703-7.703 7.703zm35.299-115.863c-.001 0-.003.001-.004.001l-32.131 8.609c-4.268 1.144-6.801 5.53-5.657 9.798l15.037 56.12c.549 2.05 1.89 3.797 3.728 4.858 1.227.708 2.608 1.072 4 1.072.693 0 1.39-.09 2.07-.272l64.271-17.221c4.268-1.144 6.801-5.53 5.657-9.798l-15.037-56.12c-.549-2.05-1.89-3.797-3.728-4.858s-4.022-1.347-6.07-.799l-32.131 8.609c-.002 0-.003.001-.005.001zm39.445 49.58-48.816 13.08-10.896-40.665 16.68-4.469 1.941 7.244c.958 3.574 4.19 5.932 7.723 5.932.685 0 1.382-.089 2.075-.274 4.268-1.144 6.8-5.53 5.657-9.798l-1.941-7.245 16.681-4.47zm-82.952-52.501c.549 2.049 1.89 3.796 3.728 4.857 1.227.708 2.608 1.072 4 1.072.693 0 1.389-.09 2.07-.272l52.07-13.953c4.268-1.144 6.8-5.53 5.657-9.798l-12.183-45.467c-.549-2.05-1.89-3.797-3.728-4.858-1.838-1.062-4.022-1.347-6.071-.799l-26.034 6.976h-.001s0 0-.001 0l-26.035 6.976c-2.049.549-3.796 1.89-4.857 3.728-1.061 1.837-1.348 4.021-.799 6.071zm15.923-44.716 1.18 4.403c.958 3.574 4.19 5.932 7.723 5.932.685 0 1.382-.089 2.075-.274 4.268-1.144 6.801-5.53 5.657-9.798l-1.18-4.403 10.581-2.835 8.042 30.012-36.616 9.812-8.042-30.012zm350.796 7.826-53.452-53.451c-3.357-3.357-7.641-5.132-12.389-5.132h-227.606c-14.194-5.041-29.46-7.794-45.36-7.794-74.943 0-135.914 60.971-135.914 135.915 0 62.342 42.193 115.007 99.52 130.959v211.606c0 9.661 7.859 17.52 17.52 17.52h345.292c9.66 0 17.52-7.859 17.52-17.52v-399.715c0-4.747-1.774-9.031-5.131-12.388zm-53.898-31.27 31.715 31.714h-31.715zm-404.823 100.808c0-66.122 53.793-119.915 119.914-119.915s119.915 53.793 119.915 119.915-53.793 119.914-119.915 119.914c-66.121 0-119.914-53.793-119.914-119.914zm185.025 119.273v10.057h-23.318c8.132-2.634 15.933-6.01 23.318-10.057zm261.307 224.812h-345.292c-.824 0-1.52-.696-1.52-1.52v-208.181c6.654 1.006 13.463 1.53 20.394 1.53 7.634 0 15.119-.643 22.413-1.858v3.275c0 4.418 3.582 8 8 8h42.698c4.418 0 8-3.582 8-8v-28.339c17.185-12.821 31.241-29.608 40.817-48.988h155.204c4.418 0 8-3.582 8-8s-3.582-8-8-8h-148.533c1.842-5.367 3.36-10.884 4.523-16.529h91.528c4.418 0 8-3.582 8-8s-3.582-8-8-8h-89.225c.318-3.784.489-7.61.489-11.475 0-6.876-.518-13.634-1.508-20.239h142.726c4.418 0 8-3.582 8-8s-3.582-8-8-8h-146.131c-1.569-5.665-3.49-11.185-5.749-16.529h99.398c4.418 0 8-3.582 8-8s-3.582-8-8-8h-107.461c-10.157-17.243-24.007-32.059-40.459-43.354h192.179v46.269c0 7.036 5.724 12.76 12.76 12.76h46.269v395.658c0 .824-.696 1.52-1.52 1.52zm-41.286-131.596c0 4.418-3.582 8-8 8h-163.174c-4.418 0-8-3.582-8-8s3.582-8 8-8h163.174c4.419 0 8 3.581 8 8zm-179.174-32.529c0-4.418 3.582-8 8-8h110.692c4.418 0 8 3.582 8 8s-3.582 8-8 8h-110.692c-4.419 0-8-3.582-8-8zm-32.847-13.085h-42.699c-4.418 0-8 3.582-8 8v42.698c0 4.418 3.582 8 8 8h42.698c4.418 0 8-3.582 8-8v-42.698c.001-4.418-3.581-8-7.999-8zm-8 42.698h-26.699v-26.698h26.698v26.698zm220.021-77.327c0 4.418-3.582 8-8 8h-163.174c-4.418 0-8-3.582-8-8s3.582-8 8-8h163.174c4.419 0 8 3.582 8 8zm-179.174-32.529c0-4.418 3.582-8 8-8h110.692c4.418 0 8 3.582 8 8s-3.582 8-8 8h-110.692c-4.419 0-8-3.581-8-8zm0 160.486c0-4.418 3.582-8 8-8h110.692c4.418 0 8 3.582 8 8s-3.582 8-8 8h-110.692c-4.419 0-8-3.582-8-8zm179.174 32.528c0 4.418-3.582 8-8 8h-163.174c-4.418 0-8-3.582-8-8s3.582-8 8-8h163.174c4.419 0 8 3.582 8 8zm-212.021-45.613h-42.699c-4.418 0-8 3.582-8 8v42.698c0 4.418 3.582 8 8 8h42.698c4.418 0 8-3.582 8-8v-42.698c.001-4.418-3.581-8-7.999-8zm-8 42.698h-26.699v-26.698h26.698v26.698z"/></svg>