<?xml version="1.0"?>
<svg xmlns="http://www.w3.org/2000/svg" viewBox="0 0 64 64" width="512" height="512"><g id="purchasing"><path d="M52.8,50.27a3.025,3.025,0,0,0-2.65-.48L43,51.9V43h3a.987.987,0,0,0,.92-.62,1,1,0,0,0-.21-1.09l-7-7a1.008,1.008,0,0,0-1.42,0l-7,7a1,1,0,0,0-.21,1.09A.987.987,0,0,0,32,43h3V54H28.26l-5.4-3H31a3.009,3.009,0,0,0,3-3v-.5a3.015,3.015,0,0,0-2.15-2.88L26,42.9V38h3a.987.987,0,0,0,.92-.62,1,1,0,0,0-.21-1.09l-7-7a1.008,1.008,0,0,0-1.42,0l-7,7a1,1,0,0,0-.21,1.09A.987.987,0,0,0,15,38h3v2.55l-1.72-.51A.863.863,0,0,0,16,40H10V38a1,1,0,0,0-1-1H3a1,1,0,0,0-1,1V60a1,1,0,0,0,1,1H9a1,1,0,0,0,1-1V58.39l10.68,3.56A1.185,1.185,0,0,0,21,62H36a.919.919,0,0,0,.33-.06L52,56.41a3,3,0,0,0,2-2.83v-.91A2.984,2.984,0,0,0,52.8,50.27ZM8,59H4V39H8ZM34.41,41,39,36.41,43.59,41H42a1,1,0,0,0-1,1V52.49l-4,1.17V42a1,1,0,0,0-1-1Zm-17-5L22,31.41,26.59,36H25a1,1,0,0,0-1,1v5.31l-4-1.18V37a1,1,0,0,0-1-1ZM52,53.58a1,1,0,0,1-.67.95L35.83,60H21.16L10,56.28V42h5.86l15.42,4.54a1.008,1.008,0,0,1,.72.96V48a1,1,0,0,1-1,1H19a1,1,0,0,0-.49,1.87l9,5A.947.947,0,0,0,28,56h8a.863.863,0,0,0,.28-.04l14.44-4.25a1,1,0,0,1,1.28.96Z"/><path d="M34,2A15,15,0,1,0,49,17,15.018,15.018,0,0,0,34,2ZM46.95,16h-2a11.089,11.089,0,0,0-.97-3.6l1.73-1.01A13.022,13.022,0,0,1,46.95,16ZM41.34,6.28a13.244,13.244,0,0,1,3.38,3.38l-1.74,1a11.406,11.406,0,0,0-2.64-2.64ZM35,4.05a13.022,13.022,0,0,1,4.61,1.24L38.6,7.02A11.089,11.089,0,0,0,35,6.05Zm-2,0v2a11.089,11.089,0,0,0-3.6.97L28.39,5.29A13.022,13.022,0,0,1,33,4.05ZM26.66,6.28l1,1.74a11.406,11.406,0,0,0-2.64,2.64l-1.74-1A13.244,13.244,0,0,1,26.66,6.28Zm-4.37,5.11,1.73,1.01a11.089,11.089,0,0,0-.97,3.6h-2A13.022,13.022,0,0,1,22.29,11.39ZM21.05,18h2a11.089,11.089,0,0,0,.97,3.6l-1.73,1.01A13.022,13.022,0,0,1,21.05,18Zm5.61,9.72a13.244,13.244,0,0,1-3.38-3.38l1.74-1a11.406,11.406,0,0,0,2.64,2.64ZM33,29.95a13.022,13.022,0,0,1-4.61-1.24l1.01-1.73a11.089,11.089,0,0,0,3.6.97ZM25,17a9,9,0,1,1,9,9A9.014,9.014,0,0,1,25,17ZM35,29.95v-2a11.089,11.089,0,0,0,3.6-.97l1.01,1.73A13.022,13.022,0,0,1,35,29.95Zm6.34-2.23-1-1.74a11.406,11.406,0,0,0,2.64-2.64l1.74,1A13.244,13.244,0,0,1,41.34,27.72Zm4.37-5.11L43.98,21.6a11.089,11.089,0,0,0,.97-3.6h2A13.022,13.022,0,0,1,45.71,22.61Z"/><path d="M33,24h2V22a2,2,0,0,0,2-2V18a2,2,0,0,0-2-2H33V14h4V12H35V10H33v2a2,2,0,0,0-2,2v2a2,2,0,0,0,2,2h2v2H31v2h2Z"/><path d="M61.707,34.293l-7-7a1,1,0,0,0-1.414,0l-7,7A1,1,0,0,0,47,36h3V46a1,1,0,0,0,1,1h6a1,1,0,0,0,1-1V36h3a1,1,0,0,0,.707-1.707ZM57,34a1,1,0,0,0-1,1V45H52V35a1,1,0,0,0-1-1H49.414L54,29.414,58.586,34Z"/><path d="M3,28H6v6a1,1,0,0,0,1,1h6a1,1,0,0,0,1-1V28h3a1,1,0,0,0,.707-1.707l-7-7a1,1,0,0,0-1.414,0l-7,7A1,1,0,0,0,3,28Zm7-6.586L14.586,26H13a1,1,0,0,0-1,1v6H8V27a1,1,0,0,0-1-1H5.414Z"/></g></svg>
