<svg id="Layer_1" enable-background="new 0 0 512 512" viewBox="0 0 512 512" xmlns="http://www.w3.org/2000/svg"><path d="m484.673 352.145c12.827-30.438 19.327-62.748 19.327-96.145 0-33.396-6.5-65.707-19.327-96.145 6.65-5.814 10.863-14.349 10.863-23.855 0-17.474-14.216-31.69-31.69-31.69-3.61 0-7.078.615-10.313 1.732-22.003-28.919-50.407-52.977-82.518-69.815-35.217-18.466-74.988-28.227-115.014-28.227-40.027 0-79.799 9.761-115.016 28.228-32.111 16.838-60.515 40.897-82.519 69.816-3.235-1.117-6.702-1.732-10.312-1.732-17.475 0-31.69 14.216-31.69 31.69 0 9.506 4.212 18.041 10.862 23.854-12.827 30.44-19.326 62.749-19.326 96.144 0 47.065 13.243 92.867 38.297 132.452 23.153 36.583 55.377 66.426 93.474 86.668-1.848 6.515-3.159 13.21-3.889 20.028-.242 2.257.486 4.51 2.004 6.199 1.518 1.688 3.681 2.652 5.95 2.652h224.328c2.27 0 4.433-.964 5.95-2.653 1.518-1.688 2.246-3.941 2.004-6.198-.729-6.818-2.041-13.514-3.889-20.029 31.65-16.833 59.544-40.565 81.298-69.162 3.237 1.118 6.706 1.734 10.318 1.734 17.475 0 31.691-14.216 31.691-31.691.001-9.506-4.212-18.041-10.863-23.855zm-20.827-7.835c-17.475 0-31.69 14.216-31.69 31.69 0 8.082 3.045 15.462 8.042 21.066-4.008 5.222-8.246 10.259-12.676 15.116-16.325-9.683-34.709-17.798-54.734-24.215 6.122-11.936 11.422-24.31 15.848-37.071 9.695-27.957 15.01-57.15 15.862-86.895h83.353c-.939 28.059-6.818 55.231-17.533 80.975-2.091-.435-4.255-.666-6.472-.666zm-128.049 73.129c-12.935-11.39-28-19.779-44.191-24.767 1.851-1.216 3.64-2.519 5.354-3.913 18.17 1.859 35.568 4.885 51.969 9.016-4.083 6.739-8.464 13.3-13.132 19.664zm-61.231 37.353-18.566 20.963-18.567-20.963 16.354-51.419c.734-.015 1.465-.048 2.203-.049h.01s.007 0 .01 0c.738 0 1.467.033 2.202.049zm-98.365-37.352c-4.668-6.365-9.049-12.926-13.132-19.664 16.402-4.131 33.801-7.157 51.972-9.016 1.714 1.393 3.502 2.697 5.353 3.913-16.192 4.987-31.257 13.377-44.193 24.767zm20.788-342.196c0 8.652-7.039 15.691-15.69 15.691s-15.69-7.039-15.69-15.691 7.039-15.69 15.69-15.69 15.69 7.038 15.69 15.69zm-27.735 29.307c3.716 1.533 7.782 2.384 12.044 2.384 17.475 0 31.69-14.216 31.69-31.691 0-6.182-1.786-11.952-4.859-16.834 12.296-11.706 25.657-22.263 39.869-31.488v98.584c-29.081-.578-57.995-4.311-84.99-11.197 2.01-3.288 4.091-6.541 6.246-9.758zm94.745 36.643c32.001-.605 63.824-4.838 93.344-12.711 19.167 36.276 30.036 76.958 31.182 119.519h-124.526zm0-15.687v-98.59c35.369 22.903 64.243 52.813 85.26 87.324-27.072 6.93-56.082 10.686-85.26 11.266zm-16 15.687v106.807h-124.52c1.144-42.031 11.872-82.661 31.411-119.455 29.453 7.833 61.193 12.044 93.109 12.648zm0 122.807v9.754c-32.099 3.958-57.038 31.377-57.038 64.53 0 13.265 4 25.609 10.845 35.906-16.306 2.14-31.982 5.214-46.876 9.171-19.241-36.623-30.117-77.586-31.418-119.361zm8.014 123.323c-.004 0-.009 0-.013 0s-.009 0-.013 0c-27.034-.007-49.026-22.003-49.026-49.039 0-27.041 21.999-49.04 49.039-49.04 27.041 0 49.04 21.999 49.04 49.04 0 27.036-21.992 49.032-49.027 49.039zm54.182-13.132c6.845-10.297 10.845-22.642 10.845-35.906 0-33.153-24.94-60.573-57.041-64.53v-9.754h124.488c-1.301 41.775-12.178 82.738-31.418 119.361-14.894-3.958-30.569-7.032-46.874-9.171zm177.655-126.191h-83.324c-1.134-43.214-12.026-85.699-31.771-124.032 19.768-6.32 38.252-14.374 54.767-24.157 4.419 4.841 8.653 9.882 12.675 15.123-4.997 5.604-8.042 12.984-8.042 21.065 0 17.475 14.217 31.691 31.691 31.691 2.217 0 4.381-.231 6.471-.666 10.715 25.745 16.594 52.917 17.533 80.976zm-8.314-112.001c0 8.652-7.039 15.691-15.69 15.691-8.652 0-15.691-7.039-15.691-15.691s7.039-15.69 15.691-15.69c8.651 0 15.69 7.039 15.69 15.69zm-63.57-47.962c-15.484 8.806-32.701 16.054-51.028 21.763-18.917-32.114-43.972-60.375-73.479-83.044 46.73 7.275 90.259 28.748 124.507 61.281zm-195.382-61.288c-8.399 6.448-16.455 13.348-24.111 20.681-4.509-2.47-9.68-3.877-15.174-3.877-17.475 0-31.69 14.216-31.69 31.69 0 7.418 2.569 14.244 6.854 19.649-3.298 4.888-6.432 9.86-9.408 14.905-18.325-5.709-35.539-12.955-51.021-21.76 34.258-32.542 77.804-54.019 124.55-61.288zm-172.43 93.562c8.651 0 15.69 7.039 15.69 15.69s-7.039 15.691-15.69 15.691-15.69-7.039-15.69-15.691 7.039-15.69 15.69-15.69zm0 47.381c17.475 0 31.69-14.216 31.69-31.691 0-8.081-3.045-15.462-8.042-21.066 4.022-5.241 8.256-10.282 12.676-15.124 16.509 9.779 34.987 17.831 54.747 24.15-19.794 38.322-30.634 80.474-31.753 124.038h-83.322c.939-28.058 6.818-55.23 17.532-80.975 2.09.437 4.255.668 6.472.668zm-24.017 96.308h83.363c.852 29.746 6.167 58.938 15.862 86.896 4.426 12.762 9.726 25.135 15.848 37.071-20.104 6.442-38.553 14.596-54.925 24.329-36.547-40.005-58.262-92.115-60.148-148.296zm71.709 160.078c15.31-8.726 32.504-16.041 51.219-21.823 5.397 9.193 11.304 18.095 17.72 26.67-8.098 9.315-14.682 19.761-19.566 30.969-18.245-9.906-34.786-21.981-49.373-35.816zm140.584-18.923-15.621 49.115c-.854 2.685-.232 5.62 1.636 7.729l23.028 26h-92.357c8.194-42.414 41.507-74.988 83.314-82.844zm30.098 82.844 23.027-26c1.867-2.109 2.488-5.044 1.635-7.729l-15.621-49.115c41.807 7.856 75.119 40.43 83.314 82.844zm80.686-59.076c6.416-8.575 12.322-17.477 17.719-26.669 18.645 5.76 35.78 13.042 51.047 21.724-14.755 14.048-31.325 26.15-49.207 35.895-4.884-11.201-11.465-21.64-19.559-30.95zm116.632-37.233c-8.651 0-15.69-7.039-15.69-15.691s7.039-15.69 15.69-15.69c8.652 0 15.691 7.039 15.691 15.69s-7.039 15.691-15.691 15.691z"/></svg>