<svg id="Layer_1" enable-background="new 0 0 512 512" viewBox="0 0 512 512" xmlns="http://www.w3.org/2000/svg"><path clip-rule="evenodd" d="m499.29 60.263-37.301-47.377c-2.449-3.108-6.122-4.891-10.079-4.891-.001 0-.002 0-.003 0-3.956.001-7.629 1.784-10.077 4.893l-37.298 47.375c-3.068 3.896-3.631 9.086-1.468 13.542s6.588 7.225 11.547 7.225h7.49v141.75c0 4.418 3.582 8 8 8h43.619c4.418 0 8-3.582 8-8v-141.751h7.489c4.959 0 9.383-2.768 11.546-7.223 2.164-4.455 1.603-9.644-1.465-13.543zm-25.57 4.766c-4.418 0-8 3.582-8 8v141.75h-27.619v-141.75c0-4.418-3.582-8-8-8h-8.959l30.769-39.08 30.769 39.08zm-383.821 157.75v-141.75h7.489c4.96 0 9.385-2.769 11.548-7.225 2.163-4.457 1.601-9.646-1.467-13.542l-37.299-47.373c-2.448-3.109-6.122-4.893-10.079-4.894-.001 0-.001 0-.001 0-3.958 0-7.632 1.783-10.081 4.893l-37.301 47.377c-3.066 3.897-3.628 9.087-1.464 13.542 2.163 4.455 6.587 7.223 11.546 7.223h7.489v141.75c0 4.418 3.582 8 8 8h43.619c4.419-.001 8.001-3.583 8.001-8.001zm-16-149.75v141.75h-27.619v-141.75c0-4.418-3.582-8-8-8h-8.959l30.769-39.08 30.769 39.08h-8.959c-4.419 0-8.001 3.582-8.001 8zm344.018 159.823c-1.91-4.931-5.639-8.827-10.498-10.972-4.86-2.145-10.251-2.272-15.181-.361l-24.188 9.377c-10.203 3.956-15.287 15.476-11.332 25.68l3.323 8.571-12.517 6.7c-6.918 3.598-14.015 1.009-25.965-3.876-16.605-6.788-39.063-15.945-68.319 1.835-21.16-12.157-39.243-7.928-53.962-4.48-10.967 2.568-19.628 4.598-27.706.052-.188-.105-.378-.203-.572-.293l-14.371-6.63 3.608-8.164c4.423-10.009-.121-21.752-10.131-26.177l-23.727-10.485c-4.837-2.14-10.229-2.261-15.182-.344-4.953 1.916-8.858 5.636-10.996 10.472l-54.478 123.26c-2.139 4.837-2.261 10.229-.344 15.182s5.637 8.857 10.473 10.995l23.729 10.488c2.601 1.149 5.317 1.693 7.993 1.693 7.623 0 14.908-4.415 18.184-11.823l2.128-4.816c9.287 4.133 11.905 5.221 13.033 5.659 2.376.922 3.299 4.997 4.436 11.108.665 3.577 1.363 7.231 2.716 10.646l-6.245 11.676c-3.411 6.377-4.129 13.721-2.021 20.677s6.781 12.666 13.158 16.075c3.773 2.019 7.883 3.065 11.994 3.181-.353 3.523-.007 7.121 1.054 10.621 2.108 6.956 6.781 12.666 13.158 16.076 7.938 4.245 17.075 4.118 24.638.459 2.471 4.73 6.325 8.738 11.23 11.362 7.086 3.789 15.232 4.112 22.344 1.455 2.381 5.459 6.551 10.111 12.076 13.067 3.979 2.127 8.331 3.207 12.731 3.207 2.655 0 5.328-.394 7.945-1.187 5.48-1.661 10.181-4.918 13.599-9.342l5.742 3.298c3.96 2.274 8.36 3.434 12.84 3.434 2.39 0 4.804-.331 7.183-.998 6.886-1.93 12.803-6.614 16.233-12.852 2.102-3.82 3.156-7.949 3.261-12.051 3.779.596 7.688.362 11.495-.733 6.875-1.979 12.551-6.503 15.982-12.741 2.26-4.109 3.304-8.58 3.251-12.991 10.098.788 20.23-4.254 25.423-13.695 3.466-6.302 4.069-13.452 2.249-19.937 6.741-2.028 12.299-6.512 15.681-12.659 2.744-4.99 3.746-10.693 3.005-16.24l17.687-7.38 1.665 4.294c3.045 7.854 10.57 12.674 18.528 12.674 2.381 0 4.802-.432 7.151-1.343l24.188-9.377c4.931-1.911 8.827-5.64 10.972-10.498s2.272-10.25.36-15.181zm-331.869 136.194-23.728-10.488c-1.252-.554-1.803-1.575-2.02-2.136-.217-.56-.497-1.686.057-2.938l54.479-123.26c.553-1.252 1.575-1.803 2.136-2.02.559-.217 1.685-.497 2.939.057l23.727 10.485c1.907.844 2.807 3.168 1.964 5.075l-54.478 123.26c-.844 1.908-3.172 2.809-5.076 1.965zm54.461 61.422c-2.608-1.395-4.523-3.741-5.393-6.607-.868-2.866-.578-5.881.817-8.489l11.812-22.084c2.897-5.419 9.67-7.473 15.104-4.572 5.1 2.722 7.248 8.929 4.976 14.227l-15.374 26.605c-3.451 2.567-8.118 2.964-11.942.92zm40.721-18.745c3.456-2.616 8.158-3.03 12.018-.971 4.23 2.258 6.535 7.149 5.69 11.856l-17.088 33.093c-2.933 5.458-9.721 7.541-15.135 4.644-2.608-1.395-4.523-3.741-5.393-6.607-.868-2.866-.578-5.881.817-8.489zm21.353 60.443c-3.806-2.035-6.061-6.112-5.862-10.39l16.379-31.721c3.441-3.242 8.743-4.004 12.953-1.758 4.228 2.257 6.533 7.146 5.69 11.85l-15.099 29.018c-3.308 4.26-9.269 5.565-14.061 3.001zm42.912 15.34c-2.867.867-5.882.578-8.49-.816-3.883-2.077-6.18-6.397-5.84-10.767l14.732-28.314c3.442-3.251 8.751-4.017 12.954-1.77 1.47.785 2.708 1.855 3.683 3.181 2.556 3.477 2.906 8.154.894 11.918l-11.325 21.177c-1.395 2.608-3.742 4.523-6.608 5.391zm46.216-8.859c-1.374 2.499-3.755 4.378-6.532 5.157-2.668.747-5.416.428-7.736-.905l-5.827-3.347 5.92-11.07c1.433-2.678 2.361-5.546 2.824-8.471l6.053 3.426c.338.271.697.525 1.087.744 5.129 2.875 7.018 9.364 4.211 14.466zm77.342-84.807c-1.37 2.491-3.651 4.3-6.425 5.094-2.704.773-5.518.46-7.919-.885-16.435-9.205-30.126-16.887-44.212-24.95-3.837-2.196-8.724-.867-10.917 2.968-2.195 3.835-.866 8.723 2.968 10.917 14.138 8.094 27.855 15.79 44.314 25.008.005.002.009.006.013.008 5.132 2.889 7.038 9.364 4.248 14.436-2.815 5.122-9.272 6.997-14.396 4.18l-.013-.007-58.191-32.744c-3.851-2.168-8.728-.801-10.895 3.049-2.167 3.851-.802 8.729 3.049 10.895l46.427 26.124c.342.275.704.533 1.099.755 5.132 2.888 7.037 9.364 4.247 14.436-1.364 2.48-3.633 4.284-6.388 5.076-2.716.782-5.545.47-7.97-.874l-33.669-19.058c-2.225-2.678-4.918-4.874-8.029-6.538-6.277-3.354-13.372-4.035-19.87-2.278-2.147-6.385-6.654-11.915-12.938-15.27-6.28-3.351-13.372-4.025-19.865-2.273-2.147-6.386-6.654-11.917-12.938-15.271-5.164-2.757-10.945-3.695-16.494-2.933-1.442-7.9-6.349-15.071-13.905-19.104-10.059-5.369-22.016-3.742-30.264 3.166-1.612-7.074-4.617-14.874-13.411-18.288-1.034-.401-4.099-1.704-12.354-5.377l35.804-81.01 13.862 6.394c13.401 7.393 26.366 4.356 38.906 1.418 11.712-2.743 22.91-5.358 35.749-.389-2.695 2.331-5.385 4.84-8.056 7.539-12.001 12.128-27.24 23.621-45.289 34.156-2.59 1.509-4.327 3.961-4.893 6.915-.56 2.936.144 5.849 1.97 8.19 25.434 32.728 54.969 20.773 78.701 11.166 15.511-6.279 28.905-11.703 39.328-5.765l64.332 36.667c1.954 1.113 3.501 2.764 4.478 4.772 1.528 3.152 1.458 6.682-.194 9.685zm10.275-23.049c-1.901-2.091-4.133-3.882-6.637-5.309l-64.333-36.667c-17.155-9.779-35.508-2.35-53.254 4.835-20.768 8.406-38.929 15.759-55.738-1.201 16.688-10.269 31.005-21.398 42.625-33.142 5.311-5.365 10.647-9.893 15.874-13.464 24.32-16.684 41.259-9.76 57.64-3.063 12.573 5.139 25.575 10.451 39.485 3.216l10.876-5.822 32.113 82.835zm72.302-3.569c-.243.549-.84 1.545-2.117 2.04l-24.188 9.377c-1.938.756-4.225-.252-4.979-2.196l-48.712-125.649c-.754-1.945.253-4.226 2.197-4.979l24.188-9.377c.44-.17.896-.251 1.35-.251 1.549 0 3.046.943 3.629 2.447v.001l48.712 125.65c.496 1.276.163 2.387-.08 2.937zm-51.688-110.737c0 4.44-3.621 8.061-8.061 8.061s-8.061-3.621-8.061-8.061 3.62-8.061 8.061-8.061c4.44 0 8.061 3.621 8.061 8.061zm-143.942-5.345c59.213 0 107.387-48.174 107.387-107.387s-48.175-107.387-107.387-107.387-107.387 48.174-107.387 107.387 48.174 107.387 107.387 107.387zm0-198.774c50.391 0 91.387 40.996 91.387 91.387s-40.997 91.387-91.387 91.387-91.387-40.996-91.387-91.387 40.996-91.387 91.387-91.387zm0 171.208c44.014 0 79.821-35.808 79.821-79.821s-35.808-79.82-79.821-79.82-79.821 35.808-79.821 79.82c-.001 44.014 35.807 79.821 79.821 79.821zm0-143.641c35.191 0 63.821 28.63 63.821 63.82 0 35.191-28.63 63.821-63.821 63.821s-63.821-28.63-63.821-63.821c-.001-35.191 28.629-63.82 63.821-63.82zm13.663 86.438c1.15-1.331 1.555-2.824 1.311-4.842-.432-3.553-2.663-7.917-16.204-10.141-21.855-3.588-26.966-15.108-27.404-24.141-.595-12.24 7.667-22.508 20.636-25.774v-3.169c0-4.418 3.582-8 8-8s8 3.582 8 8v3.097c8.398 2.02 16.331 7.459 20.521 17.437 1.711 4.074-.205 8.764-4.278 10.474-4.072 1.71-8.763-.205-10.474-4.278-3.204-7.632-11.07-9.59-17.443-8.145-1.561.354-9.325 2.479-8.98 9.584.092 1.882.334 6.881 14.017 9.127 17.996 2.956 27.919 11.031 29.494 24.001.79 6.512-.971 12.472-5.092 17.237-4.08 4.717-10.452 8.061-17.764 9.47v2.894c0 4.418-3.582 8-8 8s-8-3.582-8-8v-3.027c-11.396-2.53-20.107-10.353-22.804-21.165-1.068-4.287 1.54-8.629 5.827-9.698 4.287-1.062 8.629 1.54 9.698 5.827 1.883 7.551 9.816 10.089 16.024 9.907 5.418-.13 10.608-2.009 12.915-4.675zm-136.496 82.574c-.206 4.447-3.978 7.885-8.425 7.679s-7.885-3.979-7.679-8.426 3.979-7.885 8.425-7.679c4.447.207 7.885 3.979 7.679 8.426z" fill-rule="evenodd"/></svg>