<svg id="Layer_1" enable-background="new 0 0 512 512" viewBox="0 0 512 512" xmlns="http://www.w3.org/2000/svg"><path d="m496 257.563h-15.755v-154.856l16.324-20.055c1.307-1.605 1.836-3.707 1.445-5.74l-11.959-62.233c-.633-3.296-3.517-5.679-6.874-5.679h-38.698c-3.356 0-6.241 2.383-6.874 5.679l-11.959 62.233c-.391 2.033.139 4.135 1.445 5.74l16.324 20.056v154.855h-15.755c-3.866 0-7 3.134-7 7v195.269c0 23.803 19.365 43.168 43.168 43.168s43.168-19.365 43.168-43.168v-195.269c0-3.866-3.134-7-7-7zm-44.152-161.763-15.834-19.452 10.252-53.348h27.133l10.251 53.348-15.833 19.451c-1.016 1.249-1.571 2.81-1.571 4.419v157.346h-12.826v-157.345c-.001-1.61-.556-3.17-1.572-4.419zm37.152 364.032c0 16.083-13.084 29.168-29.168 29.168s-29.168-13.085-29.168-29.168v-188.269h58.336zm-362.477-375.109c0-19.608-15.953-35.562-35.562-35.562s-35.562 15.954-35.562 35.562 15.953 35.562 35.562 35.562 35.562-15.953 35.562-35.562zm-35.562 21.562c-11.889 0-21.562-9.673-21.562-21.562s9.673-21.562 21.562-21.562 21.562 9.673 21.562 21.562-9.673 21.562-21.562 21.562zm35.489 250.378v-205.04c24.585-13.065 40.235-38.845 40.235-66.899 0-41.755-33.97-75.724-75.724-75.724s-75.724 33.97-75.724 75.724c0 28.054 15.649 53.833 40.235 66.899v205.04c-28.383 13.608-46.472 42.118-46.472 73.896 0 29.632 16.079 57.048 41.962 71.548 2.167 1.214 4.817 1.189 6.96-.068 2.144-1.256 3.461-3.555 3.461-6.039v-54.33l29.578-25.25 29.578 25.25v54.33c0 2.484 1.317 4.783 3.461 6.039 1.092.641 2.315.961 3.539.961 1.179 0 2.358-.297 3.421-.893 25.883-14.5 41.962-41.915 41.962-71.548 0-31.778-18.089-60.288-46.472-73.896zm8.089 126.042v-44.263c0-2.048-.897-3.994-2.455-5.324l-36.578-31.227c-1.309-1.117-2.927-1.676-4.545-1.676s-3.236.559-4.545 1.676l-36.578 31.227c-1.558 1.33-2.455 3.276-2.455 5.324v44.263c-15.277-12.79-24.383-31.841-24.383-52.146 0-27.671 16.539-52.353 42.135-62.879 2.624-1.079 4.337-3.636 4.337-6.474v-213.932c0-2.741-1.601-5.23-4.095-6.368-21.955-10.017-36.141-32.069-36.141-56.183.001-34.034 27.69-61.723 61.725-61.723s61.724 27.689 61.724 61.724c0 24.113-14.186 46.167-36.14 56.183-2.494 1.138-4.095 3.627-4.095 6.368v213.933c0 2.838 1.713 5.395 4.337 6.474 25.596 10.526 42.134 35.208 42.134 62.879.001 20.303-9.106 39.354-24.382 52.144zm236.392-407.065h-151.727c-1.856 0-3.637.737-4.95 2.05l-39.342 39.342c-1.313 1.313-2.05 3.094-2.05 4.95v202.608c0 3.866 3.134 7 7 7h34.414c-1.097 1.831-3.478 4.527-8.003 4.527-6.539 0-11.859 5.32-11.859 11.86v14.795c0 6.54 5.32 11.86 11.859 11.86 5.799 0 8.086 4.433 8.648 5.791.563 1.359 2.08 6.11-2.021 10.212-4.623 4.625-4.622 12.148.001 16.772l10.463 10.463c2.24 2.239 5.218 3.473 8.386 3.473s6.146-1.233 8.387-3.474c4.108-4.109 8.857-2.594 10.215-2.032 1.357.562 5.787 2.849 5.787 8.66 0 6.54 5.32 11.86 11.859 11.86h14.796c6.539 0 11.859-5.32 11.859-11.86 0-5.798 4.433-8.085 5.792-8.647 1.358-.562 6.111-2.081 10.211 2.021 2.24 2.239 5.218 3.473 8.386 3.473s6.146-1.233 8.386-3.473l10.463-10.463c4.624-4.624 4.624-12.147 0-16.774-4.1-4.1-2.583-8.851-2.02-10.21.563-1.358 2.85-5.791 8.648-5.791 6.54 0 11.86-5.32 11.86-11.86v-14.795c0-6.54-5.32-11.86-11.86-11.86-4.526 0-6.906-2.696-8.003-4.527h34.415c3.866 0 7-3.134 7-7v-241.951c0-3.866-3.134-7-7-7zm-158.727 23.9v15.442h-15.442zm130.175 250.485v10.701c-8.699.755-16.031 6.105-19.442 14.341-3.412 8.237-2.009 17.205 3.607 23.89l-7.567 7.567c-6.685-5.618-15.653-7.02-23.89-3.607-8.236 3.411-13.585 10.744-14.341 19.442h-10.7c-.755-8.707-6.104-16.044-14.337-19.454-8.235-3.411-17.204-2.005-23.894 3.619l-7.567-7.567c5.616-6.686 7.019-15.653 3.607-23.89-3.412-8.235-10.743-13.586-19.442-14.341v-10.701c8.699-.755 16.031-6.105 19.442-14.341 3.412-8.236 2.01-17.204-3.607-23.89l7.567-7.567c6.685 5.617 15.653 7.018 23.889 3.607s13.586-10.743 14.342-19.442h10.7c.756 8.699 6.105 16.031 14.341 19.442 8.235 3.412 17.203 2.01 23.89-3.607l7.567 7.567c-5.617 6.686-7.019 15.653-3.607 23.89 3.412 8.236 10.744 13.586 19.442 14.341zm21.552-32.434h-24.129c2.573-4.525 1.944-10.391-1.911-14.248l-10.463-10.463c-2.24-2.239-5.218-3.473-8.386-3.473s-6.146 1.233-8.386 3.473c-4.101 4.102-8.853 2.584-10.211 2.021-1.359-.562-5.792-2.85-5.792-8.648 0-6.539-5.32-11.859-11.859-11.859h-14.796c-6.539 0-11.859 5.32-11.859 11.859 0 5.799-4.433 8.086-5.792 8.648-1.358.563-6.11 2.081-10.211-2.021-2.24-2.239-5.218-3.473-8.386-3.473s-6.146 1.233-8.386 3.473l-10.464 10.465c-3.854 3.855-4.482 9.721-1.909 14.246h-24.129v-188.609h32.342c3.866 0 7-3.134 7-7v-32.342h137.728v227.951zm-21.254-130.384c0 3.866-3.134 7-7 7h-120.561c-3.866 0-7-3.134-7-7s3.134-7 7-7h120.562c3.865 0 6.999 3.134 6.999 7zm0 32.816c0 3.866-3.134 7-7 7h-120.561c-3.866 0-7-3.134-7-7s3.134-7 7-7h120.562c3.865 0 6.999 3.134 6.999 7zm-7-72.633c3.866 0 7 3.134 7 7s-3.134 7-7 7h-120.561c-3.866 0-7-3.134-7-7s3.134-7 7-7zm-53.281 105.45c0 3.866-3.134 7-7 7h-60.281c-3.866 0-7-3.134-7-7s3.134-7 7-7h60.281c3.867 0 7 3.133 7 7zm-7 59.989c-23.46 0-42.547 19.087-42.547 42.547s19.087 42.547 42.547 42.547 42.547-19.087 42.547-42.547-19.086-42.547-42.547-42.547zm0 71.094c-15.741 0-28.547-12.806-28.547-28.547s12.806-28.547 28.547-28.547 28.547 12.806 28.547 28.547-12.806 28.547-28.547 28.547z"/></svg>