<svg id="Layer_1" enable-background="new 0 0 62 62" height="512" viewBox="0 0 62 62" width="512" xmlns="http://www.w3.org/2000/svg"><path d="m44.956 25.063c-.329-.114-.7-.049-.971.176-1.942 1.62-4.4 2.513-6.921 2.513-2.513 0-4.966-.889-6.908-2.503-.271-.226-.641-.291-.971-.174-4.259 1.5-7.839 4.645-9.942 8.664h-2.497c-1.036 0-1.848.811-1.848 1.845v2.006l-1.453-1.447c-.353-.351-.832-.555-1.338-.537-.493.01-.946.21-1.251.537l-3.44 3.427c-.353.352-.55.84-.542 1.338.009.487.216.953.542 1.253l1.442 1.436h-2.009c-1.036 0-1.848.811-1.848 1.845l.001 4.809c-.025.498.15.972.494 1.333.34.356.816.562 1.306.562h2.021l-1.408 1.434c-.353.353-.549.84-.541 1.338.009.493.21.946.542 1.253l3.44 3.425c.353.352.809.562 1.339.538.493-.009.947-.21 1.251-.537l1.446-1.44c.002.001.004.002.006.003v1.996c0 1.034.812 1.845 1.848 1.845h4.877c1.037 0 1.849-.811 1.849-1.845v-2.004l1.451 1.444c.353.352.824.562 1.339.538.493-.009.947-.21 1.251-.537l3.441-3.427c.353-.353.549-.84.541-1.338-.009-.493-.21-.946-.542-1.253l-1.442-1.436h2.009c.665 0 1.234-.336 1.559-.848h22.921c.553 0 1-.447 1-1v-8.218c0-7.654-4.84-14.492-12.044-17.014zm-13.587 25.081h-2.559c-.447 0-.845.318-.968.748-.046.161-.303.811-.375.943-.247.396-.188.909.143 1.238l1.811 1.802-3.202 3.188-1.816-1.809c-.308-.307-.821-.356-1.208-.155-.13.067-1.041.403-1.127.442-.362.16-.595.519-.595.914v2.545h-4.574v-2.544c0-.447-.319-.847-.75-.968-.163-.047-.815-.302-.948-.374-.393-.243-.904-.186-1.233.141l-1.815 1.809-3.204-3.189 1.773-1.81c.303-.31.345-.696.148-1.205-.052-.136-.406-1.037-.444-1.124-.161-.36-.519-.592-.913-.592h-2.512v-4.548h2.558c.446 0 .844-.317.967-.746.046-.163.303-.811.374-.94.249-.396.191-.911-.141-1.242l-1.811-1.802 3.202-3.189 1.816 1.809c.308.309.802.367 1.202.202.136-.056 1.047-.45 1.133-.488.362-.16.596-.519.596-.915v-2.544h4.55v2.544c0 .447.319.847.75.968.163.047.814.302.944.373.397.248.907.189 1.237-.14l1.815-1.809 3.179 3.188-1.811 1.805c-.311.309-.36.826-.157 1.214.068.129.406 1.036.444 1.122.161.36.519.592.913.592h2.605v4.546zm23.631-.848h-7.107v-4.28c0-.552-.448-1-1-1-.552 0-1 .448-1 1v4.28h-12.524v-3.856c0-.051-.004-.101-.012-.15-.149-.981-.941-1.694-1.884-1.694h-2.008l1.441-1.436c.354-.352.551-.839.542-1.338-.009-.487-.216-.953-.539-1.25l-3.419-3.43c-.352-.351-.85-.555-1.338-.537-.493.01-.946.21-1.251.538l-1.446 1.439c-.002-.001-.004-.002-.006-.002v-1.997c0-1.019-.826-1.845-1.845-1.845h-.082c1.818-2.976 4.582-5.318 7.816-6.587 2.222 1.681 4.943 2.6 7.727 2.6 2.792 0 5.52-.924 7.743-2.611 6.119 2.38 10.192 8.314 10.192 14.938z"/><path d="m37.064 23.742c6.57 0 11.916-5.325 11.916-11.871s-5.345-11.871-11.916-11.871c-6.57 0-11.915 5.325-11.915 11.871s5.346 11.871 11.915 11.871zm0-21.742c5.468 0 9.916 4.428 9.916 9.871s-4.448 9.871-9.916 9.871c-5.467 0-9.915-4.428-9.915-9.871s4.448-9.871 9.915-9.871z"/><path d="m23.366 43.629c-1.131-1.126-2.621-1.746-4.193-1.746s-3.062.62-4.193 1.746c-1.132 1.127-1.755 2.612-1.755 4.183 0 1.569.624 3.055 1.755 4.182 1.131 1.126 2.62 1.746 4.193 1.746s3.062-.62 4.193-1.746c1.132-1.127 1.755-2.612 1.755-4.182 0-1.539-.62-3.021-1.746-4.173-.002-.003-.005-.006-.009-.01zm-1.411 6.946c-1.507 1.502-4.056 1.503-5.564 0-.752-.749-1.167-1.73-1.167-2.764s.414-2.016 1.167-2.765c.754-.751 1.742-1.164 2.782-1.164 1.038 0 2.024.411 2.777 1.159.755.774 1.171 1.758 1.171 2.77.001 1.034-.414 2.015-1.166 2.764z"/></svg>