<svg id="Layer_1" height="512" viewBox="0 0 66 66" width="512" xmlns="http://www.w3.org/2000/svg"><g><g><path d="m2 53.982c1.204 0 1.776.597 2.684 1.652 2.733 3.177 5.665 3.178 8.401 0 1.939-2.252 3.43-2.254 5.371 0 2.735 3.177 5.667 3.178 8.402 0 1.939-2.252 3.432-2.254 5.373 0 2.734 3.176 5.667 3.179 8.402 0 1.938-2.252 3.43-2.254 5.372 0 1.208 1.402 2.321 2.348 4.204 2.348 2.182 0 3.304-1.301 4.205-2.347 1.942-2.252 3.437-2.255 5.381 0 .901 1.046 2.023 2.347 4.205 2.347.552 0 1-.448 1-1s-.448-1-1-1c-1.207 0-1.78-.597-2.69-1.653-2.737-3.176-5.671-3.178-8.41 0-.91 1.056-1.483 1.653-2.69 1.653 2.505-6.029 7.7-18.536 10.212-24.585.209-.504-.024-1.083-.524-1.301l-9.125-3.974-2.457-12.295c-.372-1.863-2.022-3.216-3.922-3.216h-6.394v-7.63c0-1.103-.897-2-2-2h-6c-1.103 0-2 .897-2 2v7.63h-6.393c-1.9 0-3.55 1.353-3.922 3.216l-2.457 12.293-9.13 3.976c-.244.106-.436.306-.532.553-.097.248-.091.524.017.768 4.377 9.913 6.476 14.666 9.136 20.69-1.508.339-2.409 1.362-3.15 2.223-1.939 2.251-3.429 2.254-5.37 0-.9-1.046-2.02-2.348-4.2-2.348-.552 0-1 .448-1 1s.449 1 1.001 1zm23.343.348c-1.939 2.252-3.43 2.254-5.371 0-.726-.843-1.605-1.841-3.057-2.201l-6.134-13.891 21.217-9.238v23.688c-1.748-1.122-4.245-1.157-6.655 1.642zm22.178-.001c-2.735-3.175-5.668-3.179-8.403 0-1.695 1.97-3.265 2.388-5.12.287v-25.617l21.387 9.308-7.027 16.918c-.266-.245-.533-.542-.837-.896zm8.631-17.869-22.155-9.642v-5.818l24.199 10.538zm-26.152-33.478h6v7.63h-6zm-10.354 11.238c.187-.931 1.011-1.607 1.961-1.607h22.785c.95 0 1.775.676 1.961 1.607l2.185 10.931-15.142-6.594c-.255-.11-.544-.11-.799 0l-15.136 6.591zm12.352 6.78v5.818l-22.025 9.59-2.154-4.879z"/><path d="m64 62.982c-1.207 0-1.78-.597-2.69-1.653-2.737-3.176-5.671-3.178-8.41 0-1.901 2.205-3.401 2.296-5.378 0-2.735-3.175-5.668-3.179-8.403 0-1.938 2.252-3.43 2.254-5.371 0-2.735-3.177-5.668-3.178-8.404 0-1.939 2.252-3.43 2.254-5.371 0-2.735-3.177-5.667-3.178-8.402 0-1.939 2.251-3.429 2.254-5.37 0-.9-1.046-2.02-2.348-4.2-2.348-.552 0-1 .448-1 1s.448 1 1 1c1.204 0 1.776.597 2.684 1.652 2.733 3.177 5.665 3.178 8.401 0 1.939-2.252 3.43-2.254 5.371 0 2.735 3.177 5.667 3.178 8.402 0 1.939-2.252 3.432-2.254 5.373 0 2.734 3.176 5.667 3.179 8.402 0 1.938-2.252 3.43-2.254 5.372 0 2.736 3.176 5.67 3.178 8.409 0 1.942-2.252 3.437-2.255 5.381 0 .901 1.046 2.023 2.347 4.205 2.347.552 0 1-.448 1-1-.001-.55-.449-.998-1.001-.998z"/><path d="m40.777 38.498-1-.46c-.502-.232-1.096-.012-1.327.49s-.012 1.096.49 1.327l1 .46c.136.063.278.092.418.092.378 0 .74-.216.909-.582.231-.502.011-1.096-.49-1.327z"/><path d="m46.777 41.498-1-.46c-.504-.231-1.096-.012-1.327.49s-.012 1.096.49 1.327l1 .46c.136.063.278.092.418.092.378 0 .74-.216.909-.582.231-.502.011-1.096-.49-1.327z"/><path d="m26.218 38.037-1 .46c-.501.231-.721.825-.49 1.327.168.366.53.582.909.582.14 0 .282-.029.418-.092l1-.46c.501-.231.721-.825.49-1.327-.231-.501-.824-.72-1.327-.49z"/><path d="m20.218 41.037-1 .46c-.501.231-.721.825-.49 1.327.168.366.53.582.909.582.14 0 .282-.029.418-.092l1-.46c.501-.231.721-.825.49-1.327-.231-.501-.823-.721-1.327-.49z"/><path d="m25 15.235h-2c-.552 0-1 .448-1 1s.448 1 1 1h2c.552 0 1-.448 1-1s-.448-1-1-1z"/><path d="m41 17.235h2c.552 0 1-.448 1-1s-.448-1-1-1h-2c-.552 0-1 .448-1 1s.448 1 1 1z"/></g></g></svg>