<svg id="Layer_1" enable-background="new 0 0 512 512" viewBox="0 0 512 512" xmlns="http://www.w3.org/2000/svg"><path d="m496 441.87h-14.683v-276.1c0-4.418-3.582-8-8-8h-63.084c-4.418 0-8 3.582-8 8v276.1h-38.05v-150.328c0-4.418-3.582-8-8-8h-63.083c-4.418 0-8 3.582-8 8v150.328h-38.054v-193.35c0-4.418-3.582-8-8-8h-63.083c-4.418 0-8 3.582-8 8v193.35h-38.052v-86.92c0-4.418-3.582-8-8-8h-63.084c-4.418 0-8 3.582-8 8v86.92h-26.827v-379.742c0-4.418-3.582-8-8-8s-8 3.582-8 8v387.742c0 4.418 3.582 8 8 8h480c4.418 0 8-3.582 8-8s-3.582-8-8-8zm-77.767-268.1h47.084v268.1h-47.084zm-117.133 125.772h47.084v142.328h-47.084zm-117.137-43.022h47.083v185.35h-47.083zm-117.136 106.43h47.084v78.92h-47.084zm23.542-66.623c19.332 0 35.061-15.729 35.061-35.061 0-5.23-1.159-10.191-3.221-14.654l63.295-49.285c6.021 4.867 13.674 7.79 22.001 7.79 14.029 0 26.154-8.287 31.754-20.219l50.343 10.57c.438 18.955 15.982 34.243 35.04 34.243 19.332 0 35.061-15.729 35.061-35.061 0-6.079-1.557-11.8-4.291-16.789l66.269-59.27c5.695 3.999 12.623 6.356 20.095 6.356 19.332 0 35.061-15.729 35.061-35.061s-15.729-35.061-35.061-35.061-35.061 15.729-35.061 35.061c0 6.078 1.557 11.799 4.29 16.788l-66.269 59.271c-5.695-3.999-12.623-6.355-20.094-6.355-14.029 0-26.154 8.287-31.754 20.219l-50.342-10.57c-.438-18.956-15.982-34.244-35.04-34.244-19.332 0-35.061 15.729-35.061 35.062 0 5.229 1.159 10.19 3.221 14.652l-63.296 49.285c-6.021-4.866-13.674-7.789-22-7.789-19.333 0-35.062 15.729-35.062 35.061s15.728 35.061 35.061 35.061zm351.406-225.5c10.51 0 19.061 8.551 19.061 19.061s-8.551 19.061-19.061 19.061-19.061-8.551-19.061-19.061 8.552-19.061 19.061-19.061zm-117.133 104.764c10.51 0 19.061 8.551 19.061 19.061s-8.551 19.061-19.061 19.061-19.061-8.551-19.061-19.061 8.551-19.061 19.061-19.061zm-117.137-24.595c10.51 0 19.061 8.551 19.061 19.062 0 10.51-8.551 19.061-19.061 19.061s-19.061-8.551-19.061-19.061c0-10.511 8.551-19.062 19.061-19.062zm-117.136 91.21c10.51 0 19.061 8.551 19.061 19.061s-8.551 19.061-19.061 19.061c-10.511 0-19.062-8.551-19.062-19.061s8.551-19.061 19.062-19.061z"/></svg>