<?xml version="1.0" encoding="UTF-8" standalone="no"?>
<!-- Created with Inkscape (http://www.inkscape.org/) -->

<svg
   version="1.1"
   id="svg3366"
   xml:space="preserve"
   width="682.66669"
   height="682.66669"
   viewBox="0 0 682.66669 682.66669"
   xmlns="http://www.w3.org/2000/svg"
   xmlns:svg="http://www.w3.org/2000/svg"><defs
     id="defs3370"><clipPath
       clipPathUnits="userSpaceOnUse"
       id="clipPath3388"><path
         d="M 0,512 H 512 V 0 H 0 Z"
         id="path3386" /></clipPath></defs><g
     id="g3372"
     transform="matrix(1.3333333,0,0,-1.3333333,0,682.66667)"><g
       id="g3374"
       transform="translate(206.1787,241.8599)"><path
         d="M 0,0 H -49.175"
         style="fill:none;stroke:#000000;stroke-width:15;stroke-linecap:round;stroke-linejoin:round;stroke-miterlimit:10;stroke-dasharray:none;stroke-opacity:1"
         id="path3376" /></g><g
       id="g3378"
       transform="translate(354.9961,241.8599)"><path
         d="M 0,0 H -49.175"
         style="fill:none;stroke:#000000;stroke-width:15;stroke-linecap:round;stroke-linejoin:round;stroke-miterlimit:10;stroke-dasharray:none;stroke-opacity:1"
         id="path3380" /></g><g
       id="g3382"><g
         id="g3384"
         clip-path="url(#clipPath3388)"><g
           id="g3390"
           transform="translate(155.0596,300.9199)"><path
             d="M 0,0 C 0.98,16.44 11.9,30.75 27.7,35.94 L 79.73,53.07"
             style="fill:none;stroke:#000000;stroke-width:15;stroke-linecap:round;stroke-linejoin:round;stroke-miterlimit:10;stroke-dasharray:none;stroke-opacity:1"
             id="path3392" /></g><g
           id="g3394"
           transform="translate(277.21,353.9902)"><path
             d="m 0,0 52.03,-17.13 c 15.8,-5.19 26.72,-19.5 27.7,-35.94"
             style="fill:none;stroke:#000000;stroke-width:15;stroke-linecap:round;stroke-linejoin:round;stroke-miterlimit:10;stroke-dasharray:none;stroke-opacity:1"
             id="path3396" /></g><g
           id="g3398"
           transform="translate(277.2139,379.2397)"><path
             d="m 0,0 v -25.254 c 0,-11.716 -9.498,-21.213 -21.214,-21.213 -11.716,0 -21.214,9.497 -21.214,21.213 V 0"
             style="fill:none;stroke:#000000;stroke-width:15;stroke-linecap:round;stroke-linejoin:round;stroke-miterlimit:10;stroke-dasharray:none;stroke-opacity:1"
             id="path3400" /></g><g
           id="g3402"
           transform="translate(304.4883,456.0122)"><path
             d="M 0,0 C 0,26.779 -21.709,48.488 -48.488,48.488 -75.268,48.488 -96.977,26.779 -96.977,0 v -32.325 c 0,-26.779 21.709,-48.488 48.489,-48.488 26.779,0 48.488,21.709 48.488,48.488 z"
             style="fill:none;stroke:#000000;stroke-width:15;stroke-linecap:round;stroke-linejoin:round;stroke-miterlimit:10;stroke-dasharray:none;stroke-opacity:1"
             id="path3404" /></g><g
           id="g3406"
           transform="translate(303.0098,136.3901)"><path
             d="M 0,0 C 2.431,14.66 12.79,27.02 27.23,31.78 L 79.26,48.9"
             style="fill:none;stroke:#000000;stroke-width:15;stroke-linecap:round;stroke-linejoin:round;stroke-miterlimit:10;stroke-dasharray:none;stroke-opacity:1"
             id="path3408" /></g><g
           id="g3410"
           transform="translate(504.5,83.25)"><path
             d="m 0,0 v -10.09 h -101.02 -46.46"
             style="fill:none;stroke:#000000;stroke-width:15;stroke-linecap:round;stroke-linejoin:round;stroke-miterlimit:10;stroke-dasharray:none;stroke-opacity:1"
             id="path3412" /></g><g
           id="g3414"
           transform="translate(424.7002,185.29)"><path
             d="M 0,0 52.03,-17.12 C 68.6,-22.58 79.8,-38.06 79.8,-55.51 v -11.494"
             style="fill:none;stroke:#000000;stroke-width:15;stroke-linecap:round;stroke-linejoin:round;stroke-miterlimit:10;stroke-dasharray:none;stroke-opacity:1"
             id="path3416" /></g><g
           id="g3418"
           transform="translate(129.7305,185.29)"><path
             d="M 0,0 52.029,-17.12 C 66.47,-21.88 76.829,-34.24 79.26,-48.9"
             style="fill:none;stroke:#000000;stroke-width:15;stroke-linecap:round;stroke-linejoin:round;stroke-miterlimit:10;stroke-dasharray:none;stroke-opacity:1"
             id="path3420" /></g><g
           id="g3422"
           transform="translate(154.9805,73.1602)"><path
             d="M 0,0 H -46.461 -147.48 v 10.09"
             style="fill:none;stroke:#000000;stroke-width:15;stroke-linecap:round;stroke-linejoin:round;stroke-miterlimit:10;stroke-dasharray:none;stroke-opacity:1"
             id="path3424" /></g><g
           id="g3426"
           transform="translate(7.5,118.2856)"><path
             d="m 0,0 v 11.494 c 0,17.45 11.2,32.93 27.77,38.39 l 52.03,17.12"
             style="fill:none;stroke:#000000;stroke-width:15;stroke-linecap:round;stroke-linejoin:round;stroke-miterlimit:10;stroke-dasharray:none;stroke-opacity:1"
             id="path3428" /></g><g
           id="g3430"
           transform="translate(424.6973,210.5425)"><path
             d="m 0,0 v -25.254 c 0,-11.716 -9.498,-21.213 -21.214,-21.213 -11.716,0 -21.213,9.497 -21.213,21.213 V 0"
             style="fill:none;stroke:#000000;stroke-width:15;stroke-linecap:round;stroke-linejoin:round;stroke-miterlimit:10;stroke-dasharray:none;stroke-opacity:1"
             id="path3432" /></g><g
           id="g3434"
           transform="translate(451.9717,287.3149)"><path
             d="M 0,0 C 0,26.779 -21.709,48.488 -48.488,48.488 -75.268,48.488 -96.976,26.779 -96.976,0 v -32.325 c 0,-26.779 21.709,-48.488 48.488,-48.488 26.779,0 48.488,21.709 48.488,48.488 z"
             style="fill:none;stroke:#000000;stroke-width:15;stroke-linecap:round;stroke-linejoin:round;stroke-miterlimit:10;stroke-dasharray:none;stroke-opacity:1"
             id="path3436" /></g><g
           id="g3438"
           transform="translate(462.0732,99.4248)"><path
             d="M 0,0 V -26.264"
             style="fill:none;stroke:#000000;stroke-width:15;stroke-linecap:round;stroke-linejoin:round;stroke-miterlimit:10;stroke-dasharray:none;stroke-opacity:1"
             id="path3440" /></g><g
           id="g3442"
           transform="translate(129.7295,210.5425)"><path
             d="m 0,0 v -25.254 c 0,-11.716 -9.497,-21.213 -21.213,-21.213 -11.716,0 -21.214,9.497 -21.214,21.213 V 0"
             style="fill:none;stroke:#000000;stroke-width:15;stroke-linecap:round;stroke-linejoin:round;stroke-miterlimit:10;stroke-dasharray:none;stroke-opacity:1"
             id="path3444" /></g><g
           id="g3446"
           transform="translate(157.0039,287.3149)"><path
             d="M 0,0 C 0,26.779 -21.709,48.488 -48.487,48.488 -75.267,48.488 -96.976,26.779 -96.976,0 v -32.325 c 0,-26.779 21.709,-48.488 48.489,-48.488 26.778,0 48.487,21.709 48.487,48.488 z"
             style="fill:none;stroke:#000000;stroke-width:15;stroke-linecap:round;stroke-linejoin:round;stroke-miterlimit:10;stroke-dasharray:none;stroke-opacity:1"
             id="path3448" /></g><g
           id="g3450"
           transform="translate(49.9268,99.4248)"><path
             d="M 0,0 V -26.264"
             style="fill:none;stroke:#000000;stroke-width:15;stroke-linecap:round;stroke-linejoin:round;stroke-miterlimit:10;stroke-dasharray:none;stroke-opacity:1"
             id="path3452" /></g><g
           id="g3454"
           transform="translate(357.0166,17.5181)"><path
             d="m 0,0 v -10.018 h -101.017 -101.016 v 81.877 c 0,17.449 11.201,32.927 27.775,38.382 l 52.028,17.123"
             style="fill:none;stroke:#000000;stroke-width:15;stroke-linecap:round;stroke-linejoin:round;stroke-miterlimit:10;stroke-dasharray:none;stroke-opacity:1"
             id="path3456" /></g><g
           id="g3458"
           transform="translate(277.2139,144.8823)"><path
             d="m 0,0 52.027,-17.124 c 16.575,-5.454 27.776,-20.932 27.776,-38.381 v -36.842"
             style="fill:none;stroke:#000000;stroke-width:15;stroke-linecap:round;stroke-linejoin:round;stroke-miterlimit:10;stroke-dasharray:none;stroke-opacity:1"
             id="path3460" /></g><g
           id="g3462"
           transform="translate(277.2139,170.1362)"><path
             d="m 0,0 v -25.254 c 0,-11.716 -9.498,-21.214 -21.214,-21.214 -11.716,0 -21.214,9.498 -21.214,21.214 V 0"
             style="fill:none;stroke:#000000;stroke-width:15;stroke-linecap:round;stroke-linejoin:round;stroke-miterlimit:10;stroke-dasharray:none;stroke-opacity:1"
             id="path3464" /></g><g
           id="g3466"
           transform="translate(304.4883,246.9087)"><path
             d="M 0,0 C 0,26.779 -21.709,48.488 -48.488,48.488 -75.268,48.488 -96.977,26.779 -96.977,0 v -32.325 c 0,-26.779 21.709,-48.488 48.489,-48.488 26.779,0 48.488,21.709 48.488,48.488 z"
             style="fill:none;stroke:#000000;stroke-width:15;stroke-linecap:round;stroke-linejoin:round;stroke-miterlimit:10;stroke-dasharray:none;stroke-opacity:1"
             id="path3468" /></g><g
           id="g3470"
           transform="translate(314.5898,59.0181)"><path
             d="M 0,0 V -51.518"
             style="fill:none;stroke:#000000;stroke-width:15;stroke-linecap:round;stroke-linejoin:round;stroke-miterlimit:10;stroke-dasharray:none;stroke-opacity:1"
             id="path3472" /></g><g
           id="g3474"
           transform="translate(197.4102,59.0181)"><path
             d="M 0,0 V -51.518"
             style="fill:none;stroke:#000000;stroke-width:15;stroke-linecap:round;stroke-linejoin:round;stroke-miterlimit:10;stroke-dasharray:none;stroke-opacity:1"
             id="path3476" /></g></g></g></g></svg>
