<?xml version="1.0" encoding="UTF-8"?>
<svg xmlns="http://www.w3.org/2000/svg" xmlns:xlink="http://www.w3.org/1999/xlink" version="1.1" id="_x33_9.tower" x="0px" y="0px" viewBox="0 0 195 195" style="enable-background:new 0 0 195 195;" xml:space="preserve" width="512" height="512">
<g id="icon_16_">
	<path d="M152,146h-5.5V31.8h-12.9V21.5H61.5v10.3H48.6V146h-5.5L31,173.5h133L152,146z M64.5,24.5h15.1v0H115v0h15.5v7.3H64.5V24.5   z M51.6,34.8h91.9V146H51.6V34.8z M68.8,170.5H35.6L45,149h23.8V170.5z M123,170.5H71.8V149H123V170.5z M126,170.5V149h24l9.4,21.5   H126z"/>
	<path d="M57.7,39.9v101.4h11.6V39.9H57.7z M66.3,138.2h-5.6V42.9h5.6V138.2z"/>
	<path d="M74.7,39.9v101.4h11.6V39.9H74.7z M83.3,138.2h-5.6V42.9h5.6V138.2z"/>
	<path d="M91.7,39.9v101.4h11.6V39.9H91.7z M100.3,138.2h-5.6V42.9h5.6V138.2z"/>
	<path d="M108.7,39.9v101.4h11.6V39.9H108.7z M117.3,138.2h-5.6V42.9h5.6V138.2z"/>
	<path d="M125.7,39.9v101.4h11.6V39.9H125.7z M134.3,138.2h-5.6V42.9h5.6V138.2z"/>
</g>
</svg>
