<?xml version="1.0" encoding="UTF-8" standalone="no"?>
<!-- Created with Inkscape (http://www.inkscape.org/) -->

<svg
   version="1.1"
   id="svg807"
   xml:space="preserve"
   width="682.66669"
   height="682.66669"
   viewBox="0 0 682.66669 682.66669"
   xmlns="http://www.w3.org/2000/svg"
   xmlns:svg="http://www.w3.org/2000/svg"><defs
     id="defs811"><clipPath
       clipPathUnits="userSpaceOnUse"
       id="clipPath821"><path
         d="M 0,512 H 512 V 0 H 0 Z"
         id="path819" /></clipPath></defs><g
     id="g813"
     transform="matrix(1.3333333,0,0,-1.3333333,0,682.66667)"><g
       id="g815"><g
         id="g817"
         clip-path="url(#clipPath821)"><g
           id="g823"
           transform="translate(189.5732,100.5201)"><path
             d="m 0,0 c 0,-35.368 -28.672,-64.04 -64.04,-64.04 -35.368,0 -64.04,28.672 -64.04,64.04 0,35.368 28.672,64.04 64.04,64.04 C -28.672,64.04 0,35.368 0,0 Z"
             style="fill:none;stroke:#000000;stroke-width:15;stroke-linecap:round;stroke-linejoin:round;stroke-miterlimit:10;stroke-dasharray:none;stroke-opacity:1"
             id="path825" /></g><g
           id="g827"
           transform="translate(160.0927,100.5201)"><path
             d="m 0,0 c 0,-19.087 -15.473,-34.56 -34.56,-34.56 -19.086,0 -34.559,15.473 -34.559,34.56 0,19.086 15.473,34.56 34.559,34.56 C -15.473,34.56 0,19.086 0,0 Z"
             style="fill:none;stroke:#000000;stroke-width:15;stroke-linecap:round;stroke-linejoin:round;stroke-miterlimit:10;stroke-dasharray:none;stroke-opacity:1"
             id="path829" /></g><g
           id="g831"
           transform="translate(468.7129,100.5201)"><path
             d="m 0,0 c 0,-35.368 -28.671,-64.04 -64.04,-64.04 -35.368,0 -64.04,28.672 -64.04,64.04 0,35.368 28.672,64.04 64.04,64.04 C -28.671,64.04 0,35.368 0,0 Z"
             style="fill:none;stroke:#000000;stroke-width:15;stroke-linecap:round;stroke-linejoin:round;stroke-miterlimit:10;stroke-dasharray:none;stroke-opacity:1"
             id="path833" /></g><g
           id="g835"
           transform="translate(439.2324,100.5201)"><path
             d="m 0,0 c 0,-19.087 -15.473,-34.56 -34.56,-34.56 -19.086,0 -34.559,15.473 -34.559,34.56 0,19.086 15.473,34.56 34.559,34.56 C -15.473,34.56 0,19.086 0,0 Z"
             style="fill:none;stroke:#000000;stroke-width:15;stroke-linecap:round;stroke-linejoin:round;stroke-miterlimit:10;stroke-dasharray:none;stroke-opacity:1"
             id="path837" /></g><g
           id="g839"
           transform="translate(488.8945,145.0718)"><path
             d="m 0,0 h -38.241 c 8.22,-8.482 14.118,-19.225 16.659,-31.213 H 0 c 8.619,0 15.606,6.987 15.606,15.607 C 15.606,-6.987 8.619,0 0,0 Z"
             style="fill:none;stroke:#000000;stroke-width:15;stroke-linecap:round;stroke-linejoin:round;stroke-miterlimit:10;stroke-dasharray:none;stroke-opacity:1"
             id="path841" /></g><g
           id="g843"
           transform="translate(110.3769,434.1363)"><path
             d="m 0,0 v -271.396 c 4.861,1.179 9.933,1.82 15.156,1.82 5.113,0 10.078,-0.617 14.844,-1.749 V 0 c 0,22.819 -18.564,41.384 -41.384,41.384 h -76.494 c -8.284,0 -15,-6.716 -15,-15 0,-8.284 6.716,-15 15,-15 h 76.494 C -5.106,11.384 0,6.277 0,0 Z"
             style="fill:none;stroke:#000000;stroke-width:15;stroke-linecap:round;stroke-linejoin:round;stroke-miterlimit:10;stroke-dasharray:none;stroke-opacity:1"
             id="path845" /></g><g
           id="g847"
           transform="translate(90.9736,475.5201)"><path
             d="m 0,0 h -68.475 c -8.284,0 -15,-6.716 -15,-15 0,-8.284 6.716,-15 15,-15 H 0 Z"
             style="fill:none;stroke:#000000;stroke-width:15;stroke-linecap:round;stroke-linejoin:round;stroke-miterlimit:10;stroke-dasharray:none;stroke-opacity:1"
             id="path849" /></g><g
           id="g851"
           transform="translate(307.164,287.8218)"><path
             d="m 0,0 h -129.042 c -4.308,0 -7.8,-3.492 -7.8,-7.799 v -127.152 c 0,-4.307 3.492,-7.799 7.8,-7.799 H 0 c 4.308,0 7.799,3.492 7.799,7.799 V -7.799 C 7.799,-3.492 4.308,0 0,0 Z"
             style="fill:none;stroke:#000000;stroke-width:15;stroke-linecap:round;stroke-linejoin:round;stroke-miterlimit:10;stroke-dasharray:none;stroke-opacity:1"
             id="path853" /></g><g
           id="g855"
           transform="translate(224.3925,287.8218)"><path
             d="m 0,0 v -51.452 c 0,-2.65 2.148,-4.798 4.799,-4.798 h 26.903 c 2.651,0 4.798,2.148 4.798,4.798 V 0 Z"
             style="fill:none;stroke:#000000;stroke-width:15;stroke-linecap:round;stroke-linejoin:round;stroke-miterlimit:10;stroke-dasharray:none;stroke-opacity:1"
             id="path857" /></g><g
           id="g859"
           transform="translate(404.6728,164.5601)"><path
             d="m 0,0 c 18.048,0 34.34,-7.477 45.98,-19.488 h 1.152 c 4.307,0 7.8,3.491 7.8,7.799 v 92.901 c 0,4.308 -3.493,7.8 -7.8,7.8 H -81.91 c -4.308,0 -7.8,-3.492 -7.8,-7.8 v -92.901 c 0,-4.308 3.492,-7.799 7.8,-7.799 h 35.93 C -34.34,-7.477 -18.047,0 0,0 Z"
             style="fill:none;stroke:#000000;stroke-width:15;stroke-linecap:round;stroke-linejoin:round;stroke-miterlimit:10;stroke-dasharray:none;stroke-opacity:1"
             id="path861" /></g><g
           id="g863"
           transform="translate(369.0341,253.5718)"><path
             d="m 0,0 v -51.452 c 0,-2.65 2.147,-4.798 4.798,-4.798 h 26.903 c 2.651,0 4.799,2.148 4.799,4.798 V 0 Z"
             style="fill:none;stroke:#000000;stroke-width:15;stroke-linecap:round;stroke-linejoin:round;stroke-miterlimit:10;stroke-dasharray:none;stroke-opacity:1"
             id="path865" /></g><g
           id="g867"
           transform="translate(369.0341,362.0713)"><path
             d="m 0,0 v -51.452 c 0,-2.65 2.147,-4.798 4.798,-4.798 h 26.903 c 2.651,0 4.799,2.148 4.799,4.798 V 0 Z"
             style="fill:none;stroke:#000000;stroke-width:15;stroke-linecap:round;stroke-linejoin:round;stroke-miterlimit:10;stroke-dasharray:none;stroke-opacity:1"
             id="path869" /></g><g
           id="g871"
           transform="translate(291,113.8584)"><path
             d="m 0,0 h 51.034 c 2.541,11.989 8.438,22.731 16.658,31.213 H -119.486 C -111.266,22.73 -105.368,11.989 -102.827,0 H -35"
             style="fill:none;stroke:#000000;stroke-width:15;stroke-linecap:round;stroke-linejoin:round;stroke-miterlimit:10;stroke-dasharray:none;stroke-opacity:1"
             id="path873" /></g><g
           id="g875"
           transform="translate(459.6045,323.3213)"><path
             d="m 0,0 v 30.951 c 0,4.307 -3.492,7.799 -7.8,7.799 h -129.042 c -4.307,0 -7.799,-3.492 -7.799,-7.799 V -61.95 c 0,-4.308 3.492,-7.8 7.799,-7.8 H -7.8 c 4.308,0 7.8,3.492 7.8,7.8 L 0,-35"
             style="fill:none;stroke:#000000;stroke-width:15;stroke-linecap:round;stroke-linejoin:round;stroke-miterlimit:10;stroke-dasharray:none;stroke-opacity:1"
             id="path877" /></g></g></g></g></svg>
