<svg id="Layer_1" enable-background="new 0 0 512 512" height="512" viewBox="0 0 512 512" width="512" xmlns="http://www.w3.org/2000/svg"><g clip-rule="evenodd" fill-rule="evenodd"><g><g><path d="m268.056 17.26h187.489c1.684 0 3.134.6 4.324 1.791l34.34 34.34c1.191 1.191 1.791 2.64 1.791 4.325v256.791c0 3.368-2.747 6.116-6.116 6.116h-221.828c-3.369 0-6.116-2.748-6.116-6.116v-291.131c0-3.368 2.747-6.116 6.116-6.116z" fill="#eceff1"/><path d="m268.056 17.26h11.189v303.362h-11.189c-3.369 0-6.116-2.748-6.116-6.116v-291.13c0-3.368 2.747-6.116 6.116-6.116z" fill="#d1d1d6"/><path d="m458.078 17.79c.649.297 1.247.717 1.791 1.261l34.34 34.34c.544.544.964 1.142 1.261 1.791h-34.334c-1.684 0-3.058-1.373-3.058-3.058z" fill="#a79ba7"/></g><g><path d="m45.208 397.339 67.191-38.928c12.61-7.306 25.433-12.486 39.293-7.99 15.453 5.011 40.687 15.772 66.421 20.414 9.552 3.097 15.507 12.661 12.909 22.359-2.599 9.7-10.795 14.701-22.359 12.912l8.996 1.44c10.308 1.649 19.776.238 28.798-5.016l64.6-37.626c50.216-29.246 57.591 15.747 40.895 26.026l-117.234 72.188c-10.782 6.638-22.58 8.187-34.811 4.908l-85.033-22.785-31.491 18.181c-6.055 3.495-13.845 1.409-17.34-4.646l-25.466-44.106c-3.492-6.05-1.413-13.83 4.631-17.331z" fill="#f6dccd"/><path d="m229.489 397.218c-3.591 7.017-10.99 10.41-20.827 8.888-13.929-3.683-27.842-7.46-41.759-11.189-3.728-.999-5.94-4.831-4.941-8.558.999-3.728 4.831-5.94 8.558-4.941z" fill="#f1cbbc"/><path d="m45.208 397.339 67.191-38.928c12.61-7.306 25.433-12.486 39.293-7.99 8.268 2.681 19.335 7.008 31.781 11.163l-130.159 75.147-12.737-22.061c-3.492-6.049-1.413-13.83 4.631-17.331z" fill="#f1cbbc"/><path d="m51.907 376.137 53.288 94.155c2.577 4.553.96 10.386-3.593 12.962l-18.125 10.258c-4.553 2.577-10.385.96-12.962-3.593l-53.288-94.156c-2.576-4.553-.959-10.386 3.593-12.962l18.125-10.258c4.553-2.575 10.386-.958 12.962 3.594z" fill="#d1d1d6"/><path d="m79.934 440.828 9.432 16.665 9.327 16.48c2.571 4.543.966 10.362-3.565 12.946l6.475-3.664c4.553-2.577 6.17-8.41 3.593-12.962l-9.358-16.535-18.791-33.203-18.812-33.24-6.326-11.178c-2.232-3.944-6.908-5.684-11.078-4.404l10.953 19.353 18.791 33.202 9.358 16.535z" fill="#b1b1b5"/></g><g><ellipse cx="227.362" cy="257.013" fill="#ffe177" rx="92.28" ry="92.28" transform="matrix(.707 -.707 .707 .707 -115.143 236.046)"/><path d="m227.361 164.733c50.965 0 92.28 41.315 92.28 92.28s-41.315 92.28-92.28 92.28c-2.09 0-4.162-.076-6.218-.213 48.065-3.199 86.063-43.192 86.063-92.067s-37.998-88.869-86.063-92.067c2.056-.137 4.128-.213 6.218-.213z" fill="#ffd064"/><circle cx="227.36" cy="257.012" fill="#ffc338" r="70.467"/><path d="m227.361 186.545c-38.918 0-70.467 31.549-70.467 70.467s31.549 70.467 70.467 70.467c1.913 0 3.808-.079 5.683-.229-36.26-2.894-64.784-33.234-64.784-70.238s28.524-67.344 64.784-70.239c-1.875-.149-3.77-.228-5.683-.228z" fill="#f5b829"/></g></g><path d="m227.366 319.471c-34.432 0-62.458-28.022-62.458-62.463 0-34.437 28.026-62.468 62.458-62.468s62.459 28.031 62.459 62.468c-.001 34.442-28.027 62.463-62.459 62.463zm0-140.932c-43.24 0-78.473 35.2-78.473 78.469 0 43.273 35.233 78.459 78.473 78.459 43.288 0 78.473-35.186 78.473-78.459 0-43.269-35.186-78.469-78.473-78.469zm30.428 93.999c-1.554-12.798-11.305-20.768-29.063-23.679-13.283-2.181-13.518-6.999-13.613-8.808-.33-6.854 7.159-8.912 8.667-9.251 6.218-1.408 13.848.49 16.957 7.899 1.696 4.079 6.406 5.992 10.457 4.282 4.098-1.71 6.029-6.402 4.286-10.471-4.098-9.802-11.87-15.158-20.113-17.169v-2.921c0-4.423-3.58-7.998-8.008-7.998-4.427 0-8.007 3.575-8.007 7.998v2.991c-12.718 3.259-20.82 13.368-20.254 25.407.471 8.921 5.511 20.292 27.037 23.829 14.884 2.44 15.497 7.612 15.78 9.821.235 1.931-.141 3.358-1.272 4.63-2.214 2.591-7.254 4.409-12.529 4.531-6.029.118-13.754-2.28-15.591-9.6-1.083-4.291-5.417-6.891-9.703-5.831-4.286 1.069-6.877 5.412-5.841 9.698 2.685 10.631 11.21 18.333 22.374 20.853v2.85c0 4.418 3.58 7.998 8.007 7.998 4.428 0 8.008-3.58 8.008-7.998v-2.713c7.16-1.408 13.377-4.687 17.381-9.317 4.098-4.709 5.841-10.597 5.04-17.031zm192.274-104.347c0 4.418-3.58 7.998-8.007 7.998h-126.189c-4.428 0-8.007-3.58-8.007-7.998s3.58-8.003 8.007-8.003h126.189c4.428 0 8.007 3.585 8.007 8.003zm-61.752-65.092c.471-.551.801-1.168.613-2.43-.141-1.39-.565-4.659-11.21-6.402-19.171-3.156-22.562-14.197-22.845-20.509-.518-10 5.888-18.441 16.109-21.55v-1.148c0-4.418 3.58-7.998 8.008-7.998s8.008 3.58 8.008 7.998v1.032c7.018 2.129 12.859 7.178 15.874 14.338 1.696 4.07-.188 8.761-4.287 10.471-4.051 1.71-8.761-.203-10.457-4.282-2.402-5.737-8.431-6.057-11.634-5.327-1.366.306-5.841 1.639-5.652 5.7.047.98.189 3.961 9.468 5.488 14.931 2.449 23.175 9.27 24.541 20.273.659 5.587-.848 10.707-4.428 14.819-3.156 3.67-7.913 6.34-13.424 7.659v.862c0 4.409-3.58 7.998-8.008 7.998s-8.008-3.589-8.008-7.998v-.999c-8.855-2.421-15.591-8.813-17.758-17.485-1.083-4.286 1.554-8.629 5.841-9.699 4.286-1.069 8.62 1.54 9.656 5.822 1.225 4.898 6.548 6.519 10.787 6.42 3.719-.09 7.346-1.343 8.806-3.053zm-341.26 292.604c.518 3.537-1.931 6.83-5.464 7.339-3.533.518-6.83-1.931-7.348-5.464-.518-3.537 1.931-6.83 5.464-7.339 3.533-.518 6.83 1.931 7.348 5.464zm300.705-11.555-117.239 72.19c-8.761 5.393-18.37 6.731-28.544 4.004l-85.068-22.793c-2.025-.546-4.192-.259-6.076.801l-10.928 6.321-29.722-52.553 46.208-26.759c14.131-8.168 23.599-10.287 32.831-7.31 3.862 1.272 8.384 2.901 13.613 4.781 15.073 5.45 33.773 12.209 53.273 15.789 5.511 2.011 8.573 7.32 7.207 12.534-1.507 5.549-5.699 7.965-12.435 7.207-9.373-1.941-18.323-4.489-27.838-7.197-4.522-1.3-9.232-2.642-14.084-3.942-4.239-1.14-8.667 1.389-9.797 5.662-1.13 4.258 1.413 8.648 5.653 9.788 4.71 1.272 9.373 2.591 13.848 3.872 9.892 2.831 29.628 7.617 29.675 7.631l8.055 1.309c12.529 1.997 23.693.038 34.103-6.01l64.578-37.631c17.146-9.972 30.617-11.399 35.233-3.74 3.059 5.137 1.788 13.39-2.546 16.046zm-250.069 92.143c.707-.41.942-1.352.565-2.063l-53.32-94.168c-.236-.48-.801-.758-1.319-.758-.236 0-.471.056-.707.189l-18.135 10.259c-.706.4-.989 1.352-.565 2.059l53.273 94.173c.283.438.659.622.942.697.283.071.707.122 1.131-.127zm209.325-118.271-64.578 37.63c-1.507.857-2.967 1.602-4.522 2.219.33-.829.612-1.691.848-2.581 3.58-13.49-4.38-27.56-18.182-32.039-.33-.108-.706-.198-1.036-.259-18.417-3.321-36.599-9.91-51.248-15.2-5.134-1.86-9.986-3.608-14.131-4.96-17.428-5.638-32.925 1.22-45.784 8.681l-46.114 26.688-3.391-6.02c-4.757-8.398-15.45-11.371-23.881-6.608l-18.135 10.249c-8.384 4.757-11.352 15.469-6.594 23.867l53.32 94.173c2.261 4.06 6.029 6.981 10.551 8.238 1.555.433 3.156.64 4.71.64 2.968 0 5.935-.758 8.573-2.27l18.135-10.259c8.431-4.753 11.399-15.459 6.641-23.862l-4.427-7.758 8.196-4.729 81.865 21.931c4.757 1.277 9.515 1.908 14.178 1.908 9.42 0 18.558-2.6 26.896-7.73l117.239-72.199c11.681-7.193 15.45-25.252 7.866-37.89-3.627-6.09-18.512-24.252-56.995-1.86zm3.768-45.402h177.201v-249.438h-26.849c-6.076 0-11.069-4.96-11.069-11.06v-26.858h-180.121v140.97c18.276 8.61 33.537 22.581 43.806 39.858.659-.188 1.366-.301 2.119-.301h126.189c4.428 0 8.007 3.589 8.007 8.003 0 4.418-3.58 7.998-8.007 7.998h-120.772c3.485 9.303 5.605 19.242 6.217 29.609h114.554c4.428 0 8.007 3.584 8.007 8.003 0 4.409-3.58 7.998-8.007 7.998h-114.93c-1.743 16.603-7.536 32.01-16.345 45.218zm-83.419 28.671c46.491 0 84.314-37.809 84.314-84.281 0-46.467-37.824-84.281-84.314-84.281s-84.267 37.814-84.267 84.281c0 46.472 37.776 84.281 84.267 84.281zm238.718-304.718 10.598 10.608h-10.598zm33.772 11.159-34.338-34.338c-2.685-2.704-6.123-4.131-9.939-4.131h-187.516c-7.772 0-14.131 6.331-14.131 14.112v136.937c-8.432-2.332-17.381-3.58-26.566-3.58-55.299 0-100.282 44.979-100.282 100.278 0 55.289 44.983 100.282 100.282 100.282 27.273 0 52.049-10.951 70.136-28.671h192.415c7.772 0 14.084-6.331 14.084-14.117v-256.791c0-3.82-1.413-7.273-4.145-9.981z"/></g></svg>