<svg id="Layer_1" height="512" viewBox="0 0 512 512" width="512" xmlns="http://www.w3.org/2000/svg" data-name="Layer 1"><g id="Layer_1-2" data-name="Layer_1"><path d="m452.39 432h-100.46a7 7 0 0 1 -6.1-10.45 103.1 103.1 0 1 0 -179.66 0 7 7 0 0 1 -6.1 10.45h-100.46a35.34 35.34 0 0 1 -35.29-35.3v-337.41a35.33 35.33 0 0 1 35.29-35.29h392.78a35.33 35.33 0 0 1 35.29 35.29v337.38a35.34 35.34 0 0 1 -35.29 35.33zm-89.15-14h89.15a21.32 21.32 0 0 0 21.29-21.3v-337.41a21.31 21.31 0 0 0 -21.29-21.29h-392.78a21.31 21.31 0 0 0 -21.29 21.29v337.38a21.32 21.32 0 0 0 21.29 21.33h89.15a117.1 117.1 0 1 1 214.48 0z"/><path d="m435.55 386.83h-69.81a7 7 0 0 1 -7-7.56c.23-2.8.34-5.62.34-8.37a103.1 103.1 0 0 0 -206.2 0c0 2.75.11 5.57.34 8.37a7 7 0 0 1 -7 7.56h-69.77a7 7 0 0 1 -7-7v-303.69a7 7 0 0 1 7-7h359.1a7 7 0 0 1 7 7v303.69a7 7 0 0 1 -7 7zm-62.46-14h55.46v-289.69h-345.1v289.69h55.47c0-.65 0-1.29 0-1.93a117.1 117.1 0 0 1 234.2 0c-.02.64-.02 1.28-.03 1.93z"/><path d="m435.55 148h-359.1a7 7 0 1 1 0-14h359.1a7 7 0 0 1 0 14z"/><path d="m139.23 115.57h-31a7 7 0 0 1 0-14h31a7 7 0 0 1 0 14z"/><path d="m202.55 115.57h-31a7 7 0 0 1 0-14h31a7 7 0 0 1 0 14z"/><path d="m265.86 115.57h-31a7 7 0 1 1 0-14h31a7 7 0 0 1 0 14z"/><path d="m256 488a117.1 117.1 0 1 1 117.1-117.1 117.23 117.23 0 0 1 -117.1 117.1zm0-220.2a103.1 103.1 0 1 0 103.1 103.1 103.22 103.22 0 0 0 -103.1-103.1z"/><path d="m271.15 454h-30.3a7 7 0 0 1 -7-7v-13.78c-2.12-.76-4.21-1.63-6.25-2.6l-9.75 9.75a7 7 0 0 1 -9.9 0l-21.42-21.37a7 7 0 0 1 0-9.9l9.75-9.75c-1-2-1.84-4.13-2.6-6.25h-13.78a7 7 0 0 1 -7-7v-30.3a7 7 0 0 1 7-7h13.78a65.36 65.36 0 0 1 2.6-6.25l-9.75-9.75a7 7 0 0 1 0-9.9l21.47-21.47a7 7 0 0 1 9.9 0l9.75 9.75a65.36 65.36 0 0 1 6.25-2.6v-13.78a7 7 0 0 1 7-7h30.3a7 7 0 0 1 7 7v13.78a65.36 65.36 0 0 1 6.25 2.6l9.75-9.75a7 7 0 0 1 5-2.05 7 7 0 0 1 4.95 2.05l21.42 21.42a7 7 0 0 1 0 9.9l-9.75 9.75a66.9 66.9 0 0 1 2.6 6.25h13.68a7 7 0 0 1 7 7v30.3a7 7 0 0 1 -7 7h-13.78a65.36 65.36 0 0 1 -2.6 6.25l9.75 9.75a7 7 0 0 1 0 9.9l-21.42 21.42a7 7 0 0 1 -9.9 0l-9.75-9.75a65.28 65.28 0 0 1 -6.25 2.59v13.79a7 7 0 0 1 -7 7zm-23.3-14h16.3v-11.94a7 7 0 0 1 5.21-6.77 51.33 51.33 0 0 0 12.82-5.29 7 7 0 0 1 8.47 1.1l8.45 8.45 11.52-11.55-8.45-8.45a7 7 0 0 1 -1.09-8.47 51.67 51.67 0 0 0 5.31-12.82 7 7 0 0 1 6.77-5.21h11.94v-16.3h-11.94a7 7 0 0 1 -6.77-5.21 51.52 51.52 0 0 0 -5.31-12.82 7 7 0 0 1 1.09-8.47l8.45-8.45-11.52-11.52-8.45 8.44a7 7 0 0 1 -8.47 1.1 51.67 51.67 0 0 0 -12.82-5.31 7 7 0 0 1 -5.21-6.77v-11.94h-16.3v11.94a7 7 0 0 1 -5.21 6.77 51.67 51.67 0 0 0 -12.82 5.31 7 7 0 0 1 -8.47-1.1l-8.45-8.44-11.52 11.52 8.44 8.45a7 7 0 0 1 1.1 8.47 51.67 51.67 0 0 0 -5.31 12.82 7 7 0 0 1 -6.77 5.21h-11.94v16.3h11.94a7 7 0 0 1 6.77 5.21 51.67 51.67 0 0 0 5.31 12.82 7 7 0 0 1 -1.09 8.47l-8.45 8.45 11.52 11.52 8.45-8.45a7 7 0 0 1 8.47-1.09 51.67 51.67 0 0 0 12.82 5.31 7 7 0 0 1 5.21 6.77z"/><path d="m256 402.37a31.47 31.47 0 1 1 31.47-31.47 31.51 31.51 0 0 1 -31.47 31.47zm0-48.94a17.47 17.47 0 1 0 17.47 17.47 17.49 17.49 0 0 0 -17.47-17.47z"/><path d="m387.4 229.87h-212.12a7 7 0 0 1 -7-7v-44a7 7 0 0 1 7-7h212.12a20 20 0 0 1 20 20v18a20 20 0 0 1 -20 20zm-205.12-14h205.12a6 6 0 0 0 6-6v-18a6 6 0 0 0 -6-6h-205.12z"/><path d="m175.28 229.87a7 7 0 0 1 -2.28-.38l-63.63-22a7 7 0 0 1 0-13.23l63.63-22a7 7 0 0 1 9.29 6.62v44a7 7 0 0 1 -7 7zm-42.18-29 35.19 12.15v-24.28z"/><path d="m345.36 229.87a7 7 0 0 1 -7-7v-44a7 7 0 1 1 14 0v44a7 7 0 0 1 -7 7z"/><g id="_389622808" data-name=" 389622808"><g id="_389622856" data-name=" 389622856"><path d="m309.93 208.12a7 7 0 0 1 -7-7v-.44a7 7 0 0 1 14 0v.44a7 7 0 0 1 -7 7z"/></g><g id="_389622760" data-name=" 389622760"><path d="m276.86 208.12a7 7 0 0 1 -7-7v-.44a7 7 0 0 1 14 0v.44a7 7 0 0 1 -7 7z"/></g><g id="_389622880" data-name=" 389622880"><path d="m243.79 208.12a7 7 0 0 1 -7-7v-.44a7 7 0 0 1 14 0v.44a7 7 0 0 1 -7 7z"/></g><g id="_389622904" data-name=" 389622904"><path d="m210.71 208.12a7 7 0 0 1 -7-7v-.44a7 7 0 0 1 14 0v.44a7 7 0 0 1 -7 7z"/></g></g></g></svg>